<svg width="64" height="20" viewBox="0 0 64 20" fill="none" xmlns="http://www.w3.org/2000/svg">
<path d="M0 0H4.74279C6.56085 0 7.95207 0.375869 8.91644 1.12761C9.8808 1.87934 10.363 3.16689 10.363 4.99025C10.363 6.17384 10.1258 7.10151 9.65157 7.77328C9.17729 8.42905 8.48959 8.82891 7.58846 8.97286C9.80176 9.40471 10.9084 11.0041 10.9084 13.7712C10.9084 15.6425 10.4578 17.058 9.55671 18.0177C8.65558 18.9614 7.3197 19.4332 5.54906 19.4332H0V0ZM4.69536 7.94122C5.70715 7.94122 6.39486 7.7173 6.75847 7.26945C7.13789 6.80562 7.3276 6.06188 7.3276 5.03824C7.3276 4.04658 7.08256 3.37482 6.59247 3.02294C6.11819 2.65507 5.31982 2.47114 4.19737 2.47114H3.48595V7.94122H4.69536ZM4.83764 16.9381C5.86524 16.9381 6.57666 16.6902 6.97189 16.1943C7.36713 15.6985 7.56474 14.8828 7.56474 13.7472C7.56474 12.5796 7.34341 11.7319 6.90075 11.2041C6.4739 10.6603 5.74668 10.3884 4.71907 10.3884H3.48595V16.9381H4.83764Z" fill="url(#paint0_linear_633_562)"/>
<path d="M17.1366 19.6491C15.619 19.6491 14.5044 19.2253 13.793 18.3776C13.0816 17.5139 12.7259 16.2423 12.7259 14.5629V10.4363C12.7259 8.74094 13.0816 7.46939 13.793 6.62168C14.5202 5.77398 15.6348 5.35013 17.1366 5.35013C18.686 5.35013 19.7768 5.78997 20.4092 6.66966C21.0574 7.54936 21.3814 8.87689 21.3814 10.6523V12.6436H15.9272V15.3786C15.9272 16.0504 16.0221 16.5382 16.2118 16.8421C16.4173 17.146 16.7335 17.2979 17.1604 17.2979C17.5714 17.2979 17.8639 17.154 18.0378 16.8661C18.2275 16.5622 18.3223 16.1064 18.3223 15.4986V14.323H21.3577V15.2826C21.3577 16.7061 21.002 17.7938 20.2906 18.5455C19.5792 19.2812 18.5279 19.6491 17.1366 19.6491ZM18.3223 11.0361V9.7166C18.3223 8.99685 18.2354 8.48503 18.0615 8.18114C17.8876 7.86125 17.5793 7.7013 17.1366 7.7013C16.6782 7.7013 16.362 7.86924 16.1881 8.20513C16.0142 8.54101 15.9272 9.16479 15.9272 10.0765V11.0361H18.3223Z" fill="url(#paint1_linear_633_562)"/>
<path d="M23.7834 0H26.2259L30.8976 11.0841V0H33.7907V19.4332H31.4667L26.7714 7.82126V19.4332H23.7834V0Z" fill="url(#paint2_linear_633_562)"/>
<path d="M36.7056 0H44.6024V2.44714H40.1916V8.10916H43.7961V10.5803H40.1916V19.4332H36.7056V0Z" fill="url(#paint3_linear_633_562)"/>
<path d="M48.4224 2.61508H45.3633V0H54.92V2.61508H51.932V19.4332H48.4224V2.61508Z" fill="url(#paint4_linear_633_562)"/>
<path d="M59.9923 19.6491C58.8383 19.6491 57.8897 19.3372 57.1467 18.7134C56.4036 18.0897 55.874 17.178 55.5578 15.9784L57.9529 15.0427C58.3166 16.5942 58.9805 17.3699 59.9449 17.3699C60.3085 17.3699 60.5852 17.2739 60.7749 17.082C60.9804 16.8901 61.0832 16.6262 61.0832 16.2903C61.0832 15.9224 60.9725 15.5865 60.7512 15.2826C60.5299 14.9628 60.1346 14.5629 59.5655 14.0831L57.9292 12.6436C57.2336 12.0678 56.7198 11.508 56.3878 10.9642C56.0558 10.4204 55.8898 9.75658 55.8898 8.97286C55.8898 7.88524 56.2534 7.01354 56.9807 6.35777C57.7237 5.68601 58.6565 5.35013 59.7789 5.35013C60.854 5.35013 61.7314 5.67801 62.4112 6.33378C63.091 6.97356 63.5336 7.84525 63.7391 8.94887L61.6286 9.86055C61.5021 9.22077 61.2887 8.70095 60.9883 8.30109C60.7038 7.88524 60.3322 7.67731 59.8738 7.67731C59.5418 7.67731 59.273 7.78128 59.0675 7.9892C58.8778 8.19713 58.7829 8.46104 58.7829 8.78092C58.7829 9.03683 58.8936 9.30874 59.1149 9.59664C59.3363 9.88454 59.6683 10.2204 60.1109 10.6043L61.7709 12.1397C62.4823 12.7635 63.0277 13.3633 63.4072 13.9391C63.8024 14.4989 64 15.1787 64 15.9784C64 17.146 63.6206 18.0497 62.8617 18.6895C62.1187 19.3292 61.1622 19.6491 59.9923 19.6491Z" fill="url(#paint5_linear_633_562)"/>
<defs>
<linearGradient id="paint0_linear_633_562" x1="32" y1="0" x2="32" y2="19.6491" gradientUnits="userSpaceOnUse">
<stop stop-color="#91DCF0"/>
<stop offset="1" stop-color="#0E478A"/>
</linearGradient>
<linearGradient id="paint1_linear_633_562" x1="32" y1="0" x2="32" y2="19.6491" gradientUnits="userSpaceOnUse">
<stop stop-color="#91DCF0"/>
<stop offset="1" stop-color="#0E478A"/>
</linearGradient>
<linearGradient id="paint2_linear_633_562" x1="32" y1="0" x2="32" y2="19.6491" gradientUnits="userSpaceOnUse">
<stop stop-color="#91DCF0"/>
<stop offset="1" stop-color="#0E478A"/>
</linearGradient>
<linearGradient id="paint3_linear_633_562" x1="32" y1="0" x2="32" y2="19.6491" gradientUnits="userSpaceOnUse">
<stop stop-color="#91DCF0"/>
<stop offset="1" stop-color="#0E478A"/>
</linearGradient>
<linearGradient id="paint4_linear_633_562" x1="32" y1="0" x2="32" y2="19.6491" gradientUnits="userSpaceOnUse">
<stop stop-color="#91DCF0"/>
<stop offset="1" stop-color="#0E478A"/>
</linearGradient>
<linearGradient id="paint5_linear_633_562" x1="32" y1="0" x2="32" y2="19.6491" gradientUnits="userSpaceOnUse">
<stop stop-color="#91DCF0"/>
<stop offset="1" stop-color="#0E478A"/>
</linearGradient>
</defs>
</svg>
