<svg width="34" height="34" viewBox="0 0 34 34" fill="none" xmlns="http://www.w3.org/2000/svg">
<path d="M22.25 5.7998H25.125C25.8875 5.7998 26.6188 6.09481 27.1579 6.61991C27.6971 7.14502 28 7.85722 28 8.59984V28.2001C28 28.9427 27.6971 29.6549 27.1579 30.18C26.6188 30.7051 25.8875 31.0001 25.125 31.0001H7.875C7.1125 31.0001 6.38123 30.7051 5.84207 30.18C5.3029 29.6549 5 28.9427 5 28.2001V8.59984C5 7.85722 5.3029 7.14502 5.84207 6.61991C6.38123 6.09481 7.1125 5.7998 7.875 5.7998H10.75" stroke="white" stroke-width="2.5" stroke-linecap="round" stroke-linejoin="round"/>
<path d="M20.812 3H12.187C11.3931 3 10.7495 3.62681 10.7495 4.40002V7.20005C10.7495 7.97326 11.3931 8.60006 12.187 8.60006H20.812C21.6059 8.60006 22.2495 7.97326 22.2495 7.20005V4.40002C22.2495 3.62681 21.6059 3 20.812 3Z" stroke="white" stroke-width="2.5" stroke-linecap="round" stroke-linejoin="round"/>
</svg>
