<svg width="36" height="36" viewBox="0 0 36 36" fill="none" xmlns="http://www.w3.org/2000/svg">
<path d="M21.6294 17.5119L34.1711 4.99943C34.7203 4.45021 35.0288 3.70531 35.0288 2.9286C35.0288 2.15189 34.7203 1.40699 34.1711 0.857767C33.6219 0.308548 32.877 0 32.1002 0C31.3235 0 30.5786 0.308548 30.0294 0.857767L17.5169 13.3994L5.00441 0.857767C4.45519 0.308548 3.71029 -5.78696e-09 2.93358 0C2.15687 5.78697e-09 1.41196 0.308548 0.862745 0.857767C0.313526 1.40699 0.00497759 2.15189 0.00497758 2.9286C0.00497758 3.70531 0.313526 4.45021 0.862745 4.99943L13.4044 17.5119L0.862745 30.0244C0.58937 30.2956 0.372388 30.6182 0.224313 30.9736C0.0762372 31.329 0 31.7102 0 32.0953C0 32.4803 0.0762372 32.8615 0.224313 33.2169C0.372388 33.5724 0.58937 33.895 0.862745 34.1661C1.13389 34.4395 1.45647 34.6565 1.8119 34.8045C2.16732 34.9526 2.54854 35.0288 2.93358 35.0288C3.31861 35.0288 3.69984 34.9526 4.05526 34.8045C4.41068 34.6565 4.73327 34.4395 5.00441 34.1661L17.5169 21.6244L30.0294 34.1661C30.3006 34.4395 30.6231 34.6565 30.9786 34.8045C31.334 34.9526 31.7152 35.0288 32.1002 35.0288C32.4853 35.0288 32.8665 34.9526 33.2219 34.8045C33.5774 34.6565 33.8999 34.4395 34.1711 34.1661C34.4445 33.895 34.6614 33.5724 34.8095 33.2169C34.9576 32.8615 35.0338 32.4803 35.0338 32.0953C35.0338 31.7102 34.9576 31.329 34.8095 30.9736C34.6614 30.6182 34.4445 30.2956 34.1711 30.0244L21.6294 17.5119Z" fill="url(#paint0_linear_603_567)"/>
<defs>
<linearGradient id="paint0_linear_603_567" x1="17.5169" y1="0" x2="17.5169" y2="35.0288" gradientUnits="userSpaceOnUse">
<stop offset="0.5" stop-color="#91DCF0"/>
<stop offset="1" stop-color="#5199EE"/>
</linearGradient>
</defs>
</svg>
