<svg width="472" height="304" viewBox="0 0 472 304" fill="none" xmlns="http://www.w3.org/2000/svg">
<path d="M91.102 242.994C91.102 242.994 81.6766 256.976 93.6417 259.197L97.9641 258.142C97.9641 258.142 90.4387 254.583 95.6542 246.993L91.102 242.994Z" fill="#0F57AC"/>
<path d="M377.407 259.807L299.805 295.722L194.372 296.14L269.487 262.472L377.407 259.807Z" fill="url(#paint0_linear_0_217)"/>
<path d="M269.485 262.472L197.84 203.101L118.426 224.053L118.572 224.871L194.371 296.141L269.485 262.472Z" fill="white"/>
<path d="M269.485 262.472L198.252 203.389L118.975 224.437L194.371 296.141L269.485 262.472Z" fill="url(#paint1_linear_0_217)"/>
<path d="M394.448 172.061L303.181 182.481L269.487 262.472L377.407 259.807L394.448 172.061Z" fill="white"/>
<path d="M393.29 172.989L303.339 182.694L269.487 262.472L377.408 259.807L393.29 172.989Z" fill="url(#paint2_linear_0_217)"/>
<path d="M299.806 295.722L216.162 230.417L108.611 240.598L194.373 296.141L299.806 295.722Z" fill="white"/>
<path d="M299.806 295.722L215.305 232.374L108.611 240.598L194.373 296.141L299.806 295.722Z" fill="url(#paint3_linear_0_217)"/>
<path d="M443.178 183.631L376.968 198.992L299.805 295.722L377.407 259.807L443.178 183.631Z" fill="white"/>
<path d="M443.178 183.631L377.758 200.054L299.805 295.722L377.407 259.807L443.178 183.631Z" fill="url(#paint4_linear_0_217)"/>
<path d="M162.424 259.809C162.424 259.809 214.695 295.421 215.458 296.188L220.633 296.218L222.715 296.228L240.527 296.33L240.528 296.331L242.6 296.343L250.595 296.388L196.401 258.513C192.971 256.116 188.735 255.167 184.614 255.872C184.579 255.877 184.545 255.883 184.511 255.889L162.424 259.809Z" fill="#0F57AC"/>
<path d="M182.337 256.035C200.701 268.822 226.837 287.037 239.902 296.201L239.903 296.202L241.975 296.214C228.564 286.789 198.806 266.059 183.989 255.744L182.337 256.035Z" fill="url(#paint5_linear_0_217)"/>
<path d="M166.587 258.831C182.562 269.953 205.404 285.87 220.01 296.089L222.091 296.099C206.397 285.111 180.481 267.06 168.239 258.537L166.587 258.831Z" fill="url(#paint6_linear_0_217)"/>
<path d="M142.585 303.284C142.731 303.274 142.878 303.264 143.024 303.254C143.542 303.217 144.058 303.175 144.569 303.132C149.603 302.697 154.287 301.894 158.14 300.219C158.717 299.969 159.273 299.699 159.811 299.407C163.299 297.517 165.937 294.734 167.283 290.597C167.283 290.597 171.168 254.166 192.284 256.556C191.502 256.467 190.601 255.933 189.806 255.759C187.131 255.174 184.337 255.129 181.614 255.292C180.379 255.366 179.148 255.488 177.92 255.65C176.991 255.773 176.063 255.919 175.138 256.086C172.971 256.476 170.824 256.977 168.702 257.549C164.533 258.669 160.357 260.312 157.166 263.22C156.354 263.958 155.606 264.778 154.939 265.693C154.829 265.843 154.721 265.996 154.614 266.152C154.613 266.153 154.612 266.155 154.612 266.157C153.018 268.487 151.839 271.322 150.75 273.885C149.55 276.711 148.548 279.621 147.758 282.588C146.722 286.477 142.983 299.275 142.585 303.284Z" fill="#0F57AC"/>
<path d="M158.14 300.22C158.717 299.97 159.273 299.7 159.811 299.408C160.252 298.413 160.676 297.361 161.082 296.253C162.925 291.231 164.402 285.047 165.476 277.874C166.947 268.039 170.515 260.972 176.081 256.865C176.675 256.426 177.288 256.022 177.92 255.654C176.991 255.777 176.063 255.923 175.138 256.09C169.449 260.414 165.802 267.682 164.304 277.699C162.708 288.368 160.429 295.48 158.14 300.22Z" fill="url(#paint7_linear_0_217)"/>
<path d="M143.024 303.254C143.543 303.217 144.058 303.176 144.57 303.132C146.227 300.764 147.731 297.758 149.045 294.176C150.888 289.154 152.365 282.97 153.439 275.797C154.168 270.916 155.416 266.715 157.167 263.221C156.356 263.959 155.607 264.779 154.941 265.694C154.83 265.845 154.723 265.997 154.616 266.154C154.615 266.155 154.614 266.156 154.614 266.159C153.575 268.974 152.792 272.131 152.269 275.623C149.943 291.156 146.175 299.149 143.024 303.254Z" fill="url(#paint8_linear_0_217)"/>
<path d="M323.213 284.887L327.568 282.872L329.41 282.02L351.332 271.874L352.959 271.121L356.132 269.653C371.518 238.264 402.079 230.325 402.079 230.325L382.553 231.67L377.785 231.998L372.821 232.339C348.064 239.212 323.213 284.887 323.213 284.887Z" fill="#0F57AC"/>
<path d="M351.332 271.875L352.958 271.121C360.218 254.969 370.275 245.668 377.83 240.577C387.01 234.393 394.532 232.935 394.607 232.922L394.389 231.756C394.074 231.816 386.55 233.274 377.169 239.595C371.669 243.3 366.684 247.917 362.353 253.314C358.004 258.734 354.31 264.959 351.332 271.875Z" fill="url(#paint9_linear_0_217)"/>
<path d="M327.568 282.872C330.075 278.374 336.281 267.899 345.101 257.461C351.932 249.376 358.975 242.89 366.034 238.182C369.948 235.573 373.872 233.508 377.786 231.998L382.554 231.67C367.56 235.889 354.735 247.899 346.021 258.209C338.086 267.596 332.28 277.015 329.41 282.02L327.568 282.872Z" fill="url(#paint10_linear_0_217)"/>
<path d="M372.822 232.339C393.177 231.626 403.628 246.699 408.32 256.767C408.32 256.768 408.424 257.005 408.622 257.424C408.703 257.604 408.782 257.782 408.86 257.959C409.018 258.317 409.194 258.661 409.387 258.993C411.565 263.312 416.805 272.596 422.573 274.76C422.639 274.693 423.102 274.354 423.861 273.856C424.191 273.641 424.576 273.395 425.009 273.129C427.275 271.736 430.844 269.785 434.525 268.631C435.117 268.445 435.713 268.281 436.306 268.142C438.377 267.656 440.424 267.491 442.234 267.887C442.127 267.863 441.827 267.444 441.744 267.362C441.453 267.074 441.155 266.793 440.854 266.516C440.251 265.962 439.629 265.427 438.99 264.914C436.696 263.068 433.982 261.82 431.814 259.825C429.811 257.98 428.225 255.678 427.246 253.135C426.487 251.164 425.462 249.219 424.595 247.281C423.694 245.27 422.757 243.274 421.671 241.357C419.529 237.58 416.72 234.068 412.792 232.054C411.257 231.267 409.606 230.734 407.91 230.428C407.706 230.391 407.5 230.358 407.292 230.327C406.418 230.199 405.546 230.089 404.68 229.997C397.704 229.236 391.048 229.507 385.638 230.087C384.338 230.225 383.108 230.382 381.965 230.547C381.965 230.547 381.957 230.548 381.956 230.548C376.37 231.35 372.822 232.339 372.822 232.339Z" fill="#0F57AC"/>
<path d="M404.681 229.994C415.55 235.388 419.369 244.778 424.039 256.261C426.15 261.454 429.143 265.311 432.934 267.727C433.476 268.073 434.008 268.372 434.526 268.631C435.118 268.445 435.714 268.281 436.307 268.142C432.848 266.746 428.285 263.561 425.136 255.815C422.07 248.275 419.62 242.571 415.997 237.816C413.706 234.81 411.056 232.376 407.911 230.426C407.707 230.389 407.501 230.356 407.293 230.325C406.419 230.197 405.547 230.087 404.681 229.994Z" fill="url(#paint11_linear_0_217)"/>
<path d="M381.956 230.546C402.979 233.818 411.103 253.844 414.747 262.823C415.175 263.876 415.544 264.786 415.871 265.522C417.692 269.603 420.914 272.199 423.861 273.856C424.19 273.641 424.575 273.395 425.009 273.129C422.078 271.58 418.756 269.079 416.954 265.039C416.634 264.322 416.268 263.421 415.845 262.377C412.327 253.705 404.722 234.962 385.639 230.085H385.638L381.965 230.544L381.956 230.546Z" fill="url(#paint12_linear_0_217)"/>
<path d="M161.935 147.634C161.935 147.634 147.899 149.687 142.662 162.195L143.606 175.821C143.606 175.821 151.549 159.268 162.401 161.221C162.401 161.221 157.414 152.403 161.935 147.634Z" fill="#0F57AC"/>
<path d="M405.369 159.261C405.369 159.261 413.515 169.666 426.047 168.122L436.626 161.061C436.626 161.061 419.575 162.286 416.138 152.604C416.138 152.604 411.314 160.714 405.369 159.261Z" fill="#0F57AC"/>
<path d="M362.459 202.911C362.459 202.911 366.119 196.705 362.844 190.649L357.158 186.682C357.158 186.682 361.17 195.096 356.94 198.767C356.94 198.766 362.015 199.602 362.459 202.911Z" fill="#0F57AC"/>
<path d="M468.396 216.07C468.396 216.07 477.096 224.248 467.462 233.081C467.462 233.081 463.551 226.807 457.264 225.078C457.264 225.078 467.114 216.873 452.73 205.22C452.73 205.22 457.558 207.307 468.396 216.07Z" fill="#0F57AC"/>
<path d="M456.516 205.97C453.149 203.971 449.356 203.248 445.446 204.344C442.544 205.157 439.908 206.744 437.579 208.628C434.826 210.854 432.445 213.52 430.308 216.335C430.308 216.335 436.448 219.219 439.382 222.797C439.382 222.797 448.398 210.305 468.399 216.077C468.132 216 467.663 215.214 467.464 214.996C467.112 214.607 466.75 214.228 466.38 213.855C465.581 213.049 464.747 212.279 463.889 211.534C461.924 209.826 459.845 208.251 457.718 206.751C457.324 206.472 456.923 206.212 456.516 205.97Z" fill="#0F57AC"/>
<path d="M6.95064 219.049C6.95064 219.049 -1.81977 217.724 0.34322 208.214C0.34322 208.214 5.38228 210.404 9.95463 208.796C9.95463 208.796 7.39603 218.012 21.1072 219.056C21.1072 219.056 17.274 219.825 6.95064 219.049Z" fill="#0F57AC"/>
<path d="M18.4762 220.203C21.3783 220.001 24.0021 218.834 25.9305 216.502C27.3615 214.772 28.3032 212.679 28.9322 210.533C29.6761 207.999 30.0065 205.351 30.125 202.717C30.125 202.717 25.1547 203.554 21.8498 202.604C21.8498 202.604 21.6093 214.096 6.94459 219.045C7.14004 218.978 7.75837 219.261 7.97277 219.312C8.35183 219.401 8.73327 219.481 9.11706 219.553C9.94625 219.708 10.7813 219.827 11.6188 219.919C13.5413 220.132 15.4769 220.216 17.4101 220.234C17.7702 220.238 18.1244 220.227 18.4762 220.203Z" fill="#0F57AC"/>
<path d="M303.327 0C303.327 0 295.036 14.4727 298.87 20.5964C299.528 20.7978 306.359 26.5744 306.359 26.5744L303.327 0Z" fill="#0C5093"/>
<path d="M298.857 20.6202L303.38 24.6454L304.234 25.4061L322.242 41.437L323.082 42.1859L327.639 46.2431C327.639 46.2431 334.707 46.3331 334.945 36.1048C334.954 35.7257 332.934 33.229 329.911 29.7098C329.607 29.3543 329.29 28.9882 328.966 28.6125C323.635 22.4521 315.831 13.7879 310.239 7.61918C309.893 7.23645 309.557 6.86557 309.23 6.50535H309.229C305.749 2.66974 303.345 0.0439453 303.345 0.0439453C303.345 0.0439453 303.326 14.8484 298.857 20.6202Z" fill="#0F57AC"/>
<path d="M308.835 9.57883C308.211 13.245 306.751 18.5712 303.381 24.6452L304.235 25.4059C307.782 19.0819 309.3 13.5234 309.945 9.71035C310.069 8.96977 310.168 8.27185 310.242 7.61896C309.896 7.23623 309.56 6.86534 309.233 6.50513C309.152 7.42226 309.027 8.45315 308.835 9.57883Z" fill="url(#paint13_linear_0_217)"/>
<path d="M322.242 41.4368L323.082 42.1856C323.923 41.3029 324.693 40.3976 325.392 39.4722C327.24 37.0241 328.587 34.4339 329.396 31.7725C329.616 31.0473 329.784 30.3589 329.911 29.7095C329.607 29.3541 329.29 28.9879 328.966 28.6123C328.838 29.488 328.632 30.4655 328.307 31.5177C327.486 34.1838 325.778 37.7197 322.242 41.4368Z" fill="url(#paint14_linear_0_217)"/>
<path d="M266.806 25.4736C266.806 25.4736 265.62 31.7608 290.519 36.7968C296.009 37.907 301.903 40.9096 309.933 42.6562L266.806 25.4736Z" fill="#0C5093"/>
<path d="M266.748 25.5163C268.51 27.3991 270.595 29.064 272.927 30.4645C275.259 31.8651 277.837 33.0015 280.584 33.8286L280.761 33.8819L284.853 35.1118L317.89 45.051H317.892L319.946 45.6695L326.144 47.5346C324.167 46.2537 310.597 25.5352 304.827 23.8965C303.875 23.6251 302.2 23.4889 300.068 23.4486C299.389 23.4356 298.666 23.4332 297.904 23.4391C297.902 23.4379 297.902 23.4391 297.902 23.4391C290.158 23.4948 278.509 24.4392 271.868 25.0352C271.286 25.0885 270.742 25.1371 270.243 25.1833C268.077 25.3812 266.748 25.5163 266.748 25.5163Z" fill="#0F57AC"/>
<path d="M300.068 23.4472C303.737 26.0612 310.018 32.0356 319.946 45.6693L317.892 45.0508H317.89C311.748 36.7054 306.409 30.494 301.988 26.5517C300.217 24.9746 298.875 24.0172 297.904 23.4377H297.902L300.068 23.4472Z" fill="url(#paint15_linear_0_217)"/>
<path d="M280.76 33.8818C279.389 32.9421 278.143 32.0202 277.041 31.16C274.056 28.8316 271.725 26.6561 270.242 25.1808C270.741 25.1346 271.284 25.086 271.867 25.0327C273.325 26.4475 275.423 28.3612 278.03 30.3933C279.913 31.8615 282.217 33.5097 284.852 35.1105L280.76 33.8818Z" fill="url(#paint16_linear_0_217)"/>
<path d="M289.886 14.5C289.886 14.5 286.83 20.1047 303.874 30.9622C307.633 33.3557 311.045 37.6238 316.501 41.2414L289.886 14.5Z" fill="#0C5093"/>
<path d="M289.826 14.5249C290.199 15.7312 290.671 16.9007 291.228 18.0216C291.429 18.4233 291.639 18.8191 291.862 19.2066C292.151 19.7125 292.459 20.2066 292.785 20.6889C294.062 22.5765 295.615 24.278 297.403 25.7308L297.518 25.8244L300.181 27.9869L321.678 45.448H321.68L323.017 46.5334L327.05 49.8097C326.401 48.7681 324.968 39.6928 323.075 32.2017C322.62 30.3994 322.139 28.6907 321.635 27.206C320.84 24.8634 319.989 23.0813 319.102 22.3881C318.477 21.8999 317.261 21.3584 315.667 20.7955C315.16 20.6166 314.615 20.4353 314.038 20.2528H314.037C308.177 18.3972 299.068 16.4125 293.856 15.3354C293.397 15.2418 292.971 15.1529 292.579 15.0735C290.874 14.7263 289.826 14.5249 289.826 14.5249Z" fill="#0F57AC"/>
<path d="M315.664 20.7954C317.532 24.1511 320.215 31.3022 323.016 46.5344L321.678 45.449H321.677C319.913 36.1094 318.023 28.9679 316.045 24.1808C315.252 22.2647 314.569 21.0371 314.036 20.2539H314.034L315.664 20.7954Z" fill="url(#paint17_linear_0_217)"/>
<path d="M297.519 25.8243C296.809 24.605 296.187 23.4331 295.65 22.356C294.2 19.4364 293.19 16.8224 292.579 15.0735C292.971 15.1541 293.397 15.2417 293.855 15.3354C294.469 17.0215 295.393 19.3333 296.659 21.8821C297.574 23.7223 298.744 25.8362 300.182 27.988L297.519 25.8243Z" fill="url(#paint18_linear_0_217)"/>
<path d="M377.068 34.5144C377.068 34.5144 371.529 50.2491 364.389 51.3439C363.808 50.9766 354.972 49.5784 354.972 49.5784L377.068 34.5144Z" fill="#0C5093"/>
<path d="M364.379 51.3691L358.379 50.574L357.246 50.4247L333.348 47.2586L332.232 47.1105L326.184 46.3095C326.184 46.3095 321.498 41.0152 329.084 34.1533C329.364 33.8997 332.573 33.7978 337.213 33.7883C337.681 33.786 338.165 33.7872 338.661 33.7872C346.806 33.8002 358.461 34.049 366.783 34.2552C367.298 34.2671 367.799 34.2801 368.285 34.2931H368.286C373.463 34.4235 377.02 34.5277 377.02 34.5277C377.02 34.5277 365.827 44.2145 364.379 51.3691Z" fill="#0F57AC"/>
<path d="M366.216 36.6001C363.849 39.4676 360.771 44.0533 358.376 50.5739L357.243 50.4246C359.713 43.6066 362.928 38.8254 365.393 35.8477C365.871 35.2694 366.336 34.7386 366.781 34.2551C367.296 34.267 367.798 34.28 368.283 34.293C367.641 34.9519 366.943 35.7197 366.216 36.6001Z" fill="url(#paint19_linear_0_217)"/>
<path d="M333.347 47.2586L332.231 47.1105C332.349 45.8971 332.532 44.7217 332.776 43.5877C333.421 40.5886 334.502 37.8763 335.987 35.5254C336.392 34.8844 336.803 34.3073 337.212 33.7883C337.68 33.786 338.164 33.7872 338.659 33.7872C338.08 34.4555 337.476 35.2505 336.891 36.1843C335.41 38.5482 333.85 42.1516 333.347 47.2586Z" fill="url(#paint20_linear_0_217)"/>
<path d="M381.644 78.8142C381.644 78.8142 377.66 83.8205 357.582 68.2529C353.155 64.8202 347.032 62.3176 340.464 57.3765L381.644 78.8142Z" fill="#0C5093"/>
<path d="M381.65 78.8867C379.074 78.7812 376.451 78.2907 373.867 77.4387C371.285 76.5879 368.74 75.3781 366.32 73.8365L366.163 73.7382L362.559 71.4418L333.454 52.913L333.453 52.9119L331.643 51.7601L326.182 48.2835C328.444 48.9435 352.99 45.6874 357.999 48.9862C358.826 49.5301 360.024 50.7091 361.447 52.2981C361.9 52.804 362.375 53.3491 362.869 53.9309C362.871 53.9309 362.87 53.9321 362.87 53.9321C367.887 59.8342 374.782 69.2733 378.67 74.692C379.011 75.1684 379.328 75.6115 379.62 76.0203C380.883 77.793 381.65 78.8867 381.65 78.8867Z" fill="#0F57AC"/>
<path d="M362.87 53.933C361.795 53.5752 360.195 53.183 357.844 52.8725C351.972 52.1 343.782 52.1142 333.454 52.914L333.453 52.9128L331.643 51.7611C348.447 50.3747 357.072 51.2278 361.447 52.299L362.87 53.933Z" fill="url(#paint21_linear_0_217)"/>
<path d="M362.559 71.4426C365.493 72.3929 368.246 73.0612 370.587 73.5281C373.827 74.1739 376.647 74.5128 378.67 74.6929C379.011 75.1692 379.328 75.6124 379.62 76.0212C377.534 75.8612 374.365 75.5176 370.653 74.7782C369.282 74.5045 367.77 74.1632 366.163 73.739L362.559 71.4426Z" fill="url(#paint22_linear_0_217)"/>
<path d="M374.871 54.1664C374.871 54.1664 372.627 60.142 353.272 54.3264C349.006 53.0443 343.545 53.2481 337.244 51.4778L374.871 54.1664Z" fill="#0C5093"/>
<path d="M374.892 54.2282C373.735 54.733 372.543 55.1406 371.329 55.4499C370.894 55.5612 370.457 55.6596 370.018 55.7437C369.446 55.8551 368.871 55.9452 368.293 56.0127C366.03 56.2793 363.728 56.2141 361.461 55.8089L361.315 55.7828L357.939 55.1785L330.68 50.3037H330.679L328.984 50.0004L323.87 49.0856C325.083 48.896 332.888 44.0532 339.794 40.5932C341.455 39.7602 343.063 39.0078 344.516 38.4201C346.809 37.4911 348.712 36.9721 349.818 37.1913C350.596 37.3454 351.799 37.9129 353.267 38.753C353.734 39.0208 354.226 39.3147 354.742 39.6323H354.743C359.975 42.8576 367.428 48.4612 371.649 51.7043C372.02 51.9899 372.364 52.2553 372.682 52.5006C374.055 53.5646 374.892 54.2282 374.892 54.2282Z" fill="#0F57AC"/>
<path d="M354.741 39.6333C353.799 39.7412 352.423 40.0255 350.455 40.6761C345.541 42.3042 338.899 45.5378 330.678 50.3036H330.677L328.982 50.0003C342.34 42.1703 349.505 39.5302 353.265 38.7529L354.741 39.6333Z" fill="url(#paint23_linear_0_217)"/>
<path d="M357.939 55.1786C360.505 54.8622 362.871 54.3669 364.861 53.8586C367.617 53.1535 369.971 52.3431 371.647 51.7056C372.018 51.9911 372.363 52.2566 372.68 52.5018C370.957 53.1808 368.317 54.124 365.161 54.9333C363.995 55.2319 362.702 55.5258 361.314 55.7841L357.939 55.1786Z" fill="url(#paint24_linear_0_217)"/>
<path d="M305.849 41.0777C305.91 40.977 306.62 39.8276 308.045 38.6178C308.045 38.6166 308.046 38.6166 308.046 38.6166C311.033 36.0761 317.163 33.2619 327.041 39.26C341.571 48.0854 343.113 50.0038 341.5 62.5853C341.469 62.827 341.437 63.0723 341.404 63.3223C341.404 63.3223 342.155 62.1813 343.644 59.4666V59.4654C344.268 58.3279 345.023 56.9131 345.905 55.1902C345.905 55.1902 349.556 48.4539 348.498 41.2898C348.376 40.4639 348.191 39.6321 347.931 38.8038C347.103 36.1697 345.512 33.5759 342.744 31.3341C334.542 24.6937 326.079 23.1841 320.177 24.4579C318.719 24.7719 317.418 25.2554 316.316 25.8751C315.795 26.1666 315.32 26.4889 314.891 26.8373C311.646 29.4808 308.803 34.6921 307.207 38.0265C306.382 39.7506 305.89 40.9734 305.849 41.0777Z" fill="#0F57AC"/>
<path d="M305.848 41.078C305.91 40.9773 306.619 39.8279 308.044 38.6181C308.044 38.6169 308.045 38.6169 308.045 38.6169C310.744 35.3844 314.919 33.2776 318.911 33.6461C325.764 34.2813 333.337 38.4546 340.237 45.3959C345.471 50.6629 343.077 58.5024 341.498 62.5856C341.467 62.8273 341.435 63.0726 341.402 63.3226C341.402 63.3226 342.153 62.1816 343.642 59.4669V59.4657C344.861 55.0139 345.363 49.0739 340.978 44.66C333.905 37.5445 326.103 33.2622 319.007 32.6058C315.72 32.3012 312.171 33.5205 309.27 35.9508C308.509 36.5883 307.817 37.2851 307.206 38.0268C306.381 39.7509 305.89 40.9737 305.848 41.078Z" fill="url(#paint25_linear_0_217)"/>
<path d="M316.315 25.8752C317.911 25.4948 319.555 25.3917 321.167 25.5884C329.062 26.5518 337.943 31.1481 346.173 38.5314C347.145 39.4047 347.908 40.3301 348.497 41.2899C348.375 40.464 348.19 39.6322 347.929 38.8039C347.601 38.4425 347.247 38.0918 346.87 37.7541C338.483 30.2286 329.4 25.5387 321.293 24.5504C320.922 24.5054 320.55 24.4746 320.176 24.458C318.717 24.7732 317.417 25.2566 316.315 25.8752Z" fill="url(#paint26_linear_0_217)"/>
<path d="M260.539 82.8881L408.988 134.947L413.984 127.578L413.985 127.575L424.897 111.636L318.036 40.3314L291.561 34.3997L265.201 75.6517L260.539 82.8881Z" fill="white"/>
<path d="M260.767 82.5906L409.295 134.426L413.983 127.578L413.985 127.575L424.897 111.636L318.036 40.3314L291.561 34.3997L265.201 75.6517L260.767 82.5906Z" fill="url(#paint27_linear_0_217)"/>
<path d="M260.539 82.888L209.219 42.2616L222.618 18.9529L290.981 35.5324L260.539 82.888Z" fill="white"/>
<path d="M260.768 82.5906L209.297 42.0388L222.618 18.9529L290.981 35.5324L260.768 82.5906Z" fill="#BFBFBF"/>
<path d="M408.988 134.947L301.753 63.6379L318.036 40.3315L424.897 111.636L408.988 134.947Z" fill="white"/>
<path d="M409.295 134.427L302.02 63.2303L318.036 40.3315L424.897 111.636L409.295 134.427Z" fill="url(#paint28_linear_0_217)"/>
<path d="M318.036 40.3313L222.617 18.9529L209.217 42.2616L301.752 63.6377L318.036 40.3313Z" fill="white"/>
<path d="M318.036 40.3313L222.617 18.9529L209.295 42.0388L302.019 63.23L318.036 40.3313Z" fill="url(#paint29_linear_0_217)"/>
<path d="M341.385 89.3553L345.829 92.3046L346.323 92.6328L346.817 92.9598L366.965 106.332L367.46 106.66L367.952 106.988L371.619 109.421L387.288 86.5399L383.215 83.8217L382.723 83.4934L382.23 83.164L362.585 70.0564L362.094 69.727L361.601 69.3987L356.95 66.2954L341.385 89.3553Z" fill="#0F57AC"/>
<path d="M366.963 106.332L367.458 106.66L367.951 106.988L383.214 83.8217L382.721 83.4935L382.229 83.1641L366.963 106.332Z" fill="url(#paint30_linear_0_217)"/>
<path d="M345.827 92.3047L346.321 92.633L346.815 92.96L362.584 70.0566L362.092 69.7272L361.6 69.3989L345.827 92.3047Z" fill="url(#paint31_linear_0_217)"/>
<path d="M233.801 47.6388L238.567 48.7076L239.175 48.8427L239.784 48.9801L253.105 51.9662L253.726 52.1048L254.348 52.2446L259.413 53.3798L275.602 30.8247L269.784 29.5201L269.162 29.3803L268.54 29.2416L253.563 25.8859L252.954 25.7497L252.345 25.6122L248.25 24.6951L233.801 47.6388Z" fill="#0F57AC"/>
<path d="M253.106 51.9662L253.727 52.1049L254.349 52.2447L269.785 29.5202L269.163 29.3803L268.541 29.2417L253.106 51.9662Z" fill="url(#paint32_linear_0_217)"/>
<path d="M238.566 48.7075L239.174 48.8426L239.782 48.98L253.561 25.8858L252.952 25.7495L252.343 25.6121L238.566 48.7075Z" fill="url(#paint33_linear_0_217)"/>
<path d="M269.897 216.096C269.897 216.096 240.193 205.9 241.988 228.505L245.976 235.773C245.976 235.773 248.738 220.51 264.908 226.224L269.897 216.096Z" fill="#0F57AC"/>
<defs>
<linearGradient id="paint0_linear_0_217" x1="269.219" y1="353.555" x2="291.288" y2="253.565" gradientUnits="userSpaceOnUse">
<stop stop-color="#666666"/>
<stop offset="1" stop-color="#F2F2F2"/>
</linearGradient>
<linearGradient id="paint1_linear_0_217" x1="186.643" y1="343.925" x2="198.943" y2="181.146" gradientUnits="userSpaceOnUse">
<stop offset="0.2544" stop-color="#999999"/>
<stop offset="0.7307" stop-color="#E6E6E6"/>
<stop offset="1" stop-color="#F2F2F2"/>
</linearGradient>
<linearGradient id="paint2_linear_0_217" x1="365.72" y1="332.349" x2="325.163" y2="197.035" gradientUnits="userSpaceOnUse">
<stop offset="0.2544" stop-color="#999999"/>
<stop offset="0.7307" stop-color="#E6E6E6"/>
<stop offset="1" stop-color="#F2F2F2"/>
</linearGradient>
<linearGradient id="paint3_linear_0_217" x1="201.139" y1="330.046" x2="210.364" y2="144.136" gradientUnits="userSpaceOnUse">
<stop offset="0.1326" stop-color="#999999"/>
<stop offset="0.3034" stop-color="#E6E6E6"/>
<stop offset="1" stop-color="#F2F2F2"/>
</linearGradient>
<linearGradient id="paint4_linear_0_217" x1="389.877" y1="294.046" x2="342.232" y2="153.239" gradientUnits="userSpaceOnUse">
<stop offset="0.1326" stop-color="#999999"/>
<stop offset="0.3199" stop-color="#E6E6E6"/>
<stop offset="1" stop-color="#F2F2F2"/>
</linearGradient>
<linearGradient id="paint5_linear_0_217" x1="214.875" y1="266.136" x2="207.704" y2="292.459" gradientUnits="userSpaceOnUse">
<stop stop-color="#EFBF17"/>
<stop offset="0.4215" stop-color="#F4DCA0"/>
<stop offset="0.7827" stop-color="#755718"/>
<stop offset="1" stop-color="#BD9540"/>
</linearGradient>
<linearGradient id="paint6_linear_0_217" x1="198.628" y1="261.709" x2="191.457" y2="288.032" gradientUnits="userSpaceOnUse">
<stop stop-color="#EFBF17"/>
<stop offset="0.4215" stop-color="#F4DCA0"/>
<stop offset="0.7827" stop-color="#755718"/>
<stop offset="1" stop-color="#BD9540"/>
</linearGradient>
<linearGradient id="paint7_linear_0_217" x1="174.195" y1="254.637" x2="161.526" y2="301.142" gradientUnits="userSpaceOnUse">
<stop stop-color="#EFBF17"/>
<stop offset="0.4215" stop-color="#F4DCA0"/>
<stop offset="0.7827" stop-color="#755718"/>
<stop offset="1" stop-color="#BD9540"/>
</linearGradient>
<linearGradient id="paint8_linear_0_217" x1="155.915" y1="262.88" x2="144.786" y2="303.734" gradientUnits="userSpaceOnUse">
<stop stop-color="#EFBF17"/>
<stop offset="0.4215" stop-color="#F4DCA0"/>
<stop offset="0.7827" stop-color="#755718"/>
<stop offset="1" stop-color="#BD9540"/>
</linearGradient>
<linearGradient id="paint9_linear_0_217" x1="394.606" y1="251.816" x2="351.331" y2="251.816" gradientUnits="userSpaceOnUse">
<stop stop-color="#EFBF17"/>
<stop offset="0.4215" stop-color="#F4DCA0"/>
<stop offset="0.7827" stop-color="#755718"/>
<stop offset="1" stop-color="#BD9540"/>
</linearGradient>
<linearGradient id="paint10_linear_0_217" x1="382.553" y1="257.271" x2="327.568" y2="257.271" gradientUnits="userSpaceOnUse">
<stop stop-color="#EFBF17"/>
<stop offset="0.4215" stop-color="#F4DCA0"/>
<stop offset="0.7827" stop-color="#755718"/>
<stop offset="1" stop-color="#BD9540"/>
</linearGradient>
<linearGradient id="paint11_linear_0_217" x1="436.307" y1="249.313" x2="404.68" y2="249.313" gradientUnits="userSpaceOnUse">
<stop stop-color="#EFBF17"/>
<stop offset="0.4215" stop-color="#F4DCA0"/>
<stop offset="0.7827" stop-color="#755718"/>
<stop offset="1" stop-color="#BD9540"/>
</linearGradient>
<linearGradient id="paint12_linear_0_217" x1="425.008" y1="251.97" x2="381.956" y2="251.97" gradientUnits="userSpaceOnUse">
<stop stop-color="#EFBF17"/>
<stop offset="0.4215" stop-color="#F4DCA0"/>
<stop offset="0.7827" stop-color="#755718"/>
<stop offset="1" stop-color="#BD9540"/>
</linearGradient>
<linearGradient id="paint13_linear_0_217" x1="308.349" y1="16.6615" x2="305.365" y2="15.3585" gradientUnits="userSpaceOnUse">
<stop stop-color="#EFBF17"/>
<stop offset="0.4215" stop-color="#F4DCA0"/>
<stop offset="0.7827" stop-color="#755718"/>
<stop offset="1" stop-color="#BD9540"/>
</linearGradient>
<linearGradient id="paint14_linear_0_217" x1="327.664" y1="36.1151" x2="325.062" y2="34.9788" gradientUnits="userSpaceOnUse">
<stop stop-color="#EFBF17"/>
<stop offset="0.4215" stop-color="#F4DCA0"/>
<stop offset="0.7827" stop-color="#755718"/>
<stop offset="1" stop-color="#BD9540"/>
</linearGradient>
<linearGradient id="paint15_linear_0_217" x1="320.732" y1="35.3775" x2="297.127" y2="33.5742" gradientUnits="userSpaceOnUse">
<stop stop-color="#EFBF17"/>
<stop offset="0.4215" stop-color="#F4DCA0"/>
<stop offset="0.7827" stop-color="#755718"/>
<stop offset="1" stop-color="#BD9540"/>
</linearGradient>
<linearGradient id="paint16_linear_0_217" x1="285.198" y1="30.5953" x2="269.918" y2="29.4279" gradientUnits="userSpaceOnUse">
<stop stop-color="#EFBF17"/>
<stop offset="0.4215" stop-color="#F4DCA0"/>
<stop offset="0.7827" stop-color="#755718"/>
<stop offset="1" stop-color="#BD9540"/>
</linearGradient>
<linearGradient id="paint17_linear_0_217" x1="327.145" y1="37.0751" x2="309.964" y2="29.5724" gradientUnits="userSpaceOnUse">
<stop stop-color="#EFBF17"/>
<stop offset="0.4215" stop-color="#F4DCA0"/>
<stop offset="0.7827" stop-color="#755718"/>
<stop offset="1" stop-color="#BD9540"/>
</linearGradient>
<linearGradient id="paint18_linear_0_217" x1="301.995" y1="23.8349" x2="290.873" y2="18.9781" gradientUnits="userSpaceOnUse">
<stop stop-color="#EFBF17"/>
<stop offset="0.4215" stop-color="#F4DCA0"/>
<stop offset="0.7827" stop-color="#755718"/>
<stop offset="1" stop-color="#BD9540"/>
</linearGradient>
<linearGradient id="paint19_linear_0_217" x1="361.173" y1="41.5953" x2="364.109" y2="43.0026" gradientUnits="userSpaceOnUse">
<stop stop-color="#EFBF17"/>
<stop offset="0.4215" stop-color="#F4DCA0"/>
<stop offset="0.7827" stop-color="#755718"/>
<stop offset="1" stop-color="#BD9540"/>
</linearGradient>
<linearGradient id="paint20_linear_0_217" x1="333.832" y1="39.6749" x2="336.393" y2="40.9021" gradientUnits="userSpaceOnUse">
<stop stop-color="#EFBF17"/>
<stop offset="0.4215" stop-color="#F4DCA0"/>
<stop offset="0.7827" stop-color="#755718"/>
<stop offset="1" stop-color="#BD9540"/>
</linearGradient>
<linearGradient id="paint21_linear_0_217" x1="338.917" y1="44.4423" x2="355.71" y2="61.1353" gradientUnits="userSpaceOnUse">
<stop stop-color="#EFBF17"/>
<stop offset="0.4215" stop-color="#F4DCA0"/>
<stop offset="0.7827" stop-color="#755718"/>
<stop offset="1" stop-color="#BD9540"/>
</linearGradient>
<linearGradient id="paint22_linear_0_217" x1="365.751" y1="68.2306" x2="376.622" y2="79.0364" gradientUnits="userSpaceOnUse">
<stop stop-color="#EFBF17"/>
<stop offset="0.4215" stop-color="#F4DCA0"/>
<stop offset="0.7827" stop-color="#755718"/>
<stop offset="1" stop-color="#BD9540"/>
</linearGradient>
<linearGradient id="paint23_linear_0_217" x1="333.443" y1="40.6937" x2="350.349" y2="48.7967" gradientUnits="userSpaceOnUse">
<stop stop-color="#EFBF17"/>
<stop offset="0.4215" stop-color="#F4DCA0"/>
<stop offset="0.7827" stop-color="#755718"/>
<stop offset="1" stop-color="#BD9540"/>
</linearGradient>
<linearGradient id="paint24_linear_0_217" x1="359.896" y1="51.094" x2="370.84" y2="56.3394" gradientUnits="userSpaceOnUse">
<stop stop-color="#EFBF17"/>
<stop offset="0.4215" stop-color="#F4DCA0"/>
<stop offset="0.7827" stop-color="#755718"/>
<stop offset="1" stop-color="#BD9540"/>
</linearGradient>
<linearGradient id="paint25_linear_0_217" x1="312.015" y1="32.621" x2="343.626" y2="60.8322" gradientUnits="userSpaceOnUse">
<stop stop-color="#EFBF17"/>
<stop offset="0.4215" stop-color="#F4DCA0"/>
<stop offset="0.7827" stop-color="#755718"/>
<stop offset="1" stop-color="#BD9540"/>
</linearGradient>
<linearGradient id="paint26_linear_0_217" x1="320.141" y1="21.5885" x2="345.712" y2="44.4101" gradientUnits="userSpaceOnUse">
<stop stop-color="#EFBF17"/>
<stop offset="0.4215" stop-color="#F4DCA0"/>
<stop offset="0.7827" stop-color="#755718"/>
<stop offset="1" stop-color="#BD9540"/>
</linearGradient>
<linearGradient id="paint27_linear_0_217" x1="335.474" y1="85.3575" x2="507.397" y2="74.5071" gradientUnits="userSpaceOnUse">
<stop stop-color="#CCCCCC"/>
<stop offset="1" stop-color="#F2F2F2"/>
</linearGradient>
<linearGradient id="paint28_linear_0_217" x1="386.27" y1="53.9826" x2="332.435" y2="132.874" gradientUnits="userSpaceOnUse">
<stop stop-color="#CCCCCC"/>
<stop offset="1" stop-color="#F2F2F2"/>
</linearGradient>
<linearGradient id="paint29_linear_0_217" x1="241.029" y1="121.215" x2="268.681" y2="23.5148" gradientUnits="userSpaceOnUse">
<stop offset="0.1326" stop-color="#999999"/>
<stop offset="0.3199" stop-color="#E6E6E6"/>
<stop offset="1" stop-color="#F2F2F2"/>
</linearGradient>
<linearGradient id="paint30_linear_0_217" x1="378.834" y1="96.3826" x2="371.345" y2="93.7708" gradientUnits="userSpaceOnUse">
<stop stop-color="#EFBF17"/>
<stop offset="0.4215" stop-color="#F4DCA0"/>
<stop offset="0.7827" stop-color="#755718"/>
<stop offset="1" stop-color="#BD9540"/>
</linearGradient>
<linearGradient id="paint31_linear_0_217" x1="358.217" y1="82.5787" x2="350.195" y2="79.7813" gradientUnits="userSpaceOnUse">
<stop stop-color="#EFBF17"/>
<stop offset="0.4215" stop-color="#F4DCA0"/>
<stop offset="0.7827" stop-color="#755718"/>
<stop offset="1" stop-color="#BD9540"/>
</linearGradient>
<linearGradient id="paint32_linear_0_217" x1="265.39" y1="42.1198" x2="257.499" y2="39.368" gradientUnits="userSpaceOnUse">
<stop stop-color="#EFBF17"/>
<stop offset="0.4215" stop-color="#F4DCA0"/>
<stop offset="0.7827" stop-color="#755718"/>
<stop offset="1" stop-color="#BD9540"/>
</linearGradient>
<linearGradient id="paint33_linear_0_217" x1="249.199" y1="38.3907" x2="242.926" y2="36.2029" gradientUnits="userSpaceOnUse">
<stop stop-color="#EFBF17"/>
<stop offset="0.4215" stop-color="#F4DCA0"/>
<stop offset="0.7827" stop-color="#755718"/>
<stop offset="1" stop-color="#BD9540"/>
</linearGradient>
</defs>
</svg>
