<svg width="27" height="27" viewBox="0 0 27 27" fill="none" xmlns="http://www.w3.org/2000/svg">
<path d="M18.005 8.82936C17.1763 8.44605 16.288 8.16274 15.359 8.00164C15.3507 8.00001 15.3422 8.00106 15.3345 8.00464C15.3268 8.00823 15.3205 8.01416 15.3162 8.02164C15.2025 8.22662 15.0757 8.49383 14.9869 8.70493C14.0017 8.55396 13.0001 8.55396 12.0149 8.70493C11.9159 8.47098 11.8044 8.24286 11.6807 8.02164C11.6765 8.01407 11.6701 8.008 11.6625 8.00423C11.6548 8.00046 11.6463 7.99917 11.6379 8.00053C10.7095 8.16163 9.82118 8.44494 8.99191 8.82881C8.98478 8.83188 8.97873 8.83711 8.97458 8.84381C7.28896 11.3853 6.82693 13.864 7.05388 16.3116C7.05452 16.3176 7.05633 16.3234 7.05922 16.3287C7.0621 16.3339 7.066 16.3385 7.07067 16.3422C8.05453 17.0768 9.15188 17.6365 10.3168 17.9976C10.3249 18.0002 10.3336 18.0002 10.3417 17.9976C10.3498 17.9951 10.357 17.99 10.3623 17.9832C10.613 17.6394 10.8351 17.2746 11.0264 16.8927C11.029 16.8875 11.0305 16.8818 11.0308 16.8759C11.0311 16.87 11.0302 16.8641 11.0281 16.8586C11.026 16.8532 11.0228 16.8482 11.0186 16.8441C11.0145 16.84 11.0096 16.8369 11.0041 16.8349C10.6542 16.6998 10.3152 16.5367 9.99017 16.3472C9.98433 16.3438 9.97941 16.3389 9.97585 16.3331C9.97229 16.3272 9.9702 16.3206 9.96977 16.3137C9.96934 16.3068 9.97059 16.2999 9.97339 16.2936C9.97619 16.2874 9.98047 16.2819 9.98584 16.2778C10.0541 16.2261 10.1223 16.1722 10.1873 16.1183C10.1932 16.1135 10.2002 16.1104 10.2077 16.1094C10.2152 16.1084 10.2227 16.1096 10.2296 16.1128C12.3566 17.0927 14.6603 17.0927 16.7624 16.1128C16.7693 16.1094 16.777 16.1081 16.7845 16.109C16.7921 16.1099 16.7993 16.1129 16.8052 16.1178C16.8702 16.1722 16.9379 16.2261 17.0067 16.2778C17.0121 16.2818 17.0165 16.2872 17.0194 16.2934C17.0223 16.2996 17.0236 16.3065 17.0233 16.3134C17.023 16.3203 17.021 16.3269 17.0175 16.3329C17.0141 16.3388 17.0092 16.3437 17.0035 16.3472C16.6796 16.5383 16.3427 16.7 15.989 16.8344C15.9835 16.8364 15.9786 16.8396 15.9744 16.8437C15.9703 16.8479 15.9671 16.8529 15.965 16.8584C15.9629 16.8639 15.9619 16.8698 15.9623 16.8758C15.9626 16.8817 15.9641 16.8875 15.9668 16.8927C16.1617 17.2744 16.3849 17.6377 16.6303 17.9826C16.6354 17.9897 16.6425 17.995 16.6506 17.9978C16.6588 18.0006 16.6676 18.0007 16.6758 17.9982C17.8427 17.638 18.9418 17.0781 19.9268 16.3422C19.9316 16.3388 19.9356 16.3343 19.9386 16.3291C19.9416 16.324 19.9435 16.3182 19.9441 16.3122C20.2149 13.4824 19.4902 11.0237 18.0218 8.84492C18.0182 8.83784 18.0122 8.83232 18.005 8.82936ZM11.3443 14.8212C10.7041 14.8212 10.176 14.2273 10.176 13.4991C10.176 12.7702 10.6938 12.1769 11.3443 12.1769C11.9997 12.1769 12.5229 12.7752 12.5126 13.4991C12.5126 14.2279 11.9948 14.8212 11.3443 14.8212ZM15.664 14.8212C15.0232 14.8212 14.4956 14.2273 14.4956 13.4991C14.4956 12.7702 15.0129 12.1769 15.664 12.1769C16.3194 12.1769 16.8426 12.7752 16.8323 13.4991C16.8323 14.2279 16.3199 14.8212 15.664 14.8212Z" fill="url(#paint0_linear_1164_1019)"/>
<path d="M5.4 2.7C4.68392 2.7 3.99716 2.98446 3.49081 3.49081C2.98446 3.99716 2.7 4.68392 2.7 5.4V21.6C2.7 22.3161 2.98446 23.0028 3.49081 23.5092C3.99716 24.0155 4.68392 24.3 5.4 24.3H21.6C22.3161 24.3 23.0028 24.0155 23.5092 23.5092C24.0155 23.0028 24.3 22.3161 24.3 21.6V5.4C24.3 4.68392 24.0155 3.99716 23.5092 3.49081C23.0028 2.98446 22.3161 2.7 21.6 2.7H5.4ZM5.4 0H21.6C23.0322 0 24.4057 0.568927 25.4184 1.58162C26.4311 2.59432 27 3.96783 27 5.4V21.6C27 23.0322 26.4311 24.4057 25.4184 25.4184C24.4057 26.4311 23.0322 27 21.6 27H5.4C3.96783 27 2.59432 26.4311 1.58162 25.4184C0.568927 24.4057 0 23.0322 0 21.6V5.4C0 3.96783 0.568927 2.59432 1.58162 1.58162C2.59432 0.568927 3.96783 0 5.4 0Z" fill="url(#paint1_linear_1164_1019)"/>
<defs>
<linearGradient id="paint0_linear_1164_1019" x1="13.5" y1="8" x2="13.5" y2="18" gradientUnits="userSpaceOnUse">
<stop stop-color="#1971D9"/>
<stop offset="1" stop-color="#043A7A"/>
</linearGradient>
<linearGradient id="paint1_linear_1164_1019" x1="13.5" y1="0" x2="13.5" y2="27" gradientUnits="userSpaceOnUse">
<stop stop-color="#1971D9"/>
<stop offset="1" stop-color="#043A7A"/>
</linearGradient>
</defs>
</svg>
