<svg width="147" height="42" viewBox="0 0 147 42" fill="none" xmlns="http://www.w3.org/2000/svg">
<rect width="147" height="42" rx="21" fill="url(#paint0_linear_633_1065)"/>
<path d="M51.7931 27V15.8H59.1051V17.688H53.8411V25.112H59.1691V27H51.7931ZM52.7531 22.2V20.344H58.2891V22.2H52.7531ZM64.7553 27.16C63.998 27.16 63.3206 26.9733 62.7233 26.6C62.1366 26.216 61.6673 25.6987 61.3153 25.048C60.974 24.3867 60.8033 23.6293 60.8033 22.776C60.8033 21.9333 60.974 21.1813 61.3153 20.52C61.6566 19.8587 62.1206 19.3413 62.7073 18.968C63.3046 18.584 63.9766 18.392 64.7233 18.392C65.1286 18.392 65.518 18.456 65.8913 18.584C66.2753 18.712 66.6166 18.888 66.9153 19.112C67.2246 19.3253 67.4646 19.5653 67.6353 19.832C67.8166 20.0987 67.9126 20.376 67.9233 20.664L67.3953 20.728V15.16H69.3633V27H67.4593L67.4113 25.032L67.7953 25.064C67.7846 25.32 67.694 25.5707 67.5233 25.816C67.3526 26.0613 67.1233 26.2853 66.8353 26.488C66.558 26.6907 66.238 26.856 65.8753 26.984C65.5126 27.1013 65.1393 27.16 64.7553 27.16ZM65.1233 25.496C65.582 25.496 65.9873 25.384 66.3393 25.16C66.6913 24.9253 66.9633 24.6053 67.1553 24.2C67.358 23.784 67.4593 23.3093 67.4593 22.776C67.4593 22.2427 67.358 21.7733 67.1553 21.368C66.9633 20.9627 66.6913 20.6427 66.3393 20.408C65.9873 20.1733 65.582 20.056 65.1233 20.056C64.654 20.056 64.2433 20.1733 63.8913 20.408C63.55 20.6427 63.278 20.9627 63.0753 21.368C62.8726 21.7733 62.7713 22.2427 62.7713 22.776C62.7713 23.3093 62.8726 23.784 63.0753 24.2C63.278 24.6053 63.55 24.9253 63.8913 25.16C64.2433 25.384 64.654 25.496 65.1233 25.496ZM71.8213 27V18.568H73.7733V27H71.8213ZM72.7813 16.776C72.3866 16.776 72.0773 16.68 71.8533 16.488C71.64 16.2853 71.5333 16.0027 71.5333 15.64C71.5333 15.2987 71.6453 15.0267 71.8693 14.824C72.0933 14.6107 72.3973 14.504 72.7813 14.504C73.176 14.504 73.48 14.6053 73.6933 14.808C73.9173 15 74.0293 15.2773 74.0293 15.64C74.0293 15.9707 73.9173 16.2427 73.6933 16.456C73.4693 16.6693 73.1653 16.776 72.7813 16.776ZM77.1972 27V16.424H79.1492V27H77.1972ZM75.5332 20.392V18.568H80.9892V20.392H75.5332ZM87.2258 27V21.608C87.2258 21.1493 87.0711 20.792 86.7618 20.536C86.4631 20.2693 86.0738 20.136 85.5938 20.136C85.1458 20.136 84.7405 20.2267 84.3778 20.408C84.0151 20.5787 83.6791 20.856 83.3698 21.24L82.1538 20.024C82.6551 19.4907 83.2098 19.0853 83.8178 18.808C84.4258 18.5307 85.0818 18.392 85.7858 18.392C86.4578 18.392 87.0338 18.4987 87.5138 18.712C88.0045 18.9253 88.3831 19.2453 88.6498 19.672C88.9165 20.088 89.0498 20.6 89.0498 21.208V27H87.2258ZM84.8258 27.16C84.2818 27.16 83.7965 27.0533 83.3698 26.84C82.9431 26.6267 82.6018 26.3333 82.3458 25.96C82.1005 25.576 81.9778 25.128 81.9778 24.616C81.9778 24.168 82.0578 23.7787 82.2178 23.448C82.3778 23.1067 82.6125 22.824 82.9218 22.6C83.2418 22.376 83.6365 22.2107 84.1058 22.104C84.5858 21.9867 85.1351 21.928 85.7538 21.928H88.1698L88.0258 23.336H85.6418C85.3538 23.336 85.0978 23.3627 84.8738 23.416C84.6498 23.4693 84.4578 23.5493 84.2978 23.656C84.1378 23.7627 84.0205 23.8907 83.9458 24.04C83.8711 24.1787 83.8338 24.3493 83.8338 24.552C83.8338 24.7653 83.8871 24.952 83.9938 25.112C84.1005 25.2613 84.2445 25.3787 84.4258 25.464C84.6071 25.5493 84.8205 25.592 85.0658 25.592C85.4178 25.592 85.7485 25.5333 86.0578 25.416C86.3778 25.2987 86.6605 25.1333 86.9058 24.92C87.1511 24.7067 87.3431 24.4667 87.4818 24.2L87.8818 25.288C87.6578 25.6613 87.3805 25.9867 87.0498 26.264C86.7298 26.5413 86.3778 26.76 85.9938 26.92C85.6205 27.08 85.2311 27.16 84.8258 27.16ZM91.1286 27V18.568H93.0486L93.0806 21.256L92.8246 20.648C92.9419 20.2213 93.1446 19.8373 93.4326 19.496C93.7206 19.1547 94.0512 18.888 94.4246 18.696C94.8086 18.4933 95.2032 18.392 95.6086 18.392C95.7899 18.392 95.9606 18.408 96.1206 18.44C96.2912 18.472 96.4299 18.5093 96.5366 18.552L96.0246 20.696C95.8966 20.632 95.7472 20.584 95.5766 20.552C95.4166 20.5093 95.2512 20.488 95.0806 20.488C94.8032 20.488 94.5419 20.5413 94.2966 20.648C94.0619 20.744 93.8539 20.8827 93.6726 21.064C93.5019 21.2453 93.3632 21.4587 93.2566 21.704C93.1499 21.9387 93.0966 22.2 93.0966 22.488V27H91.1286Z" fill="white"/>
<defs>
<linearGradient id="paint0_linear_633_1065" x1="73.5" y1="0" x2="73.5" y2="42" gradientUnits="userSpaceOnUse">
<stop stop-color="#1971D9"/>
<stop offset="1" stop-color="#043A7A"/>
</linearGradient>
</defs>
</svg>
