<svg width="165" height="42" viewBox="0 0 165 42" fill="none" xmlns="http://www.w3.org/2000/svg">
<path d="M55.2478 27.16C54.4478 27.16 53.7118 27.0213 53.0398 26.744C52.3678 26.4667 51.7865 26.072 51.2958 25.56C50.8051 25.0373 50.4211 24.424 50.1438 23.72C49.8771 23.0053 49.7438 22.2267 49.7438 21.384C49.7438 20.5733 49.8878 19.8213 50.1758 19.128C50.4638 18.4347 50.8638 17.8267 51.3758 17.304C51.8878 16.7813 52.4851 16.376 53.1678 16.088C53.8505 15.8 54.5865 15.656 55.3758 15.656C55.9198 15.656 56.4478 15.736 56.9598 15.896C57.4718 16.056 57.9411 16.28 58.3678 16.568C58.8051 16.8453 59.1625 17.176 59.4398 17.56L58.1118 18.984C57.6958 18.5573 57.2585 18.232 56.7998 18.008C56.3518 17.784 55.8771 17.672 55.3758 17.672C54.8851 17.672 54.4211 17.7627 53.9838 17.944C53.5571 18.1253 53.1838 18.3813 52.8638 18.712C52.5545 19.0427 52.3091 19.4373 52.1278 19.896C51.9465 20.344 51.8558 20.8453 51.8558 21.4C51.8558 21.9653 51.9411 22.4827 52.1118 22.952C52.2931 23.4107 52.5438 23.8053 52.8638 24.136C53.1945 24.4667 53.5838 24.7173 54.0318 24.888C54.4905 25.0587 54.9971 25.144 55.5518 25.144C55.8931 25.144 56.2291 25.1013 56.5598 25.016C56.8905 24.92 57.1998 24.7813 57.4878 24.6C57.7758 24.4187 58.0318 24.2107 58.2558 23.976L59.2798 25.624C59.0238 25.912 58.6825 26.1733 58.2558 26.408C57.8291 26.6427 57.3545 26.8293 56.8318 26.968C56.3091 27.096 55.7811 27.16 55.2478 27.16ZM65.9133 27V21.608C65.9133 21.1493 65.7586 20.792 65.4493 20.536C65.1506 20.2693 64.7613 20.136 64.2813 20.136C63.8333 20.136 63.428 20.2267 63.0653 20.408C62.7026 20.5787 62.3666 20.856 62.0573 21.24L60.8413 20.024C61.3426 19.4907 61.8973 19.0853 62.5053 18.808C63.1133 18.5307 63.7693 18.392 64.4733 18.392C65.1453 18.392 65.7213 18.4987 66.2013 18.712C66.692 18.9253 67.0706 19.2453 67.3373 19.672C67.604 20.088 67.7373 20.6 67.7373 21.208V27H65.9133ZM63.5133 27.16C62.9693 27.16 62.484 27.0533 62.0573 26.84C61.6306 26.6267 61.2893 26.3333 61.0333 25.96C60.788 25.576 60.6653 25.128 60.6653 24.616C60.6653 24.168 60.7453 23.7787 60.9053 23.448C61.0653 23.1067 61.3 22.824 61.6093 22.6C61.9293 22.376 62.324 22.2107 62.7933 22.104C63.2733 21.9867 63.8226 21.928 64.4413 21.928H66.8573L66.7133 23.336H64.3293C64.0413 23.336 63.7853 23.3627 63.5613 23.416C63.3373 23.4693 63.1453 23.5493 62.9853 23.656C62.8253 23.7627 62.708 23.8907 62.6333 24.04C62.5586 24.1787 62.5213 24.3493 62.5213 24.552C62.5213 24.7653 62.5746 24.952 62.6813 25.112C62.788 25.2613 62.932 25.3787 63.1133 25.464C63.2946 25.5493 63.508 25.592 63.7533 25.592C64.1053 25.592 64.436 25.5333 64.7453 25.416C65.0653 25.2987 65.348 25.1333 65.5933 24.92C65.8386 24.7067 66.0306 24.4667 66.1693 24.2L66.5693 25.288C66.3453 25.6613 66.068 25.9867 65.7373 26.264C65.4173 26.5413 65.0653 26.76 64.6813 26.92C64.308 27.08 63.9186 27.16 63.5133 27.16ZM69.8161 27V18.568H71.7201L71.7521 20.296L71.3841 20.488C71.5014 20.1147 71.7094 19.7733 72.0081 19.464C72.3174 19.144 72.6854 18.888 73.1121 18.696C73.5387 18.4933 73.9814 18.392 74.4401 18.392C75.0801 18.392 75.6134 18.52 76.0401 18.776C76.4774 19.032 76.8027 19.416 77.0161 19.928C77.2294 20.44 77.3361 21.08 77.3361 21.848V27H75.3841V21.992C75.3841 21.5547 75.3254 21.1973 75.2081 20.92C75.0907 20.632 74.9094 20.424 74.6641 20.296C74.4187 20.1573 74.1201 20.0987 73.7681 20.12C73.4801 20.12 73.2134 20.168 72.9681 20.264C72.7227 20.3493 72.5094 20.4773 72.3281 20.648C72.1574 20.808 72.0187 21 71.9121 21.224C71.8161 21.4373 71.7681 21.672 71.7681 21.928V27H70.7921C70.6107 27 70.4347 27 70.2641 27C70.1041 27 69.9547 27 69.8161 27ZM83.1821 27.16C82.3927 27.16 81.6834 26.968 81.0541 26.584C80.4247 26.2 79.9287 25.6773 79.5661 25.016C79.2034 24.3547 79.0221 23.608 79.0221 22.776C79.0221 21.944 79.2034 21.1973 79.5661 20.536C79.9287 19.8747 80.4247 19.352 81.0541 18.968C81.6834 18.584 82.3927 18.392 83.1821 18.392C83.9287 18.392 84.6114 18.5413 85.2301 18.84C85.8594 19.128 86.3394 19.5227 86.6701 20.024L85.5981 21.336C85.4381 21.112 85.2354 20.9093 84.9901 20.728C84.7447 20.5467 84.4781 20.4027 84.1901 20.296C83.9127 20.1893 83.6407 20.136 83.3741 20.136C82.8941 20.136 82.4674 20.2533 82.0941 20.488C81.7314 20.712 81.4434 21.0267 81.2301 21.432C81.0167 21.8267 80.9101 22.2747 80.9101 22.776C80.9101 23.2773 81.0167 23.7253 81.2301 24.12C81.4541 24.5147 81.7527 24.8293 82.1261 25.064C82.4994 25.2987 82.9154 25.416 83.3741 25.416C83.6621 25.416 83.9341 25.3733 84.1901 25.288C84.4461 25.192 84.6914 25.0587 84.9261 24.888C85.1714 24.7173 85.3954 24.504 85.5981 24.248L86.6701 25.56C86.3181 26.0293 85.8221 26.4133 85.1821 26.712C84.5421 27.0107 83.8754 27.16 83.1821 27.16ZM92.1274 27.16C91.2421 27.16 90.4581 26.9787 89.7754 26.616C89.1034 26.2427 88.5754 25.736 88.1914 25.096C87.8181 24.4453 87.6314 23.6987 87.6314 22.856C87.6314 22.1947 87.7381 21.592 87.9514 21.048C88.1648 20.504 88.4634 20.0347 88.8474 19.64C89.2314 19.2347 89.6848 18.9253 90.2074 18.712C90.7408 18.488 91.3168 18.376 91.9354 18.376C92.5008 18.376 93.0181 18.4827 93.4874 18.696C93.9674 18.9093 94.3834 19.2027 94.7354 19.576C95.0874 19.9387 95.3541 20.376 95.5354 20.888C95.7274 21.3893 95.8181 21.9387 95.8074 22.536L95.7914 23.24H88.9754L88.5914 21.88H94.1434L93.9034 22.152V21.784C93.8714 21.464 93.7648 21.1813 93.5834 20.936C93.4021 20.68 93.1674 20.4827 92.8794 20.344C92.6021 20.1947 92.2928 20.12 91.9514 20.12C91.4288 20.12 90.9861 20.2213 90.6234 20.424C90.2608 20.616 89.9834 20.904 89.7914 21.288C89.6101 21.672 89.5194 22.1467 89.5194 22.712C89.5194 23.256 89.6314 23.7307 89.8554 24.136C90.0901 24.5413 90.4208 24.856 90.8474 25.08C91.2741 25.304 91.7701 25.416 92.3354 25.416C92.7301 25.416 93.0928 25.352 93.4234 25.224C93.7648 25.096 94.1274 24.8667 94.5114 24.536L95.4714 25.88C95.1834 26.1467 94.8528 26.376 94.4794 26.568C94.1168 26.7493 93.7328 26.8933 93.3274 27C92.9221 27.1067 92.5221 27.16 92.1274 27.16ZM97.5664 27V15.16H99.5184V27H97.5664ZM106.507 27V21.608C106.507 21.1493 106.352 20.792 106.043 20.536C105.744 20.2693 105.355 20.136 104.875 20.136C104.427 20.136 104.022 20.2267 103.659 20.408C103.296 20.5787 102.96 20.856 102.651 21.24L101.435 20.024C101.936 19.4907 102.491 19.0853 103.099 18.808C103.707 18.5307 104.363 18.392 105.067 18.392C105.739 18.392 106.315 18.4987 106.795 18.712C107.286 18.9253 107.664 19.2453 107.931 19.672C108.198 20.088 108.331 20.6 108.331 21.208V27H106.507ZM104.107 27.16C103.563 27.16 103.078 27.0533 102.651 26.84C102.224 26.6267 101.883 26.3333 101.627 25.96C101.382 25.576 101.259 25.128 101.259 24.616C101.259 24.168 101.339 23.7787 101.499 23.448C101.659 23.1067 101.894 22.824 102.203 22.6C102.523 22.376 102.918 22.2107 103.387 22.104C103.867 21.9867 104.416 21.928 105.035 21.928H107.451L107.307 23.336H104.923C104.635 23.336 104.379 23.3627 104.155 23.416C103.931 23.4693 103.739 23.5493 103.579 23.656C103.419 23.7627 103.302 23.8907 103.227 24.04C103.152 24.1787 103.115 24.3493 103.115 24.552C103.115 24.7653 103.168 24.952 103.275 25.112C103.382 25.2613 103.526 25.3787 103.707 25.464C103.888 25.5493 104.102 25.592 104.347 25.592C104.699 25.592 105.03 25.5333 105.339 25.416C105.659 25.2987 105.942 25.1333 106.187 24.92C106.432 24.7067 106.624 24.4667 106.763 24.2L107.163 25.288C106.939 25.6613 106.662 25.9867 106.331 26.264C106.011 26.5413 105.659 26.76 105.275 26.92C104.902 27.08 104.512 27.16 104.107 27.16ZM110.41 27V18.568H112.33L112.362 21.256L112.106 20.648C112.223 20.2213 112.426 19.8373 112.714 19.496C113.002 19.1547 113.332 18.888 113.706 18.696C114.09 18.4933 114.484 18.392 114.89 18.392C115.071 18.392 115.242 18.408 115.402 18.44C115.572 18.472 115.711 18.5093 115.818 18.552L115.306 20.696C115.178 20.632 115.028 20.584 114.858 20.552C114.698 20.5093 114.532 20.488 114.362 20.488C114.084 20.488 113.823 20.5413 113.578 20.648C113.343 20.744 113.135 20.8827 112.954 21.064C112.783 21.2453 112.644 21.4587 112.538 21.704C112.431 21.9387 112.378 22.2 112.378 22.488V27H110.41Z" fill="url(#paint0_linear_633_1064)"/>
<rect x="0.5" y="0.5" width="164" height="41" rx="20.5" stroke="url(#paint1_linear_633_1064)"/>
<defs>
<linearGradient id="paint0_linear_633_1064" x1="82.5" y1="11" x2="82.5" y2="31" gradientUnits="userSpaceOnUse">
<stop stop-color="#1971D9"/>
</linearGradient>
<linearGradient id="paint1_linear_633_1064" x1="82.5" y1="0" x2="82.5" y2="42" gradientUnits="userSpaceOnUse">
<stop stop-color="#1971D9"/>
<stop offset="1" stop-color="#043A7A"/>
</linearGradient>
</defs>
</svg>
