<svg width="254" height="42" viewBox="0 0 254 42" fill="none" xmlns="http://www.w3.org/2000/svg">
<rect width="254" height="42" rx="21" fill="url(#paint0_linear_633_1063)"/>
<path d="M55.4076 27.16C54.4262 27.16 53.5729 26.9733 52.8476 26.6C52.1329 26.2267 51.5196 25.6827 51.0076 24.968L52.3516 23.432C52.8742 24.168 53.3809 24.6747 53.8716 24.952C54.3729 25.2187 54.9382 25.352 55.5676 25.352C55.9302 25.352 56.2609 25.2987 56.5596 25.192C56.8582 25.0853 57.0929 24.936 57.2636 24.744C57.4342 24.5413 57.5196 24.3067 57.5196 24.04C57.5196 23.8587 57.4822 23.6933 57.4076 23.544C57.3436 23.384 57.2422 23.2453 57.1036 23.128C56.9756 23 56.8102 22.8827 56.6076 22.776C56.4156 22.6693 56.1862 22.5787 55.9196 22.504C55.6636 22.4187 55.3809 22.3493 55.0716 22.296C54.4742 22.1787 53.9569 22.024 53.5196 21.832C53.0929 21.6293 52.7302 21.384 52.4316 21.096C52.1436 20.7973 51.9249 20.4667 51.7756 20.104C51.6369 19.7307 51.5676 19.3093 51.5676 18.84C51.5676 18.2107 51.7436 17.656 52.0956 17.176C52.4582 16.6853 52.9382 16.3013 53.5356 16.024C54.1436 15.7467 54.8102 15.608 55.5356 15.608C56.4742 15.608 57.2689 15.7787 57.9196 16.12C58.5809 16.4613 59.0982 16.9467 59.4716 17.576L58.0956 18.92C57.7756 18.4293 57.3969 18.056 56.9596 17.8C56.5222 17.544 56.0476 17.416 55.5356 17.416C55.1516 17.416 54.8156 17.4747 54.5276 17.592C54.2502 17.6987 54.0316 17.8533 53.8716 18.056C53.7116 18.248 53.6316 18.4827 53.6316 18.76C53.6316 18.9627 53.6742 19.1493 53.7596 19.32C53.8556 19.4907 53.9942 19.64 54.1756 19.768C54.3569 19.896 54.5862 20.008 54.8636 20.104C55.1409 20.2 55.4609 20.2853 55.8236 20.36C56.4102 20.488 56.9329 20.648 57.3916 20.84C57.8609 21.032 58.2556 21.2667 58.5756 21.544C58.9062 21.8107 59.1569 22.12 59.3276 22.472C59.4982 22.8133 59.5836 23.1973 59.5836 23.624C59.5836 24.3493 59.4129 24.9787 59.0716 25.512C58.7302 26.0453 58.2449 26.456 57.6156 26.744C56.9862 27.0213 56.2502 27.16 55.4076 27.16ZM66.3664 27V21.608C66.3664 21.1493 66.2118 20.792 65.9024 20.536C65.6038 20.2693 65.2144 20.136 64.7344 20.136C64.2864 20.136 63.8811 20.2267 63.5184 20.408C63.1558 20.5787 62.8198 20.856 62.5104 21.24L61.2944 20.024C61.7958 19.4907 62.3504 19.0853 62.9584 18.808C63.5664 18.5307 64.2224 18.392 64.9264 18.392C65.5984 18.392 66.1744 18.4987 66.6544 18.712C67.1451 18.9253 67.5238 19.2453 67.7904 19.672C68.0571 20.088 68.1904 20.6 68.1904 21.208V27H66.3664ZM63.9664 27.16C63.4224 27.16 62.9371 27.0533 62.5104 26.84C62.0838 26.6267 61.7424 26.3333 61.4864 25.96C61.2411 25.576 61.1184 25.128 61.1184 24.616C61.1184 24.168 61.1984 23.7787 61.3584 23.448C61.5184 23.1067 61.7531 22.824 62.0624 22.6C62.3824 22.376 62.7771 22.2107 63.2464 22.104C63.7264 21.9867 64.2758 21.928 64.8944 21.928H67.3104L67.1664 23.336H64.7824C64.4944 23.336 64.2384 23.3627 64.0144 23.416C63.7904 23.4693 63.5984 23.5493 63.4384 23.656C63.2784 23.7627 63.1611 23.8907 63.0864 24.04C63.0118 24.1787 62.9744 24.3493 62.9744 24.552C62.9744 24.7653 63.0278 24.952 63.1344 25.112C63.2411 25.2613 63.3851 25.3787 63.5664 25.464C63.7478 25.5493 63.9611 25.592 64.2064 25.592C64.5584 25.592 64.8891 25.5333 65.1984 25.416C65.5184 25.2987 65.8011 25.1333 66.0464 24.92C66.2918 24.7067 66.4838 24.4667 66.6224 24.2L67.0224 25.288C66.7984 25.6613 66.5211 25.9867 66.1904 26.264C65.8704 26.5413 65.5184 26.76 65.1344 26.92C64.7611 27.08 64.3718 27.16 63.9664 27.16ZM70.2852 27V15.16H72.2372V27H70.2852ZM76.8638 27L73.3118 18.568H75.4398L77.8558 24.856L77.4398 24.984L79.9838 18.568H82.0638L78.3198 27H76.8638ZM88.0852 27V21.608C88.0852 21.1493 87.9305 20.792 87.6212 20.536C87.3225 20.2693 86.9332 20.136 86.4532 20.136C86.0052 20.136 85.5999 20.2267 85.2372 20.408C84.8745 20.5787 84.5385 20.856 84.2292 21.24L83.0132 20.024C83.5145 19.4907 84.0692 19.0853 84.6772 18.808C85.2852 18.5307 85.9412 18.392 86.6452 18.392C87.3172 18.392 87.8932 18.4987 88.3732 18.712C88.8639 18.9253 89.2425 19.2453 89.5092 19.672C89.7759 20.088 89.9092 20.6 89.9092 21.208V27H88.0852ZM85.6852 27.16C85.1412 27.16 84.6559 27.0533 84.2292 26.84C83.8025 26.6267 83.4612 26.3333 83.2052 25.96C82.9599 25.576 82.8372 25.128 82.8372 24.616C82.8372 24.168 82.9172 23.7787 83.0772 23.448C83.2372 23.1067 83.4719 22.824 83.7812 22.6C84.1012 22.376 84.4959 22.2107 84.9652 22.104C85.4452 21.9867 85.9945 21.928 86.6132 21.928H89.0292L88.8852 23.336H86.5012C86.2132 23.336 85.9572 23.3627 85.7332 23.416C85.5092 23.4693 85.3172 23.5493 85.1572 23.656C84.9972 23.7627 84.8799 23.8907 84.8052 24.04C84.7305 24.1787 84.6932 24.3493 84.6932 24.552C84.6932 24.7653 84.7465 24.952 84.8532 25.112C84.9599 25.2613 85.1039 25.3787 85.2852 25.464C85.4665 25.5493 85.6799 25.592 85.9252 25.592C86.2772 25.592 86.6079 25.5333 86.9172 25.416C87.2372 25.2987 87.5199 25.1333 87.7652 24.92C88.0105 24.7067 88.2025 24.4667 88.3412 24.2L88.7412 25.288C88.5172 25.6613 88.2399 25.9867 87.9092 26.264C87.5892 26.5413 87.2372 26.76 86.8532 26.92C86.4799 27.08 86.0905 27.16 85.6852 27.16ZM91.9879 27V18.568H93.9079L93.9399 21.256L93.6839 20.648C93.8013 20.2213 94.0039 19.8373 94.2919 19.496C94.5799 19.1547 94.9106 18.888 95.2839 18.696C95.6679 18.4933 96.0626 18.392 96.4679 18.392C96.6493 18.392 96.8199 18.408 96.9799 18.44C97.1506 18.472 97.2893 18.5093 97.3959 18.552L96.8839 20.696C96.7559 20.632 96.6066 20.584 96.4359 20.552C96.2759 20.5093 96.1106 20.488 95.9399 20.488C95.6626 20.488 95.4013 20.5413 95.1559 20.648C94.9213 20.744 94.7133 20.8827 94.5319 21.064C94.3613 21.2453 94.2226 21.4587 94.1159 21.704C94.0093 21.9387 93.9559 22.2 93.9559 22.488V27H91.9879ZM103.41 27V18.568H105.314L105.346 20.296L104.978 20.488C105.095 20.1147 105.303 19.7733 105.602 19.464C105.911 19.144 106.279 18.888 106.706 18.696C107.132 18.4933 107.575 18.392 108.034 18.392C108.674 18.392 109.207 18.52 109.634 18.776C110.071 19.032 110.396 19.416 110.61 19.928C110.823 20.44 110.93 21.08 110.93 21.848V27H108.978V21.992C108.978 21.5547 108.919 21.1973 108.802 20.92C108.684 20.632 108.503 20.424 108.258 20.296C108.012 20.1573 107.714 20.0987 107.362 20.12C107.074 20.12 106.807 20.168 106.562 20.264C106.316 20.3493 106.103 20.4773 105.922 20.648C105.751 20.808 105.612 21 105.506 21.224C105.41 21.4373 105.362 21.672 105.362 21.928V27H104.386C104.204 27 104.028 27 103.858 27C103.698 27 103.548 27 103.41 27ZM117 27.16C116.157 27.16 115.405 26.9733 114.744 26.6C114.082 26.216 113.56 25.6933 113.176 25.032C112.802 24.3707 112.616 23.6187 112.616 22.776C112.616 21.9333 112.802 21.1813 113.176 20.52C113.56 19.8587 114.082 19.3413 114.744 18.968C115.405 18.584 116.157 18.392 117 18.392C117.832 18.392 118.578 18.584 119.24 18.968C119.901 19.3413 120.418 19.8587 120.792 20.52C121.176 21.1813 121.368 21.9333 121.368 22.776C121.368 23.6187 121.176 24.3707 120.792 25.032C120.418 25.6933 119.901 26.216 119.24 26.6C118.578 26.9733 117.832 27.16 117 27.16ZM117 25.416C117.458 25.416 117.869 25.304 118.232 25.08C118.594 24.8453 118.877 24.5307 119.08 24.136C119.293 23.7307 119.394 23.2773 119.384 22.776C119.394 22.264 119.293 21.8107 119.08 21.416C118.877 21.0107 118.594 20.696 118.232 20.472C117.869 20.248 117.458 20.136 117 20.136C116.541 20.136 116.125 20.2533 115.752 20.488C115.389 20.712 115.106 21.0267 114.904 21.432C114.701 21.8267 114.6 22.2747 114.6 22.776C114.6 23.2773 114.701 23.7307 114.904 24.136C115.106 24.5307 115.389 24.8453 115.752 25.08C116.125 25.304 116.541 25.416 117 25.416ZM125.598 27L122.046 18.568H124.174L126.59 24.856L126.174 24.984L128.718 18.568H130.798L127.054 27H125.598ZM136.82 27V21.608C136.82 21.1493 136.665 20.792 136.356 20.536C136.057 20.2693 135.668 20.136 135.188 20.136C134.74 20.136 134.334 20.2267 133.972 20.408C133.609 20.5787 133.273 20.856 132.964 21.24L131.748 20.024C132.249 19.4907 132.804 19.0853 133.412 18.808C134.02 18.5307 134.676 18.392 135.38 18.392C136.052 18.392 136.628 18.4987 137.108 18.712C137.598 18.9253 137.977 19.2453 138.244 19.672C138.51 20.088 138.644 20.6 138.644 21.208V27H136.82ZM134.42 27.16C133.876 27.16 133.39 27.0533 132.964 26.84C132.537 26.6267 132.196 26.3333 131.94 25.96C131.694 25.576 131.572 25.128 131.572 24.616C131.572 24.168 131.652 23.7787 131.812 23.448C131.972 23.1067 132.206 22.824 132.516 22.6C132.836 22.376 133.23 22.2107 133.7 22.104C134.18 21.9867 134.729 21.928 135.348 21.928H137.764L137.62 23.336H135.236C134.948 23.336 134.692 23.3627 134.468 23.416C134.244 23.4693 134.052 23.5493 133.892 23.656C133.732 23.7627 133.614 23.8907 133.54 24.04C133.465 24.1787 133.428 24.3493 133.428 24.552C133.428 24.7653 133.481 24.952 133.588 25.112C133.694 25.2613 133.838 25.3787 134.02 25.464C134.201 25.5493 134.414 25.592 134.66 25.592C135.012 25.592 135.342 25.5333 135.652 25.416C135.972 25.2987 136.254 25.1333 136.5 24.92C136.745 24.7067 136.937 24.4667 137.076 24.2L137.476 25.288C137.252 25.6613 136.974 25.9867 136.644 26.264C136.324 26.5413 135.972 26.76 135.588 26.92C135.214 27.08 134.825 27.16 134.42 27.16ZM149.026 27.16C148.236 27.16 147.527 26.968 146.898 26.584C146.268 26.2 145.772 25.6773 145.41 25.016C145.047 24.3547 144.866 23.608 144.866 22.776C144.866 21.944 145.047 21.1973 145.41 20.536C145.772 19.8747 146.268 19.352 146.898 18.968C147.527 18.584 148.236 18.392 149.026 18.392C149.772 18.392 150.455 18.5413 151.074 18.84C151.703 19.128 152.183 19.5227 152.514 20.024L151.442 21.336C151.282 21.112 151.079 20.9093 150.834 20.728C150.588 20.5467 150.322 20.4027 150.034 20.296C149.756 20.1893 149.484 20.136 149.218 20.136C148.738 20.136 148.311 20.2533 147.938 20.488C147.575 20.712 147.287 21.0267 147.074 21.432C146.86 21.8267 146.754 22.2747 146.754 22.776C146.754 23.2773 146.86 23.7253 147.074 24.12C147.298 24.5147 147.596 24.8293 147.97 25.064C148.343 25.2987 148.759 25.416 149.218 25.416C149.506 25.416 149.778 25.3733 150.034 25.288C150.29 25.192 150.535 25.0587 150.77 24.888C151.015 24.7173 151.239 24.504 151.442 24.248L152.514 25.56C152.162 26.0293 151.666 26.4133 151.026 26.712C150.386 27.0107 149.719 27.16 149.026 27.16ZM157.859 27.16C157.017 27.16 156.265 26.9733 155.603 26.6C154.942 26.216 154.419 25.6933 154.035 25.032C153.662 24.3707 153.475 23.6187 153.475 22.776C153.475 21.9333 153.662 21.1813 154.035 20.52C154.419 19.8587 154.942 19.3413 155.603 18.968C156.265 18.584 157.017 18.392 157.859 18.392C158.691 18.392 159.438 18.584 160.099 18.968C160.761 19.3413 161.278 19.8587 161.651 20.52C162.035 21.1813 162.227 21.9333 162.227 22.776C162.227 23.6187 162.035 24.3707 161.651 25.032C161.278 25.6933 160.761 26.216 160.099 26.6C159.438 26.9733 158.691 27.16 157.859 27.16ZM157.859 25.416C158.318 25.416 158.729 25.304 159.091 25.08C159.454 24.8453 159.737 24.5307 159.939 24.136C160.153 23.7307 160.254 23.2773 160.243 22.776C160.254 22.264 160.153 21.8107 159.939 21.416C159.737 21.0107 159.454 20.696 159.091 20.472C158.729 20.248 158.318 20.136 157.859 20.136C157.401 20.136 156.985 20.2533 156.611 20.488C156.249 20.712 155.966 21.0267 155.763 21.432C155.561 21.8267 155.459 22.2747 155.459 22.776C155.459 23.2773 155.561 23.7307 155.763 24.136C155.966 24.5307 156.249 24.8453 156.611 25.08C156.985 25.304 157.401 25.416 157.859 25.416ZM164.004 27V15.16H165.956V27H164.004ZM172.081 27.16C171.195 27.16 170.411 26.9787 169.729 26.616C169.057 26.2427 168.529 25.736 168.145 25.096C167.771 24.4453 167.585 23.6987 167.585 22.856C167.585 22.1947 167.691 21.592 167.905 21.048C168.118 20.504 168.417 20.0347 168.801 19.64C169.185 19.2347 169.638 18.9253 170.161 18.712C170.694 18.488 171.27 18.376 171.889 18.376C172.454 18.376 172.971 18.4827 173.441 18.696C173.921 18.9093 174.337 19.2027 174.689 19.576C175.041 19.9387 175.307 20.376 175.489 20.888C175.681 21.3893 175.771 21.9387 175.761 22.536L175.745 23.24H168.929L168.545 21.88H174.097L173.857 22.152V21.784C173.825 21.464 173.718 21.1813 173.537 20.936C173.355 20.68 173.121 20.4827 172.833 20.344C172.555 20.1947 172.246 20.12 171.905 20.12C171.382 20.12 170.939 20.2213 170.577 20.424C170.214 20.616 169.937 20.904 169.745 21.288C169.563 21.672 169.473 22.1467 169.473 22.712C169.473 23.256 169.585 23.7307 169.809 24.136C170.043 24.5413 170.374 24.856 170.801 25.08C171.227 25.304 171.723 25.416 172.289 25.416C172.683 25.416 173.046 25.352 173.377 25.224C173.718 25.096 174.081 24.8667 174.465 24.536L175.425 25.88C175.137 26.1467 174.806 26.376 174.433 26.568C174.07 26.7493 173.686 26.8933 173.281 27C172.875 27.1067 172.475 27.16 172.081 27.16ZM181.12 27.16C180.33 27.16 179.621 26.968 178.992 26.584C178.362 26.2 177.866 25.6773 177.504 25.016C177.141 24.3547 176.96 23.608 176.96 22.776C176.96 21.944 177.141 21.1973 177.504 20.536C177.866 19.8747 178.362 19.352 178.992 18.968C179.621 18.584 180.33 18.392 181.12 18.392C181.866 18.392 182.549 18.5413 183.168 18.84C183.797 19.128 184.277 19.5227 184.608 20.024L183.536 21.336C183.376 21.112 183.173 20.9093 182.928 20.728C182.682 20.5467 182.416 20.4027 182.128 20.296C181.85 20.1893 181.578 20.136 181.312 20.136C180.832 20.136 180.405 20.2533 180.032 20.488C179.669 20.712 179.381 21.0267 179.168 21.432C178.954 21.8267 178.848 22.2747 178.848 22.776C178.848 23.2773 178.954 23.7253 179.168 24.12C179.392 24.5147 179.69 24.8293 180.064 25.064C180.437 25.2987 180.853 25.416 181.312 25.416C181.6 25.416 181.872 25.3733 182.128 25.288C182.384 25.192 182.629 25.0587 182.864 24.888C183.109 24.7173 183.333 24.504 183.536 24.248L184.608 25.56C184.256 26.0293 183.76 26.4133 183.12 26.712C182.48 27.0107 181.813 27.16 181.12 27.16ZM179.632 30.92L179.504 29.944C179.749 29.944 180 29.9067 180.256 29.832C180.522 29.7573 180.746 29.656 180.928 29.528C181.12 29.4107 181.216 29.2933 181.216 29.176C181.216 29.0267 181.13 28.9093 180.96 28.824C180.8 28.7493 180.613 28.6907 180.4 28.648C180.197 28.6053 180.021 28.584 179.872 28.584L179.632 28.408L180.784 26.616H181.84L181.152 27.72C181.685 27.816 182.085 27.992 182.352 28.248C182.618 28.5147 182.752 28.84 182.752 29.224C182.752 29.512 182.656 29.7627 182.464 29.976C182.272 30.2 182.021 30.3813 181.712 30.52C181.402 30.6693 181.061 30.776 180.688 30.84C180.325 30.904 179.973 30.9307 179.632 30.92ZM190.929 27V21.608C190.929 21.1493 190.774 20.792 190.465 20.536C190.166 20.2693 189.777 20.136 189.297 20.136C188.849 20.136 188.444 20.2267 188.081 20.408C187.718 20.5787 187.382 20.856 187.073 21.24L185.857 20.024C186.358 19.4907 186.913 19.0853 187.521 18.808C188.129 18.5307 188.785 18.392 189.489 18.392C190.161 18.392 190.737 18.4987 191.217 18.712C191.708 18.9253 192.086 19.2453 192.353 19.672C192.62 20.088 192.753 20.6 192.753 21.208V27H190.929ZM188.529 27.16C187.985 27.16 187.5 27.0533 187.073 26.84C186.646 26.6267 186.305 26.3333 186.049 25.96C185.804 25.576 185.681 25.128 185.681 24.616C185.681 24.168 185.761 23.7787 185.921 23.448C186.081 23.1067 186.316 22.824 186.625 22.6C186.945 22.376 187.34 22.2107 187.809 22.104C188.289 21.9867 188.838 21.928 189.457 21.928H191.873L191.729 23.336H189.345C189.057 23.336 188.801 23.3627 188.577 23.416C188.353 23.4693 188.161 23.5493 188.001 23.656C187.841 23.7627 187.724 23.8907 187.649 24.04C187.574 24.1787 187.537 24.3493 187.537 24.552C187.537 24.7653 187.59 24.952 187.697 25.112C187.804 25.2613 187.948 25.3787 188.129 25.464C188.31 25.5493 188.524 25.592 188.769 25.592C189.121 25.592 189.452 25.5333 189.761 25.416C190.081 25.2987 190.364 25.1333 190.609 24.92C190.854 24.7067 191.046 24.4667 191.185 24.2L191.585 25.288C191.361 25.6613 191.084 25.9867 190.753 26.264C190.433 26.5413 190.081 26.76 189.697 26.92C189.324 27.08 188.934 27.16 188.529 27.16ZM190.225 17.16C190.022 17.16 189.841 17.1227 189.681 17.048C189.532 16.9733 189.361 16.8667 189.169 16.728C188.966 16.5573 188.812 16.44 188.705 16.376C188.609 16.3013 188.518 16.264 188.433 16.264C188.284 16.264 188.156 16.3387 188.049 16.488C187.942 16.6267 187.873 16.8453 187.841 17.144L186.625 16.968C186.646 16.424 186.817 15.9547 187.137 15.56C187.457 15.1547 187.884 14.952 188.417 14.952C188.62 14.952 188.796 14.9893 188.945 15.064C189.105 15.1387 189.281 15.2453 189.473 15.384C189.665 15.5333 189.814 15.6507 189.921 15.736C190.028 15.8107 190.129 15.848 190.225 15.848C190.374 15.848 190.497 15.7733 190.593 15.624C190.7 15.4747 190.774 15.256 190.817 14.968L192.017 15.144C192.006 15.496 191.921 15.832 191.761 16.152C191.612 16.4613 191.409 16.7067 191.153 16.888C190.897 17.0693 190.588 17.16 190.225 17.16ZM198.672 27.16C197.829 27.16 197.077 26.9733 196.416 26.6C195.754 26.216 195.232 25.6933 194.848 25.032C194.474 24.3707 194.288 23.6187 194.288 22.776C194.288 21.9333 194.474 21.1813 194.848 20.52C195.232 19.8587 195.754 19.3413 196.416 18.968C197.077 18.584 197.829 18.392 198.672 18.392C199.504 18.392 200.25 18.584 200.912 18.968C201.573 19.3413 202.09 19.8587 202.464 20.52C202.848 21.1813 203.04 21.9333 203.04 22.776C203.04 23.6187 202.848 24.3707 202.464 25.032C202.09 25.6933 201.573 26.216 200.912 26.6C200.25 26.9733 199.504 27.16 198.672 27.16ZM198.672 25.416C199.13 25.416 199.541 25.304 199.904 25.08C200.266 24.8453 200.549 24.5307 200.752 24.136C200.965 23.7307 201.066 23.2773 201.056 22.776C201.066 22.264 200.965 21.8107 200.752 21.416C200.549 21.0107 200.266 20.696 199.904 20.472C199.541 20.248 199.13 20.136 198.672 20.136C198.213 20.136 197.797 20.2533 197.424 20.488C197.061 20.712 196.778 21.0267 196.576 21.432C196.373 21.8267 196.272 22.2747 196.272 22.776C196.272 23.2773 196.373 23.7307 196.576 24.136C196.778 24.5307 197.061 24.8453 197.424 25.08C197.797 25.304 198.213 25.416 198.672 25.416Z" fill="white"/>
<defs>
<linearGradient id="paint0_linear_633_1063" x1="127" y1="0" x2="127" y2="42" gradientUnits="userSpaceOnUse">
<stop stop-color="#1971D9"/>
<stop offset="1" stop-color="#043A7A"/>
</linearGradient>
</defs>
</svg>
