<svg width="64" height="64" viewBox="0 0 64 64" fill="none" xmlns="http://www.w3.org/2000/svg">
<path d="M40.0002 34.6666L32.0002 26.6666M32.0002 26.6666L24.0002 34.6666M32.0002 26.6666V58.6666M18.6669 42.6666C16.0402 42.6695 13.5049 41.7032 11.5465 39.9528C9.58816 38.2023 8.3445 35.7909 8.05383 33.1804C7.76315 30.5699 8.44588 27.9439 9.97122 25.8055C11.4966 23.6672 13.7573 22.1668 16.3202 21.5919C15.5787 18.1335 16.2413 14.5221 18.1625 11.5523C20.0836 8.58248 23.1058 6.49746 26.5642 5.75591C30.0226 5.01437 33.634 5.67704 36.6038 7.59817C39.5736 9.51929 41.6587 12.5415 42.4002 15.9999H42.6669C45.9734 15.9966 49.1632 17.222 51.6171 19.4382C54.071 21.6545 55.6138 24.7035 55.9461 27.9933C56.2784 31.2831 55.3765 34.579 53.4154 37.2412C51.4543 39.9034 48.574 41.7419 45.3335 42.3999L18.6669 42.6666Z" stroke="url(#paint0_linear_632_560)" stroke-width="2" stroke-linecap="round" stroke-linejoin="round"/>
<defs>
<linearGradient id="paint0_linear_632_560" x1="32.001" y1="5.45947" x2="32.001" y2="58.6666" gradientUnits="userSpaceOnUse">
<stop stop-color="#1971D9"/>
</linearGradient>
</defs>
</svg>
