<svg width="316" height="189" viewBox="0 0 316 189" fill="none" xmlns="http://www.w3.org/2000/svg">
<path fill-rule="evenodd" clip-rule="evenodd" d="M130.981 94.9716L130.723 102.112C128.384 101.365 125.659 100.337 122.841 99.1151C118.677 97.3103 114.705 95.2549 111.605 93.2866L117.06 87.2115C121.764 90.3598 127.155 93.1465 130.981 94.9716ZM116.242 79.0641C122.435 84.3417 133.38 89.5109 137.175 91.1488L136.514 109.398C136.074 109.441 135.52 109.419 134.87 109.339C133.692 109.194 132.198 108.858 130.496 108.368C123.893 106.466 114.156 102.242 107.514 97.844C106.308 97.046 105.205 96.2422 104.241 95.4455C103.695 94.994 103.193 94.5448 102.742 94.1002L116.242 79.0641Z" fill="url(#paint0_linear_611_580)"/>
<path fill-rule="evenodd" clip-rule="evenodd" d="M159.785 91.0619C163.728 91.0822 167.08 90.9626 168.723 90.7644L162.551 96.8274C162.427 96.9163 162.299 97.0101 162.165 97.1087C159.437 99.1206 154.676 103.108 149.597 107.434C148.457 108.405 146.674 109.906 144.84 111.446C141.45 114.291 137.885 117.267 137.885 117.267L141.846 89.8222C142.854 90.0037 143.968 90.1622 145.155 90.2997C149.624 90.8177 155.118 91.0378 159.785 91.0619ZM146.987 96.5669C148.841 96.7303 150.767 96.851 152.668 96.937C150.635 98.6189 148.4 100.507 146.141 102.429L146.987 96.5669Z" fill="url(#paint1_linear_611_580)"/>
<path fill-rule="evenodd" clip-rule="evenodd" d="M135.746 121.026C135.746 121.026 125.992 127.056 120.21 125.57L117.855 103.187C119.618 103.504 121.713 103.697 124.004 103.795C130.534 104.074 138.654 103.582 145.224 103.011C150.07 102.589 154.072 102.125 155.971 101.896L144.946 111.141C143.419 112.239 142.392 113.546 141.156 115.12C139.857 116.773 138.328 118.72 135.746 121.026ZM137.816 109.618C137.332 110.189 136.902 110.737 136.512 111.235C136.441 111.325 136.372 111.414 136.304 111.501C135.166 112.948 134 114.411 132.136 116.13C131.915 116.258 131.617 116.425 131.258 116.619C130.375 117.095 129.16 117.708 127.812 118.272C127.071 118.582 126.33 118.86 125.613 119.09L124.643 109.874C128.891 110.012 133.525 109.865 137.816 109.618Z" fill="url(#paint2_linear_611_580)"/>
<path fill-rule="evenodd" clip-rule="evenodd" d="M80.8824 63.3938C80.3412 63.7206 79.8334 64.0649 79.3611 64.4179C78.0566 65.3928 77.0225 66.4345 76.3011 67.3601L98.5577 90.5081L113.747 77.2586L100.675 64.1503C92.4857 59.0994 85.4783 60.6183 80.8824 63.3938ZM104.894 76.9509L98.9243 82.1582L85.2378 67.9237C85.7617 67.6828 86.3218 67.4707 86.9137 67.3022C89.3759 66.6014 92.7234 66.5469 96.9243 68.959L104.894 76.9509Z" fill="url(#paint3_linear_611_580)"/>
<path fill-rule="evenodd" clip-rule="evenodd" d="M106.84 101.241L108.42 116.435C105.464 115.667 101.896 114.449 98.1109 112.922C92.1812 110.53 86.1137 107.542 81.3908 104.677L87.8116 93.366C94.4869 96.8562 101.774 99.5898 106.84 101.241ZM90.8006 88.1007C98.94 92.3311 108.182 95.4397 112.444 96.6234L115.208 123.197C114.754 123.304 114.22 123.358 113.614 123.363C112.374 123.372 110.836 123.175 109.083 122.808C99.0548 120.707 81.9819 113.038 73.3519 106.58L85.5516 85.0893C87.1997 86.1437 88.9724 87.1505 90.8006 88.1007Z" fill="url(#paint4_linear_611_580)"/>
<path fill-rule="evenodd" clip-rule="evenodd" d="M41.6205 58.3316C41.4693 58.3977 41.32 58.4647 41.1725 58.5327C39.2339 59.4267 37.6236 60.48 36.446 61.4699L58.6648 97.2247L81.757 84.3825L68.574 64.0073C58.6038 54.4854 48.3019 55.4129 41.6205 58.3316ZM73.162 82.2381L60.7619 89.1342L44.8593 63.5436C46.357 62.9736 48.0799 62.5413 49.9421 62.4153C53.8466 62.1511 58.7224 63.1967 63.8978 67.9197L73.162 82.2381Z" fill="url(#paint5_linear_611_580)"/>
<path fill-rule="evenodd" clip-rule="evenodd" d="M216.032 71.928L195.441 55.7259C192.153 47.5989 190.422 30.8653 209.801 28.9474L254.927 59.7274C253.502 59.9504 251.537 60.1734 249.242 60.4339C248.162 60.5564 247.009 60.6872 245.805 60.8302C236.942 61.8827 225.291 63.5967 219.492 67.5306C217.676 68.7627 216.435 70.2126 216.032 71.928ZM214.942 63.3702L200.536 52.0344C199.502 48.8324 199.016 44.8536 199.932 41.695C200.418 40.0219 201.27 38.6423 202.649 37.5634C203.794 36.6674 205.563 35.776 208.319 35.2616L238.309 55.7176C236.199 56.0331 234.034 56.3986 231.903 56.8294C227.541 57.711 222.975 58.932 219.218 60.743C217.845 61.4047 216.339 62.2616 214.942 63.3702Z" fill="url(#paint6_linear_611_580)"/>
<path fill-rule="evenodd" clip-rule="evenodd" d="M103.726 114.288C112.163 117.886 121.613 120.281 125.953 121.137L129.266 157.227C128.694 157.409 127.985 157.468 127.16 157.42C126.022 157.353 124.663 157.082 123.136 156.647C113.079 153.775 95.7649 143.752 86.6801 137.978L98.2601 111.684C98.367 111.742 98.4744 111.799 98.5822 111.856C100.213 112.718 101.947 113.53 103.726 114.288ZM101.287 119.826C107.997 122.693 115.207 124.808 120.329 126.073L122.535 150.094C119.667 149.072 116.22 147.54 112.502 145.696C106.259 142.601 99.6234 138.813 94.3368 135.606L101.287 119.826ZM93.473 108.535L63.5472 94.9472L50.2663 117.455L80.8292 134.129L93.473 108.535ZM85.2783 111.461L78.195 125.799L58.6585 115.14L65.9959 102.705L85.2783 111.461ZM44.0655 114.138L7.56067 93.1742C8.12891 91.7446 9.04807 90.0541 10.332 88.3485C10.4296 88.2188 10.5293 88.089 10.6312 87.9592C15.1329 82.2238 23.7663 76.5269 37.0574 80.1899L58.3192 91.8893L44.0655 114.138ZM49.7339 94.0723L42.0799 106.019L15.9525 91.0151C17.0015 89.8037 18.314 88.6068 19.8943 87.6137C23.2079 85.5315 27.9972 84.1427 34.7924 85.8506L49.7339 94.0723Z" fill="url(#paint7_linear_611_580)"/>
<path fill-rule="evenodd" clip-rule="evenodd" d="M262.923 66.3873L261.12 61.5406L167.347 88.3478L166.979 88.6126C160.782 93.0773 151.989 100.163 144.706 106.196C141.056 109.22 137.769 111.993 135.354 114.062C134.147 115.095 133.153 115.957 132.437 116.589C132.081 116.904 131.785 117.169 131.563 117.373L131.539 117.396C131.399 117.524 131.098 117.8 130.906 118.048L128.827 120.733L131.965 122.032C133.242 122.561 134.812 122.714 136.34 122.723C137.929 122.733 139.752 122.585 141.688 122.339C145.564 121.846 150.121 120.93 154.592 119.924C158.345 119.079 162.091 118.157 165.372 117.35C166.006 117.194 166.623 117.043 167.219 116.897C170.992 115.972 173.772 115.318 175.088 115.151C175.754 115.066 176.422 114.82 176.984 114.579C177.587 114.32 178.264 113.978 178.996 113.579C180.46 112.781 182.299 111.669 184.472 110.314C186.144 109.273 188.01 108.091 190.082 106.777C193.482 104.623 197.439 102.115 202.016 99.2925C216.649 90.2691 237.123 78.3412 262.923 66.3873ZM235.093 74.3757C220.79 81.9146 208.809 89.0102 199.294 94.8776C194.717 97.6998 190.663 100.269 187.225 102.447C185.165 103.752 183.326 104.917 181.729 105.912C179.565 107.261 177.835 108.304 176.513 109.025C175.852 109.385 175.332 109.643 174.936 109.813C174.569 109.971 174.417 110.005 174.418 110.007C174.418 110.007 174.423 110.006 174.434 110.005C172.748 110.219 169.607 110.971 165.985 111.859C165.381 112.007 164.759 112.16 164.121 112.317C160.839 113.124 157.152 114.031 153.453 114.863C149.028 115.859 144.662 116.732 141.034 117.193C140.489 117.262 139.966 117.322 139.466 117.371C141.772 115.403 144.745 112.899 148.015 110.191C155.145 104.283 163.621 97.454 169.646 93.0854L235.093 74.3757Z" fill="url(#paint8_linear_611_580)"/>
<path fill-rule="evenodd" clip-rule="evenodd" d="M257.459 125.592L305.991 130.819C304.627 129.786 303.683 127.511 303.064 124.417C301.098 114.596 302.406 96.5277 303.94 83.776C304.202 81.5925 304.471 79.5649 304.732 77.7613C303.92 77.7273 303.037 77.5961 302.095 77.3802C292.162 75.1047 275.694 63.4275 267.514 57.279C266.966 56.8667 266.454 56.4793 265.985 56.1212C263.86 54.5003 262.59 53.4811 262.59 53.4811C262.59 53.4811 261.907 55.2861 260.161 57.9573C259.98 58.2353 259.787 58.5226 259.582 58.8182C255.696 64.4221 247.524 73.0151 232.159 77.3939C218.554 81.2711 210.016 87.3732 201.39 93.5384C194.821 98.2336 188.2 102.965 179.251 106.779C173.327 109.303 167.015 111.291 160.855 112.88C154.665 114.478 148.647 116.609 143.33 118.492C139.443 119.869 135.931 121.113 133.001 121.918C131.817 122.244 130.728 122.497 129.748 122.659L137.411 156.29L257.459 125.592ZM141.931 148.888L136.957 127.06C139.477 126.277 142.16 125.327 144.825 124.383L145.251 124.232C150.629 122.327 156.437 120.27 162.367 118.74C168.726 117.099 175.343 115.023 181.624 112.346C191.225 108.255 198.402 103.119 204.962 98.4253C205.977 97.6996 206.976 96.9844 207.968 96.2853C215.394 91.0489 222.794 86.355 233.818 83.2136C247.01 79.4542 255.571 72.8014 260.86 66.9244C261.168 66.5816 261.465 66.2418 261.751 65.9058C262.588 69.9174 263.519 74.3981 264.293 79.0172C265.165 84.2189 265.823 89.51 265.926 94.3843C266.028 99.2943 265.56 103.565 264.33 106.835C261.946 113.172 259.902 117.158 258.394 119.607L257.02 119.459L141.931 148.888ZM264.963 120.314L296.803 123.743C296.794 123.685 296.785 123.628 296.777 123.57C296.107 119.102 295.944 113.703 296.05 108.215C296.218 99.528 297.077 90.0448 297.998 82.5075C295.333 81.636 292.638 80.4208 290.119 79.1437C285.275 76.6879 280.173 73.5216 275.59 70.4528C272.757 68.5558 270.082 66.669 267.737 64.9672C268.558 68.9029 269.485 73.3897 270.261 78.0168C271.156 83.3567 271.865 88.9695 271.976 94.2575C272.086 99.5098 271.613 104.66 269.994 108.965C268.139 113.897 266.439 117.576 264.963 120.314Z" fill="url(#paint9_linear_611_580)"/>
<defs>
<linearGradient id="paint0_linear_611_580" x1="120.084" y1="79.0998" x2="119.804" y2="109.269" gradientUnits="userSpaceOnUse">
<stop stop-color="#91DCF0"/>
<stop offset="1" stop-color="#0E478A"/>
</linearGradient>
<linearGradient id="paint1_linear_611_580" x1="144.384" y1="88.3747" x2="155.223" y2="107.38" gradientUnits="userSpaceOnUse">
<stop stop-color="#91DCF0"/>
<stop offset="1" stop-color="#0E478A"/>
</linearGradient>
<linearGradient id="paint2_linear_611_580" x1="128.586" y1="97.0672" x2="140.659" y2="118.237" gradientUnits="userSpaceOnUse">
<stop stop-color="#91DCF0"/>
<stop offset="1" stop-color="#0E478A"/>
</linearGradient>
<linearGradient id="paint3_linear_611_580" x1="95.9121" y1="61.2565" x2="93.5942" y2="90.1093" gradientUnits="userSpaceOnUse">
<stop stop-color="#91DCF0"/>
<stop offset="1" stop-color="#0E478A"/>
</linearGradient>
<linearGradient id="paint4_linear_611_580" x1="90.6996" y1="84.4302" x2="95.9819" y2="125.687" gradientUnits="userSpaceOnUse">
<stop stop-color="#91DCF0"/>
<stop offset="1" stop-color="#0E478A"/>
</linearGradient>
<linearGradient id="paint5_linear_611_580" x1="63.2568" y1="58.9968" x2="52.4096" y2="95.3587" gradientUnits="userSpaceOnUse">
<stop stop-color="#91DCF0"/>
<stop offset="1" stop-color="#0E478A"/>
</linearGradient>
<linearGradient id="paint6_linear_611_580" x1="226.779" y1="31.0831" x2="221.554" y2="72.6226" gradientUnits="userSpaceOnUse">
<stop stop-color="#91DCF0"/>
<stop offset="1" stop-color="#0E478A"/>
</linearGradient>
<linearGradient id="paint7_linear_611_580" x1="59.5404" y1="72.1981" x2="79.2299" y2="167.576" gradientUnits="userSpaceOnUse">
<stop stop-color="#91DCF0"/>
<stop offset="1" stop-color="#0E478A"/>
</linearGradient>
<linearGradient id="paint8_linear_611_580" x1="192.907" y1="70.2141" x2="198.614" y2="115.1" gradientUnits="userSpaceOnUse">
<stop stop-color="#91DCF0"/>
<stop offset="1" stop-color="#0E478A"/>
</linearGradient>
<linearGradient id="paint9_linear_611_580" x1="209.842" y1="64.3702" x2="226.928" y2="147.14" gradientUnits="userSpaceOnUse">
<stop stop-color="#91DCF0"/>
<stop offset="1" stop-color="#0E478A"/>
</linearGradient>
</defs>
</svg>
