<svg width="126" height="113" viewBox="0 0 126 113" fill="none" xmlns="http://www.w3.org/2000/svg">
<path fill-rule="evenodd" clip-rule="evenodd" d="M71.5563 55.6675L71.928 57.9196C72.6429 57.5887 73.4698 57.153 74.3183 56.6524C75.572 55.9128 76.7545 55.1015 77.6626 54.3529L75.6783 52.6477C74.3067 53.8348 72.7017 54.935 71.5563 55.6675ZM75.6088 50.0332C73.8489 51.955 70.5704 54.0339 69.4276 54.7057L70.3775 60.4616C70.5197 60.4573 70.6953 60.428 70.8991 60.3765C71.2688 60.2831 71.7312 60.1165 72.2536 59.8926C74.2809 59.024 77.2128 57.2932 79.1512 55.6321C79.503 55.3307 79.822 55.0316 80.097 54.7403C80.2528 54.5752 80.3945 54.4127 80.52 54.2536L75.6088 50.0332Z" fill="url(#paint0_linear_817_5793)"/>
<path fill-rule="evenodd" clip-rule="evenodd" d="M62.217 55.5883C60.9613 55.7536 59.8883 55.8507 59.3567 55.8541L61.5692 57.5266C61.6122 57.5498 61.657 57.5743 61.7036 57.6002C62.6545 58.1277 64.3333 59.1992 66.1272 60.3655C66.5298 60.6272 67.1589 61.0311 67.8058 61.445C69.0014 62.2099 70.2578 63.0092 70.2578 63.0092L67.8835 54.4728C67.5698 54.5708 67.2211 54.666 66.8485 54.7573C65.4452 55.1015 63.7032 55.3927 62.217 55.5883ZM66.5186 56.817C65.9344 56.9434 65.3255 57.0593 64.7232 57.1631C65.4392 57.6141 66.2279 58.1222 67.0257 58.6403L66.5186 56.817Z" fill="url(#paint1_linear_817_5793)"/>
<path fill-rule="evenodd" clip-rule="evenodd" d="M71.0931 64.1135C71.0931 64.1135 74.4458 65.6314 76.2283 64.9276L76.0717 57.7404C75.5226 57.9121 74.8629 58.0576 74.1369 58.1809C72.0673 58.5323 69.4595 58.7035 67.3425 58.7873C65.7814 58.849 64.4872 58.8632 63.8726 58.8671L67.7605 61.3523C68.2917 61.6385 68.6721 62.0115 69.1298 62.4603C69.6106 62.9319 70.1769 63.4871 71.0931 64.1135ZM69.971 60.5823C70.1486 60.7436 70.3078 60.9002 70.4521 61.0421C70.4784 61.0679 70.5041 61.0933 70.5294 61.1181C70.9505 61.5308 71.3815 61.9472 72.0452 62.417C72.1208 62.4484 72.2224 62.4895 72.3447 62.5365C72.6455 62.6519 73.0576 62.7971 73.51 62.9214C73.7585 62.9897 74.006 63.048 74.2439 63.0919L74.1794 60.1327C72.8314 60.3477 71.3486 60.4877 69.971 60.5823Z" fill="url(#paint2_linear_817_5793)"/>
<path fill-rule="evenodd" clip-rule="evenodd" d="M86.2412 43.6435C86.4269 43.7252 86.6027 43.8139 86.7675 43.9067C87.2227 44.163 87.5945 44.4514 87.8619 44.7156L81.7072 52.947L76.3297 49.3607L79.9644 44.6806C82.3695 42.7503 84.6641 42.9492 86.2412 43.6435ZM79.1385 48.9065L81.252 50.316L85.0368 45.2543C84.8601 45.1991 84.673 45.1544 84.4776 45.1249C83.6645 45.002 82.5955 45.1196 81.3545 46.0532L79.1385 48.9065Z" fill="url(#paint3_linear_817_5793)"/>
<path fill-rule="evenodd" clip-rule="evenodd" d="M79.5025 56.6812L79.6147 61.5593C80.5258 61.1967 81.6133 60.6671 82.7577 60.0308C84.5505 59.034 86.363 57.8428 87.752 56.7445L85.2474 53.4193C83.2616 54.7941 81.0502 55.9539 79.5025 56.6812ZM84.0816 51.8714C81.6591 53.5397 78.84 54.897 77.5295 55.4439L77.7257 63.9752C77.8746 63.991 78.0471 63.9865 78.2402 63.9635C78.6357 63.9166 79.1179 63.7922 79.6617 63.6052C82.7724 62.5356 87.9024 59.4176 90.3909 57.0237L85.6323 50.7057C85.1498 51.1062 84.6257 51.4966 84.0816 51.8714Z" fill="url(#paint4_linear_817_5793)"/>
<path fill-rule="evenodd" clip-rule="evenodd" d="M98.5489 40.4569C98.5998 40.4717 98.6501 40.487 98.6998 40.5026C99.3539 40.7077 99.9097 40.9766 100.325 41.2428L94.6932 53.4672L86.8139 50.3284L90.1894 43.3412C92.9808 39.9224 96.3014 39.8013 98.5489 40.4569ZM89.466 49.3026L93.6971 50.9881L97.728 42.2388C97.2276 42.1186 96.661 42.051 96.0625 42.0861C94.8075 42.1597 93.296 42.6874 91.8381 44.3925L89.466 49.3026Z" fill="url(#paint5_linear_817_5793)"/>
<path fill-rule="evenodd" clip-rule="evenodd" d="M43.5181 51.7924L49.4236 45.829C50.1421 43.1215 50.0158 37.7496 43.7623 37.9226L30.6288 49.4936C31.092 49.5068 31.7272 49.4983 32.4694 49.4884C32.8184 49.4837 33.191 49.4787 33.5806 49.4755C36.4475 49.4519 40.2301 49.5256 42.2373 50.5385C42.866 50.8557 43.3205 51.2651 43.5181 51.7924ZM43.5187 49.0369L47.6505 44.8646C47.8503 43.8084 47.8439 42.5281 47.4238 41.5642C47.2012 41.0536 46.8738 40.6508 46.3907 40.3645C45.9896 40.1267 45.3894 39.9156 44.4905 39.8636L35.7621 47.5535C36.4474 47.5685 37.1522 47.5971 37.8488 47.6477C39.2745 47.7513 40.7791 47.9542 42.0497 48.3767C42.514 48.531 43.0287 48.7419 43.5187 49.0369Z" fill="url(#paint6_linear_817_5793)"/>
<path fill-rule="evenodd" clip-rule="evenodd" d="M81.0246 60.6893C78.4815 62.1692 75.5671 63.3089 74.2186 63.7548L74.6252 75.3237C74.8148 75.3584 75.0432 75.3486 75.3043 75.3001C75.6643 75.2332 76.0865 75.0925 76.5552 74.8929C79.644 73.5779 84.7553 69.7045 87.4165 67.5088L82.6608 59.644C82.629 59.6665 82.5971 59.689 82.5651 59.7114C82.0802 60.0503 81.5606 60.3773 81.0246 60.6893ZM82.0262 62.3457C80.0039 63.5246 77.792 64.4853 76.2108 65.0922L76.4814 72.7926C77.354 72.3531 78.3903 71.7288 79.5004 70.9949C81.3644 69.7624 83.3256 68.295 84.8804 67.0659L82.0262 62.3457ZM84.0587 58.4534L93.0448 52.9422L98.1892 59.5389L89.1251 66.0536L84.0587 58.4534ZM86.7887 59.0501L89.627 63.3079L95.421 59.1435L92.5788 55.499L86.7887 59.0501ZM100.031 58.2381L110.815 50.1248C110.576 49.6947 110.214 49.1961 109.736 48.7074C109.7 48.6702 109.663 48.6331 109.625 48.5961C107.958 46.9602 104.976 45.5029 100.889 47.199L94.587 51.7627L100.031 58.2381ZM97.4114 52.1085L100.335 55.5857L108.053 49.7788C107.669 49.4372 107.203 49.1109 106.659 48.8599C105.519 48.3336 103.936 48.0865 101.84 48.9014L97.4114 52.1085Z" fill="url(#paint7_linear_817_5793)"/>
<path fill-rule="evenodd" clip-rule="evenodd" d="M28.3496 51.9258L28.7278 50.3174L59.6976 55.0334L59.8254 55.1025C61.9813 56.2675 65.0706 58.1583 67.636 59.7767C68.9216 60.5877 70.0814 61.334 70.9349 61.8921C71.3613 62.1709 71.7132 62.4041 71.9668 62.5754C72.0932 62.6608 72.1983 62.7329 72.2772 62.7887L72.2858 62.7948C72.3356 62.8299 72.4426 62.9053 72.5138 62.9761L73.2851 63.743L72.338 64.2811C71.9524 64.5001 71.4582 64.6118 70.9717 64.6763C70.4657 64.7434 69.8788 64.7699 69.2517 64.7699C67.9966 64.7699 66.5074 64.6633 65.0417 64.5245C63.8114 64.408 62.5805 64.267 61.5021 64.1435C61.2937 64.1197 61.091 64.0965 60.8951 64.0742C59.6554 63.9333 58.743 63.838 58.3168 63.838C58.101 63.838 57.8782 63.7871 57.6892 63.7332C57.4866 63.6754 57.2571 63.5944 57.0077 63.4974C56.5089 63.3036 55.8775 63.0252 55.1301 62.6837C54.5551 62.4209 53.9128 62.1215 53.1992 61.7889C52.0284 61.2432 50.6656 60.6081 49.0926 59.8981C44.0639 57.6285 37.0561 54.6739 28.3496 51.9258ZM37.5422 53.3357C42.4058 55.1482 46.5115 56.9137 49.7813 58.3895C51.3541 59.0994 52.7503 59.75 53.934 60.3016C54.6436 60.6323 55.2768 60.9274 55.8259 61.1783C56.5704 61.5184 57.164 61.7794 57.6143 61.9544C57.8395 62.0419 58.0157 62.1027 58.1487 62.1406C58.2721 62.1758 58.322 62.1805 58.3219 62.1811C58.3219 62.1812 58.3201 62.1812 58.3168 62.1812C58.8626 62.1812 59.8941 62.2929 61.0843 62.4282C61.2828 62.4507 61.4873 62.4741 61.6967 62.4981C62.7754 62.6216 63.9873 62.7604 65.1997 62.8752C66.65 63.0126 68.0768 63.1131 69.2517 63.1131C69.4282 63.1131 69.5974 63.1108 69.7587 63.1062C68.9441 62.5757 67.895 61.9021 66.7433 61.1756C64.2316 59.5911 61.2538 57.7687 59.157 56.6272L37.5422 53.3357Z" fill="url(#paint8_linear_817_5793)"/>
<path fill-rule="evenodd" clip-rule="evenodd" d="M32.4908 70.4647L17.2367 74.0761C17.6294 73.6937 17.838 72.9348 17.9099 71.9297C18.1385 68.7386 16.9896 63.0662 15.9842 59.0875C15.812 58.4062 15.644 57.7746 15.4879 57.2136C15.7452 57.1701 16.0214 57.093 16.3129 56.9866C19.3861 55.8654 24.161 51.5019 26.5185 49.2242C26.6766 49.0714 26.8238 48.9281 26.9589 48.7957C27.5705 48.1965 27.9339 47.8224 27.9339 47.8224C27.9339 47.8224 28.2247 48.3668 28.8891 49.1429C28.9583 49.2236 29.0314 49.3069 29.1088 49.3923C30.5743 51.0113 33.5265 53.4049 38.6004 54.1733C43.0932 54.8537 46.0612 56.4432 49.06 58.0492C51.3437 59.2722 53.6453 60.5048 56.6516 61.3526C58.6418 61.9138 60.7338 62.2892 62.7613 62.5447C64.7987 62.8014 66.8031 63.2343 68.5738 63.6168C69.8682 63.8964 71.0377 64.1491 72.0041 64.2862C72.3945 64.3416 72.7518 64.3781 73.0707 64.3899L71.9916 75.3547L32.4908 70.4647ZM70.2512 73.1915L70.9516 66.0747C70.1171 65.9282 69.2234 65.7351 68.336 65.5434L68.1941 65.5128C66.403 65.1259 64.4689 64.7082 62.5169 64.4622C60.4241 64.1985 58.2313 63.8072 56.1212 63.2121C52.8959 62.3025 50.4005 60.9645 48.1197 59.7415C47.767 59.5524 47.4195 59.3661 47.0752 59.1845C44.4966 57.8245 41.9479 56.6354 38.3077 56.0842C33.9514 55.4244 30.9536 53.6614 29.0299 52.0123C28.9177 51.9161 28.8093 51.8204 28.7046 51.7254C28.6004 53.0303 28.4854 54.4875 28.4258 55.9823C28.3587 57.6657 28.3633 59.3687 28.5283 60.9173C28.6944 62.4772 29.0168 63.8114 29.5413 64.798C30.5577 66.7101 31.3707 67.8905 31.9506 68.6057L32.3823 68.5035L70.2512 73.1915ZM29.8856 69.0945L19.8779 71.4638C19.8784 71.4452 19.8789 71.4266 19.8793 71.4079C19.9116 69.9653 19.745 68.248 19.4887 66.5133C19.0832 63.7675 18.4252 60.7973 17.8263 58.4462C18.6403 58.0626 19.4497 57.5691 20.2008 57.0629C21.6451 56.0896 23.1425 54.8808 24.4787 53.7237C25.3047 53.0085 26.0807 52.3029 26.7589 51.6692C26.6568 52.9494 26.5431 54.4084 26.4834 55.9058C26.4145 57.6338 26.4161 59.4408 26.5951 61.1208C26.7729 62.7895 27.1321 64.4023 27.8226 65.7012C28.6136 67.1893 29.3043 68.2864 29.8856 69.0945Z" fill="url(#paint9_linear_817_5793)"/>
<defs>
<linearGradient id="paint0_linear_817_5793" x1="74.3858" y1="50.1993" x2="75.6828" y2="59.7495" gradientUnits="userSpaceOnUse">
<stop stop-color="#1971D9"/>
<stop offset="1" stop-color="#043A7A"/>
</linearGradient>
<linearGradient id="paint1_linear_817_5793" x1="67.0159" y1="54.1164" x2="64.3584" y2="60.5857" gradientUnits="userSpaceOnUse">
<stop stop-color="#1971D9"/>
<stop offset="1" stop-color="#043A7A"/>
</linearGradient>
<linearGradient id="paint2_linear_817_5793" x1="72.4039" y1="56.2337" x2="69.4437" y2="63.4397" gradientUnits="userSpaceOnUse">
<stop stop-color="#1971D9"/>
<stop offset="1" stop-color="#043A7A"/>
</linearGradient>
<linearGradient id="paint3_linear_817_5793" x1="81.365" y1="43.5718" x2="83.2519" y2="52.625" gradientUnits="userSpaceOnUse">
<stop stop-color="#1971D9"/>
<stop offset="1" stop-color="#043A7A"/>
</linearGradient>
<linearGradient id="paint4_linear_817_5793" x1="83.965" y1="50.7043" x2="83.9536" y2="63.9897" gradientUnits="userSpaceOnUse">
<stop stop-color="#1971D9"/>
<stop offset="1" stop-color="#043A7A"/>
</linearGradient>
<linearGradient id="paint5_linear_817_5793" x1="91.6809" y1="41.5394" x2="96.5639" y2="52.6446" gradientUnits="userSpaceOnUse">
<stop stop-color="#1971D9"/>
<stop offset="1" stop-color="#043A7A"/>
</linearGradient>
<linearGradient id="paint6_linear_817_5793" x1="38.4383" y1="39.2834" x2="41.7509" y2="52.2441" gradientUnits="userSpaceOnUse">
<stop stop-color="#1971D9"/>
<stop offset="1" stop-color="#043A7A"/>
</linearGradient>
<linearGradient id="paint7_linear_817_5793" x1="93.3999" y1="45.5726" x2="91.0174" y2="76.5893" gradientUnits="userSpaceOnUse">
<stop stop-color="#1971D9"/>
<stop offset="1" stop-color="#043A7A"/>
</linearGradient>
<linearGradient id="paint8_linear_817_5793" x1="50.8174" y1="50.3174" x2="50.8174" y2="64.7699" gradientUnits="userSpaceOnUse">
<stop stop-color="#1971D9"/>
<stop offset="1" stop-color="#043A7A"/>
</linearGradient>
<linearGradient id="paint9_linear_817_5793" x1="45.1848" y1="49.1475" x2="43.1173" y2="76.064" gradientUnits="userSpaceOnUse">
<stop stop-color="#1971D9"/>
<stop offset="1" stop-color="#043A7A"/>
</linearGradient>
</defs>
</svg>
