<svg width="125" height="112" viewBox="0 0 125 112" fill="none" xmlns="http://www.w3.org/2000/svg">
<path fill-rule="evenodd" clip-rule="evenodd" d="M70.6686 55.2234L71.036 57.4621C71.7426 57.1332 72.5598 56.7001 73.3985 56.2025C74.6377 55.4672 75.8064 54.6608 76.704 53.9167L74.7428 52.2216C73.3871 53.4016 71.8007 54.4953 70.6686 55.2234ZM74.674 49.6226C72.9346 51.5329 69.6942 53.5995 68.5646 54.2673L69.5036 59.9891C69.644 59.9847 69.8176 59.9557 70.019 59.9045C70.3845 59.8116 70.8415 59.646 71.3578 59.4235C73.3615 58.5599 76.2594 56.8395 78.1753 55.1883C78.5229 54.8886 78.8383 54.5913 79.1101 54.3017C79.2641 54.1376 79.4041 53.976 79.5282 53.818L74.674 49.6226Z" fill="url(#paint0_linear_0_108)"/>
<path fill-rule="evenodd" clip-rule="evenodd" d="M61.4388 55.1456C60.1977 55.31 59.1371 55.4065 58.6117 55.4099L60.7985 57.0724C60.841 57.0955 60.8853 57.1199 60.9313 57.1456C61.8712 57.67 63.5305 58.7351 65.3035 59.8945C65.7014 60.1547 66.3232 60.5561 66.9626 60.9676C68.1443 61.7279 69.3861 62.5225 69.3861 62.5225L67.0395 54.0368C66.7294 54.1342 66.3847 54.2288 66.0165 54.3196C64.6295 54.6618 62.9077 54.9512 61.4388 55.1456ZM65.6904 56.367C65.1129 56.4927 64.5112 56.6079 63.9159 56.7111C64.6236 57.1594 65.4031 57.6645 66.1916 58.1796L65.6904 56.367Z" fill="url(#paint1_linear_0_108)"/>
<path fill-rule="evenodd" clip-rule="evenodd" d="M70.2107 63.6206C70.2107 63.6206 73.5245 65.1294 75.2864 64.4298L75.1316 57.2853C74.5888 57.4559 73.9367 57.6006 73.2192 57.7231C71.1736 58.0725 68.5961 58.2427 66.5038 58.3259C64.9608 58.3873 63.6816 58.4014 63.0742 58.4053L66.917 60.8757C67.4419 61.1602 67.8179 61.531 68.2703 61.9772C68.7456 62.4459 69.3052 62.9979 70.2107 63.6206ZM69.1017 60.1103C69.2773 60.2707 69.4346 60.4263 69.5772 60.5674C69.6032 60.593 69.6287 60.6182 69.6537 60.6429C70.0698 61.0532 70.4958 61.4671 71.1519 61.9341C71.2266 61.9653 71.3269 62.0062 71.4479 62.0529C71.7451 62.1676 72.1524 62.312 72.5996 62.4355C72.8452 62.5034 73.0898 62.5613 73.325 62.605L73.2612 59.6633C71.9289 59.8771 70.4633 60.0162 69.1017 60.1103Z" fill="url(#paint2_linear_0_108)"/>
<path fill-rule="evenodd" clip-rule="evenodd" d="M85.1828 43.2706C85.3664 43.3519 85.5401 43.44 85.703 43.5322C86.1529 43.7871 86.5204 44.0737 86.7847 44.3364L80.7014 52.5188L75.3865 48.9539L78.9789 44.3016C81.356 42.3827 83.624 42.5805 85.1828 43.2706ZM78.1627 48.5024L80.2516 49.9035L83.9924 44.8718C83.8177 44.8169 83.6328 44.7726 83.4396 44.7432C82.636 44.6211 81.5795 44.738 80.3529 45.666L78.1627 48.5024Z" fill="url(#paint3_linear_0_108)"/>
<path fill-rule="evenodd" clip-rule="evenodd" d="M78.5231 56.2311L78.6339 61.0803C79.5345 60.7198 80.6093 60.1933 81.7405 59.5608C83.5124 58.5699 85.3038 57.3858 86.6767 56.2941L84.2013 52.9886C82.2385 54.3553 80.0528 55.5081 78.5231 56.2311ZM83.0489 51.4499C80.6547 53.1083 77.8683 54.4575 76.5731 55.0011L76.767 63.4818C76.9141 63.4975 77.0846 63.493 77.2755 63.4702C77.6664 63.4235 78.1429 63.2999 78.6804 63.114C81.7549 62.0507 86.8254 58.9513 89.2849 56.5715L84.5816 50.2911C84.1047 50.6892 83.5867 51.0773 83.0489 51.4499Z" fill="url(#paint4_linear_0_108)"/>
<path fill-rule="evenodd" clip-rule="evenodd" d="M97.3472 40.1036C97.3975 40.1183 97.4472 40.1335 97.4963 40.149C98.1428 40.3529 98.6921 40.6202 99.1027 40.8848L93.5363 53.0366L85.7485 49.9164L89.0848 42.9708C91.8438 39.5723 95.1258 39.4518 97.3472 40.1036ZM88.3698 48.8968L92.5518 50.5722L96.5358 41.875C96.0412 41.7554 95.4812 41.6882 94.8896 41.7231C93.6492 41.7963 92.1554 42.3209 90.7144 44.0158L88.3698 48.8968Z" fill="url(#paint5_linear_0_108)"/>
<path fill-rule="evenodd" clip-rule="evenodd" d="M42.9565 51.3716L48.7934 45.4437C49.5036 42.7522 49.3787 37.4122 43.1979 37.5843L30.2169 49.0865C30.6748 49.0997 31.3026 49.0912 32.0361 49.0813C32.3811 49.0766 32.7494 49.0717 33.1345 49.0685C35.9681 49.0451 39.7067 49.1183 41.6906 50.1252C42.3119 50.4405 42.7612 50.8474 42.9565 51.3716ZM42.9571 48.6325L47.0409 44.485C47.2384 43.4351 47.2321 42.1624 46.8168 41.2042C46.5968 40.6967 46.2732 40.2963 45.7958 40.0116C45.3992 39.7753 44.8061 39.5654 43.9176 39.5137L35.2906 47.1579C35.9679 47.1728 36.6646 47.2012 37.3531 47.2516C38.7622 47.3546 40.2493 47.5563 41.5052 47.9762C41.964 48.1297 42.4728 48.3393 42.9571 48.6325Z" fill="url(#paint6_linear_0_108)"/>
<path fill-rule="evenodd" clip-rule="evenodd" d="M80.0271 60.2159C77.5136 61.687 74.633 62.82 73.3003 63.2633L73.7021 74.7634C73.8895 74.7979 74.1152 74.7882 74.3733 74.7399C74.7291 74.6734 75.1464 74.5336 75.6097 74.3352C78.6625 73.0279 83.7145 69.1776 86.3448 66.9949L81.6443 59.1769C81.6129 59.1993 81.5814 59.2216 81.5497 59.2439C81.0704 59.5807 80.5569 59.9058 80.0271 60.2159ZM81.0171 61.8625C79.0183 63.0344 76.832 63.9894 75.2693 64.5927L75.5367 72.2474C76.3991 71.8105 77.4234 71.1899 78.5206 70.4603C80.363 69.2352 82.3014 67.7764 83.8381 66.5546L81.0171 61.8625ZM83.026 57.9934L91.9077 52.5149L96.9923 59.0723L88.0335 65.5484L83.026 57.9934ZM85.7243 58.5865L88.5296 62.819L94.2562 58.6793L91.4471 55.0565L85.7243 58.5865ZM98.8125 57.7793L109.471 49.7142C109.235 49.2867 108.878 48.7911 108.405 48.3052C108.369 48.2683 108.332 48.2314 108.295 48.1946C106.647 46.5684 103.7 45.1198 99.6603 46.8058L93.4319 51.3424L98.8125 57.7793ZM96.2235 51.6861L99.1128 55.1427L106.741 49.3703C106.362 49.0307 105.901 48.7063 105.364 48.4568C104.236 47.9336 102.672 47.688 100.6 48.4981L96.2235 51.6861Z" fill="url(#paint7_linear_0_108)"/>
<path fill-rule="evenodd" clip-rule="evenodd" d="M27.9648 51.5046L28.3387 49.9058L58.9485 54.5938L59.0749 54.6625C61.2058 55.8205 64.2591 57.7001 66.7947 59.3089C68.0654 60.1151 69.2117 60.8569 70.0553 61.4117C70.4768 61.6889 70.8245 61.9206 71.0752 62.091C71.2001 62.1758 71.304 62.2475 71.382 62.303L71.3905 62.309C71.4398 62.3439 71.5455 62.4189 71.6159 62.4893L72.3782 63.2516L71.4421 63.7865C71.061 64.0043 70.5725 64.1153 70.0916 64.1794C69.5916 64.2461 69.0114 64.2724 68.3917 64.2724C67.1512 64.2724 65.6792 64.1665 64.2306 64.0285C63.0146 63.9127 61.798 63.7726 60.7321 63.6498C60.5261 63.6261 60.3258 63.603 60.1322 63.5809C58.9069 63.4408 58.005 63.346 57.5838 63.346C57.3705 63.346 57.1504 63.2954 56.9635 63.2418C56.7633 63.1844 56.5365 63.1039 56.29 63.0075C55.7969 62.8148 55.1729 62.5381 54.4342 62.1986C53.8658 61.9374 53.231 61.6398 52.5257 61.3092C51.3685 60.7667 50.0215 60.1353 48.4668 59.4296C43.4965 57.1735 36.5702 54.2364 27.9648 51.5046ZM37.0506 52.9061C41.8577 54.7078 45.9156 56.4629 49.1475 57.93C50.702 58.6356 52.082 59.2823 53.2519 59.8307C53.9533 60.1594 54.5792 60.4527 55.1219 60.7021C55.8577 61.0403 56.4444 61.2997 56.8895 61.4736C57.1121 61.5606 57.2862 61.6211 57.4177 61.6588C57.5396 61.6938 57.5889 61.6984 57.5889 61.699C57.5889 61.6991 57.5871 61.6991 57.5838 61.6991C58.1232 61.6991 59.1427 61.8102 60.3192 61.9446C60.5154 61.967 60.7174 61.9903 60.9245 62.0141C61.9906 62.1369 63.1884 62.2749 64.3867 62.389C65.8202 62.5255 67.2304 62.6255 68.3917 62.6255C68.5661 62.6255 68.7333 62.6232 68.8927 62.6186C68.0876 62.0913 67.0507 61.4217 65.9124 60.6995C63.4299 59.1244 60.4867 57.3128 58.4142 56.178L37.0506 52.9061Z" fill="url(#paint8_linear_0_108)"/>
<path fill-rule="evenodd" clip-rule="evenodd" d="M32.0574 69.9337L16.9805 73.5237C17.3687 73.1436 17.5748 72.3892 17.646 71.3901C17.8718 68.2179 16.7364 62.5792 15.7426 58.6241C15.5724 57.9469 15.4064 57.319 15.2521 56.7614C15.5064 56.7182 15.7794 56.6415 16.0674 56.5358C19.105 55.4212 23.8244 51.0836 26.1545 48.8194C26.3108 48.6676 26.4563 48.5251 26.5898 48.3935C27.1943 47.7978 27.5535 47.4259 27.5535 47.4259C27.5535 47.4259 27.8409 47.9671 28.4976 48.7386C28.5659 48.8189 28.6382 48.9016 28.7147 48.9865C30.1631 50.596 33.081 52.9753 38.096 53.7392C42.5366 54.4155 45.4702 55.9956 48.4341 57.592C50.6913 58.8077 52.9661 60.033 55.9375 60.8758C57.9046 61.4337 59.9723 61.8069 61.9761 62.0608C63.9898 62.316 65.9709 62.7464 67.7211 63.1266C69.0005 63.4045 70.1564 63.6556 71.1115 63.7919C71.4974 63.847 71.8505 63.8833 72.1658 63.8951L71.0992 74.7948L32.0574 69.9337ZM69.3791 72.6444L70.0713 65.5698C69.2465 65.4242 68.3632 65.2323 67.4861 65.0417L67.3459 65.0113C65.5755 64.6267 63.6639 64.2114 61.7346 63.9669C59.6661 63.7048 57.4988 63.3158 55.4132 62.7242C52.2253 61.8201 49.759 60.49 47.5047 59.2743C47.1561 59.0863 46.8126 58.9011 46.4723 58.7206C43.9236 57.3687 41.4046 56.1866 37.8067 55.6386C33.501 54.9828 30.5381 53.2303 28.6367 51.591C28.5259 51.4954 28.4187 51.4002 28.3152 51.3058C28.2122 52.6029 28.0986 54.0515 28.0397 55.5374C27.9733 57.2108 27.9779 58.9037 28.1409 60.443C28.3052 61.9937 28.6238 63.32 29.1421 64.3007C30.1467 66.2015 30.9503 67.3749 31.5234 68.0858L31.9502 67.9842L69.3791 72.6444ZM29.4825 68.5717L19.5911 70.927C19.5916 70.9084 19.592 70.8899 19.5924 70.8714C19.6244 69.4374 19.4597 67.7303 19.2064 66.0058C18.8056 63.2764 18.1553 60.3238 17.5633 57.9866C18.3678 57.6054 19.1678 57.1147 19.9102 56.6116C21.3377 55.6441 22.8177 54.4424 24.1384 53.2923C24.9548 52.5813 25.7218 51.8799 26.3921 51.2499C26.2912 52.5225 26.1788 53.9729 26.1198 55.4613C26.0517 57.1791 26.0533 58.9754 26.2302 60.6454C26.4059 62.3041 26.761 63.9074 27.4434 65.1986C28.2252 66.6778 28.9079 67.7684 29.4825 68.5717Z" fill="url(#paint9_linear_0_108)"/>
<defs>
<linearGradient id="paint0_linear_0_108" x1="73.4652" y1="49.7877" x2="74.7616" y2="59.2792" gradientUnits="userSpaceOnUse">
<stop stop-color="#91DCF0"/>
<stop offset="1" stop-color="#0E478A"/>
</linearGradient>
<linearGradient id="paint1_linear_0_108" x1="66.182" y1="53.6825" x2="63.5294" y2="60.1027" gradientUnits="userSpaceOnUse">
<stop stop-color="#91DCF0"/>
<stop offset="1" stop-color="#0E478A"/>
</linearGradient>
<linearGradient id="paint2_linear_0_108" x1="71.5064" y1="55.7875" x2="68.5517" y2="62.9389" gradientUnits="userSpaceOnUse">
<stop stop-color="#91DCF0"/>
<stop offset="1" stop-color="#0E478A"/>
</linearGradient>
<linearGradient id="paint3_linear_0_108" x1="80.3632" y1="43.1993" x2="82.2488" y2="52.1944" gradientUnits="userSpaceOnUse">
<stop stop-color="#91DCF0"/>
<stop offset="1" stop-color="#0E478A"/>
</linearGradient>
<linearGradient id="paint4_linear_0_108" x1="82.9338" y1="50.2897" x2="82.9223" y2="63.4962" gradientUnits="userSpaceOnUse">
<stop stop-color="#91DCF0"/>
<stop offset="1" stop-color="#0E478A"/>
</linearGradient>
<linearGradient id="paint5_linear_0_108" x1="90.5589" y1="41.1796" x2="95.4318" y2="52.1983" gradientUnits="userSpaceOnUse">
<stop stop-color="#91DCF0"/>
<stop offset="1" stop-color="#0E478A"/>
</linearGradient>
<linearGradient id="paint6_linear_0_108" x1="37.9357" y1="38.9369" x2="41.2453" y2="51.8115" gradientUnits="userSpaceOnUse">
<stop stop-color="#91DCF0"/>
<stop offset="1" stop-color="#0E478A"/>
</linearGradient>
<linearGradient id="paint7_linear_0_108" x1="92.2586" y1="45.189" x2="89.8768" y2="76.0194" gradientUnits="userSpaceOnUse">
<stop stop-color="#91DCF0"/>
<stop offset="1" stop-color="#0E478A"/>
</linearGradient>
<linearGradient id="paint8_linear_0_108" x1="50.1715" y1="49.9058" x2="50.1715" y2="64.2724" gradientUnits="userSpaceOnUse">
<stop stop-color="#91DCF0"/>
<stop offset="1" stop-color="#0E478A"/>
</linearGradient>
<linearGradient id="paint9_linear_0_108" x1="44.6039" y1="48.7432" x2="42.537" y2="75.498" gradientUnits="userSpaceOnUse">
<stop stop-color="#91DCF0"/>
<stop offset="1" stop-color="#0E478A"/>
</linearGradient>
</defs>
</svg>
