<svg width="504" height="312" viewBox="0 0 504 312" fill="none" xmlns="http://www.w3.org/2000/svg">
<path fill-rule="evenodd" clip-rule="evenodd" d="M216.036 157.298L215.609 169.116C211.738 167.88 207.227 166.178 202.563 164.156C195.672 161.169 189.097 157.767 183.966 154.509L192.994 144.453C200.781 149.664 209.703 154.277 216.036 157.298ZM191.64 130.968C201.892 139.703 220.008 148.259 226.288 150.97L225.195 181.177C224.466 181.246 223.549 181.21 222.474 181.078C220.523 180.838 218.051 180.282 215.234 179.471C204.304 176.323 188.187 169.331 177.194 162.052C175.199 160.731 173.373 159.401 171.777 158.082C170.872 157.335 170.042 156.591 169.297 155.855L191.64 130.968Z" fill="url(#paint0_linear_0_69)"/>
<path fill-rule="evenodd" clip-rule="evenodd" d="M263.712 150.827C270.239 150.861 275.787 150.663 278.506 150.334L268.291 160.37C268.086 160.517 267.873 160.672 267.652 160.835C263.136 164.165 255.256 170.765 246.849 177.926C244.963 179.533 242.011 182.018 238.975 184.566C233.364 189.275 227.465 194.201 227.465 194.201L234.02 148.775C235.688 149.075 237.532 149.338 239.497 149.565C246.894 150.423 255.988 150.787 263.712 150.827ZM242.529 159.939C245.598 160.209 248.786 160.409 251.932 160.551C248.567 163.335 244.868 166.459 241.129 169.641L242.529 159.939Z" fill="url(#paint1_linear_0_69)"/>
<path fill-rule="evenodd" clip-rule="evenodd" d="M223.924 200.421C223.924 200.421 207.78 210.403 198.209 207.944L194.312 170.895C197.231 171.421 200.698 171.74 204.489 171.902C215.297 172.364 228.738 171.549 239.613 170.603C247.633 169.906 254.257 169.138 257.401 168.759L239.153 184.061C236.625 185.878 234.925 188.042 232.879 190.647C230.729 193.383 228.198 196.606 223.924 200.421ZM227.351 181.539C226.549 182.484 225.838 183.392 225.193 184.216C225.076 184.366 224.96 184.513 224.847 184.656C222.965 187.052 221.034 189.472 217.949 192.319C217.583 192.53 217.091 192.807 216.496 193.128C215.034 193.916 213.023 194.931 210.792 195.864C209.566 196.376 208.339 196.837 207.152 197.217L205.547 181.963C212.578 182.192 220.248 181.948 227.351 181.539Z" fill="url(#paint2_linear_0_69)"/>
<path fill-rule="evenodd" clip-rule="evenodd" d="M133.116 105.031C132.22 105.572 131.379 106.142 130.598 106.726C128.439 108.34 126.727 110.064 125.533 111.596L162.371 149.91L187.513 127.98L165.876 106.283C152.321 97.923 140.723 100.437 133.116 105.031ZM172.859 127.47L162.978 136.089L140.325 112.529C141.192 112.13 142.119 111.779 143.099 111.5C147.174 110.34 152.715 110.25 159.668 114.242L172.859 127.47Z" fill="url(#paint3_linear_0_69)"/>
<path fill-rule="evenodd" clip-rule="evenodd" d="M176.08 167.675L178.695 192.824C173.801 191.552 167.896 189.536 161.631 187.009C151.816 183.05 141.774 178.105 133.956 173.362L144.584 154.64C155.633 160.417 167.694 164.942 176.08 167.675ZM149.531 145.925C163.003 152.927 178.3 158.072 185.355 160.032L189.929 204.016C189.178 204.193 188.294 204.282 187.291 204.29C185.239 204.306 182.694 203.979 179.792 203.372C163.193 199.895 134.935 187.201 120.651 176.512L140.843 140.941C143.571 142.686 146.505 144.352 149.531 145.925Z" fill="url(#paint4_linear_0_69)"/>
<path fill-rule="evenodd" clip-rule="evenodd" d="M68.1296 96.6524C67.8794 96.7617 67.6322 96.8727 67.3882 96.9852C64.1794 98.4649 61.5141 100.208 59.5649 101.847L96.341 161.027L134.563 139.771L112.742 106.047C96.24 90.2862 79.1885 91.8214 68.1296 96.6524ZM120.336 136.222L99.812 147.636L73.4905 105.279C75.9694 104.336 78.821 103.62 81.9033 103.412C88.366 102.974 96.4362 104.705 105.002 112.522L120.336 136.222Z" fill="url(#paint5_linear_0_69)"/>
<path fill-rule="evenodd" clip-rule="evenodd" d="M356.81 119.157L322.728 92.3394C317.286 78.8878 314.421 51.1909 346.497 48.0164L421.189 98.9627C418.829 99.3318 415.577 99.7008 411.777 100.132C409.991 100.335 408.083 100.551 406.089 100.788C391.42 102.53 372.135 105.367 362.537 111.878C359.532 113.918 357.476 116.317 356.81 119.157ZM355.006 104.992L331.161 86.2294C329.449 80.9296 328.645 74.3439 330.162 69.1159C330.966 66.3466 332.376 64.0632 334.658 62.2774C336.553 60.7944 339.483 59.319 344.044 58.4675L393.683 92.3256C390.19 92.8479 386.606 93.4529 383.079 94.1659C375.86 95.6252 368.302 97.6462 362.083 100.644C359.811 101.739 357.318 103.157 355.006 104.992Z" fill="url(#paint6_linear_0_69)"/>
<path fill-rule="evenodd" clip-rule="evenodd" d="M170.924 189.27C184.89 195.224 200.531 199.189 207.715 200.605L213.199 260.34C212.252 260.642 211.078 260.74 209.712 260.66C207.829 260.55 205.579 260.101 203.052 259.38C186.405 254.627 157.748 238.038 142.711 228.48L161.878 184.96C162.055 185.055 162.233 185.149 162.411 185.244C165.111 186.671 167.981 188.014 170.924 189.27ZM166.888 198.436C177.994 203.181 189.928 206.682 198.407 208.775L202.057 248.535C197.31 246.843 191.605 244.307 185.451 241.256C175.118 236.132 164.135 229.863 155.384 224.555L166.888 198.436ZM153.955 179.748L104.422 157.257L82.44 194.511L133.027 222.11L153.955 179.748ZM140.391 184.589L128.667 208.321L96.3307 190.68L108.475 170.098L140.391 184.589ZM72.1767 189.021L11.7549 154.322C12.6955 151.956 14.2168 149.158 16.3419 146.335C16.5035 146.12 16.6686 145.906 16.8372 145.691C24.2882 136.198 38.5781 126.768 60.5771 132.831L95.769 152.196L72.1767 189.021ZM81.5589 155.809L68.8902 175.584L25.6449 150.749C27.3811 148.744 29.5536 146.763 32.1693 145.119C37.6538 141.672 45.5809 139.374 56.8281 142.201L81.5589 155.809Z" fill="url(#paint7_linear_0_69)"/>
<path fill-rule="evenodd" clip-rule="evenodd" d="M434.424 109.986L431.44 101.964L276.229 146.334L275.62 146.772C265.363 154.162 250.809 165.89 238.754 175.877C232.713 180.881 227.273 185.471 223.275 188.895C221.278 190.606 219.632 192.033 218.448 193.078C217.858 193.599 217.368 194.038 217.001 194.376L216.961 194.413C216.729 194.626 216.232 195.083 215.914 195.494L212.473 199.937L217.665 202.088C219.779 202.963 222.379 203.216 224.907 203.232C227.537 203.248 230.554 203.002 233.76 202.595C240.175 201.779 247.717 200.263 255.117 198.597C261.33 197.199 267.529 195.674 272.96 194.338C274.01 194.08 275.031 193.829 276.017 193.588C282.262 192.058 286.863 190.974 289.042 190.697C290.144 190.557 291.25 190.151 292.18 189.751C293.178 189.322 294.298 188.757 295.51 188.096C297.933 186.775 300.978 184.934 304.575 182.693C307.342 180.968 310.429 179.012 313.859 176.838C319.487 173.272 326.037 169.121 333.613 164.45C357.833 149.514 391.72 129.771 434.424 109.986ZM388.361 123.208C364.686 135.686 344.855 147.43 329.107 157.142C321.532 161.813 314.821 166.065 309.131 169.67C305.721 171.831 302.677 173.76 300.034 175.406C296.452 177.639 293.588 179.366 291.401 180.558C290.307 181.154 289.446 181.582 288.791 181.863C288.183 182.124 287.931 182.181 287.932 182.184C287.932 182.184 287.941 182.183 287.959 182.181C285.169 182.535 279.97 183.78 273.974 185.249C272.975 185.494 271.945 185.747 270.89 186.007C265.458 187.343 259.354 188.844 253.232 190.222C245.909 191.87 238.682 193.314 232.677 194.078C231.775 194.193 230.908 194.291 230.081 194.372C233.898 191.116 238.82 186.971 244.231 182.488C256.034 172.71 270.063 161.406 280.034 154.176L388.361 123.208Z" fill="url(#paint8_linear_0_69)"/>
<path fill-rule="evenodd" clip-rule="evenodd" d="M425.38 207.981L505.708 216.631C503.451 214.921 501.889 211.155 500.864 206.036C497.61 189.78 499.774 159.873 502.313 138.767C502.748 135.153 503.193 131.797 503.625 128.812C502.281 128.756 500.819 128.538 499.26 128.181C482.819 124.415 455.561 105.087 442.022 94.91C441.114 94.2277 440.268 93.5864 439.491 92.9938C435.974 90.3109 433.872 88.6239 433.872 88.6239C433.872 88.6239 432.741 91.6115 429.852 96.0328C429.552 96.4929 429.232 96.9684 428.893 97.4577C422.461 106.733 408.936 120.956 383.504 128.204C360.985 134.621 346.854 144.721 332.576 154.926C321.703 162.697 310.745 170.529 295.933 176.841C286.127 181.02 275.68 184.309 265.484 186.94C255.238 189.584 245.276 193.112 236.476 196.229C230.042 198.507 224.23 200.566 219.38 201.899C217.421 202.438 215.619 202.858 213.996 203.126L226.679 258.79L425.38 207.981ZM234.16 246.539L225.928 210.409C230.098 209.114 234.54 207.541 238.95 205.978L239.655 205.728C248.557 202.576 258.17 199.171 267.986 196.638C278.511 193.923 289.463 190.486 299.859 186.055C315.75 179.283 327.63 170.784 338.488 163.014C340.167 161.813 341.822 160.629 343.463 159.472C355.754 150.805 368.004 143.036 386.249 137.836C408.084 131.614 422.254 120.602 431.008 110.875C431.519 110.308 432.011 109.745 432.484 109.189C433.869 115.829 435.409 123.245 436.691 130.891C438.134 139.5 439.224 148.258 439.393 156.326C439.563 164.453 438.788 171.521 436.752 176.934C432.807 187.423 429.423 194.02 426.926 198.073L424.653 197.828L234.16 246.539ZM437.8 199.244L490.501 204.92C490.486 204.824 490.471 204.729 490.457 204.633C489.349 197.238 489.078 188.302 489.254 179.218C489.532 164.84 490.954 149.143 492.478 136.668C488.067 135.225 483.607 133.214 479.438 131.1C471.419 127.035 462.975 121.794 455.389 116.715C450.7 113.575 446.272 110.452 442.392 107.635C443.75 114.15 445.285 121.576 446.569 129.235C448.051 138.073 449.224 147.363 449.407 156.116C449.589 164.809 448.807 173.334 446.127 180.459C443.057 188.623 440.244 194.712 437.8 199.244Z" fill="url(#paint9_linear_0_69)"/>
<defs>
<linearGradient id="paint0_linear_0_69" x1="198" y1="131.027" x2="197.537" y2="180.963" gradientUnits="userSpaceOnUse">
<stop stop-color="#91DCF0"/>
<stop offset="1" stop-color="#0E478A"/>
</linearGradient>
<linearGradient id="paint1_linear_0_69" x1="238.222" y1="146.379" x2="256.161" y2="177.836" gradientUnits="userSpaceOnUse">
<stop stop-color="#91DCF0"/>
<stop offset="1" stop-color="#0E478A"/>
</linearGradient>
<linearGradient id="paint2_linear_0_69" x1="212.074" y1="160.766" x2="232.056" y2="195.805" gradientUnits="userSpaceOnUse">
<stop stop-color="#91DCF0"/>
<stop offset="1" stop-color="#0E478A"/>
</linearGradient>
<linearGradient id="paint3_linear_0_69" x1="157.992" y1="101.493" x2="154.156" y2="149.25" gradientUnits="userSpaceOnUse">
<stop stop-color="#91DCF0"/>
<stop offset="1" stop-color="#0E478A"/>
</linearGradient>
<linearGradient id="paint4_linear_0_69" x1="149.364" y1="139.85" x2="158.107" y2="208.138" gradientUnits="userSpaceOnUse">
<stop stop-color="#91DCF0"/>
<stop offset="1" stop-color="#0E478A"/>
</linearGradient>
<linearGradient id="paint5_linear_0_69" x1="103.941" y1="97.7534" x2="85.9875" y2="157.939" gradientUnits="userSpaceOnUse">
<stop stop-color="#91DCF0"/>
<stop offset="1" stop-color="#0E478A"/>
</linearGradient>
<linearGradient id="paint6_linear_0_69" x1="374.598" y1="51.5515" x2="365.949" y2="120.306" gradientUnits="userSpaceOnUse">
<stop stop-color="#91DCF0"/>
<stop offset="1" stop-color="#0E478A"/>
</linearGradient>
<linearGradient id="paint7_linear_0_69" x1="97.7904" y1="119.603" x2="130.38" y2="277.471" gradientUnits="userSpaceOnUse">
<stop stop-color="#91DCF0"/>
<stop offset="1" stop-color="#0E478A"/>
</linearGradient>
<linearGradient id="paint8_linear_0_69" x1="318.535" y1="116.32" x2="327.982" y2="190.614" gradientUnits="userSpaceOnUse">
<stop stop-color="#91DCF0"/>
<stop offset="1" stop-color="#0E478A"/>
</linearGradient>
<linearGradient id="paint9_linear_0_69" x1="346.564" y1="106.647" x2="374.846" y2="243.646" gradientUnits="userSpaceOnUse">
<stop stop-color="#91DCF0"/>
<stop offset="1" stop-color="#0E478A"/>
</linearGradient>
</defs>
</svg>
