<svg width="17" height="10" viewBox="0 0 17 10" fill="none" xmlns="http://www.w3.org/2000/svg">
<path d="M0.374196 0.382399C0.613866 0.137549 0.938885 0 1.27778 0C1.61667 0 1.94169 0.137549 2.18136 0.382399L8.50772 6.84743L14.8341 0.382399C15.0751 0.144488 15.398 0.0128435 15.7331 0.0158193C16.0682 0.018795 16.3887 0.156153 16.6257 0.398309C16.8626 0.640464 16.997 0.968042 17 1.31049C17.0029 1.65294 16.874 1.98285 16.6412 2.22918L9.4113 9.6176C9.17163 9.86245 8.84661 10 8.50772 10C8.16882 10 7.8438 9.86245 7.60413 9.6176L0.374196 2.22918C0.134599 1.98425 0 1.65211 0 1.30579C0 0.959466 0.134599 0.627323 0.374196 0.382399Z" fill="white"/>
</svg>
