<svg width="133" height="41" viewBox="0 0 133 41" fill="none" xmlns="http://www.w3.org/2000/svg">
<path d="M0 0.399902H9.8561C13.6343 0.399902 16.5254 1.17654 18.5295 2.72982C20.5335 4.2831 21.5356 6.9435 21.5356 10.711C21.5356 13.1566 21.0428 15.0734 20.0572 16.4615C19.0716 17.8164 17.6424 18.6427 15.7698 18.9401C20.3693 19.8324 22.669 23.1372 22.669 28.8546C22.669 32.7213 21.7327 35.6461 19.86 37.629C17.9874 39.5789 15.2113 40.5538 11.5316 40.5538H0V0.399902ZM9.75754 16.8085C11.8602 16.8085 13.2893 16.3458 14.0449 15.4204C14.8334 14.462 15.2277 12.9253 15.2277 10.8102C15.2277 8.76116 14.7184 7.37313 13.7 6.64606C12.7144 5.88595 11.0553 5.50589 8.72265 5.50589H7.24423V16.8085H9.75754ZM10.0532 35.3982C12.1887 35.3982 13.6671 34.886 14.4885 33.8615C15.3098 32.837 15.7205 31.1515 15.7205 28.8051C15.7205 26.3925 15.2605 24.6409 14.3406 23.5503C13.4536 22.4267 11.9423 21.8649 9.80682 21.8649H7.24423V35.3982H10.0532Z" fill="url(#paint0_linear_817_5805)"/>
<path d="M35.6121 40.9999C32.4581 40.9999 30.142 40.1242 28.6635 38.3726C27.1851 36.588 26.4459 33.9606 26.4459 30.4905V21.964C26.4459 18.4609 27.1851 15.8335 28.6635 14.082C30.1748 12.3304 32.491 11.4546 35.6121 11.4546C38.8318 11.4546 41.0987 12.3634 42.4128 14.1811C43.7598 15.9988 44.4333 18.7418 44.4333 22.4102V26.5247H33.0988V32.176C33.0988 33.564 33.2959 34.572 33.6902 35.1999C34.1173 35.8279 34.7743 36.1418 35.6614 36.1418C36.5156 36.1418 37.1234 35.8444 37.4848 35.2495C37.879 34.6216 38.0761 33.6797 38.0761 32.4239V29.9948H44.384V31.9777C44.384 34.919 43.6448 37.1663 42.1664 38.7196C40.688 40.2398 38.5032 40.9999 35.6121 40.9999ZM38.0761 23.2033V20.4768C38.0761 18.9897 37.8954 17.9321 37.534 17.3042C37.1726 16.6432 36.532 16.3127 35.6121 16.3127C34.6593 16.3127 34.0023 16.6597 33.6409 17.3538C33.2795 18.0478 33.0988 19.3367 33.0988 21.2204V23.2033H38.0761Z" fill="url(#paint1_linear_817_5805)"/>
<path d="M49.4249 0.399902H54.5008L64.209 23.3025V0.399902H70.2213V40.5538H65.3918L55.6342 16.5606V40.5538H49.4249V0.399902Z" fill="url(#paint2_linear_817_5805)"/>
<path d="M76.2789 0.399902H92.6893V5.45632H83.5231V17.1555H91.0138V22.2615H83.5231V40.5538H76.2789V0.399902Z" fill="url(#paint3_linear_817_5805)"/>
<path d="M100.628 5.80333H94.2705V0.399902H114.131V5.80333H107.921V40.5538H100.628V5.80333Z" fill="url(#paint4_linear_817_5805)"/>
<path d="M124.672 40.9999C122.273 40.9999 120.302 40.3555 118.758 39.0666C117.214 37.7777 116.113 35.8939 115.456 33.4153L120.433 31.482C121.189 34.6877 122.569 36.2905 124.573 36.2905C125.329 36.2905 125.904 36.0922 126.298 35.6957C126.725 35.2991 126.938 34.7538 126.938 34.0598C126.938 33.2996 126.709 32.6056 126.249 31.9777C125.789 31.3167 124.967 30.4905 123.785 29.4991L120.384 26.5247C118.939 25.335 117.871 24.1783 117.181 23.0546C116.491 21.931 116.146 20.5595 116.146 18.9401C116.146 16.6928 116.902 14.8917 118.413 13.5367C119.957 12.1486 121.895 11.4546 124.228 11.4546C126.462 11.4546 128.285 12.1321 129.698 13.4871C131.111 14.809 132.031 16.6102 132.458 18.8905L128.072 20.7743C127.809 19.4523 127.366 18.3783 126.741 17.5521C126.15 16.6928 125.378 16.2632 124.425 16.2632C123.735 16.2632 123.177 16.478 122.75 16.9076C122.355 17.3372 122.158 17.8825 122.158 18.5435C122.158 19.0723 122.388 19.6341 122.848 20.229C123.308 20.8239 123.998 21.5179 124.918 22.311L128.368 25.4837C129.846 26.7726 130.98 28.0119 131.768 29.2016C132.589 30.3583 133 31.7629 133 33.4153C133 35.8279 132.212 37.6951 130.635 39.017C129.09 40.339 127.103 40.9999 124.672 40.9999Z" fill="url(#paint5_linear_817_5805)"/>
<defs>
<linearGradient id="paint0_linear_817_5805" x1="66.5" y1="0.399902" x2="66.5" y2="40.9999" gradientUnits="userSpaceOnUse">
<stop stop-color="#1971D9"/>
</linearGradient>
<linearGradient id="paint1_linear_817_5805" x1="66.5" y1="0.399902" x2="66.5" y2="40.9999" gradientUnits="userSpaceOnUse">
<stop stop-color="#1971D9"/>
</linearGradient>
<linearGradient id="paint2_linear_817_5805" x1="66.5" y1="0.399902" x2="66.5" y2="40.9999" gradientUnits="userSpaceOnUse">
<stop stop-color="#1971D9"/>
</linearGradient>
<linearGradient id="paint3_linear_817_5805" x1="66.5" y1="0.399902" x2="66.5" y2="40.9999" gradientUnits="userSpaceOnUse">
<stop stop-color="#1971D9"/>
</linearGradient>
<linearGradient id="paint4_linear_817_5805" x1="66.5" y1="0.399902" x2="66.5" y2="40.9999" gradientUnits="userSpaceOnUse">
<stop stop-color="#1971D9"/>
</linearGradient>
<linearGradient id="paint5_linear_817_5805" x1="66.5" y1="0.399902" x2="66.5" y2="40.9999" gradientUnits="userSpaceOnUse">
<stop stop-color="#1971D9"/>
</linearGradient>
</defs>
</svg>
