<svg width="125" height="131" viewBox="0 0 125 131" fill="none" xmlns="http://www.w3.org/2000/svg">
<path fill-rule="evenodd" clip-rule="evenodd" d="M57.8904 48.0939L76.2453 37.4967L76.2453 16.3023L57.8904 5.70503L39.5355 16.3023L39.5355 37.4967L57.8904 48.0939ZM34.5948 40.3492L57.8904 53.7989L81.186 40.3492L81.186 13.4497L57.8904 -1.72954e-05L34.5948 13.4497L34.5948 40.3492Z" fill="url(#paint0_linear_0_104)"/>
<path fill-rule="evenodd" clip-rule="evenodd" d="M65.5774 5.70518L47.2225 16.3024V37.4968L65.5774 48.094L83.9323 37.4968V16.3024L65.5774 5.70518ZM88.873 13.4499L65.5774 0.00012207L42.2817 13.4499V40.3493L65.5774 53.7991L88.873 40.3493V13.4499Z" fill="url(#paint1_linear_0_104)"/>
<path fill-rule="evenodd" clip-rule="evenodd" d="M70.6686 74.223L71.036 76.4617C71.7426 76.1328 72.5598 75.6997 73.3985 75.2021C74.6377 74.4669 75.8064 73.6604 76.704 72.9163L74.7428 71.2212C73.3871 72.4013 71.8007 73.4949 70.6686 74.223ZM74.674 68.6222C72.9346 70.5326 69.6942 72.5991 68.5646 73.267L69.5036 78.9887C69.644 78.9844 69.8176 78.9553 70.019 78.9041C70.3845 78.8113 70.8415 78.6456 71.3578 78.4231C73.3615 77.5596 76.2594 75.8391 78.1753 74.1879C78.5229 73.8882 78.8383 73.5909 79.1101 73.3013C79.2641 73.1372 79.4041 72.9757 79.5282 72.8176L74.674 68.6222Z" fill="url(#paint2_linear_0_104)"/>
<path fill-rule="evenodd" clip-rule="evenodd" d="M61.4388 74.1453C60.1977 74.3096 59.1371 74.4062 58.6117 74.4095L60.7985 76.0721C60.841 76.0951 60.8853 76.1195 60.9313 76.1452C61.8712 76.6696 63.5305 77.7348 65.3035 78.8941C65.7014 79.1543 66.3232 79.5557 66.9626 79.9672C68.1443 80.7276 69.3861 81.5221 69.3861 81.5221L67.0395 73.0364C66.7294 73.1339 66.3847 73.2284 66.0165 73.3193C64.6295 73.6614 62.9077 73.9508 61.4388 74.1453ZM65.6904 75.3667C65.1129 75.4924 64.5112 75.6075 63.9159 75.7108C64.6236 76.1591 65.4031 76.6641 66.1916 77.1792L65.6904 75.3667Z" fill="url(#paint3_linear_0_104)"/>
<path fill-rule="evenodd" clip-rule="evenodd" d="M70.2107 82.6202C70.2107 82.6202 73.5245 84.129 75.2864 83.4295L75.1316 76.2849C74.5888 76.4556 73.9367 76.6002 73.2192 76.7228C71.1736 77.0721 68.5961 77.2423 66.5038 77.3255C64.9608 77.3869 63.6816 77.4011 63.0742 77.405L66.917 79.8753C67.4419 80.1599 67.8179 80.5306 68.2703 80.9768C68.7456 81.4455 69.3052 81.9975 70.2107 82.6202ZM69.1017 79.11C69.2773 79.2703 69.4346 79.4259 69.5772 79.567C69.6032 79.5927 69.6287 79.6179 69.6537 79.6425C70.0698 80.0528 70.4958 80.4667 71.1519 80.9338C71.2266 80.965 71.3269 81.0058 71.4479 81.0525C71.7451 81.1672 72.1524 81.3116 72.5996 81.4352C72.8452 81.503 73.0898 81.561 73.325 81.6046L73.2612 78.663C71.9289 78.8767 70.4633 79.0159 69.1017 79.11Z" fill="url(#paint4_linear_0_104)"/>
<path fill-rule="evenodd" clip-rule="evenodd" d="M85.1828 62.2702C85.3664 62.3515 85.5401 62.4396 85.703 62.5319C86.1529 62.7867 86.5204 63.0734 86.7847 63.336L80.7014 71.5184L75.3865 67.9535L78.9789 63.3012C81.356 61.3823 83.624 61.5801 85.1828 62.2702ZM78.1627 67.502L80.2516 68.9031L83.9924 63.8715C83.8177 63.8166 83.6328 63.7722 83.4396 63.7428C82.636 63.6207 81.5795 63.7376 80.3529 64.6656L78.1627 67.502Z" fill="url(#paint5_linear_0_104)"/>
<path fill-rule="evenodd" clip-rule="evenodd" d="M78.5231 75.2307L78.6339 80.0799C79.5345 79.7194 80.6093 79.193 81.7405 78.5604C83.5124 77.5696 85.3038 76.3854 86.6767 75.2937L84.2013 71.9882C82.2385 73.3549 80.0528 74.5077 78.5231 75.2307ZM83.0489 70.4495C80.6547 72.1079 77.8683 73.4572 76.5731 74.0007L76.767 82.4815C76.9141 82.4971 77.0846 82.4926 77.2755 82.4698C77.6664 82.4231 78.1429 82.2995 78.6804 82.1136C81.7549 81.0503 86.8254 77.9509 89.2849 75.5712L84.5816 69.2908C84.1047 69.6889 83.5867 70.077 83.0489 70.4495Z" fill="url(#paint6_linear_0_104)"/>
<path fill-rule="evenodd" clip-rule="evenodd" d="M97.3472 59.1032C97.3975 59.118 97.4472 59.1331 97.4963 59.1486C98.1428 59.3526 98.6921 59.6198 99.1027 59.8845L93.5363 72.0362L85.7485 68.916L89.0848 61.9704C91.8438 58.5719 95.1258 58.4515 97.3472 59.1032ZM88.3698 67.8964L92.5518 69.5719L96.5358 60.8746C96.0412 60.755 95.4812 60.6879 94.8896 60.7227C93.6492 60.7959 92.1554 61.3205 90.7144 63.0154L88.3698 67.8964Z" fill="url(#paint7_linear_0_104)"/>
<path fill-rule="evenodd" clip-rule="evenodd" d="M42.9565 70.3713L48.7934 64.4433C49.5036 61.7518 49.3787 56.4119 43.1979 56.5839L30.2169 68.0861C30.6748 68.0993 31.3026 68.0908 32.0361 68.0809C32.3811 68.0763 32.7494 68.0713 33.1345 68.0681C35.9681 68.0447 39.7067 68.1179 41.6906 69.1248C42.3119 69.4401 42.7612 69.8471 42.9565 70.3713ZM42.9571 67.6321L47.0409 63.4846C47.2384 62.4347 47.2321 61.162 46.8168 60.2038C46.5968 59.6963 46.2732 59.2959 45.7958 59.0113C45.3992 58.7749 44.8061 58.565 43.9176 58.5133L35.2906 66.1576C35.9679 66.1724 36.6646 66.2009 37.3531 66.2512C38.7622 66.3542 40.2493 66.5559 41.5052 66.9759C41.964 67.1293 42.4728 67.3389 42.9571 67.6321Z" fill="url(#paint8_linear_0_104)"/>
<path fill-rule="evenodd" clip-rule="evenodd" d="M80.0271 79.2156C77.5136 80.6867 74.633 81.8196 73.3003 82.2629L73.7021 93.763C73.8895 93.7975 74.1152 93.7878 74.3733 93.7396C74.7291 93.673 75.1464 93.5332 75.6097 93.3348C78.6625 92.0276 83.7145 88.1772 86.3448 85.9946L81.6443 78.1765C81.6129 78.1989 81.5814 78.2212 81.5497 78.2435C81.0704 78.5804 80.5569 78.9055 80.0271 79.2156ZM81.0171 80.8622C79.0183 82.034 76.832 82.989 75.2693 83.5924L75.5367 91.247C76.3991 90.8101 77.4234 90.1895 78.5206 89.4599C80.363 88.2348 82.3014 86.7761 83.8381 85.5543L81.0171 80.8622ZM83.026 76.993L91.9077 71.5145L96.9923 78.072L88.0335 84.548L83.026 76.993ZM85.7243 77.5862L88.5296 81.8186L94.2562 77.679L91.4471 74.0562L85.7243 77.5862ZM98.8125 76.779L109.471 68.7139C109.235 68.2863 108.878 67.7907 108.405 67.3049C108.369 67.2679 108.332 67.231 108.295 67.1942C106.647 65.568 103.7 64.1194 99.6603 65.8055L93.4319 70.342L98.8125 76.779ZM96.2235 70.6858L99.1128 74.1423L106.741 68.3699C106.362 68.0303 105.901 67.7059 105.364 67.4564C104.236 66.9333 102.672 66.6876 100.6 67.4977L96.2235 70.6858Z" fill="url(#paint9_linear_0_104)"/>
<path fill-rule="evenodd" clip-rule="evenodd" d="M27.9648 70.5042L28.3387 68.9054L58.9485 73.5934L59.0749 73.6621C61.2058 74.8202 64.2591 76.6997 66.7947 78.3085C68.0654 79.1147 69.2117 79.8565 70.0553 80.4113C70.4768 80.6885 70.8245 80.9203 71.0752 81.0906C71.2001 81.1755 71.304 81.2472 71.382 81.3026L71.3905 81.3087C71.4398 81.3436 71.5455 81.4185 71.6159 81.4889L72.3782 82.2512L71.4421 82.7861C71.061 83.0039 70.5725 83.1149 70.0916 83.179C69.5916 83.2457 69.0114 83.272 68.3917 83.272C67.1512 83.272 65.6792 83.1661 64.2306 83.0281C63.0146 82.9123 61.798 82.7722 60.7321 82.6494C60.5261 82.6257 60.3258 82.6026 60.1322 82.5805C58.9069 82.4405 58.005 82.3456 57.5838 82.3456C57.3705 82.3456 57.1504 82.2951 56.9635 82.2415C56.7633 82.184 56.5365 82.1035 56.29 82.0072C55.7969 81.8144 55.1729 81.5377 54.4342 81.1982C53.8658 80.937 53.231 80.6394 52.5257 80.3088C51.3685 79.7664 50.0215 79.1349 48.4668 78.4292C43.4965 76.1731 36.5702 73.2361 27.9648 70.5042ZM37.0506 71.9058C41.8577 73.7075 45.9156 75.4626 49.1475 76.9296C50.702 77.6352 52.082 78.282 53.2519 78.8303C53.9533 79.159 54.5792 79.4523 55.1219 79.7018C55.8577 80.0399 56.4444 80.2993 56.8895 80.4733C57.1121 80.5603 57.2862 80.6207 57.4177 80.6584C57.5396 80.6934 57.5889 80.6981 57.5889 80.6987C57.5889 80.6988 57.5871 80.6987 57.5838 80.6987C58.1232 80.6987 59.1427 80.8098 60.3192 80.9442C60.5154 80.9667 60.7174 80.9899 60.9245 81.0138C61.9906 81.1366 63.1884 81.2745 64.3867 81.3887C65.8202 81.5252 67.2304 81.6251 68.3917 81.6251C68.5661 81.6251 68.7333 81.6229 68.8927 81.6182C68.0876 81.0909 67.0507 80.4213 65.9124 79.6991C63.4299 78.124 60.4867 76.3124 58.4142 75.1777L37.0506 71.9058Z" fill="url(#paint10_linear_0_104)"/>
<path fill-rule="evenodd" clip-rule="evenodd" d="M32.0574 88.9334L16.9805 92.5233C17.3687 92.1432 17.5748 91.3888 17.646 90.3897C17.8718 87.2176 16.7364 81.5788 15.7426 77.6238C15.5724 76.9465 15.4064 76.3187 15.2521 75.761C15.5064 75.7178 15.7794 75.6411 16.0674 75.5354C19.105 74.4208 23.8244 70.0833 26.1545 67.819C26.3108 67.6672 26.4563 67.5247 26.5898 67.3931C27.1943 66.7975 27.5535 66.4256 27.5535 66.4256C27.5535 66.4256 27.8409 66.9668 28.4976 67.7382C28.5659 67.8185 28.6382 67.9013 28.7147 67.9862C30.1631 69.5956 33.081 71.975 38.096 72.7388C42.5366 73.4151 45.4702 74.9952 48.4341 76.5916C50.6913 77.8074 52.9661 79.0326 55.9375 79.8754C57.9046 80.4333 59.9723 80.8065 61.9761 81.0604C63.9898 81.3156 65.9709 81.746 67.7211 82.1262C69.0005 82.4041 70.1564 82.6553 71.1115 82.7916C71.4974 82.8466 71.8505 82.883 72.1658 82.8947L71.0992 93.7944L32.0574 88.9334ZM69.3791 91.644L70.0713 84.5695C69.2465 84.4239 68.3632 84.2319 67.4861 84.0414L67.3459 84.0109C65.5755 83.6263 63.6639 83.2111 61.7346 82.9666C59.6661 82.7045 57.4988 82.3154 55.4132 81.7239C52.2253 80.8197 49.759 79.4897 47.5047 78.2739C47.1561 78.086 46.8126 77.9007 46.4723 77.7202C43.9236 76.3683 41.4046 75.1863 37.8067 74.6383C33.501 73.9825 30.5381 72.2299 28.6367 70.5906C28.5259 70.495 28.4187 70.3999 28.3152 70.3055C28.2122 71.6026 28.0986 73.0511 28.0397 74.5371C27.9733 76.2104 27.9779 77.9033 28.1409 79.4427C28.3052 80.9933 28.6238 82.3197 29.1421 83.3004C30.1467 85.2011 30.9503 86.3745 31.5234 87.0854L31.9502 86.9838L69.3791 91.644ZM29.4825 87.5714L19.5911 89.9266C19.5916 89.9081 19.592 89.8895 19.5924 89.871C19.6244 88.437 19.4597 86.7299 19.2064 85.0055C18.8056 82.276 18.1553 79.3235 17.5633 76.9863C18.3678 76.605 19.1678 76.1144 19.9102 75.6112C21.3377 74.6437 22.8177 73.4421 24.1384 72.2919C24.9548 71.5809 25.7218 70.8795 26.3921 70.2496C26.2912 71.5221 26.1788 72.9725 26.1198 74.4609C26.0517 76.1787 26.0533 77.975 26.2302 79.6451C26.4059 81.3038 26.761 82.907 27.4434 84.1982C28.2252 85.6774 28.9079 86.768 29.4825 87.5714Z" fill="url(#paint11_linear_0_104)"/>
<defs>
<linearGradient id="paint0_linear_0_104" x1="57.8904" y1="53.7989" x2="57.8904" y2="-2.11101e-05" gradientUnits="userSpaceOnUse">
<stop stop-color="#1971D9"/>
<stop offset="1" stop-color="#043A7A"/>
</linearGradient>
<linearGradient id="paint1_linear_0_104" x1="65.5774" y1="0.00012207" x2="65.5774" y2="53.7991" gradientUnits="userSpaceOnUse">
<stop stop-color="#91DCF0"/>
<stop offset="1" stop-color="#0E478A"/>
</linearGradient>
<linearGradient id="paint2_linear_0_104" x1="73.4652" y1="68.7873" x2="74.7616" y2="78.2788" gradientUnits="userSpaceOnUse">
<stop stop-color="#91DCF0"/>
<stop offset="1" stop-color="#0E478A"/>
</linearGradient>
<linearGradient id="paint3_linear_0_104" x1="66.182" y1="72.6821" x2="63.5294" y2="79.1023" gradientUnits="userSpaceOnUse">
<stop stop-color="#91DCF0"/>
<stop offset="1" stop-color="#0E478A"/>
</linearGradient>
<linearGradient id="paint4_linear_0_104" x1="71.5064" y1="74.7871" x2="68.5517" y2="81.9385" gradientUnits="userSpaceOnUse">
<stop stop-color="#91DCF0"/>
<stop offset="1" stop-color="#0E478A"/>
</linearGradient>
<linearGradient id="paint5_linear_0_104" x1="80.3632" y1="62.199" x2="82.2488" y2="71.1941" gradientUnits="userSpaceOnUse">
<stop stop-color="#91DCF0"/>
<stop offset="1" stop-color="#0E478A"/>
</linearGradient>
<linearGradient id="paint6_linear_0_104" x1="82.9338" y1="69.2893" x2="82.9223" y2="82.4959" gradientUnits="userSpaceOnUse">
<stop stop-color="#91DCF0"/>
<stop offset="1" stop-color="#0E478A"/>
</linearGradient>
<linearGradient id="paint7_linear_0_104" x1="90.5589" y1="60.1793" x2="95.4318" y2="71.1979" gradientUnits="userSpaceOnUse">
<stop stop-color="#91DCF0"/>
<stop offset="1" stop-color="#0E478A"/>
</linearGradient>
<linearGradient id="paint8_linear_0_104" x1="37.9357" y1="57.9366" x2="41.2453" y2="70.8112" gradientUnits="userSpaceOnUse">
<stop stop-color="#91DCF0"/>
<stop offset="1" stop-color="#0E478A"/>
</linearGradient>
<linearGradient id="paint9_linear_0_104" x1="92.2586" y1="64.1887" x2="89.8768" y2="95.019" gradientUnits="userSpaceOnUse">
<stop stop-color="#91DCF0"/>
<stop offset="1" stop-color="#0E478A"/>
</linearGradient>
<linearGradient id="paint10_linear_0_104" x1="50.1715" y1="68.9054" x2="50.1715" y2="83.272" gradientUnits="userSpaceOnUse">
<stop stop-color="#91DCF0"/>
<stop offset="1" stop-color="#0E478A"/>
</linearGradient>
<linearGradient id="paint11_linear_0_104" x1="44.6039" y1="67.7428" x2="42.537" y2="94.4977" gradientUnits="userSpaceOnUse">
<stop stop-color="#91DCF0"/>
<stop offset="1" stop-color="#0E478A"/>
</linearGradient>
</defs>
</svg>
