<svg width="212" height="65" viewBox="0 0 212 65" fill="none" xmlns="http://www.w3.org/2000/svg">
<path d="M0 0H15.6893C21.7035 0 26.3057 1.24339 29.4959 3.73016C32.6861 6.21693 34.2811 10.4762 34.2811 16.5079C34.2811 20.4233 33.4967 23.4921 31.9277 25.7143C30.3588 27.8836 28.0839 29.2064 25.1029 29.6825C32.4246 31.1111 36.0854 36.4021 36.0854 45.5555C36.0854 51.746 34.5949 56.4286 31.614 59.6032C28.633 62.7249 24.2138 64.2857 18.3565 64.2857H0V0ZM15.5324 26.2698C18.8795 26.2698 21.1544 25.5291 22.3573 24.0476C23.6124 22.5132 24.24 20.0529 24.24 16.6667C24.24 13.3862 23.4294 11.164 21.8081 10C20.2392 8.78307 17.5982 8.17461 13.885 8.17461H11.5316V26.2698H15.5324ZM16.0031 56.0317C19.4024 56.0317 21.7558 55.2116 23.0633 53.5714C24.3707 51.9312 25.0244 49.2328 25.0244 45.4762C25.0244 41.6138 24.2923 38.8095 22.8279 37.0635C21.4159 35.2645 19.0102 34.3651 15.6109 34.3651H11.5316V56.0317H16.0031Z" fill="white"/>
<path d="M56.6887 65C51.6681 65 47.9811 63.5979 45.6277 60.7937C43.2743 57.9365 42.0976 53.7302 42.0976 48.1746V34.5238C42.0976 28.9153 43.2743 24.709 45.6277 21.9048C48.0334 19.1005 51.7204 17.6984 56.6887 17.6984C61.8138 17.6984 65.4224 19.1534 67.5143 22.0635C69.6585 24.9735 70.7306 29.3651 70.7306 35.2381V41.8254H52.6879V50.873C52.6879 53.0952 53.0017 54.709 53.6292 55.7143C54.3091 56.7196 55.3551 57.2222 56.7671 57.2222C58.1268 57.2222 59.0944 56.746 59.6696 55.7937C60.2972 54.7884 60.611 53.2804 60.611 51.2698V47.381H70.6521V50.5555C70.6521 55.2645 69.4754 58.8624 67.1221 61.3492C64.7687 63.7831 61.2909 65 56.6887 65ZM60.611 36.5079V32.1429C60.611 29.7619 60.3233 28.0688 59.7481 27.0635C59.1728 26.0053 58.153 25.4762 56.6887 25.4762C55.172 25.4762 54.1261 26.0317 53.5508 27.1429C52.9755 28.254 52.6879 30.3175 52.6879 33.3333V36.5079H60.611Z" fill="white"/>
<path d="M78.6764 0H86.7564L102.21 36.6667V0H111.781V64.2857H104.093L88.5606 25.873V64.2857H78.6764V0Z" fill="white"/>
<path d="M121.424 0H147.546V8.09524H132.955V26.8254H144.879V35H132.955V64.2857H121.424V0Z" fill="white"/>
<path d="M160.183 8.6508H150.063V0H181.677V8.6508H171.793V64.2857H160.183V8.6508Z" fill="white"/>
<path d="M198.457 65C194.639 65 191.501 63.9683 189.043 61.9048C186.585 59.8413 184.833 56.8254 183.787 52.8571L191.71 49.7619C192.913 54.8942 195.11 57.4603 198.3 57.4603C199.503 57.4603 200.418 57.1429 201.046 56.5079C201.725 55.873 202.065 55 202.065 53.8889C202.065 52.672 201.699 51.5608 200.967 50.5555C200.235 49.4973 198.928 48.1746 197.045 46.5873L191.632 41.8254C189.331 39.9206 187.631 38.0688 186.533 36.2698C185.435 34.4709 184.886 32.2751 184.886 29.6825C184.886 26.0847 186.088 23.2011 188.494 21.0317C190.952 18.8095 194.038 17.6984 197.751 17.6984C201.307 17.6984 204.21 18.7831 206.458 20.9524C208.707 23.0688 210.172 25.9524 210.851 29.6032L203.87 32.619C203.451 30.5026 202.745 28.7831 201.752 27.4603C200.81 26.0847 199.581 25.3968 198.065 25.3968C196.966 25.3968 196.077 25.7407 195.397 26.4286C194.77 27.1164 194.456 27.9894 194.456 29.0476C194.456 29.8942 194.822 30.7936 195.554 31.746C196.287 32.6984 197.385 33.8095 198.849 35.0794L204.34 40.1587C206.694 42.2222 208.498 44.2063 209.753 46.1111C211.061 47.963 211.714 50.2116 211.714 52.8571C211.714 56.7196 210.459 59.709 207.949 61.8254C205.491 63.9418 202.327 65 198.457 65Z" fill="white"/>
</svg>
