<svg width="87" height="27" viewBox="0 0 87 27" fill="none" xmlns="http://www.w3.org/2000/svg">
<path d="M0 0H6.44722C8.91866 0 10.8098 0.510947 12.1208 1.53284C13.4317 2.55473 14.0872 4.30499 14.0872 6.78363C14.0872 8.39256 13.7648 9.65362 13.1201 10.5668C12.4754 11.4582 11.5405 12.0018 10.3156 12.1975C13.3243 12.7845 14.8286 14.9588 14.8286 18.7202C14.8286 21.2641 14.2161 23.1883 12.9912 24.4928C11.7662 25.7756 9.95022 26.417 7.54325 26.417H0V0ZM6.38275 10.7951C7.75816 10.7951 8.69301 10.4907 9.18729 9.88192C9.70307 9.25139 9.96096 8.24037 9.96096 6.84885C9.96096 5.50083 9.62786 4.58764 8.96164 4.10931C8.31692 3.60924 7.23164 3.3592 5.70579 3.3592H4.73871V10.7951H6.38275ZM6.57617 23.0252C7.97307 23.0252 8.94015 22.6882 9.47742 22.0142C10.0147 21.3402 10.2833 20.2313 10.2833 18.6876C10.2833 17.1004 9.98245 15.948 9.38071 15.2305C8.80046 14.4913 7.81189 14.1217 6.41499 14.1217H4.73871V23.0252H6.57617Z" fill="url(#paint0_linear_469_1514)"/>
<path d="M23.2951 26.7105C21.232 26.7105 19.7169 26.1344 18.7498 24.982C17.7828 23.8079 17.2992 22.0794 17.2992 19.7964V14.1869C17.2992 11.8822 17.7828 10.1537 18.7498 9.00135C19.7384 7.849 21.2535 7.27283 23.2951 7.27283C25.4012 7.27283 26.8841 7.87075 27.7437 9.06658C28.6248 10.2624 29.0654 12.067 29.0654 14.4804V17.1874H21.6511V20.9053C21.6511 21.8185 21.78 22.4816 22.0379 22.8947C22.3173 23.3078 22.7471 23.5144 23.3274 23.5144C23.8861 23.5144 24.2837 23.3187 24.5201 22.9274C24.778 22.5142 24.9069 21.8946 24.9069 21.0684V19.4703H29.0332V20.7749C29.0332 22.7099 28.5496 24.1884 27.5825 25.2103C26.6155 26.2105 25.1863 26.7105 23.2951 26.7105ZM24.9069 15.0022V13.2085C24.9069 12.2301 24.7887 11.5343 24.5523 11.1212C24.3159 10.6864 23.8969 10.469 23.2951 10.469C22.6719 10.469 22.2421 10.6973 22.0057 11.1538C21.7693 11.6104 21.6511 12.4584 21.6511 13.6977V15.0022H24.9069Z" fill="url(#paint1_linear_469_1514)"/>
<path d="M32.3306 0H35.6509L42.0014 15.0675V0H45.9342V26.417H42.7751L36.3923 10.632V26.417H32.3306V0Z" fill="url(#paint2_linear_469_1514)"/>
<path d="M49.8967 0H60.6314V3.32659H54.6354V11.0234H59.5353V14.3826H54.6354V26.417H49.8967V0Z" fill="url(#paint3_linear_469_1514)"/>
<path d="M65.8241 3.55488H61.6657V0H74.6568V3.55488H70.5951V26.417H65.8241V3.55488Z" fill="url(#paint4_linear_469_1514)"/>
<path d="M81.5521 26.7105C79.9833 26.7105 78.6938 26.2865 77.6838 25.4386C76.6737 24.5906 75.9538 23.3513 75.5239 21.7206L78.7798 20.4487C79.2741 22.5577 80.1767 23.6122 81.4876 23.6122C81.9819 23.6122 82.358 23.4818 82.6159 23.2209C82.8953 22.96 83.035 22.6012 83.035 22.1446C83.035 21.6445 82.8845 21.188 82.5836 20.7749C82.2828 20.34 81.7455 19.7964 80.9718 19.1442L78.7476 17.1874C77.802 16.4046 77.1035 15.6437 76.6522 14.9044C76.2009 14.1652 75.9753 13.2629 75.9753 12.1975C75.9753 10.719 76.4695 9.53404 77.4581 8.6426C78.4682 7.72942 79.7361 7.27283 81.262 7.27283C82.7233 7.27283 83.9161 7.71855 84.8402 8.60999C85.7643 9.47968 86.366 10.6646 86.6454 12.1649L83.7764 13.4042C83.6045 12.5345 83.3143 11.8279 82.906 11.2843C82.5192 10.719 82.0141 10.4363 81.3909 10.4363C80.9396 10.4363 80.5743 10.5777 80.2949 10.8603C80.037 11.143 79.9081 11.5017 79.9081 11.9366C79.9081 12.2844 80.0585 12.6541 80.3594 13.0454C80.6602 13.4368 81.1115 13.8934 81.7133 14.4152L83.9698 16.5025C84.9369 17.3504 85.6783 18.1658 86.1941 18.9485C86.7314 19.7095 87 20.6335 87 21.7206C87 23.3078 86.4842 24.5363 85.4527 25.406C84.4426 26.2757 83.1424 26.7105 81.5521 26.7105Z" fill="url(#paint5_linear_469_1514)"/>
<defs>
<linearGradient id="paint0_linear_469_1514" x1="43.5" y1="0" x2="43.5" y2="26.7105" gradientUnits="userSpaceOnUse">
<stop stop-color="#91DCF0"/>
<stop offset="1" stop-color="#0E478A"/>
</linearGradient>
<linearGradient id="paint1_linear_469_1514" x1="43.5" y1="0" x2="43.5" y2="26.7105" gradientUnits="userSpaceOnUse">
<stop stop-color="#91DCF0"/>
<stop offset="1" stop-color="#0E478A"/>
</linearGradient>
<linearGradient id="paint2_linear_469_1514" x1="43.5" y1="0" x2="43.5" y2="26.7105" gradientUnits="userSpaceOnUse">
<stop stop-color="#91DCF0"/>
<stop offset="1" stop-color="#0E478A"/>
</linearGradient>
<linearGradient id="paint3_linear_469_1514" x1="43.5" y1="0" x2="43.5" y2="26.7105" gradientUnits="userSpaceOnUse">
<stop stop-color="#91DCF0"/>
<stop offset="1" stop-color="#0E478A"/>
</linearGradient>
<linearGradient id="paint4_linear_469_1514" x1="43.5" y1="0" x2="43.5" y2="26.7105" gradientUnits="userSpaceOnUse">
<stop stop-color="#91DCF0"/>
<stop offset="1" stop-color="#0E478A"/>
</linearGradient>
<linearGradient id="paint5_linear_469_1514" x1="43.5" y1="0" x2="43.5" y2="26.7105" gradientUnits="userSpaceOnUse">
<stop stop-color="#91DCF0"/>
<stop offset="1" stop-color="#0E478A"/>
</linearGradient>
</defs>
</svg>
