<svg width="35" height="37" viewBox="0 0 35 37" fill="none" xmlns="http://www.w3.org/2000/svg">
<path d="M17.4562 0.344727C13.107 0.344671 8.91277 2.00211 5.68726 4.99549C2.46175 7.98888 0.434925 12.1048 0 16.5447H18.4843L14.4615 12.4173C14.1419 12.0778 13.9651 11.6232 13.9691 11.1512C13.9731 10.6793 14.1576 10.2278 14.4829 9.89405C14.8081 9.56032 15.2482 9.37101 15.7082 9.36691C16.1682 9.36281 16.6113 9.54424 16.9422 9.87213L23.9598 17.0721C24.2887 17.4097 24.4735 17.8674 24.4735 18.3447C24.4735 18.822 24.2887 19.2798 23.9598 19.6173L16.9422 26.8173C16.6113 27.1452 16.1682 27.3266 15.7082 27.3225C15.2482 27.3184 14.8081 27.1291 14.4829 26.7954C14.1576 26.4617 13.9731 26.0102 13.9691 25.5382C13.9651 25.0663 14.1419 24.6116 14.4615 24.2721L18.4843 20.1447H0C0.339506 23.6106 1.65187 26.9009 3.77792 29.6167C5.90397 32.3324 8.75236 34.3569 11.9777 35.4446C15.2029 36.5323 18.6666 36.6366 21.9484 35.7446C25.2303 34.8526 28.1894 33.0029 30.4669 30.4196C32.7444 27.8363 34.2424 24.6305 34.7793 21.191C35.3161 17.7515 34.8688 14.2261 33.4914 11.0423C32.1141 7.85855 29.866 5.15319 27.0197 3.25435C24.1734 1.3555 20.8513 0.34477 17.4562 0.344727Z" fill="white"/>
</svg>
