<svg width="19" height="20" viewBox="0 0 19 20" fill="none" xmlns="http://www.w3.org/2000/svg">
<circle cx="9.72863" cy="10.0558" r="9.14953" fill="white"/>
<path d="M14.5403 11.5691C14.4486 11.5801 14.3567 11.5726 14.2649 11.5739C14.1731 11.5751 14.0778 11.5732 13.9849 11.5727C13.91 11.4968 13.8315 11.4244 13.7648 11.3382C13.6918 11.2436 13.5977 11.1725 13.5244 11.0782C13.4352 10.9635 13.3333 10.863 13.2401 10.7529C13.1935 10.6975 13.1404 10.6501 13.0922 10.5967C13.0269 10.5242 12.964 10.4493 12.8998 10.376C12.8512 10.3205 12.8026 10.265 12.7516 10.2128C12.6193 10.0775 12.4935 9.93437 12.3697 9.79018C12.2458 9.64599 12.1078 9.52246 11.9968 9.36731C11.9833 9.34859 11.9744 9.33182 11.9879 9.30936H12.5431C12.6445 9.37092 12.7177 9.46866 12.7945 9.56017C12.8597 9.63822 12.9331 9.70616 12.9972 9.78463C13.0525 9.85243 13.1117 9.91607 13.1662 9.98484C13.2194 10.0504 13.2761 10.1125 13.3359 10.1706C13.4095 10.2437 13.4798 10.321 13.5463 10.402C13.6394 10.5152 13.7504 10.6081 13.8416 10.723C13.8983 10.7947 13.9587 10.8626 14.0208 10.9279C14.1098 11.0216 14.1964 11.1185 14.2827 11.2148C14.369 11.311 14.4573 11.3972 14.5383 11.4958C14.5573 11.5192 14.5783 11.5436 14.5403 11.5691Z" fill="#0E54A7"/>
<path d="M8.11097 12.7216L9.59208 12.7226C9.59566 12.7258 9.59908 12.7293 9.6023 12.733C9.67377 12.7848 9.71942 12.8661 9.78216 12.9285C9.90601 13.0519 10.0153 13.1919 10.1396 13.3156C10.1734 13.349 10.202 13.3892 10.2327 13.4256C10.3155 13.5217 10.4014 13.6139 10.4897 13.7039C10.5345 13.7509 10.577 13.8005 10.6169 13.8527C10.6822 13.9359 10.7556 14.0089 10.8276 14.0838C10.9224 14.1822 11.0086 14.2901 11.1 14.392C11.2554 14.5653 11.4178 14.7303 11.5675 14.9105C11.6004 14.9499 11.6 14.971 11.5616 14.9886H11.0792C11.0293 14.9747 10.9998 14.9284 10.9663 14.8915C10.9327 14.8547 10.8978 14.8142 10.8611 14.7806C10.7887 14.7127 10.7319 14.6296 10.6667 14.555C10.6128 14.4932 10.5523 14.4382 10.4977 14.3766C10.3807 14.2449 10.2693 14.1068 10.1466 13.9819C10.0239 13.857 9.91761 13.7129 9.79625 13.5865C9.68874 13.4744 9.59432 13.3476 9.48444 13.2399C9.34101 13.0991 9.21578 12.9391 9.07771 12.7929C9.06075 12.7748 9.04217 12.7595 9.01847 12.759C8.889 12.7568 8.75954 12.7558 8.62983 12.7574C8.51358 12.7554 8.39734 12.7635 8.28122 12.7524C8.27314 12.7525 8.26514 12.7541 8.25752 12.7571C8.22265 12.7593 8.18767 12.7586 8.15288 12.7552C8.13392 12.7528 8.11322 12.7509 8.11097 12.7216Z" fill="#0E54A7"/>
<path d="M8.11072 11.5801H8.02204C7.98687 11.5612 7.95587 11.5339 7.93124 11.5001C7.83146 11.377 7.72482 11.262 7.61631 11.1488C7.51557 11.044 7.41982 10.9335 7.32945 10.8176C7.29615 10.7748 7.25461 10.7448 7.21869 10.7052C7.11517 10.5888 7.01227 10.4717 6.90451 10.3595C6.82968 10.282 6.75784 10.1983 6.68662 10.1152C6.6265 10.0451 6.56389 9.97658 6.50228 9.90864C6.43834 9.83729 6.37402 9.7663 6.30933 9.69568C6.21828 9.59627 6.12748 9.49603 6.04217 9.39066C6.03234 9.38121 6.02414 9.36984 6.01797 9.35711C6.00987 9.33299 6.01199 9.31344 6.04167 9.31358H6.52261C6.54369 9.3097 6.55491 9.32744 6.56776 9.34006C6.69373 9.46946 6.81571 9.60348 6.9337 9.74213C7.0114 9.83363 7.1007 9.91336 7.17678 10.0064C7.25087 10.0969 7.33706 10.1735 7.40915 10.2654C7.45604 10.3254 7.51067 10.3763 7.56031 10.433C7.6319 10.5155 7.70237 10.5973 7.77534 10.6763C7.86564 10.7742 7.94995 10.8793 8.04761 10.9689C8.09201 11.0096 8.1197 11.0659 8.16073 11.1097C8.24031 11.1944 8.32524 11.273 8.39771 11.3658C8.43912 11.4188 8.49287 11.4587 8.5273 11.5183C8.54127 11.5428 8.55611 11.5684 8.51333 11.5764C8.379 11.579 8.2448 11.5728 8.11072 11.5801Z" fill="#0E54A7"/>
<path d="M10.7114 8.16834C10.6725 8.16834 10.6336 8.16931 10.5947 8.16931C9.63728 8.16931 8.6799 8.16885 7.72251 8.16793C7.22279 8.16793 6.72297 8.16723 6.22308 8.16585C6.20699 8.16585 6.1909 8.16377 6.17481 8.16266C6.18579 8.13285 6.21073 8.13756 6.23218 8.13493C6.27683 8.1291 6.32149 8.14144 6.36614 8.13493C6.49922 8.13493 6.6323 8.1298 6.76525 8.13798C6.77501 8.13809 6.78474 8.13678 6.79419 8.1341C6.94386 8.13618 7.09353 8.12869 7.2432 8.13839C7.25284 8.13832 7.26244 8.13721 7.27189 8.13507C7.42467 8.13507 7.57746 8.12855 7.73012 8.13909C7.73977 8.13919 7.74936 8.1376 7.75856 8.13437C7.88877 8.1359 8.01911 8.12841 8.1492 8.13909C8.15885 8.13927 8.16845 8.13768 8.17763 8.13437C8.31483 8.13437 8.45091 8.13091 8.5876 8.13701C8.5972 8.13726 8.60679 8.13623 8.61616 8.13396C8.76247 8.13618 8.90889 8.12883 9.05507 8.13826C9.06475 8.1383 9.0744 8.13723 9.08388 8.13507C9.23941 8.13507 9.39507 8.12952 9.5506 8.13867C9.70102 8.13243 9.85144 8.12744 10.0016 8.14228C10.0444 8.12702 10.0889 8.13548 10.1318 8.13465C10.2067 8.13313 10.2815 8.13465 10.3556 8.13465C10.3662 8.13465 10.3805 8.13853 10.3845 8.12245C10.3873 8.11108 10.377 8.10332 10.3705 8.09555C10.3598 8.08201 10.3483 8.06923 10.3361 8.05729C10.2535 7.98145 10.1941 7.87968 10.1116 7.80481C10.0348 7.73549 9.96955 7.65299 9.89958 7.57618C9.84133 7.51213 9.77959 7.4514 9.72634 7.38042C9.69316 7.3366 9.6515 7.30194 9.61408 7.26118C9.49772 7.13127 9.3831 6.99956 9.26648 6.86992C9.15809 6.7493 9.04384 6.63423 8.93883 6.51028C8.85888 6.41586 8.77594 6.32463 8.69312 6.23368C8.61592 6.14896 8.5447 6.05801 8.46512 5.97593C8.45262 5.962 8.43765 5.95111 8.42116 5.94395C8.40467 5.93679 8.38702 5.93352 8.36934 5.93434C8.29974 5.93573 8.22989 5.93656 8.16017 5.93351C8.13972 5.93254 8.11153 5.93892 8.11028 5.89996H8.66593C8.7339 5.90564 8.802 5.90273 8.86998 5.9019C8.89022 5.90111 8.91038 5.90531 8.92899 5.9142C8.9476 5.9231 8.9642 5.93646 8.97762 5.95334C9.04941 6.03892 9.12509 6.12036 9.20436 6.19735C9.22135 6.21675 9.23719 6.23736 9.25176 6.25905C9.34206 6.3726 9.44833 6.46813 9.54224 6.5771C9.62406 6.67194 9.70713 6.76511 9.79094 6.85772C9.91567 6.99637 10.0404 7.13501 10.1613 7.27796C10.2325 7.36115 10.3125 7.43532 10.3838 7.51948C10.4447 7.59157 10.511 7.65812 10.5708 7.73175C10.6112 7.78066 10.6541 7.82695 10.6993 7.87039C10.7731 7.94346 10.8365 8.02831 10.9097 8.10235C10.9222 8.11482 10.9315 8.13007 10.9242 8.15046C10.9158 8.17333 10.8967 8.16432 10.8817 8.16543C10.8248 8.16765 10.768 8.16238 10.7114 8.16834Z" fill="#0E54A7"/>
<path d="M8.11097 12.7216C8.15874 12.7392 8.20769 12.7259 8.25608 12.7308C8.30654 12.7633 8.35142 12.8056 8.38866 12.8555C8.44516 12.9322 8.518 12.992 8.57862 13.0635C8.66505 13.1662 8.76034 13.259 8.84366 13.3648C8.9024 13.4394 8.97113 13.5034 9.03349 13.5737C9.16956 13.7283 9.30788 13.8804 9.4462 14.0331C9.6841 14.2961 9.92128 14.5599 10.1578 14.8243C10.1863 14.8565 10.2214 14.8809 10.2467 14.9162C10.272 14.9516 10.269 14.9724 10.2356 14.988H9.78471C9.74454 14.9804 9.71499 14.9514 9.68867 14.9212C9.57492 14.7903 9.45681 14.6644 9.34256 14.5345C9.23754 14.4149 9.12367 14.3052 9.02563 14.1777C8.97337 14.1096 8.90739 14.0558 8.85177 13.9901C8.79215 13.9198 8.72954 13.8514 8.66855 13.7831C8.56527 13.6663 8.45564 13.5568 8.35249 13.4401C8.162 13.2247 7.97129 13.0096 7.78038 12.7947C7.76267 12.7747 7.7391 12.7553 7.7593 12.721L8.11097 12.7216Z" fill="#0E54A7"/>
<path d="M13.2152 14.7349C13.1723 14.7974 13.1246 14.8556 13.0725 14.9089C13.0214 14.9621 12.9539 14.9919 12.8838 14.9921C12.8426 14.9294 12.7907 14.8778 12.7414 14.8231C12.6224 14.6909 12.5021 14.5603 12.3841 14.4271C12.2489 14.2746 12.1089 14.1265 11.9732 13.9745C11.8259 13.8097 11.6755 13.6478 11.533 13.4775C11.4777 13.4115 11.4121 13.3584 11.3567 13.292C11.2709 13.1893 11.1841 13.0871 11.0932 12.9902C11.0324 12.9256 10.9711 12.8619 10.9152 12.7922C10.8977 12.7704 10.8719 12.7434 10.9201 12.7255H11.3971C11.4252 12.7255 11.448 12.747 11.4637 12.7642C11.5177 12.8234 11.5845 12.8684 11.6259 12.9412C11.6374 12.9609 11.6514 12.9787 11.6674 12.994C11.7422 13.0679 11.8142 13.1466 11.8828 13.2272C12.02 13.3881 12.1697 13.5341 12.3046 13.6974C12.3833 13.7924 12.4735 13.8761 12.5516 13.9726C12.6297 14.0691 12.7127 14.1545 12.7938 14.2445C12.8613 14.3192 12.931 14.3913 12.9988 14.4663C13.0667 14.5413 13.1267 14.6188 13.2023 14.6823C13.2097 14.6879 13.2152 14.6963 13.2176 14.7059C13.2199 14.7156 13.2191 14.7259 13.2152 14.7349Z" fill="#0E54A7"/>
<path d="M11.9879 9.30936C12.0378 9.36579 12.08 9.42943 12.1278 9.48766C12.204 9.58055 12.2958 9.65403 12.3683 9.7522C12.4407 9.85036 12.5283 9.93479 12.6099 10.0246C12.6868 10.1093 12.7628 10.1952 12.8422 10.2768C12.9371 10.3739 13.0219 10.4827 13.1146 10.583C13.2456 10.7247 13.3795 10.8632 13.5013 11.015C13.5702 11.1007 13.6519 11.1736 13.7246 11.2558C13.7974 11.338 13.8707 11.4243 13.9474 11.5044C13.9659 11.5228 13.9789 11.547 13.9848 11.5737C13.9687 11.5748 13.9526 11.5771 13.9364 11.5771C13.1631 11.578 12.3901 11.5788 11.6174 11.5794C11.6013 11.5794 11.5853 11.5778 11.569 11.5768C11.5701 11.5702 11.573 11.564 11.5773 11.5593C11.6007 11.5423 11.6272 11.5442 11.6521 11.5478C11.6744 11.5502 11.697 11.5482 11.7187 11.542C11.8282 11.5492 11.9377 11.5446 12.0471 11.5446C12.0823 11.5446 12.1175 11.5563 12.1526 11.5456C12.3115 11.547 12.4705 11.5406 12.6296 11.5499C12.7471 11.5409 12.8647 11.546 12.9822 11.5466C12.9997 11.5491 13.0176 11.5475 13.0345 11.542C13.0954 11.5493 13.157 11.5396 13.2175 11.5511C13.2837 11.5438 13.3502 11.5466 13.4171 11.5453C13.4322 11.5453 13.4545 11.554 13.4602 11.533C13.466 11.5119 13.446 11.5025 13.4353 11.4904C13.3712 11.4211 13.3106 11.3489 13.2427 11.2841C13.1835 11.2256 13.1277 11.1629 13.0757 11.0965C12.9899 10.9904 12.8944 10.896 12.8046 10.795C12.7039 10.6814 12.6014 10.5698 12.5005 10.4565C12.4062 10.3507 12.3115 10.2452 12.2165 10.14C12.1214 10.0348 12.0248 9.92841 11.9266 9.82083C11.8424 9.72863 11.7645 9.62935 11.6778 9.5402C11.6243 9.48475 11.5712 9.42929 11.5213 9.37036C11.5066 9.35275 11.4912 9.33501 11.511 9.30991L11.9879 9.30936Z" fill="#0E54A7"/>
<path d="M12.63 11.5692H12.1522C12.1253 11.5553 12.1066 11.5302 12.0859 11.5073C11.9146 11.3177 11.7445 11.1267 11.5722 10.9382C11.4812 10.8385 11.3919 10.736 11.3016 10.6351C11.1073 10.4179 10.9121 10.2013 10.716 9.98528C10.5811 9.83721 10.4513 9.68317 10.3139 9.53787C10.2646 9.48588 10.2171 9.43208 10.1703 9.37732C10.1481 9.35139 10.1214 9.34501 10.091 9.34515C9.99198 9.34515 9.89295 9.34515 9.79392 9.34515C9.76785 9.34515 9.74166 9.34515 9.71909 9.32616C9.71774 9.324 9.71679 9.32156 9.7163 9.31899C9.71581 9.31642 9.71578 9.31377 9.71622 9.31118H10.3013C10.3853 9.31888 10.4698 9.31888 10.5539 9.31118C10.6425 9.30134 10.6994 9.34987 10.7511 9.41364C10.8552 9.54231 10.9704 9.65863 11.0796 9.78161C11.1487 9.85967 11.2245 9.93065 11.2872 10.0159C11.3449 10.0943 11.4165 10.1575 11.4796 10.23C11.6743 10.454 11.8759 10.6705 12.0723 10.8929C12.2484 11.0921 12.4284 11.2873 12.6067 11.4843C12.6273 11.5059 12.6625 11.5276 12.63 11.5692Z" fill="#0E54A7"/>
<path d="M9.55147 8.1585H9.08288C9.02463 8.11538 8.97899 8.05645 8.92772 8.0046C8.87983 7.95635 8.8378 7.90117 8.7929 7.84932C8.71444 7.75878 8.63075 7.67421 8.55081 7.58478C8.39353 7.40842 8.23164 7.2372 8.07848 7.05626C8.02647 6.99471 7.97096 6.93689 7.91633 6.87824C7.83152 6.78729 7.74783 6.69454 7.66688 6.59832C7.59791 6.51541 7.51846 6.44345 7.44986 6.3604C7.38127 6.27735 7.29758 6.20914 7.23621 6.11833C7.22012 6.0949 7.19667 6.08117 7.17821 6.06107C7.15976 6.04096 7.14342 6.02225 7.15414 5.99077C7.20518 5.93299 7.27463 5.89987 7.34747 5.89857C7.41956 5.89497 7.4919 5.89857 7.56411 5.89857C7.60447 5.92537 7.64045 5.9596 7.6705 5.99979C7.73286 6.07576 7.80296 6.14217 7.86769 6.21496C8.01137 6.37621 8.15456 6.53815 8.29849 6.69856C8.39203 6.80268 8.48757 6.90486 8.58224 7.0076C8.65595 7.08774 8.73315 7.16552 8.79888 7.25522C8.85937 7.33841 8.9367 7.40232 9.00231 7.47969C9.03224 7.5149 9.05993 7.55275 9.09186 7.58603C9.22532 7.72467 9.35029 7.8733 9.48437 8.01139C9.51069 8.03912 9.53039 8.07198 9.55384 8.10179C9.55751 8.1054 9.5604 8.10988 9.5623 8.11489C9.56421 8.11991 9.56508 8.12533 9.56485 8.13077C9.56463 8.13621 9.56331 8.14152 9.56099 8.14632C9.55867 8.15112 9.55542 8.15528 9.55147 8.1585Z" fill="#0E54A7"/>
<path d="M9.60097 5.90079H10.1565C10.2477 5.8836 10.3107 5.92949 10.3696 6.00339C10.4478 6.10127 10.5388 6.18626 10.622 6.27901C10.7052 6.37177 10.7834 6.46549 10.8663 6.55631C10.9647 6.66348 11.0622 6.77176 11.1598 6.87963C11.2608 6.99054 11.3593 7.10673 11.4604 7.21806C11.5825 7.35213 11.7016 7.48953 11.8244 7.62277C11.9299 7.73715 12.0298 7.85847 12.1407 7.96633C12.1857 8.01014 12.2197 8.06671 12.2631 8.11288C12.2778 8.12869 12.288 8.14768 12.2694 8.16931L11.7344 8.1682C11.7354 8.12342 11.7129 8.09694 11.6845 8.0663C11.6 7.97465 11.5191 7.87899 11.436 7.78554C11.3113 7.64578 11.1881 7.5052 11.0607 7.3696C10.9894 7.29335 10.925 7.20974 10.8548 7.1339C10.7811 7.05349 10.7091 6.97016 10.6293 6.89599C10.5663 6.83582 10.5164 6.76122 10.4577 6.69606C10.3572 6.58357 10.2551 6.47293 10.1516 6.36414C10.0762 6.28511 10.0123 6.19361 9.93573 6.11527C9.89083 6.06938 9.83994 6.02945 9.80839 5.96789C9.79479 5.94127 9.76798 5.93406 9.74041 5.93406C9.70786 5.93406 9.67543 5.93545 9.643 5.93254C9.6243 5.93088 9.60209 5.9324 9.60097 5.90079Z" fill="#0E54A7"/>
<path d="M6.02547 9.32176C6.05166 9.37902 6.09494 9.42297 6.1356 9.46373C6.23014 9.55898 6.31433 9.66532 6.4065 9.76293C6.56415 9.9293 6.71756 10.1019 6.86798 10.2759C6.97399 10.399 7.08413 10.5184 7.19376 10.6364C7.37386 10.8305 7.53675 11.0424 7.72458 11.2272C7.82112 11.3221 7.90556 11.4324 7.99474 11.5362C8.00499 11.5501 8.01403 11.5645 8.02204 11.5801L7.57404 11.5806C7.52852 11.5623 7.49459 11.5268 7.46179 11.4888C7.39681 11.4132 7.3332 11.3353 7.26535 11.2642C7.12192 11.1129 6.9836 10.9564 6.84503 10.8003C6.73802 10.6798 6.62763 10.5632 6.52361 10.4391C6.42783 10.325 6.32306 10.2199 6.22428 10.1088C6.06001 9.92445 5.88902 9.74754 5.729 9.55856C5.70126 9.52343 5.67111 9.49075 5.63882 9.46082C5.61964 9.4438 5.60544 9.42083 5.59804 9.39482C5.60976 9.37104 5.62706 9.35122 5.6481 9.33748C5.66913 9.32374 5.69312 9.31658 5.71752 9.31677C5.82017 9.31469 5.92294 9.30526 6.02547 9.32176Z" fill="#0E54A7"/>
<path d="M12.2694 8.16931C12.2277 8.09583 12.1718 8.0351 12.1158 7.97701C11.9854 7.84183 11.8624 7.69889 11.7366 7.55872C11.6225 7.43172 11.5052 7.30791 11.3915 7.18035C11.313 7.09231 11.2293 7.0094 11.1589 6.91318C11.1432 6.89183 11.1226 6.87755 11.1055 6.85869C11.0045 6.74778 10.9044 6.63437 10.8038 6.52234C10.7297 6.43998 10.6541 6.35943 10.5813 6.27569C10.4815 6.16075 10.3706 6.05788 10.2782 5.93504C10.2727 5.92634 10.2653 5.91926 10.2568 5.91443C10.2482 5.9096 10.2388 5.90715 10.2292 5.90731C10.205 5.90731 10.1801 5.91063 10.1565 5.90079L10.7588 5.90079C10.7712 5.98495 10.8388 6.01933 10.8852 6.07146C10.9102 6.09919 10.9364 6.12595 10.9609 6.15465C11.0623 6.27125 11.1667 6.38439 11.2673 6.50127C11.3431 6.59029 11.4232 6.6748 11.5071 6.75443C11.5259 6.77424 11.543 6.79591 11.5582 6.81918C11.6498 6.94396 11.7605 7.04781 11.8628 7.15997C11.9751 7.28337 12.0873 7.40773 12.1981 7.53348C12.3154 7.66742 12.4429 7.78984 12.5532 7.93195C12.603 7.99684 12.671 8.04481 12.7162 8.11649C12.7264 8.13271 12.7411 8.14713 12.7275 8.16931L12.2694 8.16931Z" fill="#0E54A7"/>
<path d="M10.9061 12.7317C10.9452 12.8055 11.001 12.8649 11.0581 12.9185C11.1217 12.9782 11.1744 13.0485 11.2327 13.1126C11.3218 13.2096 11.4067 13.3103 11.4974 13.4051C11.5881 13.4999 11.6776 13.602 11.7667 13.7015C11.9104 13.8626 12.0552 14.0227 12.2008 14.1818C12.3164 14.3073 12.4323 14.4332 12.5392 14.5688C12.5817 14.6226 12.637 14.6639 12.6801 14.717C12.7425 14.7931 12.8152 14.8556 12.876 14.9333C12.8898 14.9507 12.9087 14.9682 12.8838 14.9921L12.4545 14.9916C12.4171 14.9725 12.3884 14.9408 12.3596 14.9084C12.181 14.7091 11.9992 14.5132 11.8242 14.3101C11.7119 14.1799 11.5913 14.0595 11.4813 13.9267C11.4189 13.8518 11.3441 13.7881 11.2817 13.714C11.1944 13.6121 11.1071 13.5106 11.016 13.4129C10.8788 13.2651 10.7478 13.1108 10.6101 12.9637C10.5544 12.9049 10.5045 12.8375 10.4513 12.7754C10.4355 12.7568 10.4251 12.7338 10.4618 12.7255H10.599C10.6863 12.7255 10.7729 12.7255 10.8598 12.7255C10.875 12.7253 10.8919 12.719 10.9061 12.7317Z" fill="#0E54A7"/>
<path d="M10.7114 8.16834C10.7624 8.15184 10.8152 8.16432 10.8669 8.16002C10.8807 8.15891 10.8992 8.16612 10.9058 8.14726C10.9113 8.13174 10.8963 8.12203 10.8873 8.11233C10.79 8.00709 10.6918 7.90311 10.5953 7.79691C10.538 7.73382 10.4846 7.66616 10.4276 7.6028C10.358 7.52516 10.2856 7.45029 10.2156 7.37307C10.1345 7.28253 10.0565 7.18825 9.97446 7.09869C9.84974 6.96309 9.72252 6.82985 9.60316 6.6894C9.47045 6.53246 9.3214 6.39367 9.19518 6.22924C9.13961 6.15642 9.07756 6.09005 9.00997 6.03112C8.98573 6.00731 8.96386 5.98067 8.94474 5.95167C8.91979 5.91854 8.88961 5.90689 8.85082 5.90675C8.78945 5.90675 8.72759 5.91673 8.66685 5.89982H9.14417C9.20404 5.9055 9.26403 5.90162 9.32402 5.90217C9.34674 5.90211 9.36919 5.90764 9.38976 5.91835C9.41033 5.92907 9.42851 5.94471 9.44301 5.96415C9.54915 6.09614 9.66377 6.2187 9.77839 6.34113C9.83918 6.40583 9.89809 6.47256 9.95513 6.54133C10.0278 6.62868 10.11 6.70535 10.1841 6.79089C10.2964 6.92067 10.4102 7.04947 10.5267 7.1748C10.6909 7.35172 10.8485 7.53528 11.0123 7.71316C11.1095 7.8184 11.2105 7.92113 11.2958 8.04009C11.3138 8.0634 11.3341 8.08434 11.3564 8.10248C11.3696 8.11413 11.379 8.12938 11.3727 8.14962C11.3665 8.16986 11.3495 8.16487 11.3353 8.16543C11.2932 8.16723 11.251 8.16224 11.209 8.1682L10.7114 8.16834Z" fill="#0E54A7"/>
<path d="M9.55147 8.1585C9.54062 8.10415 9.50197 8.07114 9.47078 8.03371C9.40842 7.96037 9.33908 7.89506 9.27584 7.82352C9.14064 7.66907 9.00082 7.51961 8.86425 7.36669C8.76971 7.26062 8.67816 7.15123 8.58387 7.04503C8.52725 6.98125 8.46725 6.92136 8.41001 6.85827C8.35837 6.80157 8.3091 6.74237 8.25772 6.68538C8.20633 6.6284 8.15045 6.57114 8.0982 6.51263C7.98495 6.38702 7.87718 6.25544 7.76044 6.13427C7.70057 6.0734 7.64944 6.00338 7.58757 5.94529C7.57553 5.93291 7.56705 5.91652 7.56411 5.89857L8.00316 5.89857C8.08647 5.94987 8.14796 6.02931 8.21431 6.10196C8.31808 6.21551 8.41387 6.33766 8.52251 6.44636C8.64224 6.5649 8.74701 6.70091 8.85926 6.82777C8.94919 6.9287 9.04847 7.01938 9.13366 7.12517C9.23119 7.24565 9.33845 7.35518 9.44073 7.47012C9.51344 7.55178 9.59688 7.62263 9.65887 7.71552C9.67733 7.74325 9.70576 7.75947 9.72772 7.78373C9.82425 7.8898 9.9183 7.99849 10.0123 8.10747C10.0262 8.12369 10.0339 8.13908 10.0183 8.15877L9.55147 8.1585Z" fill="#0E54A7"/>
<path d="M12.7275 8.16931C12.6063 8.0168 12.4761 7.87467 12.343 7.73519C12.2668 7.65533 12.1991 7.56549 12.1231 7.48563C12.0341 7.39191 11.9577 7.28404 11.8612 7.1985C11.83 7.17077 11.8083 7.13014 11.7784 7.1002C11.6036 6.92453 11.4495 6.72738 11.2779 6.5488C11.1531 6.41861 11.0368 6.27664 10.9162 6.14049C10.8597 6.07657 10.7939 6.02347 10.7429 5.95276C10.718 5.91852 10.7228 5.90647 10.7588 5.90079C11.0343 5.89691 11.3098 5.89855 11.5853 5.90354C11.5788 5.94015 11.5522 5.93238 11.5308 5.93294C11.4465 5.93529 11.362 5.93294 11.2777 5.93418C11.2636 5.93418 11.2443 5.92795 11.2374 5.94431C11.229 5.96469 11.249 5.97564 11.2598 5.98756C11.4291 6.17363 11.5904 6.36856 11.7659 6.54741C11.8236 6.60648 11.8651 6.68065 11.9242 6.73639C12.0181 6.82696 12.1076 6.92308 12.1922 7.02436C12.2926 7.14151 12.406 7.2448 12.497 7.37208C12.5344 7.42463 12.5843 7.46289 12.628 7.50906C12.7354 7.624 12.8299 7.75336 12.9424 7.86233C12.9864 7.90517 13.0261 7.95204 13.0671 7.99779C13.0841 8.01651 13.0959 8.03647 13.0921 8.06434C13.038 8.13366 12.9674 8.16472 12.8878 8.16999C12.8343 8.17345 12.7808 8.16973 12.7275 8.16931Z" fill="#0E54A7"/>
<path d="M7.7593 12.721C7.76975 12.7436 7.78328 12.764 7.79991 12.7813C7.89869 12.8905 7.99236 13.0058 8.09289 13.1123C8.21586 13.2423 8.33061 13.3814 8.45334 13.5117C8.55312 13.6172 8.65015 13.7255 8.74619 13.8352C8.83499 13.9365 8.9208 14.0432 9.02058 14.1322C9.06062 14.1681 9.09018 14.217 9.12709 14.257C9.33227 14.4821 9.53544 14.7096 9.73936 14.9363C9.75196 14.9478 9.76124 14.9632 9.76605 14.9805C9.75196 14.9934 9.73512 14.9871 9.71978 14.9872C9.59593 14.9872 9.47221 14.9872 9.3486 14.9872C9.29422 14.9872 9.26467 14.9388 9.23486 14.9033C9.18833 14.8479 9.13732 14.7982 9.08868 14.7455C8.9889 14.6374 8.89498 14.5226 8.79496 14.4151C8.69854 14.3114 8.60987 14.1996 8.51059 14.0986C8.43949 14.0264 8.37588 13.9433 8.30641 13.8685C8.10922 13.6579 7.91303 13.446 7.72258 13.2275C7.62929 13.1202 7.52926 13.0206 7.43958 12.9093C7.40653 12.8677 7.37173 12.8274 7.33556 12.789C7.3201 12.7726 7.30575 12.7551 7.30762 12.7288C7.32534 12.7163 7.34504 12.7196 7.3645 12.7196C7.49621 12.7199 7.62797 12.7205 7.7593 12.721Z" fill="#0E54A7"/>
<path d="M8.11072 11.5801C8.15138 11.5636 8.19396 11.5728 8.23587 11.5721C8.33378 11.5705 8.43181 11.5713 8.52972 11.571C8.53533 11.5633 8.54244 11.5571 8.55053 11.5529C8.55861 11.5488 8.56745 11.5467 8.57637 11.5469C8.71356 11.546 8.85076 11.5384 8.98721 11.5516C9.07264 11.5377 9.1587 11.5499 9.24427 11.5448C9.27046 11.5431 9.3085 11.5614 9.31997 11.5309C9.3292 11.5065 9.29503 11.4853 9.27719 11.4648C9.12615 11.289 8.96638 11.123 8.81384 10.9493C8.7213 10.8438 8.62675 10.7404 8.53321 10.6363C8.46137 10.5563 8.39127 10.4739 8.31681 10.3963C8.23475 10.3107 8.1523 10.2232 8.08283 10.1234C8.05855 10.092 8.03156 10.0632 8.00226 10.0376C7.86905 9.90837 7.7568 9.75544 7.62534 9.6247C7.55475 9.55524 7.49887 9.46955 7.42404 9.40633C7.41032 9.39337 7.3997 9.37684 7.3931 9.35822C7.38375 9.33562 7.38487 9.31482 7.41481 9.3133H7.81954C7.84885 9.31191 7.86631 9.33687 7.88539 9.3542C7.94269 9.40449 7.99425 9.46236 8.03893 9.52654C8.08296 9.59212 8.1412 9.64175 8.19284 9.69818C8.2986 9.8139 8.40375 9.93036 8.50827 10.0476C8.58797 10.137 8.66692 10.2271 8.74699 10.3161C8.80511 10.3807 8.86523 10.4435 8.92036 10.5115C8.99519 10.6038 9.08162 10.6833 9.16058 10.7712C9.29004 10.9151 9.41763 11.0609 9.54585 11.2061C9.6263 11.2972 9.71123 11.3836 9.79293 11.4735C9.80896 11.489 9.82207 11.5078 9.83147 11.529C9.83983 11.5513 9.84244 11.5717 9.81351 11.5774C9.74341 11.5786 9.67332 11.575 9.60335 11.5792C9.592 11.5802 9.58077 11.5818 9.56955 11.5818C9.09144 11.5818 8.61333 11.5818 8.13522 11.5818C8.12723 11.5817 8.11883 11.5807 8.11072 11.5801Z" fill="#0E54A7"/>
<path d="M11.2081 8.16835C11.2477 8.15282 11.2886 8.16378 11.3287 8.15989C11.3383 8.15892 11.3496 8.15989 11.3537 8.14742C11.3567 8.13799 11.3498 8.13119 11.3439 8.12468C11.2104 7.97549 11.0769 7.82622 10.9435 7.67685C10.7157 7.42331 10.4878 7.16992 10.2597 6.91666C9.99655 6.62411 9.73342 6.33157 9.47034 6.03903C9.45438 6.02114 9.43966 6.00187 9.42482 5.98288C9.3874 5.93532 9.34624 5.90121 9.28325 5.90634C9.23711 5.91009 9.18934 5.91577 9.14331 5.89983C9.29598 5.89706 9.44831 5.89497 9.60097 5.90079C9.64737 5.91465 9.69509 5.90842 9.74174 5.90662C9.78178 5.90524 9.81308 5.91841 9.83179 5.95598C9.85374 5.99993 9.88704 6.03057 9.91985 6.06232C10.0125 6.1523 10.09 6.25906 10.1781 6.35431C10.2988 6.48464 10.4209 6.61358 10.5359 6.74987C10.6202 6.84983 10.712 6.9405 10.7984 7.03769C11.0304 7.29876 11.2665 7.5554 11.4991 7.81591C11.5822 7.90881 11.6605 8.00669 11.7475 8.09542C11.7898 8.13868 11.7863 8.14879 11.7344 8.1682L11.2081 8.16835Z" fill="#0E54A7"/>
<path d="M10.0195 8.15849C9.95367 8.07738 9.88856 7.99558 9.81747 7.91988C9.74999 7.84806 9.68564 7.77278 9.61916 7.69999C9.54906 7.62304 9.47722 7.54748 9.40713 7.47081C9.31321 7.36669 9.21468 7.26755 9.12787 7.15553C9.06226 7.07082 8.98668 6.9972 8.91421 6.91983C8.85335 6.85508 8.79336 6.79006 8.73636 6.72101C8.65641 6.62396 8.57147 6.53315 8.48491 6.44372C8.41744 6.3744 8.35433 6.2987 8.2886 6.2266C8.22623 6.15853 8.17248 6.082 8.10413 6.02085C8.0645 5.98679 8.03022 5.94543 8.00316 5.89857H8.11061C8.18233 5.91435 8.25595 5.91628 8.32826 5.90425C8.41719 5.89205 8.47606 5.9342 8.52782 6.00131C8.64493 6.15077 8.77951 6.28137 8.90199 6.42556C9.04705 6.5972 9.20607 6.75318 9.351 6.92468C9.4403 7.03061 9.53809 7.12669 9.62677 7.23289C9.71544 7.3391 9.81236 7.4367 9.90328 7.54069C9.97138 7.61847 10.0405 7.69708 10.1146 7.76945C10.163 7.81687 10.2143 7.86512 10.2533 7.92668C10.2862 7.97867 10.335 8.01818 10.3765 8.06338C10.3905 8.07849 10.4045 8.09347 10.4176 8.10955C10.4269 8.12092 10.4432 8.13159 10.4351 8.15003C10.4284 8.16528 10.4119 8.1596 10.3996 8.1596C10.2727 8.15969 10.146 8.15932 10.0195 8.15849Z" fill="#0E54A7"/>
<path d="M7.15414 5.99077C7.21651 6.06148 7.27799 6.1326 7.34048 6.20275C7.41331 6.28441 7.48366 6.36913 7.56086 6.4451C7.6473 6.52996 7.7245 6.62534 7.80408 6.71643C7.90523 6.83304 8.01773 6.93674 8.11377 7.05931C8.16677 7.12696 8.22677 7.18797 8.28376 7.25188C8.34076 7.3158 8.39502 7.37667 8.45139 7.43836C8.52523 7.51905 8.60007 7.5985 8.67378 7.67947C8.73003 7.7413 8.78715 7.80259 8.84016 7.86789C8.88681 7.92556 8.93757 7.9788 8.98871 8.03052C9.02612 8.06851 9.06355 8.10442 9.08288 8.1585L8.61678 8.15835C8.53153 8.08932 8.45425 8.0089 8.38666 7.91891C8.35324 7.87399 8.31183 7.8396 8.27628 7.79801C8.16403 7.66768 8.05502 7.53458 7.93491 7.41396C7.83563 7.314 7.74832 7.20031 7.64967 7.09896C7.54215 6.98804 7.44225 6.86728 7.3396 6.75026C7.27337 6.67498 7.20527 6.60039 7.13718 6.52635C7.06802 6.45314 7.00272 6.37556 6.94161 6.29398C6.93553 6.28549 6.93161 6.27534 6.93026 6.26459C7.00071 6.16911 7.07527 6.07773 7.15414 5.99077Z" fill="#0E54A7"/>
<path d="M9.32713 14.9816H10.2525C10.2719 14.9517 10.3012 14.9576 10.3279 14.957C10.4293 14.9545 10.5308 14.957 10.6322 14.9562C10.7482 14.9562 10.8642 14.9562 10.9802 14.9562C11.0094 14.9562 11.0386 14.957 11.0615 14.9818H11.5779C11.5946 14.9566 11.6192 14.9565 11.6437 14.9565C11.7459 14.9565 11.8482 14.9565 11.9503 14.9556C11.9667 14.9556 11.9905 14.966 11.9975 14.9418C12.0028 14.9232 11.9826 14.9118 11.971 14.9002C11.8781 14.8076 11.7898 14.7095 11.7064 14.6064C11.6245 14.5043 11.5284 14.4178 11.4424 14.3199C11.3858 14.2556 11.3324 14.1874 11.2739 14.1258C11.1084 13.9507 10.9539 13.7634 10.7895 13.5873C10.6915 13.4825 10.5944 13.3768 10.4982 13.2701C10.4109 13.1722 10.3293 13.0659 10.2362 12.9744C10.1764 12.9143 10.1202 12.8497 10.0682 12.7811C10.0545 12.7632 10.026 12.7362 10.0752 12.7247C10.184 12.7247 10.2925 12.7247 10.401 12.7247C10.4166 12.7247 10.4334 12.7182 10.4478 12.7313C10.4594 12.7591 10.4828 12.7729 10.5009 12.7936C10.5957 12.8995 10.6813 13.0154 10.7809 13.1158C10.8433 13.1789 10.8938 13.2562 10.9563 13.3163C11.062 13.4179 11.1523 13.5355 11.2529 13.6421C11.4085 13.8071 11.5647 13.9722 11.7133 14.1445C11.8681 14.324 12.0272 14.4984 12.1838 14.6754C12.2611 14.7629 12.3397 14.8489 12.4175 14.9357C12.4323 14.9522 12.449 14.9672 12.4545 14.9916C12.3313 14.9916 12.2085 14.9921 12.0851 14.9921C11.1423 14.9921 10.1995 14.9921 9.25678 14.9921C8.73918 14.9921 8.22158 14.9917 7.70397 14.991C7.21073 14.991 6.71745 14.9904 6.22412 14.9892C6.20803 14.9892 6.19194 14.987 6.17585 14.9857C6.18745 14.958 6.21327 14.9627 6.23298 14.9542C6.391 14.9584 6.54903 14.9542 6.70693 14.9573C6.8465 14.9573 6.98631 14.9508 7.12588 14.9613C7.13552 14.9615 7.14513 14.9599 7.15431 14.9566C7.2844 14.9581 7.41474 14.9506 7.54482 14.9613C7.55447 14.9615 7.56408 14.9599 7.57326 14.9566C7.69998 14.9592 7.82707 14.9481 7.95367 14.9638C7.96333 14.9639 7.97294 14.962 7.98198 14.9583C8.08924 14.9551 8.19663 14.9537 8.30389 14.9596C8.31641 14.9613 8.32909 14.9604 8.34131 14.957C8.41278 14.9498 8.48437 14.9642 8.55584 14.957C8.61121 14.9481 8.66634 14.968 8.72172 14.9587C8.77348 14.9488 8.82549 14.9652 8.87725 14.9573C8.91404 14.9511 8.95021 14.9619 8.98688 14.9609C9.03565 14.9508 9.08479 14.9633 9.13356 14.9572C9.19891 14.9601 9.26601 14.9416 9.32713 14.9816Z" fill="#0E54A7"/>
<path d="M13.0921 8.06434C13.0155 7.97491 12.9354 7.88911 12.8537 7.80537C12.8038 7.75421 12.7613 7.69445 12.7134 7.64094C12.5637 7.47373 12.4156 7.30528 12.2625 7.14181C12.1939 7.06861 12.1253 6.99402 12.0607 6.91776C11.9814 6.82431 11.8901 6.74501 11.8173 6.64213C11.7549 6.55354 11.6726 6.47798 11.5959 6.40034C11.5033 6.30551 11.4152 6.20527 11.3322 6.10003C11.306 6.06731 11.2717 6.0454 11.2482 6.01088C11.2263 5.97899 11.1722 5.95625 11.1848 5.91979C11.1956 5.88873 11.2497 5.90939 11.2846 5.908C11.385 5.90385 11.4849 5.91283 11.5853 5.90354C11.7035 5.90243 11.8223 5.89982 11.9405 5.89996C12.1186 5.89996 12.2967 5.90204 12.4748 5.90315C12.4733 5.90968 12.4703 5.91563 12.466 5.92034C12.4568 5.92795 12.4457 5.93191 12.4343 5.93157C12.3268 5.93365 12.2191 5.93934 12.1117 5.92825C11.987 5.93865 11.8623 5.9313 11.7376 5.93393C11.7225 5.93393 11.7013 5.92589 11.6944 5.9478C11.6891 5.96485 11.7069 5.97552 11.7169 5.98648C11.8206 6.11556 11.9393 6.22828 12.0464 6.35347C12.1381 6.46037 12.2335 6.56366 12.326 6.66931C12.393 6.74626 12.4642 6.82002 12.5327 6.89683C12.637 7.01301 12.7461 7.12393 12.8454 7.24524C12.8828 7.29072 12.9266 7.32704 12.9647 7.37141C13.0296 7.44656 13.0856 7.53168 13.161 7.59615C13.215 7.64232 13.2484 7.71234 13.3044 7.75754C13.3143 7.76572 13.3128 7.78028 13.3133 7.79289C13.2435 7.88703 13.1693 7.97713 13.0921 8.06434Z" fill="#0E54A7"/>
<path d="M12.63 11.5692C12.629 11.551 12.6212 11.534 12.609 11.5219C12.466 11.3648 12.3221 11.2088 12.1805 11.0505C12.0359 10.8884 11.8887 10.7288 11.7496 10.5605C11.7289 10.5354 11.7037 10.515 11.6819 10.4912C11.5958 10.3962 11.5102 10.3005 11.4243 10.2053C11.2655 10.0285 11.1092 9.84869 10.9465 9.67635C10.8516 9.5757 10.7673 9.46409 10.671 9.36509C10.6396 9.33279 10.6107 9.31726 10.5687 9.31892C10.499 9.3217 10.4293 9.31976 10.3595 9.31892C10.34 9.32113 10.3204 9.31837 10.3021 9.31088L11.0418 9.30991C11.0844 9.33764 11.1158 9.37923 11.149 9.4193C11.1733 9.44814 11.1988 9.47601 11.2238 9.50388C11.336 9.62727 11.452 9.7472 11.562 9.87309C11.6283 9.94879 11.6964 10.0232 11.7591 10.1032C11.798 10.1529 11.848 10.1905 11.8897 10.2388C12.0027 10.3703 12.1253 10.4921 12.237 10.6243C12.3488 10.7564 12.474 10.8783 12.5818 11.0179C12.6373 11.09 12.7048 11.1507 12.7669 11.2166C12.8198 11.272 12.8696 11.3311 12.9178 11.3918C12.951 11.4334 13.0018 11.4541 13.0269 11.5058C13.0368 11.5262 13.0536 11.5438 13.0376 11.5691L12.63 11.5692Z" fill="#0E54A7"/>
<path d="M13.2152 14.7349C13.202 14.7083 13.1769 14.697 13.1586 14.6773C13.0713 14.5838 12.9832 14.4913 12.9016 14.3919C12.849 14.3278 12.7863 14.2773 12.7329 14.214C12.6353 14.0986 12.5349 13.9861 12.4352 13.8729C12.2995 13.7187 12.1618 13.5669 12.0236 13.4154C11.9028 13.2827 11.7772 13.1554 11.6601 13.0189C11.5853 12.9317 11.5117 12.844 11.4308 12.7639C11.4235 12.7544 11.4175 12.7439 11.4128 12.7326C11.4265 12.718 11.4436 12.7253 11.4589 12.7252C11.6026 12.7252 11.7458 12.7252 11.89 12.7252C11.9258 12.7252 11.9419 12.7589 11.9622 12.7815C12.0708 12.9025 12.1797 13.0233 12.29 13.142C12.3898 13.2498 12.4816 13.367 12.585 13.4704C12.6751 13.5608 12.7557 13.6615 12.8436 13.7541C12.9125 13.8266 12.9709 13.9127 13.0432 13.9812C13.1608 14.0921 13.2516 14.2324 13.3724 14.339C13.3979 14.3616 13.4138 14.3945 13.4382 14.4182C13.4434 14.4241 13.4464 14.4321 13.4464 14.4404C13.4464 14.4487 13.4434 14.4567 13.4382 14.4626C13.3672 14.5559 13.2934 14.648 13.2152 14.7349Z" fill="#0E54A7"/>
<path d="M14.5403 11.5691C14.5527 11.5435 14.5352 11.5293 14.5218 11.5137C14.442 11.4195 14.3553 11.3335 14.2732 11.241C14.1279 11.0785 13.9781 10.9209 13.8357 10.7549C13.7163 10.6163 13.5886 10.4857 13.467 10.3488C13.3672 10.2364 13.2592 10.133 13.1611 10.0193C13.0931 9.94053 13.031 9.85429 12.9579 9.78164C12.8527 9.67724 12.7656 9.55357 12.6604 9.44889C12.6185 9.4073 12.5682 9.37022 12.5431 9.30936C12.6598 9.30936 12.776 9.3054 12.8927 9.30928C12.9757 9.31177 13.0457 9.35378 13.1016 9.422C13.5869 10.0164 14.0722 10.6108 14.5575 11.2053C14.5771 11.2294 14.5971 11.253 14.6165 11.2774C14.7023 11.387 14.666 11.5275 14.5403 11.5691Z" fill="#0E54A7"/>
<path d="M13.3133 7.79289C13.2653 7.76087 13.2289 7.71442 13.1914 7.66908C13.1303 7.59491 13.0621 7.52864 13.0006 7.45418C12.9026 7.33509 12.7983 7.22209 12.6932 7.11076C12.5656 6.97586 12.4457 6.83236 12.3164 6.6994C12.2359 6.61621 12.1643 6.52332 12.0869 6.4368C12.0094 6.35029 11.9311 6.26932 11.8544 6.18419C11.7859 6.10807 11.7192 6.02988 11.6515 5.95237C11.6439 5.94364 11.6318 5.93449 11.6364 5.9209C11.642 5.90399 11.6581 5.90815 11.6704 5.90815C11.8118 5.90815 11.9531 5.90875 12.0945 5.90995C12.1746 5.99383 12.2551 6.07716 12.3323 6.16478C12.4606 6.31036 12.595 6.44914 12.7211 6.59694C12.884 6.78799 13.0579 6.96601 13.2221 7.15596C13.316 7.26493 13.4124 7.37224 13.5119 7.47567C13.5184 7.48112 13.5238 7.48796 13.5279 7.4958C13.532 7.50363 13.5346 7.5123 13.5357 7.52129C13.4638 7.61418 13.3918 7.70665 13.3133 7.79289Z" fill="#0E54A7"/>
<path d="M6.93026 6.26459C6.9577 6.27138 6.97424 6.29455 6.9907 6.31659C7.07277 6.42543 7.16868 6.5204 7.25711 6.623C7.33681 6.71576 7.42112 6.80435 7.5012 6.89683C7.57356 6.98421 7.64982 7.0675 7.72969 7.14639C7.78003 7.19118 7.82456 7.24348 7.86202 7.30181C7.88161 7.33425 7.91353 7.35089 7.93686 7.37793C8.06295 7.52073 8.18493 7.66714 8.31577 7.80385C8.40183 7.89383 8.47093 8.00253 8.56796 8.08003C8.59289 8.09798 8.61037 8.12611 8.61678 8.15835L8.17845 8.15836C8.14238 8.13772 8.11027 8.10946 8.08391 8.07518C7.96617 7.93653 7.83808 7.80884 7.72059 7.67005C7.55857 7.47914 7.38283 7.30306 7.21944 7.11353C7.07726 6.9484 6.92722 6.79215 6.78291 6.62827C6.75584 6.59749 6.72778 6.56727 6.71606 6.52415C6.78491 6.43514 6.85492 6.34722 6.93026 6.26459Z" fill="#0E54A7"/>
<path d="M13.4382 14.4626C13.4175 14.421 13.3851 14.3907 13.3551 14.3595C13.2829 14.2842 13.2096 14.2105 13.1476 14.1238C13.1067 14.0671 13.0492 14.0318 13.0039 13.9796C12.9639 13.9336 12.921 13.8881 12.8822 13.841C12.7416 13.6717 12.5885 13.5166 12.4444 13.3514C12.2923 13.1773 12.1351 13.0086 11.9792 12.8384C11.9516 12.8085 11.9146 12.7815 11.9091 12.7316C11.9228 12.7167 11.9398 12.7242 11.955 12.7241C12.0726 12.7234 12.1901 12.7241 12.3075 12.7241C12.3396 12.7216 12.3636 12.7432 12.3845 12.7641C12.4256 12.805 12.4672 12.8454 12.5065 12.8882C12.6452 13.0396 12.7758 13.1999 12.9151 13.3506C13.06 13.5074 13.2035 13.6662 13.3471 13.8245C13.4434 13.9307 13.5393 14.0377 13.6319 14.1482C13.6465 14.1656 13.6613 14.1841 13.6431 14.2094C13.5783 14.2973 13.5098 14.3818 13.4382 14.4626Z" fill="#0E54A7"/>
<path d="M13.5357 7.52129C13.5011 7.5055 13.4713 7.47955 13.448 7.44697C13.3856 7.3606 13.3108 7.28989 13.2414 7.21128C13.1378 7.09287 13.0353 6.97267 12.9264 6.86022C12.7732 6.70272 12.6375 6.52609 12.4839 6.36873C12.3649 6.24672 12.2626 6.10627 12.137 5.99189C12.1142 5.97109 12.0955 5.94558 12.0945 5.90995L12.4754 5.90482C12.4952 5.90202 12.5153 5.90123 12.5353 5.90246C12.5636 5.91561 12.5889 5.93587 12.6091 5.96166C12.7213 6.10599 12.8568 6.22509 12.9767 6.3611C12.9994 6.38675 13.0194 6.41517 13.0415 6.44151C13.1538 6.57614 13.2732 6.70258 13.3891 6.83319C13.4603 6.91346 13.5308 6.99513 13.6081 7.06889C13.6635 7.12199 13.7103 7.18757 13.7563 7.25204L13.5357 7.52129Z" fill="#0E54A7"/>
<path d="M6.71606 6.52415C6.75061 6.53163 6.76063 6.56879 6.78233 6.59208C6.90705 6.72588 7.02554 6.86549 7.15276 6.99596C7.21325 7.05794 7.26501 7.12975 7.324 7.19422C7.41804 7.29793 7.51533 7.39831 7.60925 7.50216C7.67697 7.57703 7.74058 7.65661 7.80768 7.73217C7.91794 7.85695 8.02957 7.97924 8.14057 8.10277C8.15529 8.11927 8.17309 8.13396 8.17845 8.15836L7.75854 8.15823C7.67223 8.10277 7.60762 8.01959 7.53928 7.94153C7.45085 7.84129 7.36317 7.74063 7.27087 7.64455C7.19604 7.56607 7.12681 7.47942 7.05198 7.40025C6.9194 7.26008 6.80253 7.10189 6.66384 6.96948C6.6157 6.92456 6.57317 6.87187 6.52814 6.82265C6.52214 6.81655 6.51751 6.80897 6.51463 6.80052C6.51175 6.79207 6.51069 6.78298 6.51155 6.77399L6.71606 6.52415Z" fill="#0E54A7"/>
<path d="M11.5097 9.30991C11.5244 9.34984 11.5559 9.37452 11.5818 9.40322C11.655 9.48461 11.7352 9.5585 11.8045 9.64336C11.9208 9.78588 12.0486 9.91538 12.168 10.0544C12.2594 10.1609 12.3624 10.2551 12.4516 10.3635C12.5514 10.4851 12.6636 10.5936 12.7634 10.7158C12.8382 10.8078 12.9274 10.8888 13.0055 10.9792C13.1626 11.1607 13.3284 11.3322 13.4867 11.512C13.4991 11.5259 13.5215 11.5375 13.5151 11.5582C13.5087 11.5789 13.4838 11.5711 13.4671 11.5711C13.3893 11.5711 13.3114 11.5698 13.2335 11.5689C13.1586 11.5159 13.1039 11.4392 13.0421 11.3707C13.0054 11.33 12.9664 11.292 12.9299 11.2515C12.8527 11.1668 12.7794 11.0779 12.7023 10.9931C12.6282 10.9114 12.551 10.832 12.4795 10.7463C12.4019 10.6531 12.3262 10.5556 12.2348 10.477C12.1832 10.4328 12.1433 10.3753 12.0976 10.3245C12.0306 10.2488 11.9597 10.1771 11.8957 10.0991C11.8247 10.0126 11.7398 9.94172 11.6749 9.84883C11.647 9.8089 11.6071 9.78256 11.5751 9.74595C11.472 9.627 11.3697 9.50707 11.2598 9.39546C11.2383 9.37355 11.2077 9.35109 11.2364 9.31033L11.5097 9.30991Z" fill="#0E54A7"/>
<path d="M6.51155 6.77399C6.65611 6.92872 6.80785 7.07525 6.94143 7.2426C7.00666 7.32412 7.08424 7.39344 7.15159 7.47317C7.28342 7.62914 7.43347 7.76515 7.55832 7.92862C7.60746 7.99309 7.67743 8.03302 7.72183 8.10317C7.7343 8.12189 7.75305 8.13355 7.75854 8.15823L7.2712 8.15863C7.24362 8.14339 7.21864 8.12293 7.19736 8.09818C7.0543 7.93832 6.91199 7.77888 6.76756 7.62138C6.63997 7.48176 6.51936 7.33424 6.38815 7.19865C6.34699 7.15608 6.29997 7.1192 6.28139 7.05584L6.51155 6.77399Z" fill="#0E54A7"/>
<path d="M8.34364 14.9807H7.98306C7.93218 14.9613 7.899 14.9171 7.86158 14.8776C7.64406 14.6483 7.43815 14.4062 7.22449 14.1721C7.11611 14.0539 7.00136 13.9423 6.90021 13.8144C6.81752 13.7092 6.72522 13.6128 6.63293 13.5165C6.62208 13.5053 6.61035 13.4957 6.60948 13.4774L6.79532 13.2503C6.81403 13.2342 6.82812 13.2443 6.84147 13.2601C6.94224 13.3795 7.0535 13.4879 7.14953 13.6119C7.18171 13.6535 7.22287 13.6826 7.25705 13.7211C7.43898 13.9261 7.62215 14.1297 7.80658 14.3321C7.94752 14.4859 8.08085 14.6472 8.2269 14.7956C8.26432 14.8339 8.29949 14.8777 8.33429 14.9204C8.34851 14.9383 8.36447 14.9561 8.34364 14.9807Z" fill="#0E54A7"/>
<path d="M13.755 7.25243C13.7306 7.2483 13.7084 7.23433 13.6926 7.21319C13.6143 7.10061 13.5155 7.01008 13.4251 6.91108C13.3227 6.79975 13.2247 6.68315 13.1209 6.57293C13.0279 6.47393 12.9413 6.36648 12.8503 6.26444C12.8096 6.21883 12.7668 6.17557 12.7238 6.13273C12.6556 6.06674 12.5947 5.992 12.5423 5.91006C12.5712 5.89329 12.6023 5.90285 12.6322 5.90313C12.7079 5.90313 12.7839 5.89606 12.8595 5.90729C12.8721 5.90484 12.8848 5.90322 12.8975 5.90244C13.2735 5.90244 13.6495 5.90244 14.0254 5.90244C14.0379 5.90244 14.0503 5.90507 14.0638 5.90646C14.0513 5.93557 14.0264 5.93086 14.0047 5.93211C13.9856 5.93322 13.9663 5.9249 13.9472 5.93363C13.7998 5.93225 13.6522 5.9407 13.5049 5.92878C13.3603 5.94098 13.2148 5.92878 13.0639 5.93724C13.0955 5.99519 13.1417 6.02417 13.1796 6.06202C13.2151 6.09617 13.2482 6.13325 13.2787 6.17293C13.3488 6.26791 13.4366 6.34347 13.5129 6.43123C13.5814 6.50998 13.6552 6.58374 13.7172 6.66887C13.7263 6.68175 13.7362 6.69393 13.7468 6.70533C13.8149 6.77688 13.8769 6.8559 13.9531 6.91788C13.9615 6.9234 13.9688 6.93086 13.9744 6.93975C13.98 6.94864 13.9839 6.95877 13.9857 6.96945C13.9128 7.06817 13.8341 7.16023 13.755 7.25243Z" fill="#0E54A7"/>
<path d="M13.6436 14.2101C13.6244 14.1707 13.5991 14.1354 13.5688 14.1058C13.4606 14 13.3657 13.8798 13.2648 13.7663C13.2068 13.701 13.1437 13.6415 13.0863 13.5756C12.9337 13.3997 12.7745 13.2314 12.6225 13.0541C12.5281 12.9431 12.4252 12.8418 12.3292 12.7327C12.3429 12.718 12.3598 12.7253 12.3752 12.7252C12.506 12.7245 12.6371 12.7252 12.7674 12.7252C12.803 12.727 12.8273 12.7544 12.8471 12.7807C12.8885 12.8342 12.9378 12.8777 12.9823 12.9279C13.1071 13.0665 13.2289 13.2081 13.3544 13.3459C13.4648 13.4672 13.5738 13.5896 13.6874 13.7075C13.7409 13.763 13.7892 13.8272 13.8387 13.8887C13.852 13.9046 13.8607 13.9247 13.8636 13.9462C13.8033 14.0208 13.7429 14.0954 13.6825 14.1699C13.6695 14.1835 13.6562 14.1965 13.6436 14.2101Z" fill="#0E54A7"/>
<path d="M5.59804 9.39482C5.66763 9.43988 5.71774 9.50792 5.77324 9.57045C5.8855 9.69717 5.99488 9.82805 6.11449 9.94743C6.18421 10.0167 6.24595 10.0962 6.31193 10.1705C6.34486 10.2075 6.37978 10.2425 6.41283 10.2793C6.49827 10.375 6.58171 10.4734 6.66876 10.5669C6.81207 10.7212 6.9464 10.8844 7.09071 11.0372C7.13449 11.0835 7.17515 11.1378 7.21905 11.1825C7.32918 11.2945 7.42285 11.4241 7.5361 11.5319C7.55169 11.5448 7.565 11.5614 7.57404 11.5806C7.49784 11.5806 7.42098 11.5844 7.34477 11.5805C7.30409 11.5788 7.26416 11.5678 7.22745 11.5482C7.19074 11.5286 7.15804 11.5009 7.13137 11.4667C6.62864 10.8511 6.12605 10.2354 5.62358 9.61967C5.56121 9.54369 5.55463 9.47718 5.59804 9.39482Z" fill="#0E54A7"/>
<path d="M6.60948 13.4774C6.65937 13.4868 6.68459 13.5342 6.7149 13.569C6.79634 13.6615 6.8839 13.7473 6.95873 13.8471C7.00226 13.9052 7.05851 13.9504 7.10641 14.0034C7.31046 14.2271 7.51214 14.4537 7.71531 14.6786C7.8 14.7724 7.88618 14.8645 7.97149 14.9577C7.97639 14.9647 7.98009 14.9725 7.98306 14.9807L7.57362 14.9798C7.50266 14.9382 7.45164 14.8689 7.39514 14.8089C7.32168 14.7317 7.25421 14.6464 7.18137 14.5676C7.05527 14.4308 6.93504 14.2874 6.80607 14.1536C6.74523 14.0917 6.68787 14.0257 6.63433 13.9559C6.5802 13.884 6.51235 13.8277 6.45971 13.7542C6.44724 13.7356 6.43065 13.72 6.43315 13.6936C6.48852 13.6181 6.54849 13.5471 6.60948 13.4774Z" fill="#0E54A7"/>
<path d="M13.8626 13.9453C13.8011 13.8901 13.7452 13.8275 13.6961 13.7587C13.6578 13.7066 13.6115 13.6637 13.5682 13.6209C13.4541 13.5084 13.3562 13.3787 13.2447 13.264C13.1427 13.1596 13.0514 13.0422 12.9532 12.9332C12.9075 12.8825 12.8587 12.8355 12.816 12.7817C12.8035 12.7667 12.7911 12.7539 12.7868 12.7334C12.7993 12.7161 12.8167 12.7255 12.8316 12.7254C12.9438 12.7244 13.0561 12.7306 13.1673 12.7227C13.2388 12.7177 13.2843 12.7555 13.3275 12.8059C13.4541 12.9529 13.5813 13.0992 13.7151 13.2381C13.7814 13.3074 13.8442 13.3795 13.9048 13.4545C13.9496 13.5067 13.9968 13.5563 14.0463 13.603C14.0675 13.6241 14.0848 13.6479 14.0727 13.6831C14.01 13.7777 13.9334 13.8585 13.8626 13.9453Z" fill="#0E54A7"/>
<path d="M6.43315 13.6936C6.50312 13.7629 6.56686 13.8395 6.63184 13.9142C6.71503 14.0093 6.8001 14.1035 6.88366 14.1978C6.98955 14.3164 7.09208 14.4391 7.20283 14.5519C7.30261 14.6536 7.38231 14.7776 7.49244 14.8678C7.52685 14.8977 7.5548 14.936 7.57362 14.9798L7.15481 14.9799C7.10995 14.9543 7.07141 14.917 7.04256 14.871C7.01312 14.8271 6.96573 14.8068 6.93305 14.7652C6.82891 14.6323 6.70855 14.5157 6.59954 14.3888C6.51473 14.2897 6.42829 14.1932 6.33612 14.1028C6.30581 14.073 6.28436 14.0335 6.25318 14.0045C6.2448 13.9971 6.23815 13.9876 6.23381 13.9768C6.22946 13.9659 6.22755 13.9541 6.22823 13.9422L6.43315 13.6936Z" fill="#0E54A7"/>
<path d="M6.28139 7.05584C6.33427 7.08676 6.36696 7.14249 6.40874 7.18671C6.51625 7.30082 6.6169 7.42241 6.72292 7.5386C6.89167 7.72272 7.05568 7.91211 7.22656 8.09388C7.24524 8.11161 7.26096 8.1338 7.2712 8.15863L6.79401 8.15848C6.70596 8.09346 6.63387 8.0093 6.56078 7.92528C6.50253 7.85832 6.44017 7.79551 6.38043 7.72993C6.27753 7.61707 6.18349 7.49423 6.0736 7.38914C6.06662 7.38294 6.06107 7.37498 6.05742 7.36591C6.05377 7.35684 6.05214 7.34692 6.05265 7.33701L6.28139 7.05584Z" fill="#0E54A7"/>
<path d="M11.2364 9.31033C11.2428 9.34208 11.2625 9.36218 11.2836 9.38312C11.3698 9.46922 11.4507 9.56128 11.5298 9.65528C11.5617 9.69327 11.5913 9.73542 11.6286 9.76619C11.6751 9.80377 11.7091 9.85368 11.7495 9.89708C11.8397 9.99413 11.9278 10.0938 12.016 10.1932C12.0793 10.2648 12.1407 10.3389 12.2045 10.4099C12.2642 10.4759 12.3273 10.538 12.387 10.604C12.4468 10.67 12.5014 10.7441 12.5646 10.8067C12.6488 10.8899 12.7193 10.9893 12.8068 11.0684C12.8576 11.114 12.8911 11.1761 12.9404 11.2241C13.0312 11.3126 13.1135 11.4119 13.1993 11.5068C13.2154 11.5245 13.2333 11.5405 13.2335 11.5689L13.0376 11.5691C13.003 11.4853 12.9266 11.4456 12.8757 11.3781C12.8161 11.3 12.7512 11.2271 12.6817 11.1599C12.5889 11.0693 12.5084 10.9658 12.4198 10.8705C12.2927 10.7328 12.1697 10.5902 12.0444 10.4504C11.9839 10.3829 11.9197 10.3197 11.8613 10.2497C11.7615 10.1288 11.6481 10.0223 11.5495 9.89846C11.4848 9.81722 11.4102 9.74318 11.3375 9.66887C11.2402 9.56973 11.1519 9.45965 11.0607 9.35345C11.0525 9.34014 11.0461 9.32537 11.0418 9.30991L11.2364 9.31033Z" fill="#0E54A7"/>
<path d="M13.9857 6.96945C13.9109 6.93354 13.8588 6.86522 13.8033 6.80311C13.7075 6.69621 13.6162 6.58363 13.5224 6.47521C13.4784 6.42287 13.4312 6.37382 13.3814 6.32838C13.3247 6.27833 13.2851 6.2122 13.2352 6.15632C13.1749 6.0888 13.1087 6.02794 13.0459 5.96319C13.0334 5.95044 13.0167 5.94004 13.0136 5.9112H13.4882C13.5661 5.98052 13.6334 6.06177 13.7055 6.13775C13.7392 6.17324 13.7725 6.20887 13.8053 6.24547C13.8871 6.33684 13.9641 6.43375 14.0522 6.51847C14.096 6.56006 14.129 6.61552 14.1761 6.6542C14.1842 6.66016 14.1907 6.66848 14.1949 6.67826C14.199 6.68804 14.2007 6.6989 14.1997 6.70966C14.1306 6.79825 14.0613 6.8871 13.9857 6.96945Z" fill="#0E54A7"/>
<path d="M6.22823 13.9422C6.29721 14.0048 6.35354 14.0821 6.41852 14.1505C6.5733 14.3131 6.72546 14.4807 6.87077 14.6529C6.95146 14.7484 7.04663 14.8268 7.12159 14.9283C7.13406 14.9449 7.15057 14.9571 7.15481 14.9799L6.70601 14.9801C6.63042 14.9295 6.56881 14.8612 6.50882 14.7903C6.40904 14.6723 6.30514 14.56 6.202 14.4463C6.13465 14.3723 6.06231 14.3023 6.00867 14.2138L6.22823 13.9422Z" fill="#0E54A7"/>
<path d="M9.32713 14.9816L9.13184 14.9806C9.06362 14.9282 9.00712 14.8605 8.94999 14.7956C8.87965 14.7169 8.81579 14.632 8.73946 14.5588C8.68704 14.5084 8.63813 14.4536 8.59316 14.3949C8.54863 14.337 8.49188 14.2939 8.44686 14.237C8.30355 14.0558 8.14353 13.8922 7.99037 13.7219C7.88049 13.6002 7.77297 13.4754 7.6601 13.3577C7.58558 13.2833 7.51507 13.204 7.44894 13.1204C7.37511 13.0233 7.28119 12.9458 7.20586 12.8489C7.19101 12.8299 7.17156 12.8135 7.1839 12.7836C7.21984 12.7524 7.26318 12.7335 7.30863 12.7292C7.36874 12.7733 7.41302 12.8372 7.45979 12.8956C7.50794 12.9556 7.56344 13.0075 7.6132 13.0666C7.70749 13.1775 7.80503 13.286 7.90294 13.3936C8.04762 13.5528 8.19679 13.7071 8.33847 13.8695C8.45779 14.0063 8.57856 14.1415 8.70079 14.2751C8.85608 14.4455 8.99951 14.6292 9.16477 14.789C9.22401 14.8459 9.2831 14.9071 9.32713 14.9816Z" fill="#0E54A7"/>
<path d="M14.0718 13.6826C14.0488 13.6351 14.0094 13.6059 13.9756 13.5691C13.8897 13.4743 13.809 13.3735 13.7211 13.2812C13.6385 13.1945 13.5577 13.1059 13.4775 13.0166C13.3973 12.9274 13.3206 12.8401 13.2429 12.751C13.2374 12.7444 13.2307 12.7392 13.2232 12.7357C13.2157 12.7322 13.2077 12.7305 13.1996 12.7308L12.7868 12.7334C12.6341 12.7283 12.4817 12.7291 12.3292 12.7327L11.4128 12.7326L11.2467 12.7277V12.7263C11.2514 12.7249 11.2562 12.724 11.261 12.7235L12.5831 12.7247C12.9006 12.7247 13.2182 12.725 13.5357 12.7256C13.5567 12.7256 13.5775 12.7287 13.5981 12.7303C13.6684 12.7156 13.7265 12.7247 13.7791 12.7934C13.847 12.8822 13.9306 12.9566 14.0008 13.043C14.0881 13.1513 14.1934 13.2399 14.2778 13.3512C14.2917 13.3695 14.3066 13.3867 14.2955 13.4134C14.2231 13.5047 14.1533 13.5998 14.0718 13.6826Z" fill="#0E54A7"/>
<path d="M8.34364 14.9807C8.31071 14.9127 8.25449 14.8673 8.20772 14.8133C8.09322 14.6815 7.97598 14.552 7.85849 14.424C7.70795 14.2606 7.55915 14.0944 7.40949 13.9302C7.30621 13.8167 7.1987 13.7073 7.10054 13.5874C7.00413 13.4697 6.89734 13.3622 6.79532 13.2503L6.89288 13.131C6.91271 13.1146 6.92705 13.1252 6.94414 13.1399C6.97944 13.1701 7.00201 13.2127 7.03369 13.2463C7.18922 13.4119 7.33939 13.5834 7.49517 13.7495C7.58472 13.8453 7.66642 13.9505 7.75709 14.0454C7.87358 14.1681 7.98496 14.2965 8.10033 14.4197C8.25312 14.5837 8.39655 14.7582 8.54585 14.9259C8.55832 14.9406 8.57815 14.9549 8.55919 14.98L8.34364 14.9807Z" fill="#0E54A7"/>
<path d="M8.87979 14.9806H8.72376C8.67973 14.962 8.64115 14.9304 8.61225 14.8891C8.53742 14.792 8.44837 14.7102 8.36917 14.6179C8.28535 14.5208 8.20166 14.4222 8.11423 14.3292C8.04414 14.2546 7.9799 14.1737 7.90656 14.1024C7.82238 14.0206 7.75465 13.9203 7.67395 13.834C7.55509 13.7067 7.4391 13.576 7.32161 13.447C7.24353 13.3615 7.16595 13.2747 7.08463 13.192C7.04098 13.1477 6.9957 13.0979 6.97101 13.0337C6.99936 12.9994 7.02776 12.9653 7.0562 12.9313C7.08463 12.9357 7.10434 12.9532 7.12529 12.9756C7.21497 13.0711 7.29679 13.1754 7.38971 13.2677C7.45459 13.3326 7.51446 13.4034 7.56869 13.4793C7.57295 13.487 7.57835 13.4939 7.58465 13.4996C7.69566 13.5779 7.76388 13.7057 7.86353 13.7983C7.91284 13.8444 7.95823 13.8955 7.99911 13.9509C8.05262 14.0234 8.11822 14.083 8.17846 14.1481C8.26066 14.2374 8.33499 14.3356 8.4213 14.4198C8.48466 14.4814 8.53966 14.5522 8.60203 14.6151C8.66027 14.674 8.71228 14.7417 8.76654 14.806C8.79971 14.8455 8.83888 14.8781 8.87031 14.9196C8.88403 14.9383 8.90062 14.9558 8.87979 14.9806Z" fill="#0E54A7"/>
<path d="M6.97101 13.0337C6.99508 13.0391 7.01001 13.0591 7.02435 13.078C7.14321 13.2347 7.28627 13.3645 7.41212 13.5141C7.53335 13.6587 7.67404 13.7831 7.79253 13.93C7.86737 14.0229 7.95143 14.1039 8.02527 14.1969C8.09349 14.2829 8.17194 14.3587 8.24678 14.438C8.31114 14.5064 8.36527 14.5853 8.43387 14.6497C8.53365 14.7436 8.61222 14.8624 8.71163 14.9577C8.71693 14.9644 8.7208 14.9722 8.72376 14.9806L8.55784 14.9805C8.54537 14.9528 8.52042 14.9362 8.50122 14.9145C8.33296 14.7228 8.16508 14.5306 7.99496 14.3411C7.86163 14.1925 7.71869 14.054 7.59185 13.899C7.45228 13.7284 7.29338 13.5801 7.15269 13.4111C7.07649 13.3193 6.99417 13.2321 6.91372 13.1435C6.90726 13.1382 6.9004 13.134 6.89288 13.131L6.97101 13.0337Z" fill="#0E54A7"/>
<path d="M7.1839 12.7836C7.25874 12.8733 7.33399 12.9627 7.41793 13.042C7.44845 13.0688 7.47454 13.1012 7.49501 13.138C7.51996 13.1863 7.56274 13.215 7.59716 13.2521C7.71577 13.3795 7.8259 13.5165 7.94639 13.6414C8.0892 13.7901 8.2234 13.9479 8.36222 14.1007C8.45052 14.1978 8.53783 14.2966 8.62538 14.3946C8.69174 14.4689 8.75435 14.5491 8.83006 14.6124C8.87483 14.65 8.90327 14.7031 8.94231 14.7464C8.98908 14.7982 9.0351 14.8509 9.08399 14.9004C9.10493 14.9232 9.12077 14.9504 9.13184 14.9806L8.98683 14.9806C8.93882 14.9405 8.89242 14.899 8.85874 14.8419C8.84178 14.8131 8.81384 14.7956 8.79077 14.7726C8.70175 14.6869 8.61862 14.594 8.54207 14.4946C8.51251 14.4561 8.47709 14.4253 8.44466 14.3896C8.29686 14.2291 8.1538 14.0633 8.00813 13.9011C7.86245 13.7388 7.71527 13.5691 7.56099 13.4123C7.48004 13.33 7.40883 13.236 7.33063 13.1497C7.28909 13.1041 7.24469 13.0623 7.20029 13.0204C7.16009 12.9797 7.12513 12.933 7.09639 12.8817C7.12081 12.8439 7.15008 12.8111 7.1839 12.7836Z" fill="#0E54A7"/>
<path d="M14.1997 6.70966C14.0776 6.58931 13.9616 6.46134 13.8488 6.33018C13.8056 6.28013 13.7614 6.23077 13.7159 6.18225C13.6432 6.10405 13.5621 6.03473 13.4993 5.9453C13.494 5.93439 13.4905 5.92336 13.4882 5.9112C13.6411 5.90685 13.7935 5.90616 13.9462 5.9105C14.0009 5.93823 14.0387 5.9869 14.0784 6.03528C14.1725 6.14967 14.2762 6.25379 14.3738 6.36429C14.3932 6.38606 14.4141 6.40671 14.4202 6.43874C14.3501 6.53219 14.2756 6.62162 14.1997 6.70966Z" fill="#0E54A7"/>
<path d="M6.00867 14.2138C6.04023 14.2151 6.05669 14.2417 6.07465 14.2643C6.16932 14.3827 6.27421 14.4909 6.37499 14.6018C6.46941 14.7051 6.5536 14.8206 6.65799 14.9128C6.67893 14.93 6.69574 14.9535 6.70601 14.9801L6.22819 14.9799C6.17082 14.966 6.14088 14.9116 6.10571 14.8703C6.03661 14.7898 5.96116 14.7167 5.89119 14.6373C5.86187 14.6041 5.82396 14.5818 5.80151 14.5402C5.79078 14.5205 5.78292 14.5028 5.78966 14.48C5.86 14.3888 5.93247 14.2992 6.00867 14.2138Z" fill="#0E54A7"/>
<path d="M6.05265 7.33701C6.13647 7.4177 6.21238 7.5077 6.29195 7.59255C6.37614 7.68239 6.44386 7.79261 6.54402 7.86346C6.5757 7.88592 6.58705 7.92529 6.61411 7.95164C6.66862 8.00474 6.72 8.06172 6.77301 8.11676C6.78394 8.12771 6.79118 8.14243 6.79401 8.15848C6.65083 8.16278 6.50735 8.16307 6.36466 8.15836C6.32001 8.13215 6.28484 8.09444 6.2493 8.05437C6.14428 7.93597 6.04026 7.81632 5.93399 7.6993C5.90256 7.66478 5.85804 7.64149 5.84881 7.58617C5.91416 7.50021 5.98093 7.41645 6.05265 7.33701Z" fill="#0E54A7"/>
<path d="M14.2955 13.4134C14.2232 13.3164 14.1384 13.2337 14.0565 13.1474C14.0015 13.0893 13.9505 13.0266 13.8986 12.9652C13.8377 12.8932 13.7673 12.8311 13.7146 12.7504C13.7095 12.7434 13.7029 12.7379 13.6954 12.7344C13.6879 12.7309 13.6797 12.7296 13.6716 12.7306L13.5987 12.7298C13.7533 12.7188 13.9083 12.7267 14.063 12.7259C14.1048 12.7259 14.1467 12.7285 14.1886 12.7299C14.23 12.7463 14.2577 12.7836 14.2872 12.8156C14.3632 12.8988 14.4432 12.9771 14.5117 13.0681C14.5186 13.0756 14.5238 13.0849 14.5268 13.0952C14.5298 13.1055 14.5305 13.1165 14.5289 13.1271C14.4517 13.2223 14.3735 13.318 14.2955 13.4134Z" fill="#0E54A7"/>
<path d="M7.09639 12.8817C7.11932 12.8853 7.13959 12.8987 7.15355 12.9192C7.2219 13.0283 7.3243 13.0994 7.405 13.1941C7.52536 13.3365 7.65295 13.4714 7.7773 13.6092C7.92609 13.7737 8.07813 13.9357 8.22157 14.1064C8.27657 14.1719 8.33943 14.2275 8.39144 14.2973C8.44507 14.3694 8.51766 14.4243 8.57478 14.4956C8.65695 14.6015 8.74703 14.6994 8.84406 14.7884C8.89196 14.831 8.92015 14.896 8.97116 14.9365C8.98363 14.9463 8.98584 14.9641 8.98683 14.9806L8.87979 14.9806C8.87567 14.9599 8.86128 14.9469 8.8488 14.9327C8.72296 14.7905 8.6021 14.6416 8.46977 14.5079C8.33743 14.3743 8.22032 14.2265 8.09135 14.0895C7.96239 13.9525 7.84078 13.8153 7.71855 13.6751C7.61042 13.5518 7.49642 13.4359 7.39215 13.3081C7.329 13.2312 7.26209 13.1582 7.19172 13.0895C7.14183 13.0401 7.10396 12.9812 7.0562 12.9313C7.06967 12.9148 7.08301 12.8984 7.09639 12.8817Z" fill="#0E54A7"/>
<path d="M14.4202 6.43874C14.3975 6.43112 14.3832 6.4121 14.3667 6.39394C14.2669 6.28149 14.1639 6.1721 14.066 6.05703C14.0247 6.00947 13.9741 5.97054 13.9462 5.9105L14.0647 5.90646C14.2152 5.90646 14.3657 5.90438 14.5162 5.90549C14.5786 5.90549 14.6232 5.94445 14.6489 6.00614C14.6746 6.06784 14.6701 6.13176 14.63 6.18361C14.562 6.27082 14.4897 6.35403 14.4202 6.43874Z" fill="#0E54A7"/>
<path d="M5.84881 7.58617C5.88498 7.59865 5.90511 7.63344 5.9298 7.66075C6.05228 7.79621 6.17239 7.9343 6.29425 8.07059C6.31919 8.09832 6.35132 8.11912 6.36466 8.15836L6.17481 8.16266L5.95662 8.16058C5.85513 8.0742 5.76148 7.97701 5.67699 7.87039C5.6646 7.85846 5.65628 7.84216 5.65341 7.82422C5.71615 7.74256 5.78046 7.66229 5.84881 7.58617Z" fill="#0E54A7"/>
<path d="M5.78966 14.48C5.83955 14.5679 5.91637 14.6297 5.98285 14.6997C6.06914 14.7882 6.15071 14.8817 6.22819 14.9799L6.17585 14.9857C6.03167 14.9857 5.88768 14.9842 5.7435 14.986C5.67154 14.9869 5.61616 14.9582 5.5861 14.8846C5.55604 14.811 5.57163 14.7417 5.62264 14.6821C5.67939 14.6161 5.73403 14.547 5.78966 14.48Z" fill="#0E54A7"/>
<path d="M14.5289 13.1271C14.442 13.0182 14.3504 12.9147 14.2533 12.817C14.228 12.7915 14.206 12.7625 14.1886 12.7299C14.2985 12.7292 14.4089 12.7261 14.5188 12.728C14.5812 12.7291 14.6251 12.7688 14.6496 12.8311C14.6621 12.8598 14.6666 12.8919 14.6628 12.9234C14.6589 12.9549 14.6468 12.9844 14.6279 13.0083C14.5974 13.0503 14.5618 13.0879 14.5289 13.1271Z" fill="#0E54A7"/>
<path d="M5.65341 7.82422C5.66464 7.83115 5.67978 7.83515 5.68714 7.84541C5.75973 7.948 5.85914 8.02051 5.93497 8.11937C5.94552 8.13081 5.95271 8.14478 5.95662 8.16058C5.87605 8.16141 5.79578 8.16429 5.71533 8.16249C5.65484 8.16124 5.61193 8.12394 5.58636 8.06543C5.57318 8.03713 5.56769 8.00518 5.57057 7.97347C5.57345 7.94176 5.58457 7.91166 5.60258 7.88686C5.61867 7.8649 5.63519 7.84401 5.65341 7.82422Z" fill="#0E54A7"/>
<path d="M7.83784 9.32114H7.39893C7.37823 9.34721 7.34992 9.34472 7.32285 9.34527C7.2217 9.34721 7.12055 9.3443 7.0194 9.34527C6.88756 9.34527 6.75561 9.34527 6.62377 9.34527C6.59459 9.34527 6.56553 9.34416 6.54183 9.32087L6.02547 9.32176L5.71752 9.31677C5.73361 9.31552 5.74933 9.31324 5.7653 9.31324C6.48246 9.31241 7.19958 9.31171 7.91666 9.31116C8.49746 9.3106 9.0783 9.30986 9.65918 9.30894C9.67864 9.30894 9.69797 9.31033 9.71743 9.31102C9.71743 9.31352 9.71743 9.31601 9.71743 9.31851L9.71244 9.32752C9.69061 9.3486 9.66367 9.34527 9.63823 9.34499C9.52473 9.34374 9.41123 9.35137 9.29798 9.34042C9.28823 9.34018 9.27852 9.34187 9.26929 9.34541C9.1311 9.34361 8.99291 9.35082 8.85484 9.34097C8.84359 9.34096 8.83236 9.34207 8.82129 9.3443C8.67162 9.3443 8.52195 9.35109 8.37228 9.34042C8.36262 9.34038 8.35302 9.34207 8.34384 9.34541C8.20249 9.34596 8.06113 9.34596 7.91978 9.34541C7.89084 9.34513 7.86203 9.34291 7.83784 9.32114Z" fill="#0E54A7"/>
<path d="M9.60335 11.5792C9.67681 11.5635 9.75086 11.5773 9.8247 11.5704C9.84478 11.5427 9.87334 11.5452 9.90041 11.5454C10.0376 11.547 10.1748 11.5387 10.3111 11.5504C10.3208 11.5506 10.3304 11.5489 10.3396 11.5454C10.491 11.5464 10.6424 11.5399 10.7938 11.5495C10.8051 11.5495 10.8163 11.5485 10.8274 11.5463C10.9708 11.5449 11.1142 11.5414 11.2575 11.5492C11.3423 11.5435 11.4273 11.5426 11.5122 11.5464C11.534 11.5464 11.5591 11.547 11.569 11.5768C11.3988 11.5782 11.228 11.5801 11.0577 11.5802C10.5838 11.5809 10.1101 11.5809 9.63661 11.5802C9.62564 11.5807 9.61457 11.5799 9.60335 11.5792Z" fill="#0E54A7"/>
<path d="M10.4478 12.7313L10.0589 12.7319C10.0438 12.7564 10.0202 12.7559 9.9978 12.7561C9.88629 12.7581 9.77479 12.7578 9.66328 12.7561C9.63709 12.7561 9.6114 12.7525 9.59157 12.7301C9.59157 12.7276 9.59208 12.7251 9.59208 12.7226L10.5947 12.7234V12.7278L10.4478 12.7313Z" fill="#0E54A7"/>
<path d="M10.5947 12.7278V12.7234C10.7569 12.7198 10.9189 12.7189 11.0811 12.7234V12.7267L10.9061 12.7317L10.5947 12.7278Z" fill="#0E54A7"/>
<path d="M12.8603 5.90732L12.5432 5.91009L12.4754 5.90482L12.4748 5.90315C12.6027 5.9001 12.7319 5.89858 12.8603 5.90732Z" fill="#0E54A7"/>
<path d="M11.0811 12.7267V12.7234L11.2467 12.7263V12.7277C11.1916 12.7326 11.1362 12.7315 11.0811 12.7267Z" fill="#0E54A7"/>
<path d="M9.59157 12.7301L10.0589 12.7319C10.1254 12.8249 10.2045 12.9042 10.2806 12.9871C10.3811 13.0966 10.4782 13.2099 10.578 13.3199C10.694 13.4481 10.815 13.5708 10.9273 13.7032C11.0395 13.8356 11.1642 13.9586 11.2777 14.0914C11.4043 14.2405 11.5397 14.3798 11.6681 14.5261C11.786 14.6599 11.9021 14.7952 12.026 14.9222C12.0384 14.9351 12.0615 14.9483 12.0546 14.9682C12.0463 14.9925 12.0202 14.9814 12.002 14.9814C11.8607 14.9821 11.7195 14.9818 11.5779 14.9818C11.5654 14.9271 11.5233 14.8968 11.4914 14.8613C11.3749 14.7318 11.2544 14.6059 11.1384 14.4769C11.0612 14.3912 10.9834 14.3044 10.9089 14.2147C10.771 14.0483 10.6204 13.895 10.4794 13.7312C10.3893 13.6267 10.2902 13.5313 10.1995 13.4262C10.129 13.3447 10.0594 13.2615 9.98445 13.1852C9.89403 13.0933 9.81233 12.9911 9.72103 12.9005C9.67239 12.8532 9.62325 12.7979 9.59157 12.7301Z" fill="#0E54A7"/>
<path d="M11.0615 14.9818L10.6328 14.9822C10.5635 14.9202 10.4986 14.8524 10.4387 14.7792C10.3739 14.6985 10.3021 14.6253 10.2307 14.5525C10.1494 14.4694 10.0786 14.3758 9.99819 14.2922C9.83031 14.1177 9.67528 13.9291 9.50952 13.7514C9.40799 13.6433 9.31221 13.5282 9.21317 13.4172C9.08458 13.2728 8.95949 13.1244 8.82403 12.9874C8.76479 12.9273 8.71091 12.8588 8.65553 12.7933C8.63994 12.7748 8.62959 12.7556 8.64568 12.731C8.76753 12.731 8.88927 12.7317 9.011 12.73C9.02637 12.7296 9.04165 12.7328 9.05578 12.7396C9.06991 12.7463 9.08254 12.7564 9.09282 12.7691C9.16017 12.8464 9.23001 12.9217 9.29549 13.0005C9.41797 13.1488 9.55467 13.2809 9.68126 13.4247C9.79726 13.5564 9.91824 13.6841 10.032 13.8184C10.1061 13.906 10.1864 13.9863 10.2627 14.0706C10.3956 14.2177 10.5152 14.3799 10.6618 14.5116C10.7046 14.5528 10.7427 14.5997 10.7752 14.6511C10.8206 14.7186 10.8897 14.7573 10.9357 14.8223C10.9755 14.8778 11.0425 14.9067 11.0615 14.9818Z" fill="#0E54A7"/>
<path d="M8.64568 12.731C8.65553 12.7538 8.66908 12.7741 8.68576 12.7914C8.88595 13.014 9.08925 13.2335 9.28444 13.4609C9.39611 13.5903 9.50986 13.7176 9.62569 13.8427C9.76813 13.9955 9.90533 14.1518 10.0438 14.307C10.1882 14.469 10.3445 14.618 10.4784 14.7923C10.5129 14.8371 10.556 14.8737 10.5951 14.9142C10.6139 14.9315 10.6274 14.9556 10.6328 14.9822L10.2525 14.9816C10.2394 14.9383 10.2064 14.9143 10.1791 14.8837C10.017 14.7019 9.84932 14.5267 9.69267 14.3391C9.6473 14.283 9.59718 14.2319 9.543 14.1866C9.50558 14.1563 9.48276 14.1113 9.4507 14.0756C9.27334 13.8785 9.09648 13.6805 8.91838 13.4842C8.80238 13.3565 8.69287 13.2207 8.57438 13.0971C8.47685 12.9947 8.3873 12.8834 8.28752 12.785C8.27228 12.7712 8.2612 12.7518 8.25608 12.7308L8.64568 12.731Z" fill="#0E54A7"/>
<path d="M6.54183 9.32087L7.01888 9.32088C7.10781 9.38867 7.18027 9.47588 7.24713 9.56836C7.27444 9.60621 7.31285 9.62603 7.34154 9.66042C7.39966 9.72974 7.45716 9.801 7.51952 9.86617C7.60783 9.95836 7.69251 10.0549 7.7787 10.1494C7.89382 10.2757 8.00532 10.4066 8.12007 10.5336C8.18405 10.6047 8.24641 10.6772 8.31501 10.7441C8.39431 10.8211 8.46796 10.9051 8.53527 10.9951C8.57576 11.0488 8.62038 11.0983 8.6686 11.1434C8.7836 11.2525 8.87714 11.3845 8.98677 11.499C9.00411 11.517 9.03142 11.5367 9.00573 11.5709H8.52841C8.49661 11.4951 8.43237 11.4513 8.38486 11.3907C8.32499 11.3147 8.25352 11.2521 8.19216 11.1782C8.07783 11.0414 7.95963 10.909 7.83757 10.7809C7.7343 10.6721 7.642 10.5518 7.53549 10.4461C7.42897 10.3405 7.32682 10.2257 7.22829 10.1103C7.13961 10.0065 7.04507 9.90998 6.9559 9.8071C6.83504 9.66749 6.71468 9.52746 6.58584 9.39658C6.56588 9.37536 6.54694 9.35317 6.54183 9.32087Z" fill="#0E54A7"/>
<path d="M9.71743 9.31851C9.84889 9.31851 9.98066 9.31953 10.112 9.31856C10.1262 9.31813 10.1404 9.3213 10.1533 9.32783C10.1663 9.33436 10.1777 9.34409 10.1868 9.35627C10.2899 9.47758 10.396 9.59557 10.5071 9.70815C10.5513 9.75279 10.5891 9.8052 10.631 9.85262C10.6967 9.92712 10.763 10.0011 10.8299 10.0744C10.9596 10.2157 11.0847 10.362 11.2173 10.5001C11.3046 10.591 11.3846 10.6902 11.4687 10.7846C11.5898 10.9194 11.7111 11.054 11.8327 11.1883C11.922 11.2876 12.0114 11.3868 12.1008 11.486C12.124 11.5086 12.1412 11.5371 12.1522 11.5692L11.7142 11.5692C11.6825 11.5574 11.6604 11.533 11.6371 11.5069C11.5411 11.3998 11.4487 11.2886 11.346 11.188C11.2865 11.1272 11.2304 11.0624 11.1779 10.9939C11.1335 10.9385 11.0831 10.8909 11.0351 10.8405C10.9712 10.7768 10.9106 10.7092 10.8536 10.6379C10.8334 10.6146 10.8119 10.5927 10.7894 10.5722C10.6771 10.4545 10.5773 10.3253 10.4671 10.2057C10.3041 10.0284 10.1447 9.84735 9.98066 9.67113C9.89335 9.57782 9.81178 9.478 9.72348 9.38566C9.70527 9.36667 9.69704 9.34407 9.71724 9.31939L9.71743 9.31851Z" fill="#0E54A7"/>
<path d="M9.71724 9.31939C9.72972 9.37679 9.77474 9.40697 9.80891 9.44108C9.92117 9.55283 10.017 9.68219 10.1275 9.7956C10.1938 9.86353 10.2608 9.93092 10.3225 10.0051C10.431 10.1357 10.5515 10.2547 10.6593 10.3853C10.7643 10.5128 10.8768 10.6319 10.9866 10.7536C11.1065 10.8866 11.2253 11.0211 11.3461 11.1531C11.4292 11.2439 11.5123 11.3353 11.5968 11.4245C11.6393 11.4692 11.6786 11.5176 11.7142 11.5692L11.569 11.5757C11.4651 11.5636 11.3609 11.5764 11.2572 11.5687C11.163 11.4908 11.0885 11.3904 11.0056 11.2996C10.8606 11.1402 10.7165 10.9797 10.5732 10.8182C10.4593 10.6907 10.34 10.5687 10.2292 10.4381C10.0786 10.2595 9.91742 10.0931 9.76252 9.91872C9.62407 9.76232 9.48638 9.6051 9.34083 9.45675C9.31588 9.43138 9.29568 9.40032 9.27298 9.37217C9.2605 9.35595 9.25352 9.33848 9.27011 9.3199L9.71724 9.31939Z" fill="#0E54A7"/>
<path d="M10.3412 11.5703L9.8247 11.5704C9.79851 11.4968 9.73894 11.4548 9.69304 11.4002C9.61596 11.3084 9.52778 11.2293 9.4527 11.1344C9.37599 11.0373 9.29056 10.9486 9.20687 10.8578C9.08701 10.7266 8.96527 10.5974 8.84579 10.466C8.73541 10.3445 8.62527 10.2226 8.51813 10.0979C8.44467 10.0123 8.37009 9.92759 8.29563 9.84357C8.25484 9.79754 8.20645 9.7547 8.16541 9.70839C8.09881 9.63311 8.02822 9.56198 7.96822 9.47866C7.93929 9.43817 7.90174 9.40545 7.86844 9.36899C7.85425 9.35676 7.8433 9.34016 7.83784 9.32114L8.34477 9.32018C8.42322 9.36178 8.46874 9.44496 8.53061 9.50749C8.69275 9.67193 8.83768 9.85744 8.99833 10.0245C9.07877 10.1077 9.15124 10.2005 9.22957 10.286C9.42601 10.5002 9.61621 10.7207 9.81453 10.9335C9.96669 11.0974 10.1107 11.27 10.2635 11.4326C10.2892 11.4603 10.3082 11.494 10.3369 11.5186C10.3408 11.5211 10.3441 11.5247 10.3466 11.529C10.349 11.5333 10.3505 11.5381 10.351 11.5432C10.3514 11.5482 10.3507 11.5533 10.349 11.558C10.3473 11.5627 10.3447 11.5669 10.3412 11.5703Z" fill="#0E54A7"/>
<path d="M9.0066 11.5709C8.98527 11.5093 8.93263 11.4771 8.89509 11.4315C8.79918 11.315 8.69803 11.2037 8.59476 11.0953C8.49722 10.9928 8.41491 10.8734 8.31363 10.7764C8.18467 10.6526 8.07004 10.5129 7.95068 10.3793C7.83619 10.2505 7.72094 10.1224 7.60495 9.99497C7.50766 9.8878 7.41786 9.77175 7.31484 9.67193C7.21843 9.57834 7.14534 9.46035 7.04506 9.37218C7.03159 9.35892 7.02276 9.3408 7.02012 9.32102L7.39893 9.32114C7.40742 9.34662 7.4217 9.36922 7.44006 9.38715C7.5593 9.51858 7.68091 9.64739 7.79852 9.78062C7.88919 9.88308 7.9881 9.97653 8.07566 10.0813C8.15261 10.1731 8.23056 10.2644 8.31051 10.3523C8.37699 10.4253 8.4416 10.5006 8.51007 10.5723C8.61297 10.681 8.70963 10.7974 8.80941 10.9098C8.86042 10.9671 8.91368 11.0222 8.96519 11.0792C9.09823 11.2265 9.23081 11.3741 9.36293 11.522C9.37216 11.5323 9.38364 11.5429 9.3774 11.5587C9.37116 11.5746 9.3552 11.5711 9.34285 11.5711C9.23048 11.5714 9.11847 11.5711 9.0066 11.5709Z" fill="#0E54A7"/>
<path d="M10.3412 11.5703C10.3118 11.5184 10.2691 11.4788 10.2316 11.4352C10.1051 11.2887 9.98037 11.1394 9.84629 11.0018C9.72032 10.8722 9.60532 10.7305 9.47835 10.6018C9.4085 10.5308 9.34664 10.4481 9.27817 10.374C9.13686 10.2215 9.00377 10.0604 8.85859 9.91123C8.76879 9.81848 8.68884 9.71408 8.60266 9.61689C8.56075 9.56947 8.51361 9.52788 8.47095 9.48129C8.42518 9.4311 8.37807 9.38244 8.34477 9.32018L8.82168 9.32032C8.91123 9.36372 8.96548 9.45231 9.03071 9.52593C9.0841 9.58625 9.13648 9.64711 9.19286 9.70451C9.28284 9.7955 9.36852 9.89162 9.44954 9.99248C9.50841 10.0668 9.57763 10.1296 9.63787 10.2027C9.74302 10.3299 9.86138 10.4427 9.97076 10.5655C10.0319 10.6348 10.0914 10.7048 10.156 10.7706C10.2344 10.8488 10.3081 10.9326 10.3767 11.0214C10.4416 11.1071 10.5172 11.1801 10.5895 11.2571C10.6328 11.3032 10.6786 11.3468 10.7151 11.4C10.7439 11.4416 10.7852 11.4693 10.8164 11.5084C10.8317 11.5276 10.843 11.5453 10.8276 11.5703H10.3412Z" fill="#0E54A7"/>
<path d="M10.8276 11.5703C10.8196 11.5452 10.8005 11.5305 10.7843 11.513C10.682 11.4035 10.5885 11.2845 10.4795 11.1818C10.4059 11.1125 10.3478 11.0232 10.2782 10.948C10.2182 10.8831 10.1646 10.8117 10.0992 10.7517C10.0339 10.6917 9.98359 10.6165 9.9246 10.5508C9.8212 10.4368 9.71456 10.3265 9.61154 10.2121C9.52423 10.115 9.44192 10.0142 9.35498 9.91775C9.26094 9.81335 9.16228 9.71408 9.06912 9.60871C8.99316 9.52288 8.92144 9.43263 8.841 9.35179C8.83361 9.34226 8.8274 9.33168 8.82254 9.32032L9.27011 9.3199C9.29356 9.37287 9.33303 9.41141 9.37057 9.44982C9.43144 9.51207 9.48919 9.57793 9.5498 9.6406C9.64222 9.73585 9.72504 9.84247 9.81509 9.94063C9.92734 10.0629 10.0356 10.1895 10.1518 10.3075C10.2173 10.374 10.2731 10.4525 10.3341 10.5246C10.3583 10.5536 10.3839 10.5811 10.4109 10.6068C10.526 10.7152 10.6275 10.8399 10.7338 10.9579C10.8998 11.1423 11.0667 11.326 11.2296 11.514C11.2434 11.5298 11.2571 11.5448 11.2572 11.5687L10.8276 11.5703Z" fill="#0E54A7"/>
</svg>
