<svg width="22" height="22" viewBox="0 0 22 22" fill="none" xmlns="http://www.w3.org/2000/svg">
<circle cx="11" cy="11" r="11" fill="#0E54A7"/>
<path d="M16.7847 12.8194C16.6745 12.8325 16.5639 12.8235 16.4536 12.825C16.3432 12.8265 16.2287 12.8242 16.117 12.8237C16.027 12.7323 15.9325 12.6453 15.8524 12.5417C15.7646 12.428 15.6515 12.3425 15.5633 12.2291C15.4561 12.0913 15.3336 11.9704 15.2216 11.8381C15.1655 11.7714 15.1016 11.7144 15.0438 11.6502C14.9652 11.563 14.8896 11.473 14.8124 11.3848C14.7541 11.3182 14.6956 11.2515 14.6343 11.1887C14.4752 11.026 14.324 10.854 14.1751 10.6806C14.0262 10.5072 13.8602 10.3587 13.7268 10.1722C13.7106 10.1497 13.6999 10.1295 13.7161 10.1025H14.3835C14.5055 10.1765 14.5935 10.2941 14.6858 10.4041C14.7643 10.4979 14.8524 10.5796 14.9295 10.6739C14.9961 10.7554 15.0672 10.8319 15.1327 10.9146C15.1967 10.9935 15.2648 11.0681 15.3368 11.138C15.4253 11.2259 15.5097 11.3187 15.5897 11.4162C15.7016 11.5522 15.835 11.6639 15.9447 11.8021C16.0129 11.8882 16.0855 11.9699 16.1601 12.0484C16.2672 12.1611 16.3713 12.2776 16.475 12.3933C16.5788 12.509 16.685 12.6127 16.7823 12.7312C16.8052 12.7593 16.8304 12.7887 16.7847 12.8194Z" fill="white"/>
<path d="M9.05509 14.2049L10.8357 14.2061C10.8401 14.21 10.8442 14.2141 10.848 14.2186C10.934 14.2809 10.9888 14.3786 11.0643 14.4536C11.2132 14.6019 11.3445 14.7703 11.494 14.919C11.5347 14.9591 11.569 15.0075 11.6059 15.0513C11.7054 15.1668 11.8088 15.2777 11.9149 15.3859C11.9688 15.4423 12.0199 15.502 12.0679 15.5647C12.1463 15.6647 12.2346 15.7526 12.3211 15.8426C12.4351 15.9609 12.5387 16.0906 12.6486 16.2131C12.8355 16.4215 13.0307 16.6198 13.2106 16.8365C13.2502 16.8839 13.2498 16.9092 13.2036 16.9304H12.6236C12.5636 16.9137 12.5282 16.858 12.4879 16.8137C12.4475 16.7693 12.4056 16.7207 12.3615 16.6803C12.2744 16.5987 12.2061 16.4988 12.1277 16.4091C12.0629 16.3348 11.9902 16.2686 11.9245 16.1946C11.7839 16.0363 11.65 15.8702 11.5024 15.7201C11.3549 15.5699 11.2271 15.3967 11.0812 15.2447C10.952 15.11 10.8384 14.9575 10.7063 14.828C10.5339 14.6588 10.3833 14.4664 10.2173 14.2906C10.197 14.2689 10.1746 14.2504 10.1461 14.2499C9.99047 14.2472 9.83483 14.2461 9.67888 14.2479C9.53913 14.2456 9.39937 14.2552 9.25977 14.2419C9.25006 14.242 9.24043 14.2439 9.23128 14.2476C9.18935 14.2502 9.1473 14.2494 9.10547 14.2452C9.08268 14.2424 9.05779 14.2401 9.05509 14.2049Z" fill="white"/>
<path d="M9.05478 12.8326H8.94817C8.90589 12.8098 8.86862 12.777 8.83901 12.7364C8.71905 12.5884 8.59084 12.45 8.46038 12.314C8.33926 12.188 8.22415 12.0551 8.1155 11.9158C8.07546 11.8643 8.02553 11.8283 7.98235 11.7806C7.85789 11.6408 7.73418 11.4999 7.60462 11.3651C7.51465 11.2719 7.42828 11.1712 7.34266 11.0714C7.27039 10.987 7.19511 10.9047 7.12104 10.823C7.04416 10.7372 6.96684 10.6519 6.88907 10.567C6.7796 10.4475 6.67044 10.327 6.56788 10.2003C6.55606 10.1889 6.5462 10.1752 6.53879 10.1599C6.52904 10.1309 6.53159 10.1074 6.56728 10.1076H7.14548C7.17082 10.1029 7.18432 10.1243 7.19976 10.1394C7.35121 10.295 7.49786 10.4561 7.63971 10.6228C7.73313 10.7328 7.84049 10.8287 7.93196 10.9405C8.02103 11.0494 8.12465 11.1414 8.21132 11.2519C8.2677 11.3241 8.33338 11.3852 8.39306 11.4534C8.47913 11.5526 8.56385 11.6509 8.65157 11.746C8.76013 11.8636 8.8615 11.99 8.97891 12.0977C9.03229 12.1467 9.06558 12.2143 9.11491 12.267C9.21058 12.3689 9.3127 12.4634 9.39982 12.5749C9.4496 12.6386 9.51423 12.6866 9.55561 12.7582C9.57241 12.7877 9.59025 12.8184 9.53882 12.8281C9.37732 12.8312 9.21598 12.8237 9.05478 12.8326Z" fill="white"/>
<path d="M12.1815 8.73075C12.1347 8.73075 12.0879 8.73191 12.0411 8.73191C10.8901 8.73191 9.73908 8.73136 8.58807 8.73025C7.98727 8.73025 7.38637 8.72941 6.78537 8.72775C6.76603 8.72775 6.74669 8.72525 6.72734 8.72391C6.74054 8.68807 6.77053 8.69374 6.79632 8.69057C6.85 8.68357 6.90368 8.69841 6.95736 8.69057C7.11736 8.69057 7.27736 8.68441 7.4372 8.69424C7.44893 8.69437 7.46063 8.6928 7.47199 8.68957C7.65193 8.69208 7.83187 8.68307 8.01181 8.69474C8.0234 8.69466 8.03495 8.69332 8.0463 8.69074C8.22999 8.69074 8.41367 8.68291 8.59721 8.69558C8.60881 8.6957 8.62035 8.69379 8.6314 8.68991C8.78795 8.69174 8.94465 8.68274 9.10104 8.69558C9.11264 8.6958 9.1242 8.69388 9.13523 8.68991C9.30018 8.68991 9.46377 8.68574 9.62812 8.69308C9.63965 8.69338 9.65118 8.69214 9.66245 8.68941C9.83834 8.69208 10.0144 8.68324 10.1901 8.69458C10.2018 8.69463 10.2134 8.69335 10.2248 8.69074C10.4118 8.69074 10.5989 8.68407 10.7859 8.69508C10.9667 8.68757 11.1476 8.68157 11.3281 8.69941C11.3795 8.68107 11.4331 8.69124 11.4846 8.69024C11.5746 8.68841 11.6646 8.69024 11.7537 8.69024C11.7664 8.69024 11.7836 8.69491 11.7884 8.67557C11.7917 8.6619 11.7794 8.65257 11.7716 8.64324C11.7587 8.62696 11.7449 8.61159 11.7303 8.59723C11.631 8.50605 11.5595 8.38371 11.4603 8.29369C11.368 8.21035 11.2896 8.11117 11.2054 8.01883C11.1354 7.94182 11.0612 7.86881 10.9972 7.78347C10.9573 7.73079 10.9072 7.68912 10.8622 7.64012C10.7223 7.48393 10.5845 7.32558 10.4443 7.16973C10.314 7.02471 10.1766 6.88636 10.0504 6.73734C9.95426 6.62383 9.85454 6.51415 9.75497 6.4048C9.66215 6.30296 9.57653 6.19361 9.48087 6.09493C9.46584 6.07818 9.44784 6.06508 9.42801 6.05648C9.40819 6.04787 9.38697 6.04393 9.3657 6.04493C9.28203 6.04659 9.19806 6.04759 9.11424 6.04393C9.08965 6.04276 9.05576 6.05043 9.05426 6.00359H9.72228C9.80401 6.01042 9.88588 6.00692 9.9676 6.00592C9.99194 6.00497 10.0162 6.01002 10.0385 6.02071C10.0609 6.03141 10.0809 6.04747 10.097 6.06776C10.1833 6.17065 10.2743 6.26857 10.3696 6.36113C10.39 6.38445 10.4091 6.40923 10.4266 6.43531C10.5352 6.57182 10.6629 6.68667 10.7758 6.81768C10.8742 6.9317 10.9741 7.04371 11.0748 7.15506C11.2248 7.32174 11.3747 7.48843 11.52 7.66029C11.6056 7.7603 11.7019 7.84947 11.7875 7.95065C11.8609 8.03733 11.9405 8.11734 12.0125 8.20585C12.061 8.26465 12.1126 8.32031 12.1669 8.37254C12.2557 8.46038 12.3319 8.56239 12.4199 8.6514C12.4349 8.66641 12.4461 8.68474 12.4373 8.70924C12.4272 8.73675 12.4043 8.72591 12.3861 8.72725C12.3178 8.72991 12.2495 8.72358 12.1815 8.73075Z" fill="white"/>
<path d="M9.05509 14.2049C9.11252 14.2261 9.17137 14.2101 9.22955 14.2159C9.29021 14.2551 9.34417 14.3059 9.38894 14.3659C9.45687 14.4581 9.54444 14.5299 9.61732 14.6159C9.72123 14.7395 9.83579 14.851 9.93596 14.9781C10.0066 15.0678 10.0892 15.1448 10.1642 15.2293C10.3278 15.4152 10.4941 15.5981 10.6604 15.7816C10.9464 16.0978 11.2315 16.4149 11.5158 16.7329C11.5502 16.7715 11.5923 16.8009 11.6227 16.8434C11.6532 16.8859 11.6496 16.9109 11.6094 16.9297H11.0673C11.019 16.9205 10.9835 16.8857 10.9519 16.8494C10.8151 16.692 10.6731 16.5407 10.5358 16.3845C10.4095 16.2406 10.2726 16.1088 10.1547 15.9554C10.0919 15.8736 10.0126 15.8089 9.94571 15.7299C9.87403 15.6454 9.79876 15.5632 9.72543 15.481C9.60127 15.3407 9.46947 15.209 9.34546 15.0687C9.11643 14.8097 8.88716 14.5511 8.65764 14.2927C8.63634 14.2687 8.608 14.2454 8.6323 14.2042L9.05509 14.2049Z" fill="white"/>
<path d="M15.1917 16.6253C15.1401 16.7005 15.0827 16.7705 15.0201 16.8345C14.9586 16.8986 14.8775 16.9343 14.7932 16.9346C14.7436 16.8592 14.6812 16.7972 14.622 16.7314C14.479 16.5725 14.3343 16.4155 14.1924 16.2553C14.0299 16.0719 13.8616 15.8939 13.6985 15.7112C13.5214 15.5131 13.3406 15.3184 13.1692 15.1137C13.1027 15.0343 13.0239 14.9705 12.9573 14.8906C12.8541 14.7671 12.7498 14.6443 12.6404 14.5278C12.5674 14.4501 12.4936 14.3736 12.4265 14.2897C12.4055 14.2636 12.3744 14.2311 12.4323 14.2096H13.0059C13.0396 14.2096 13.067 14.2354 13.0859 14.2561C13.1509 14.3272 13.2311 14.3814 13.2809 14.4689C13.2948 14.4926 13.3116 14.514 13.3308 14.5324C13.4208 14.6213 13.5073 14.7158 13.5898 14.8128C13.7547 15.0062 13.9346 15.1817 14.0969 15.378C14.1915 15.4922 14.2999 15.5929 14.3938 15.7089C14.4877 15.8249 14.5875 15.9276 14.685 16.0358C14.7661 16.1256 14.8499 16.2123 14.9315 16.3025C15.0131 16.3927 15.0852 16.4858 15.1761 16.5622C15.1851 16.5689 15.1916 16.5789 15.1945 16.5905C15.1973 16.6021 15.1963 16.6145 15.1917 16.6253Z" fill="white"/>
<path d="M13.7161 10.1025C13.7761 10.1704 13.8269 10.2469 13.8843 10.3169C13.9759 10.4286 14.0863 10.5169 14.1734 10.6349C14.2605 10.7529 14.3658 10.8545 14.4639 10.9625C14.5564 11.0643 14.6477 11.1675 14.7432 11.2657C14.8573 11.3824 14.9593 11.5132 15.0707 11.6337C15.2282 11.8041 15.3892 11.9706 15.5355 12.1531C15.6185 12.2561 15.7167 12.3438 15.8041 12.4427C15.8915 12.5415 15.9797 12.6452 16.0719 12.7415C16.0941 12.7636 16.1098 12.7927 16.1169 12.8249C16.0976 12.8262 16.0782 12.8289 16.0587 12.8289C15.129 12.83 14.1997 12.8309 13.2707 12.8317C13.2514 12.8317 13.232 12.8297 13.2125 12.8285C13.2138 12.8206 13.2173 12.8132 13.2224 12.8075C13.2506 12.787 13.2824 12.7894 13.3124 12.7937C13.3393 12.7966 13.3664 12.7942 13.3925 12.7867C13.5241 12.7954 13.6558 12.7899 13.7873 12.7899C13.8296 12.7899 13.8719 12.8039 13.9142 12.791C14.1052 12.7927 14.2964 12.785 14.4876 12.7962C14.6288 12.7854 14.7702 12.7915 14.9115 12.7922C14.9326 12.7952 14.954 12.7934 14.9744 12.7867C15.0476 12.7955 15.1217 12.7839 15.1944 12.7977C15.274 12.7889 15.354 12.7922 15.4343 12.7907C15.4525 12.7907 15.4793 12.8012 15.4862 12.7759C15.4931 12.7505 15.4691 12.7392 15.4562 12.7247C15.3792 12.6413 15.3063 12.5545 15.2247 12.4767C15.1536 12.4063 15.0865 12.331 15.0239 12.2511C14.9208 12.1236 14.8059 12.0101 14.6979 11.8886C14.5769 11.7521 14.4537 11.6179 14.3324 11.4817C14.219 11.3545 14.1052 11.2276 13.9909 11.1012C13.8767 10.9747 13.7605 10.8468 13.6424 10.7174C13.5412 10.6066 13.4475 10.4872 13.3433 10.3801C13.279 10.3134 13.2151 10.2467 13.1551 10.1759C13.1374 10.1547 13.119 10.1334 13.1428 10.1032L13.7161 10.1025Z" fill="white"/>
<path d="M14.4881 12.8194H13.9137C13.8813 12.8027 13.8588 12.7725 13.8339 12.745C13.628 12.517 13.4235 12.2875 13.2164 12.0608C13.1069 11.9409 12.9996 11.8178 12.891 11.6964C12.6574 11.4353 12.4227 11.1749 12.187 10.9152C12.0247 10.7371 11.8688 10.5519 11.7035 10.3773C11.6443 10.3148 11.5872 10.2501 11.531 10.1842C11.5043 10.1531 11.4722 10.1454 11.4356 10.1456C11.3165 10.1456 11.1975 10.1456 11.0784 10.1456C11.0471 10.1456 11.0156 10.1456 10.9884 10.1227C10.9868 10.1201 10.9857 10.1172 10.9851 10.1141C10.9845 10.111 10.9845 10.1078 10.985 10.1047H11.6884C11.7894 10.114 11.891 10.114 11.9921 10.1047C12.0987 10.0929 12.167 10.1512 12.2291 10.2279C12.3543 10.3826 12.4929 10.5224 12.6241 10.6703C12.7072 10.7641 12.7983 10.8495 12.8738 10.952C12.943 11.0462 13.0291 11.1222 13.105 11.2094C13.3391 11.4787 13.5815 11.7389 13.8175 12.0063C14.0293 12.2458 14.2456 12.4805 14.4601 12.7174C14.4848 12.7434 14.5271 12.7694 14.4881 12.8194Z" fill="white"/>
<path d="M10.7869 8.71891H10.2236C10.1535 8.66707 10.0987 8.59623 10.037 8.53389C9.97944 8.47588 9.92891 8.40954 9.87493 8.3472C9.78061 8.23835 9.67999 8.13668 9.58388 8.02916C9.39479 7.81714 9.20016 7.61128 9.01602 7.39376C8.95349 7.31975 8.88676 7.25024 8.82108 7.17973C8.71912 7.07038 8.6185 6.95887 8.52119 6.84319C8.43826 6.74351 8.34275 6.657 8.26027 6.55716C8.1778 6.45731 8.07718 6.3753 8.00341 6.26612C7.98407 6.23795 7.95588 6.22145 7.93368 6.19728C7.91149 6.17311 7.89185 6.15061 7.90474 6.11277C7.9661 6.0433 8.0496 6.00348 8.13716 6.00193C8.22384 5.99759 8.31081 6.00193 8.39763 6.00193C8.44615 6.03414 8.4894 6.07529 8.52553 6.12361C8.60051 6.21495 8.68478 6.29479 8.7626 6.3823C8.93535 6.57616 9.10749 6.77085 9.28053 6.96371C9.39299 7.08889 9.50785 7.21173 9.62166 7.33525C9.71028 7.43159 9.8031 7.5251 9.88213 7.63295C9.95485 7.73296 10.0478 7.8098 10.1267 7.90281C10.1627 7.94515 10.196 7.99066 10.2344 8.03066C10.3948 8.19735 10.5451 8.37604 10.7062 8.54206C10.7379 8.57539 10.7616 8.6149 10.7898 8.65074C10.7942 8.65508 10.7977 8.66046 10.7999 8.66649C10.8022 8.67252 10.8033 8.67904 10.803 8.68558C10.8027 8.69212 10.8012 8.69851 10.7984 8.70427C10.7956 8.71004 10.7917 8.71504 10.7869 8.71891Z" fill="white"/>
<path d="M10.8464 6.00459H11.5143C11.6239 5.98392 11.6996 6.03909 11.7706 6.12794C11.8646 6.24562 11.9739 6.3478 12.0739 6.45931C12.1739 6.57082 12.268 6.6835 12.3677 6.79268C12.486 6.92153 12.6032 7.05171 12.7205 7.18139C12.842 7.31474 12.9604 7.45443 13.0819 7.58828C13.2287 7.74946 13.3719 7.91465 13.5196 8.07483C13.6464 8.21235 13.7665 8.3582 13.8998 8.48788C13.954 8.54055 13.9948 8.60856 14.0469 8.66407C14.0646 8.68307 14.0769 8.70591 14.0546 8.73191L13.4113 8.73058C13.4125 8.67674 13.3855 8.6449 13.3513 8.60806C13.2498 8.49788 13.1525 8.38287 13.0526 8.27052C12.9027 8.1025 12.7545 7.93348 12.6014 7.77046C12.5157 7.67879 12.4383 7.57827 12.3539 7.4871C12.2653 7.39042 12.1787 7.29024 12.0828 7.20106C12.007 7.12872 11.9471 7.03904 11.8764 6.9607C11.7556 6.82546 11.6329 6.69245 11.5085 6.56165C11.4177 6.46664 11.341 6.35663 11.2489 6.26245C11.1949 6.20728 11.1337 6.15927 11.0958 6.08526C11.0795 6.05326 11.0472 6.04459 11.0141 6.04459C10.9749 6.04459 10.936 6.04626 10.897 6.04276C10.8745 6.04076 10.8478 6.04259 10.8464 6.00459Z" fill="white"/>
<path d="M6.54779 10.1174C6.57928 10.1863 6.63132 10.2391 6.6802 10.2881C6.79386 10.4026 6.89508 10.5305 7.00589 10.6478C7.19543 10.8479 7.37986 11.0554 7.5607 11.2646C7.68816 11.4126 7.82056 11.5561 7.95237 11.698C8.1689 11.9313 8.36473 12.186 8.59055 12.4082C8.70661 12.5224 8.80813 12.6549 8.91534 12.7798C8.92767 12.7965 8.93854 12.8138 8.94817 12.8326L8.40956 12.8331C8.35483 12.8111 8.31405 12.7684 8.27461 12.7227C8.19649 12.6319 8.12001 12.5382 8.03844 12.4527C7.866 12.2709 7.69971 12.0827 7.53311 11.895C7.40445 11.7501 7.27175 11.6099 7.14669 11.4608C7.03153 11.3236 6.90557 11.1972 6.78681 11.0637C6.58933 10.842 6.38375 10.6293 6.19136 10.4021C6.15802 10.3599 6.12178 10.3206 6.08295 10.2846C6.05989 10.2642 6.04282 10.2365 6.03392 10.2053C6.04802 10.1767 6.06881 10.1529 6.0941 10.1363C6.11939 10.1198 6.14824 10.1112 6.17757 10.1114C6.30098 10.1089 6.42454 10.0976 6.54779 10.1174Z" fill="white"/>
<path d="M14.0546 8.73191C14.0044 8.64357 13.9372 8.57056 13.8698 8.50072C13.7131 8.3382 13.5653 8.16635 13.414 7.99783C13.2768 7.84514 13.1358 7.69629 12.9991 7.54294C12.9048 7.43709 12.8041 7.33742 12.7194 7.22173C12.7005 7.19606 12.6758 7.1789 12.6552 7.15623C12.5338 7.02288 12.4135 6.88653 12.2925 6.75185C12.2034 6.65283 12.1126 6.55599 12.025 6.45531C11.9051 6.31713 11.7717 6.19344 11.6606 6.04576C11.654 6.0353 11.6451 6.0268 11.6349 6.02099C11.6246 6.01518 11.6132 6.01224 11.6017 6.01242C11.5726 6.01242 11.5426 6.01642 11.5143 6.00459L12.2384 6.00459C12.2534 6.10577 12.3347 6.14711 12.3904 6.20978C12.4204 6.24312 12.4519 6.27529 12.4815 6.30979C12.6034 6.44998 12.7289 6.58599 12.8497 6.72651C12.941 6.83354 13.0372 6.93514 13.1381 7.03088C13.1607 7.05469 13.1812 7.08075 13.1996 7.10872C13.3096 7.25874 13.4428 7.38359 13.5657 7.51844C13.7007 7.66679 13.8356 7.81631 13.9688 7.96749C14.1099 8.12851 14.2631 8.27569 14.3957 8.44655C14.4557 8.52456 14.5374 8.58223 14.5917 8.66841C14.604 8.68791 14.6217 8.70525 14.6053 8.73192L14.0546 8.73191Z" fill="white"/>
<path d="M12.4155 14.217C12.4626 14.3057 12.5296 14.3772 12.5983 14.4416C12.6747 14.5134 12.738 14.5979 12.8082 14.6749C12.9153 14.7916 13.0174 14.9126 13.1264 15.0266C13.2354 15.1406 13.3431 15.2633 13.4501 15.383C13.623 15.5767 13.797 15.7692 13.9721 15.9604C14.1111 16.1113 14.2504 16.2626 14.3789 16.4256C14.43 16.4903 14.4965 16.54 14.5484 16.6038C14.6233 16.6953 14.7108 16.7705 14.7838 16.8639C14.8004 16.8849 14.8231 16.9059 14.7932 16.9346L14.2771 16.934C14.2321 16.911 14.1976 16.8729 14.163 16.834C13.9483 16.5943 13.7296 16.3588 13.5193 16.1146C13.3843 15.9581 13.2393 15.8134 13.1071 15.6537C13.0321 15.5637 12.9421 15.487 12.8671 15.398C12.7622 15.2755 12.6572 15.1535 12.5476 15.036C12.3826 14.8583 12.2252 14.6728 12.0597 14.4959C11.9926 14.4252 11.9327 14.3442 11.8688 14.2695C11.8497 14.2472 11.8373 14.2195 11.8814 14.2095H12.0463C12.1513 14.2095 12.2553 14.2095 12.3599 14.2095C12.3782 14.2094 12.3984 14.2017 12.4155 14.217Z" fill="white"/>
<path d="M12.1823 8.73074C12.2436 8.71091 12.3063 8.72591 12.3684 8.72074C12.385 8.71941 12.4072 8.72808 12.4151 8.70541C12.4217 8.68674 12.4037 8.67507 12.3929 8.6634C12.276 8.53689 12.1578 8.41187 12.0419 8.28419C11.9729 8.20835 11.9088 8.127 11.8402 8.05083C11.7566 7.95748 11.6696 7.86747 11.5853 7.77463C11.4878 7.66578 11.3941 7.55244 11.2955 7.44476C11.1455 7.28174 10.9926 7.12155 10.8491 6.9527C10.6895 6.76401 10.5103 6.59716 10.3586 6.39947C10.2918 6.31193 10.2172 6.23212 10.1359 6.16127C10.1068 6.13265 10.0805 6.10063 10.0575 6.06576C10.0275 6.02592 9.9912 6.01192 9.94456 6.01176C9.87079 6.01176 9.79641 6.02376 9.72339 6.00342H10.2972C10.3692 6.01025 10.4413 6.00559 10.5135 6.00625C10.5408 6.00618 10.5678 6.01282 10.5925 6.0257C10.6172 6.03858 10.6391 6.05739 10.6565 6.08076C10.7841 6.23945 10.9219 6.3868 11.0597 6.53398C11.1328 6.61177 11.2036 6.692 11.2722 6.77468C11.3596 6.87969 11.4585 6.97187 11.5475 7.07471C11.6825 7.23073 11.8194 7.38558 11.9594 7.53627C12.1568 7.74896 12.3463 7.96965 12.5432 8.18351C12.66 8.31003 12.7815 8.43354 12.884 8.57656C12.9057 8.60459 12.9301 8.62975 12.9569 8.65157C12.9728 8.66557 12.984 8.6839 12.9765 8.70824C12.9691 8.73258 12.9487 8.72658 12.9316 8.72724C12.8809 8.72941 12.8302 8.72341 12.7797 8.73058L12.1823 8.73074Z" fill="white"/>
<path d="M10.7869 8.71891C10.7739 8.65357 10.7274 8.61389 10.6899 8.56889C10.6149 8.48071 10.5316 8.4022 10.4555 8.31619C10.293 8.1305 10.1249 7.95081 9.96071 7.76696C9.84705 7.63944 9.73699 7.50793 9.62363 7.38025C9.55555 7.30357 9.48343 7.23156 9.4146 7.15572C9.35252 7.08755 9.29329 7.01637 9.23151 6.94786C9.16973 6.87935 9.10256 6.81051 9.03973 6.74017C8.90357 6.58915 8.77402 6.43097 8.63366 6.28529C8.56169 6.21211 8.50021 6.12793 8.42583 6.05809C8.41136 6.0432 8.40115 6.0235 8.39763 6.00193L8.92547 6.00192C9.02563 6.06359 9.09956 6.1591 9.17933 6.24645C9.30409 6.38296 9.41925 6.52981 9.54985 6.6605C9.69381 6.80301 9.81976 6.96653 9.95472 7.11905C10.0628 7.2404 10.1822 7.34941 10.2846 7.47659C10.4019 7.62144 10.5308 7.75312 10.6538 7.89131C10.7412 7.98948 10.8415 8.07466 10.916 8.18634C10.9382 8.21968 10.9724 8.23918 10.9988 8.26835C11.1149 8.39587 11.2279 8.52655 11.341 8.65756C11.3576 8.67707 11.3669 8.69557 11.3482 8.71924L10.7869 8.71891Z" fill="white"/>
<path d="M14.6053 8.73192C14.4596 8.54856 14.303 8.37768 14.143 8.21C14.0514 8.11398 13.97 8.00597 13.8787 7.90996C13.7716 7.79728 13.6798 7.6676 13.5638 7.56475C13.5263 7.53141 13.5002 7.48258 13.4642 7.44657C13.2541 7.23538 13.0688 6.99835 12.8625 6.78366C12.7125 6.62714 12.5726 6.45645 12.4276 6.29277C12.3597 6.21593 12.2807 6.15208 12.2193 6.06707C12.1893 6.0259 12.1952 6.01142 12.2384 6.00459C12.5696 5.99992 12.9009 6.0019 13.2321 6.0079C13.2243 6.05191 13.1924 6.04257 13.1666 6.04324C13.0652 6.04607 12.9637 6.04324 12.8623 6.04474C12.8454 6.04474 12.8221 6.03724 12.8139 6.05691C12.8037 6.08141 12.8278 6.09458 12.8407 6.10891C13.0444 6.33261 13.2382 6.56697 13.4492 6.78199C13.5186 6.853 13.5684 6.94218 13.6395 7.00919C13.7524 7.11807 13.86 7.23364 13.9617 7.35539C14.0824 7.49624 14.2187 7.62043 14.3282 7.77344C14.3732 7.83662 14.4332 7.88262 14.4857 7.93813C14.6148 8.07631 14.7284 8.23183 14.8637 8.36285C14.9166 8.41435 14.9643 8.47069 15.0136 8.5257C15.034 8.5482 15.0483 8.57221 15.0436 8.60571C14.9785 8.68905 14.8937 8.72639 14.798 8.73272C14.7337 8.73689 14.6693 8.73242 14.6053 8.73192Z" fill="white"/>
<path d="M8.6323 14.2042C8.64486 14.2313 8.66112 14.2559 8.68111 14.2767C8.79987 14.4079 8.91248 14.5466 9.03334 14.6746C9.18119 14.8309 9.31915 14.9981 9.4667 15.1548C9.58665 15.2817 9.70331 15.4119 9.81877 15.5437C9.92554 15.6655 10.0287 15.7937 10.1487 15.9007C10.1968 15.9439 10.2323 16.0028 10.2767 16.0508C10.5234 16.3215 10.7677 16.595 11.0128 16.8675C11.028 16.8814 11.0391 16.8999 11.0449 16.9207C11.028 16.9362 11.0077 16.9285 10.9893 16.9287C10.8404 16.9287 10.6916 16.9287 10.543 16.9287C10.4776 16.9287 10.4421 16.8705 10.4063 16.8279C10.3503 16.7612 10.289 16.7015 10.2305 16.6382C10.1106 16.5082 9.99766 16.3701 9.8774 16.241C9.76149 16.1163 9.65488 15.9818 9.53552 15.8604C9.45005 15.7736 9.37358 15.6737 9.29006 15.5837C9.05299 15.3305 8.81712 15.0758 8.58815 14.8131C8.47598 14.6841 8.35572 14.5644 8.24791 14.4306C8.20817 14.3806 8.16634 14.3321 8.12285 14.2859C8.10426 14.2662 8.08702 14.2452 8.08927 14.2135C8.11056 14.1985 8.13425 14.2025 8.15764 14.2025C8.31599 14.2029 8.4744 14.2036 8.6323 14.2042Z" fill="white"/>
<path d="M9.05478 12.8326C9.10367 12.8127 9.15486 12.8238 9.20524 12.8229C9.32295 12.8209 9.44081 12.8219 9.55852 12.8216C9.56527 12.8123 9.57382 12.8049 9.58354 12.7999C9.59326 12.7948 9.60389 12.7923 9.61461 12.7926C9.77955 12.7916 9.94449 12.7824 10.1085 12.7983C10.2113 12.7816 10.3147 12.7963 10.4176 12.7901C10.4491 12.7881 10.4948 12.8101 10.5086 12.7734C10.5197 12.7441 10.4786 12.7186 10.4572 12.6939C10.2756 12.4825 10.0835 12.283 9.90011 12.0742C9.78885 11.9473 9.67519 11.823 9.56272 11.6978C9.47635 11.6016 9.39208 11.5026 9.30256 11.4093C9.20389 11.3064 9.10478 11.2012 9.02125 11.0812C8.99206 11.0434 8.95962 11.0088 8.92439 10.978C8.76424 10.8227 8.62929 10.6388 8.47124 10.4816C8.38637 10.3981 8.31919 10.2951 8.22922 10.2191C8.21273 10.2035 8.19996 10.1837 8.19203 10.1613C8.18079 10.1341 8.18214 10.1091 8.21812 10.1073H8.70471C8.73995 10.1056 8.76094 10.1356 8.78388 10.1564C8.85277 10.2169 8.91476 10.2865 8.96847 10.3636C9.0214 10.4425 9.09143 10.5021 9.15351 10.57C9.28067 10.7091 9.40708 10.8491 9.53273 10.99C9.62855 11.0976 9.72347 11.2059 9.81974 11.3129C9.88961 11.3906 9.96189 11.4661 10.0282 11.5478C10.1181 11.6588 10.2221 11.7543 10.317 11.86C10.4726 12.033 10.626 12.2083 10.7802 12.3829C10.8769 12.4924 10.979 12.5962 11.0772 12.7044C11.0965 12.723 11.1122 12.7457 11.1235 12.7711C11.1336 12.7979 11.1367 12.8224 11.102 12.8293C11.0177 12.8308 10.9334 12.8264 10.8493 12.8314C10.8356 12.8326 10.8222 12.8346 10.8087 12.8346C10.2338 12.8346 9.65904 12.8346 9.08423 12.8346C9.07464 12.8344 9.06453 12.8332 9.05478 12.8326Z" fill="white"/>
<path d="M12.7786 8.73076C12.8262 8.71209 12.8753 8.72526 12.9236 8.72059C12.9352 8.71942 12.9487 8.72059 12.9536 8.70559C12.9572 8.69425 12.949 8.68609 12.9419 8.67825C12.7814 8.4989 12.6209 8.31943 12.4604 8.13985C12.1866 7.83504 11.9126 7.53039 11.6384 7.22591C11.322 6.8742 11.0057 6.52249 10.6894 6.17079C10.6702 6.14928 10.6525 6.12611 10.6347 6.10328C10.5897 6.0461 10.5402 6.0051 10.4645 6.01127C10.409 6.01577 10.3515 6.0226 10.2962 6.00343C10.4798 6.0001 10.6629 5.99759 10.8464 6.00459C10.9022 6.02126 10.9596 6.01377 11.0157 6.0116C11.0638 6.00993 11.1014 6.02577 11.1239 6.07094C11.1503 6.12378 11.1904 6.16062 11.2298 6.19879C11.3412 6.30697 11.4343 6.43532 11.5403 6.54983C11.6853 6.70652 11.8321 6.86154 11.9704 7.02539C12.0718 7.14557 12.1821 7.25458 12.286 7.37143C12.5649 7.6853 12.8488 7.99384 13.1285 8.30704C13.2283 8.41872 13.3225 8.5364 13.4271 8.64308C13.478 8.69509 13.4737 8.70724 13.4113 8.73058L12.7786 8.73076Z" fill="white"/>
<path d="M11.3496 8.7189C11.2705 8.62139 11.1922 8.52305 11.1067 8.43204C11.0256 8.34569 10.9482 8.25518 10.8683 8.16767C10.784 8.07516 10.6977 7.98432 10.6134 7.89214C10.5005 7.76696 10.382 7.64778 10.2776 7.5131C10.1988 7.41125 10.1079 7.32274 10.0208 7.22973C9.94761 7.15189 9.87548 7.07371 9.80695 6.9907C9.71084 6.87402 9.60872 6.76484 9.50466 6.65733C9.42353 6.57399 9.34766 6.48298 9.26863 6.3963C9.19366 6.31446 9.12903 6.22244 9.04686 6.14894C8.99922 6.10798 8.958 6.05826 8.92547 6.00192H9.05466C9.14088 6.02089 9.22939 6.02321 9.31632 6.00875C9.42323 5.99408 9.49401 6.04476 9.55624 6.12543C9.69704 6.30512 9.85884 6.46214 10.0061 6.63549C10.1805 6.84185 10.3717 7.02937 10.5459 7.23556C10.6533 7.36291 10.7708 7.47843 10.8774 7.60611C10.9841 7.73379 11.1006 7.85114 11.2099 7.97615C11.2918 8.06966 11.3748 8.16417 11.4639 8.25118C11.5221 8.30819 11.5839 8.3662 11.6306 8.4402C11.6702 8.50271 11.7289 8.55022 11.7788 8.60456C11.7956 8.62273 11.8125 8.64073 11.8283 8.66006C11.8394 8.67373 11.859 8.68657 11.8493 8.70874C11.8412 8.72707 11.8214 8.72024 11.8065 8.72024C11.654 8.72035 11.5017 8.7199 11.3496 8.7189Z" fill="white"/>
<path d="M7.90474 6.11277C7.97972 6.19778 8.05364 6.28328 8.12876 6.36762C8.21633 6.4658 8.3009 6.56765 8.39372 6.65899C8.49764 6.761 8.59045 6.87568 8.68612 6.9852C8.80773 7.12538 8.94299 7.25006 9.05845 7.39741C9.12217 7.47875 9.1943 7.5521 9.26283 7.62894C9.33135 7.70578 9.39658 7.77896 9.46436 7.85313C9.55313 7.95014 9.6431 8.04565 9.73172 8.143C9.79935 8.21734 9.86802 8.29102 9.93175 8.36953C9.98783 8.43887 10.0489 8.50288 10.1103 8.56505C10.1553 8.61072 10.2012 8.65373 10.2245 8.71873H9.66319C9.56071 8.63575 9.46779 8.53906 9.38654 8.43087C9.34635 8.37686 9.29657 8.33552 9.25383 8.28552C9.11888 8.12883 8.98782 7.96881 8.84342 7.8238C8.72406 7.70361 8.61909 7.56693 8.50048 7.44508C8.37123 7.31173 8.25112 7.16655 8.12771 7.02587C8.04809 6.93536 7.96622 6.84568 7.88434 6.75667C7.8012 6.66865 7.7227 6.57537 7.64922 6.4773C7.64192 6.46709 7.6372 6.45489 7.63558 6.44196C7.72027 6.32718 7.80992 6.21731 7.90474 6.11277Z" fill="white"/>
<path d="M10.5172 16.9219H11.6297C11.6531 16.8861 11.6883 16.8931 11.7204 16.8924C11.8423 16.8894 11.9644 16.8924 12.0863 16.8914C12.2257 16.8914 12.3652 16.8914 12.5046 16.8914C12.5397 16.8914 12.5748 16.8924 12.6024 16.9222H13.2232C13.2433 16.8919 13.2728 16.8917 13.3024 16.8917C13.4252 16.8917 13.5481 16.8917 13.6709 16.8907C13.6906 16.8907 13.7192 16.9032 13.7276 16.8741C13.7341 16.8517 13.7098 16.8381 13.6958 16.8241C13.5841 16.7128 13.4779 16.5948 13.3776 16.4709C13.2793 16.3482 13.1637 16.2442 13.0603 16.1265C12.9923 16.0491 12.9281 15.9671 12.8578 15.8931C12.6588 15.6826 12.473 15.4574 12.2754 15.2457C12.1575 15.1197 12.0407 14.9926 11.9251 14.8643C11.8201 14.7466 11.722 14.6188 11.6102 14.5088C11.5382 14.4365 11.4707 14.3589 11.4082 14.2764C11.3917 14.2549 11.3574 14.2224 11.4166 14.2086C11.5474 14.2086 11.6778 14.2086 11.8083 14.2086C11.827 14.2086 11.8473 14.2007 11.8645 14.2166C11.8784 14.2499 11.9066 14.2666 11.9284 14.2914C12.0423 14.4188 12.1452 14.5581 12.265 14.6788C12.34 14.7546 12.4007 14.8477 12.4758 14.9198C12.603 15.042 12.7116 15.1834 12.8324 15.3115C13.0196 15.5099 13.2073 15.7084 13.386 15.9156C13.5721 16.1313 13.7633 16.341 13.9516 16.5539C14.0446 16.659 14.1391 16.7624 14.2326 16.8667C14.2503 16.8866 14.271 16.9041 14.2776 16.9334C14.1295 16.9334 13.9813 16.9346 13.833 16.9346C12.6995 16.9346 11.5661 16.9346 10.4326 16.9346C9.81035 16.9346 9.18806 16.9341 8.56577 16.9332C7.97277 16.9332 7.37973 16.9325 6.78663 16.9311C6.76729 16.9311 6.74794 16.9284 6.7286 16.9269C6.74254 16.8936 6.77358 16.8992 6.79728 16.8891C6.98726 16.8941 7.17725 16.8891 7.36708 16.8927C7.53487 16.8927 7.70297 16.8849 7.87076 16.8976C7.88236 16.8978 7.89391 16.8959 7.90495 16.8919C8.06134 16.8937 8.21804 16.8847 8.37444 16.8976C8.38604 16.8978 8.39759 16.8959 8.40863 16.8919C8.56097 16.8951 8.71377 16.8817 8.86597 16.9006C8.87759 16.9007 8.88913 16.8985 8.90001 16.8939C9.02896 16.8901 9.15807 16.8884 9.28703 16.8956C9.30207 16.8976 9.31731 16.8965 9.33201 16.8924C9.41793 16.8837 9.504 16.9011 9.58992 16.8924C9.6565 16.8817 9.72278 16.9056 9.78936 16.8944C9.85158 16.8826 9.91411 16.9022 9.97634 16.8927C10.0206 16.8852 10.0641 16.8982 10.1081 16.8971C10.1668 16.8849 10.2259 16.8999 10.2845 16.8926C10.3631 16.8961 10.4437 16.8739 10.5172 16.9219Z" fill="white"/>
<path d="M15.0436 8.60571C14.9515 8.4982 14.8553 8.39504 14.757 8.29437C14.6971 8.23286 14.6459 8.16102 14.5884 8.09668C14.4084 7.89565 14.2303 7.69313 14.0463 7.4966C13.9638 7.40859 13.8813 7.31892 13.8037 7.22724C13.7083 7.11489 13.5985 7.01955 13.511 6.89587C13.436 6.78935 13.337 6.69851 13.2448 6.60517C13.1335 6.49116 13.0276 6.37064 12.9278 6.24412C12.8963 6.20479 12.8551 6.17845 12.8268 6.13694C12.8005 6.09861 12.7354 6.07127 12.7506 6.02743C12.7636 5.99009 12.8286 6.01493 12.8705 6.01326C12.9913 6.00826 13.1121 6.0186 13.2328 6.00743C13.375 6.0061 13.517 6.00343 13.6591 6.0036C13.8733 6.0036 14.0874 6.0061 14.3015 6.00743C14.2997 6.01528 14.2961 6.02243 14.2909 6.0281C14.2799 6.03725 14.2665 6.04201 14.2528 6.0416C14.1235 6.0441 13.9941 6.05093 13.865 6.0376C13.7151 6.0501 13.5651 6.04127 13.4152 6.04443C13.397 6.04443 13.3715 6.03477 13.3633 6.0611C13.3568 6.0816 13.3783 6.09444 13.3903 6.10761C13.515 6.26279 13.6576 6.39831 13.7864 6.54883C13.8966 6.67734 14.0114 6.80152 14.1226 6.92854C14.2031 7.02105 14.2888 7.10973 14.3711 7.20207C14.4964 7.34175 14.6276 7.4751 14.747 7.62095C14.792 7.67563 14.8446 7.7193 14.8905 7.77264C14.9685 7.86298 15.0358 7.96533 15.1265 8.04284C15.1915 8.09834 15.2315 8.18252 15.2988 8.23686C15.3108 8.24669 15.309 8.2642 15.3096 8.27936C15.2256 8.39254 15.1364 8.50086 15.0436 8.60571Z" fill="white"/>
<path d="M14.4881 12.8194C14.4868 12.7975 14.4775 12.7771 14.4628 12.7625C14.291 12.5737 14.1179 12.3861 13.9477 12.1958C13.7738 12.0009 13.5968 11.8091 13.4296 11.6067C13.4048 11.5765 13.3745 11.552 13.3482 11.5234C13.2448 11.4092 13.1417 11.2942 13.0386 11.1797C12.8475 10.9671 12.6597 10.7509 12.4641 10.5437C12.35 10.4227 12.2487 10.2886 12.1329 10.1695C12.0951 10.1307 12.0603 10.112 12.0099 10.114C11.9261 10.1174 11.8423 10.115 11.7583 10.114C11.735 10.1167 11.7114 10.1134 11.6893 10.1044L12.5787 10.1032C12.6298 10.1365 12.6676 10.1865 12.7075 10.2347C12.7367 10.2694 12.7675 10.3029 12.7975 10.3364C12.9324 10.4847 13.0719 10.6289 13.2041 10.7803C13.2838 10.8713 13.3656 10.9608 13.441 11.057C13.4878 11.1166 13.548 11.1618 13.598 11.22C13.7339 11.378 13.8813 11.5245 14.0156 11.6834C14.15 11.8422 14.3005 11.9888 14.4301 12.1566C14.4968 12.2433 14.578 12.3163 14.6526 12.3955C14.7162 12.4621 14.7762 12.5332 14.8341 12.6062C14.874 12.6562 14.9351 12.681 14.9653 12.7432C14.9771 12.7677 14.9974 12.7888 14.9782 12.8194L14.4881 12.8194Z" fill="white"/>
<path d="M15.1917 16.6253C15.1758 16.5933 15.1456 16.5798 15.1236 16.5562C15.0186 16.4437 14.9127 16.3325 14.8147 16.213C14.7514 16.136 14.6759 16.0753 14.6118 15.9991C14.4945 15.8604 14.3738 15.7251 14.2538 15.5891C14.0907 15.4037 13.9251 15.2212 13.759 15.039C13.6138 14.8795 13.4628 14.7265 13.322 14.5623C13.2321 14.4574 13.1436 14.3521 13.0463 14.2557C13.0376 14.2443 13.0303 14.2317 13.0247 14.2181C13.0412 14.2006 13.0617 14.2094 13.0802 14.2092C13.2529 14.2092 13.4251 14.2092 13.5984 14.2092C13.6414 14.2092 13.6608 14.2497 13.6852 14.2769C13.8158 14.4224 13.9467 14.5676 14.0793 14.7103C14.1993 14.84 14.3096 14.9808 14.4339 15.1052C14.5423 15.2138 14.6392 15.3349 14.7449 15.4462C14.8277 15.5334 14.8979 15.6369 14.9848 15.7192C15.1262 15.8526 15.2354 16.0213 15.3806 16.1495C15.4113 16.1766 15.4303 16.2161 15.4597 16.2446C15.466 16.2517 15.4696 16.2613 15.4696 16.2713C15.4696 16.2813 15.466 16.2909 15.4597 16.298C15.3744 16.4102 15.2857 16.5208 15.1917 16.6253Z" fill="white"/>
<path d="M16.7838 12.8194C16.7988 12.7886 16.7785 12.7714 16.7625 12.7527C16.6665 12.6394 16.5623 12.5361 16.4637 12.4249C16.289 12.2295 16.1089 12.04 15.9376 11.8405C15.7941 11.6738 15.6406 11.5168 15.4944 11.3522C15.3744 11.2171 15.2446 11.0927 15.1266 10.956C15.0448 10.8614 14.9702 10.7577 14.8823 10.6703C14.7559 10.5448 14.6511 10.3961 14.5247 10.2703C14.4743 10.2203 14.4129 10.1756 14.3827 10.1024C14.523 10.1024 14.6637 10.0978 14.8039 10.1024C14.9037 10.1054 14.9878 10.1559 15.055 10.2379C15.6385 10.9526 16.222 11.6672 16.8054 12.3819C16.8289 12.4109 16.8531 12.4392 16.8763 12.4685C16.9795 12.6004 16.9349 12.7694 16.7838 12.8194Z" fill="white"/>
<path d="M15.3088 8.27887C15.2511 8.24036 15.208 8.18502 15.1631 8.13051C15.0896 8.04134 15.0076 7.96166 14.9336 7.87215C14.8158 7.72897 14.6904 7.59312 14.564 7.45927C14.4106 7.29708 14.2665 7.12456 14.111 6.96471C14.0143 6.8647 13.9282 6.75302 13.8351 6.64901C13.742 6.545 13.6478 6.44765 13.5556 6.34531C13.4733 6.2538 13.3931 6.15978 13.3116 6.06661C13.3025 6.05611 13.2879 6.0451 13.2935 6.02877C13.3002 6.00843 13.3196 6.01343 13.3344 6.01343C13.5044 6.01343 13.6743 6.01416 13.8443 6.0156C13.9405 6.11645 14.0374 6.21662 14.1302 6.32197C14.2844 6.49699 14.446 6.66384 14.5976 6.84153C14.7934 7.07122 15.0025 7.28525 15.1999 7.51361C15.3129 7.64462 15.4288 7.77364 15.5483 7.89799C15.5561 7.90454 15.5627 7.91277 15.5676 7.92218C15.5725 7.9316 15.5757 7.94202 15.5769 7.95283C15.4905 8.06451 15.4031 8.17519 15.3088 8.27887Z" fill="white"/>
<path d="M7.63558 6.44196C7.66857 6.45013 7.68845 6.47799 7.70824 6.50449C7.80691 6.63534 7.92222 6.74952 8.02854 6.87287C8.12435 6.98438 8.22572 7.09089 8.32199 7.20207C8.40899 7.30712 8.50067 7.40726 8.59669 7.50211C8.65721 7.55595 8.71075 7.61883 8.75579 7.68896C8.77933 7.72797 8.81772 7.74797 8.84576 7.78047C8.99736 7.95216 9.14401 8.12818 9.30131 8.29253C9.40477 8.40071 9.48784 8.5314 9.6045 8.62457C9.63447 8.64616 9.65549 8.67998 9.66319 8.71873L9.13621 8.71875C9.09285 8.69393 9.05424 8.65996 9.02255 8.61874C8.881 8.45205 8.727 8.29854 8.58575 8.13168C8.39096 7.90215 8.17968 7.69046 7.98325 7.4626C7.81231 7.26408 7.63192 7.07622 7.45843 6.8792C7.42589 6.8422 7.39215 6.80586 7.37806 6.75402C7.46083 6.64701 7.54501 6.54131 7.63558 6.44196Z" fill="white"/>
<path d="M15.4597 16.298C15.4348 16.248 15.3958 16.2116 15.3599 16.1741C15.273 16.0836 15.1849 15.9949 15.1104 15.8907C15.0612 15.8225 14.992 15.78 14.9376 15.7174C14.8895 15.662 14.8379 15.6073 14.7913 15.5507C14.6223 15.3471 14.4381 15.1606 14.265 14.9621C14.082 14.7527 13.8931 14.5499 13.7057 14.3454C13.6725 14.3094 13.628 14.2769 13.6214 14.2169C13.6379 14.199 13.6583 14.208 13.6766 14.2078C13.818 14.207 13.9592 14.2078 14.1003 14.2078C14.139 14.2048 14.1678 14.2309 14.193 14.256C14.2423 14.3052 14.2924 14.3537 14.3396 14.4052C14.5064 14.5872 14.6634 14.7799 14.8309 14.9611C15.0051 15.1496 15.1775 15.3405 15.3503 15.5308C15.466 15.6585 15.5813 15.7872 15.6926 15.92C15.7101 15.9409 15.728 15.9632 15.7061 15.9936C15.6281 16.0992 15.5458 16.2009 15.4597 16.298Z" fill="white"/>
<path d="M15.5777 7.95216C15.536 7.93318 15.4995 7.90265 15.4715 7.86348C15.3965 7.75964 15.3066 7.67463 15.2232 7.58012C15.0986 7.43777 14.9753 7.29325 14.8444 7.15807C14.6603 6.96871 14.4971 6.75635 14.3124 6.56716C14.1693 6.42048 14.0464 6.25163 13.8954 6.11411C13.8679 6.08911 13.8462 6.05827 13.845 6.01543L14.3022 6.00943C14.3261 6.00607 14.3501 6.00512 14.3742 6.0066C14.4083 6.0224 14.4387 6.04676 14.4629 6.07777C14.5979 6.25129 14.7607 6.39448 14.9048 6.558C14.9321 6.58883 14.9563 6.623 14.9828 6.65467C15.1178 6.81653 15.2614 6.96854 15.4007 7.12556C15.4863 7.22207 15.5711 7.32025 15.664 7.40893C15.7306 7.47277 15.7868 7.55161 15.8422 7.62912L15.5777 7.95216Z" fill="white"/>
<path d="M7.37751 6.75469C7.41904 6.76369 7.43164 6.80769 7.45773 6.8357C7.60768 6.99655 7.75013 7.1644 7.90308 7.32126C7.9758 7.39576 8.03803 7.48211 8.10896 7.55962C8.22202 7.6843 8.33898 7.80498 8.45189 7.92983C8.53331 8.01984 8.60979 8.11552 8.69046 8.20636C8.82301 8.35638 8.95722 8.5034 9.09067 8.65192C9.10837 8.67175 9.12976 8.68941 9.13621 8.71875L8.63138 8.71859C8.52761 8.65192 8.44994 8.55191 8.36777 8.45806C8.26145 8.33755 8.15604 8.21653 8.04508 8.10102C7.95511 8.00667 7.87189 7.90249 7.78192 7.80731C7.62252 7.63879 7.48202 7.4486 7.31528 7.28942C7.2574 7.23541 7.20626 7.17207 7.15213 7.1129C7.14492 7.10556 7.13935 7.09645 7.13589 7.08629C7.13242 7.07612 7.13116 7.0652 7.13219 7.05439L7.37751 6.75469Z" fill="white"/>
<path d="M13.1412 10.1032C13.1588 10.1512 13.1968 10.1809 13.2278 10.2154C13.3158 10.3132 13.4123 10.4021 13.4956 10.5041C13.6354 10.6754 13.7891 10.8311 13.9326 10.9983C14.0425 11.1263 14.1664 11.2395 14.2736 11.3699C14.3935 11.516 14.5285 11.6466 14.6484 11.7934C14.7384 11.9041 14.8456 12.0014 14.9395 12.1101C15.1284 12.3283 15.3277 12.5345 15.518 12.7507C15.533 12.7674 15.5598 12.7814 15.5522 12.8062C15.5445 12.831 15.5145 12.8217 15.4945 12.8217C15.4009 12.8217 15.3073 12.8202 15.2136 12.819C15.1236 12.7554 15.0578 12.6632 14.9836 12.5808C14.9393 12.5318 14.8926 12.4862 14.8486 12.4375C14.7558 12.3356 14.6676 12.2288 14.575 12.1268C14.4859 12.0286 14.3931 11.9331 14.3072 11.8301C14.2139 11.7181 14.1229 11.6009 14.013 11.5064C13.9509 11.4532 13.9029 11.384 13.848 11.323C13.7675 11.232 13.6822 11.1458 13.6052 11.052C13.5199 10.948 13.4178 10.8628 13.3398 10.7511C13.3062 10.7031 13.2583 10.6714 13.2199 10.6274C13.0959 10.4844 12.9729 10.3402 12.8408 10.206C12.8149 10.1797 12.7781 10.1527 12.8126 10.1037L13.1412 10.1032Z" fill="white"/>
<path d="M7.13219 7.05439C7.30598 7.24041 7.48841 7.41658 7.64901 7.61777C7.72743 7.71579 7.8207 7.79913 7.90167 7.89497C8.06017 8.0825 8.24056 8.24602 8.39066 8.44254C8.44974 8.52005 8.53386 8.56805 8.58724 8.6524C8.60224 8.6749 8.62563 8.6894 8.63223 8.71907H8.04547C8.01232 8.70075 7.98228 8.67616 7.9567 8.6464C7.78471 8.45421 7.61362 8.26252 7.43998 8.07316C7.28658 7.90531 7.14158 7.72795 6.98383 7.56493C6.93435 7.51376 6.87782 7.46942 6.85548 7.39325L7.13219 7.05439Z" fill="white"/>
<path d="M9.33481 16.9209H8.90131C8.84013 16.8976 8.80024 16.8444 8.75526 16.7969C8.49375 16.5212 8.24618 16.2302 7.98932 15.9488C7.85902 15.8066 7.72106 15.6724 7.59945 15.5188C7.50004 15.3922 7.38908 15.2764 7.27811 15.1605C7.26507 15.147 7.25097 15.1355 7.24992 15.1135L7.47335 14.8405C7.49584 14.8212 7.51278 14.8333 7.52883 14.8523C7.64999 14.9959 7.78374 15.1262 7.8992 15.2752C7.93789 15.3252 7.98737 15.3602 8.02846 15.4066C8.24718 15.6529 8.46741 15.8978 8.68913 16.1412C8.85858 16.326 9.01887 16.5199 9.19446 16.6984C9.23945 16.7444 9.28173 16.7971 9.32357 16.8484C9.34066 16.8699 9.35985 16.8913 9.33481 16.9209Z" fill="white"/>
<path d="M15.8406 7.62959C15.8113 7.62463 15.7846 7.60784 15.7656 7.58242C15.6715 7.44707 15.5527 7.33823 15.444 7.21921C15.3209 7.08536 15.203 6.94518 15.0783 6.81266C14.9664 6.69365 14.8623 6.56447 14.7529 6.44179C14.704 6.38695 14.6526 6.33494 14.6008 6.28344C14.5188 6.20411 14.4456 6.11425 14.3827 6.01574C14.4174 5.99557 14.4548 6.00707 14.4908 6.0074C14.5818 6.0074 14.6731 5.9989 14.764 6.0124C14.7791 6.00946 14.7944 6.00752 14.8097 6.00657C15.2618 6.00657 15.7137 6.00657 16.1657 6.00657C16.1807 6.00657 16.1957 6.00974 16.2119 6.0114C16.1969 6.04641 16.1669 6.04074 16.1408 6.04224C16.1179 6.04357 16.0946 6.03357 16.0717 6.04407C15.8944 6.04241 15.717 6.05257 15.54 6.03824C15.366 6.05291 15.1912 6.03824 15.0097 6.04841C15.0477 6.11808 15.1033 6.15292 15.1489 6.19843C15.1915 6.23949 15.2313 6.28406 15.268 6.33177C15.3522 6.44595 15.4578 6.5368 15.5496 6.64231C15.6319 6.73699 15.7206 6.82567 15.7952 6.92801C15.8061 6.9435 15.818 6.95814 15.8307 6.97185C15.9126 7.05786 15.9871 7.15287 16.0787 7.22738C16.0889 7.23402 16.0976 7.24298 16.1044 7.25367C16.1112 7.26437 16.1158 7.27654 16.118 7.28939C16.0303 7.40807 15.9357 7.51875 15.8406 7.62959Z" fill="white"/>
<path d="M15.7067 15.9944C15.6836 15.947 15.6532 15.9046 15.6167 15.8691C15.4867 15.7419 15.3726 15.5974 15.2513 15.4609C15.1816 15.3823 15.1057 15.3108 15.0367 15.2317C14.8532 15.0201 14.6618 14.8178 14.4791 14.6046C14.3656 14.4712 14.2418 14.3494 14.1264 14.2182C14.1429 14.2005 14.1633 14.2094 14.1817 14.2092C14.339 14.2084 14.4966 14.2092 14.6533 14.2092C14.696 14.2114 14.7253 14.2444 14.7491 14.2759C14.7989 14.3402 14.8581 14.3926 14.9117 14.4529C15.0616 14.6196 15.2081 14.7898 15.359 14.9555C15.4917 15.1013 15.6227 15.2485 15.7593 15.3902C15.8236 15.4569 15.8817 15.534 15.9412 15.608C15.9573 15.6272 15.9677 15.6513 15.9712 15.6772C15.8986 15.7669 15.826 15.8565 15.7535 15.9461C15.7379 15.9624 15.7218 15.9781 15.7067 15.9944Z" fill="white"/>
<path d="M6.03313 10.2052C6.1168 10.2594 6.17783 10.3412 6.24456 10.4164C6.37952 10.5688 6.51102 10.7261 6.65482 10.8696C6.73864 10.953 6.81287 11.0485 6.89219 11.1378C6.93178 11.1823 6.97377 11.2244 7.0135 11.2687C7.11622 11.3837 7.21653 11.5021 7.3212 11.6144C7.49349 11.7999 7.65499 11.9961 7.82848 12.1798C7.88111 12.2355 7.92999 12.3008 7.98277 12.3545C8.11518 12.4892 8.22779 12.645 8.36395 12.7745C8.38269 12.7901 8.3987 12.8101 8.40956 12.8331C8.31795 12.8331 8.22554 12.8377 8.13392 12.833C8.08501 12.831 8.03701 12.8177 7.99288 12.7942C7.94875 12.7707 7.90943 12.7373 7.87736 12.6962C7.27296 11.9561 6.66872 11.2159 6.06462 10.4756C5.98965 10.3843 5.98095 10.3042 6.03313 10.2052Z" fill="white"/>
<path d="M7.24992 15.1135C7.3099 15.1249 7.34022 15.1818 7.37666 15.2236C7.47458 15.3348 7.57984 15.438 7.66981 15.558C7.72215 15.6279 7.78977 15.6822 7.84735 15.7459C8.09267 16.0149 8.33514 16.2873 8.57941 16.5576C8.68122 16.6705 8.78484 16.7812 8.8874 16.8932C8.89328 16.9016 8.89774 16.911 8.90131 16.9209L8.40906 16.9198C8.32374 16.8698 8.26241 16.7865 8.19449 16.7143C8.10617 16.6215 8.02504 16.519 7.93747 16.4243C7.78587 16.2598 7.64132 16.0874 7.48628 15.9266C7.41313 15.8521 7.34417 15.7727 7.2798 15.6889C7.21472 15.6024 7.13314 15.5347 7.06987 15.4463C7.05487 15.424 7.03493 15.4052 7.03793 15.3735C7.1045 15.2827 7.1766 15.1974 7.24992 15.1135Z" fill="white"/>
<path d="M15.9699 15.6761C15.896 15.6097 15.8288 15.5345 15.7697 15.4517C15.7237 15.3891 15.6681 15.3376 15.616 15.286C15.4788 15.1509 15.3611 14.9948 15.2271 14.857C15.1044 14.7315 14.9946 14.5903 14.8766 14.4593C14.8218 14.3983 14.763 14.3418 14.7117 14.2771C14.6967 14.2591 14.6817 14.2438 14.6766 14.2191C14.6916 14.1983 14.7126 14.2096 14.7304 14.2094C14.8654 14.2083 15.0003 14.2158 15.1341 14.2063C15.22 14.2003 15.2747 14.2456 15.3266 14.3063C15.4788 14.483 15.6318 14.6588 15.7927 14.8258C15.8723 14.9092 15.9479 14.9958 16.0207 15.086C16.0746 15.1488 16.1313 15.2084 16.1908 15.2645C16.2163 15.2899 16.2371 15.3186 16.2226 15.3609C16.1472 15.4746 16.0551 15.5717 15.9699 15.6761Z" fill="white"/>
<path d="M7.03793 15.3735C7.12205 15.4568 7.19868 15.5489 7.27681 15.6387C7.37682 15.7531 7.47909 15.8663 7.57956 15.9796C7.70686 16.1223 7.83012 16.2698 7.96328 16.4053C8.08324 16.5277 8.17905 16.6767 8.31146 16.7852C8.35283 16.8211 8.38643 16.8672 8.40906 16.9198L7.90555 16.9199C7.85161 16.8892 7.80528 16.8443 7.77059 16.789C7.7352 16.7362 7.67822 16.7119 7.63894 16.6618C7.51373 16.502 7.36903 16.3618 7.23797 16.2093C7.13601 16.0901 7.03209 15.9741 6.92128 15.8654C6.88484 15.8296 6.85905 15.7821 6.82156 15.7472C6.81149 15.7384 6.8035 15.727 6.79827 15.7139C6.79305 15.7009 6.79075 15.6866 6.79157 15.6724L7.03793 15.3735Z" fill="white"/>
<path d="M6.85548 7.39325C6.91905 7.43042 6.95835 7.49741 7.00858 7.55059C7.13784 7.68777 7.25885 7.83395 7.38631 7.97364C7.58919 8.195 7.78637 8.42269 7.9918 8.64122C8.01427 8.66254 8.03228 8.68905 8.04458 8.7189H7.47178C7.36591 8.64072 7.27924 8.53954 7.19137 8.43853C7.12134 8.35802 7.04637 8.28251 6.97454 8.20367C6.85084 8.06798 6.73777 7.9203 6.60567 7.79395C6.59727 7.7865 6.59059 7.77693 6.58621 7.76602C6.58183 7.75512 6.57986 7.7432 6.58048 7.73128L6.85548 7.39325Z" fill="white"/>
<path d="M12.8133 10.1032C12.8209 10.1414 12.844 10.166 12.8693 10.1912C12.973 10.2947 13.0703 10.4054 13.1653 10.5184C13.2037 10.5641 13.2393 10.6148 13.2841 10.6518C13.34 10.6969 13.381 10.7569 13.4296 10.8091C13.538 10.9258 13.6438 11.0456 13.7498 11.1652C13.826 11.2512 13.8998 11.3403 13.9766 11.4257C14.0482 11.505 14.1241 11.5797 14.1959 11.659C14.2678 11.7384 14.3334 11.8274 14.4095 11.9027C14.5107 12.0028 14.5954 12.1223 14.7007 12.2173C14.7617 12.2721 14.802 12.3468 14.8613 12.4045C14.9704 12.511 15.0694 12.6303 15.1726 12.7443C15.1919 12.7657 15.2134 12.7849 15.2136 12.819L14.9782 12.8194C14.9365 12.7185 14.8446 12.6708 14.7834 12.5897C14.7118 12.4958 14.6338 12.4081 14.5503 12.3273C14.4387 12.2184 14.3418 12.0939 14.2354 11.9794C14.0826 11.8139 13.9347 11.6424 13.784 11.4744C13.7113 11.3932 13.6341 11.3172 13.5639 11.233C13.4439 11.0876 13.3076 10.9596 13.189 10.8108C13.1112 10.7131 13.0215 10.6241 12.9341 10.5347C12.8172 10.4156 12.711 10.2832 12.6014 10.1555C12.5915 10.1395 12.5838 10.1218 12.5787 10.1032H12.8133Z" fill="white"/>
<path d="M16.118 7.28939C16.028 7.24622 15.9654 7.16407 15.8987 7.0894C15.7835 6.96088 15.6737 6.82553 15.561 6.69518C15.508 6.63226 15.4514 6.57329 15.3914 6.51866C15.3233 6.45849 15.2756 6.37898 15.2157 6.3118C15.1432 6.23063 15.0636 6.15745 14.988 6.07961C14.973 6.06428 14.9529 6.05177 14.9492 6.0171H15.5199C15.6135 6.10045 15.6944 6.19812 15.7811 6.28947C15.8216 6.33214 15.8616 6.37498 15.9011 6.41898C15.9994 6.52883 16.092 6.64534 16.198 6.74719C16.2506 6.7972 16.2902 6.86387 16.3469 6.91038C16.3566 6.91754 16.3644 6.92755 16.3694 6.9393C16.3744 6.95106 16.3764 6.96412 16.3752 6.97705C16.2921 7.08356 16.2089 7.19038 16.118 7.28939Z" fill="white"/>
<path d="M6.79227 15.6727C6.87519 15.7479 6.94221 15.8406 7.02034 15.9227C7.20642 16.1183 7.38936 16.3198 7.56405 16.5268C7.66107 16.6417 7.77548 16.7358 7.8656 16.8579C7.8806 16.8779 7.90045 16.8925 7.90555 16.9199L7.36597 16.9202C7.2751 16.8594 7.20103 16.7772 7.1289 16.692C7.00894 16.5502 6.88403 16.4151 6.76003 16.2785C6.67905 16.1894 6.59208 16.1053 6.52761 15.9989L6.79227 15.6727Z" fill="white"/>
<path d="M10.5172 16.9219L10.2824 16.9207C10.2004 16.8577 10.1325 16.7764 10.0638 16.6984C9.97923 16.6037 9.90245 16.5017 9.81068 16.4137C9.74766 16.353 9.68886 16.2872 9.63479 16.2166C9.58126 16.147 9.51304 16.0951 9.4589 16.0268C9.28661 15.8089 9.09423 15.6122 8.91009 15.4075C8.77799 15.2612 8.64873 15.1112 8.51303 14.9697C8.42343 14.8802 8.33866 14.7849 8.25916 14.6843C8.17039 14.5676 8.05748 14.4744 7.96691 14.3579C7.94907 14.3351 7.92568 14.3154 7.94052 14.2794C7.98373 14.2419 8.03584 14.2192 8.09047 14.2141C8.16275 14.2671 8.21598 14.3439 8.27221 14.4141C8.33009 14.4863 8.39682 14.5486 8.45665 14.6196C8.57001 14.753 8.68727 14.8835 8.80498 15.0128C8.97892 15.2042 9.15826 15.3897 9.3286 15.5849C9.47205 15.7494 9.61725 15.9119 9.7642 16.0726C9.95089 16.2775 10.1233 16.4983 10.322 16.6904C10.3932 16.7589 10.4643 16.8324 10.5172 16.9219Z" fill="white"/>
<path d="M16.2214 15.3602C16.1939 15.3032 16.1465 15.268 16.1058 15.2238C16.0025 15.1098 15.9055 14.9887 15.7998 14.8776C15.7005 14.7735 15.6034 14.6669 15.5069 14.5596C15.4105 14.4523 15.3183 14.3474 15.2249 14.2402C15.2183 14.2323 15.2102 14.226 15.2012 14.2218C15.1923 14.2176 15.1826 14.2156 15.1729 14.2159L14.6766 14.2191C14.4931 14.2129 14.3092 14.2144 14.1258 14.2187H13.0241L12.825 14.2122V14.2106C12.8306 14.2089 12.8364 14.2078 12.8422 14.2072L14.4317 14.2086C14.8134 14.2086 15.1952 14.2089 15.577 14.2097C15.6022 14.2097 15.6272 14.2134 15.6519 14.2154C15.7365 14.1977 15.8064 14.2086 15.8695 14.2912C15.9512 14.3979 16.0517 14.4874 16.1361 14.5913C16.2411 14.7215 16.3676 14.828 16.4692 14.9618C16.4858 14.9838 16.5038 15.0045 16.4905 15.0367C16.4033 15.1463 16.3195 15.2607 16.2214 15.3602Z" fill="white"/>
<path d="M9.33481 16.9209C9.29523 16.8391 9.22763 16.7845 9.1714 16.7197C9.03375 16.5612 8.8928 16.4055 8.75154 16.2516C8.57056 16.0551 8.39167 15.8554 8.21173 15.6579C8.08757 15.5215 7.95831 15.39 7.8403 15.2458C7.72439 15.1043 7.59601 14.975 7.47335 14.8405L7.59064 14.6971C7.61448 14.6774 7.63172 14.6901 7.65227 14.7077C7.6947 14.7441 7.72184 14.7953 7.75993 14.8358C7.94692 15.0348 8.12746 15.241 8.31474 15.4407C8.42241 15.5559 8.52062 15.6824 8.62964 15.7964C8.76969 15.9439 8.90359 16.0983 9.0423 16.2464C9.22598 16.4436 9.39843 16.6533 9.57792 16.855C9.59291 16.8727 9.61675 16.8899 9.59396 16.92L9.33481 16.9209Z" fill="white"/>
<path d="M9.97939 16.9207H9.79181C9.73888 16.8984 9.6925 16.8604 9.65775 16.8107C9.56778 16.694 9.46072 16.5957 9.3655 16.4847C9.26474 16.368 9.16412 16.2495 9.059 16.1376C8.97473 16.048 8.89751 15.9506 8.80934 15.8649C8.70812 15.7666 8.6267 15.6461 8.52968 15.5422C8.38678 15.3892 8.24733 15.232 8.10608 15.077C8.01221 14.9742 7.91894 14.8698 7.82117 14.7705C7.76869 14.7171 7.71426 14.6573 7.68457 14.5801C7.71866 14.5389 7.7528 14.4978 7.78698 14.4569C7.82117 14.4623 7.84487 14.4833 7.87006 14.5103C7.97787 14.6251 8.07624 14.7505 8.18795 14.8615C8.26595 14.9394 8.33793 15.0245 8.40313 15.1159C8.40825 15.1251 8.41474 15.1333 8.42232 15.1402C8.55577 15.2344 8.6378 15.3881 8.75761 15.4994C8.81689 15.5548 8.87145 15.6162 8.9206 15.6828C8.98493 15.7699 9.0638 15.8416 9.13623 15.9199C9.23505 16.0273 9.32441 16.1453 9.42818 16.2465C9.50435 16.3207 9.57048 16.4057 9.64546 16.4813C9.71548 16.5522 9.77801 16.6335 9.84324 16.7109C9.88313 16.7584 9.93021 16.7976 9.968 16.8474C9.98449 16.8699 10.0044 16.8909 9.97939 16.9207Z" fill="white"/>
<path d="M7.68457 14.5801C7.71351 14.5866 7.73146 14.6106 7.7487 14.6334C7.8916 14.8218 8.0636 14.9778 8.2149 15.1577C8.36065 15.3315 8.52979 15.481 8.67224 15.6577C8.76221 15.7694 8.86328 15.8667 8.95205 15.9786C9.03407 16.0819 9.12839 16.1731 9.21836 16.2685C9.29574 16.3506 9.36081 16.4455 9.44329 16.523C9.56325 16.6358 9.65771 16.7787 9.77722 16.8932C9.7836 16.9013 9.78826 16.9107 9.79181 16.9207L9.59234 16.9207C9.57734 16.8874 9.54735 16.8674 9.52426 16.8414C9.32198 16.6108 9.12014 16.3798 8.91561 16.1519C8.75532 15.9733 8.58347 15.8067 8.43097 15.6204C8.26318 15.4154 8.07214 15.237 7.903 15.0338C7.81138 14.9235 7.71241 14.8186 7.6157 14.7121C7.60793 14.7058 7.59968 14.7007 7.59064 14.6971L7.68457 14.5801Z" fill="white"/>
<path d="M7.94103 14.2789C8.031 14.3867 8.12097 14.4948 8.22188 14.5901C8.25858 14.6223 8.28994 14.6613 8.31455 14.7054C8.34454 14.7636 8.39597 14.7981 8.43736 14.8426C8.57996 14.9958 8.71237 15.1605 8.85722 15.3107C9.02891 15.4895 9.19025 15.6792 9.35715 15.8629C9.46331 15.9796 9.56827 16.0984 9.67354 16.2163C9.75331 16.3056 9.82859 16.402 9.9196 16.4782C9.97344 16.5233 10.0076 16.5872 10.0546 16.6392C10.1108 16.7015 10.1661 16.7649 10.2249 16.8244C10.2501 16.8517 10.2699 16.8845 10.2832 16.9207H10.1081C10.0504 16.8725 9.99458 16.8227 9.95409 16.754C9.9337 16.7194 9.90011 16.6983 9.87237 16.6707C9.76535 16.5677 9.66541 16.456 9.57337 16.3365C9.53783 16.2901 9.49525 16.2531 9.45626 16.2103C9.27857 16.0173 9.10658 15.8179 8.93144 15.6229C8.7563 15.4279 8.57936 15.2238 8.39387 15.0353C8.29656 14.9363 8.21094 14.8233 8.11692 14.7196C8.06699 14.6648 8.0136 14.6144 7.96022 14.5641C7.9119 14.5152 7.86987 14.4591 7.83531 14.3974C7.86467 14.3519 7.90036 14.3119 7.94103 14.2789Z" fill="white"/>
<path d="M16.3752 6.97705C16.2284 6.83237 16.089 6.67851 15.9533 6.52082C15.9014 6.46065 15.8484 6.40131 15.7936 6.34297C15.7062 6.24896 15.6087 6.16562 15.5332 6.0581C15.5268 6.04499 15.5222 6.03089 15.5195 6.01627C15.7033 6.01104 15.8869 6.01104 16.0704 6.01627C16.1363 6.0496 16.1817 6.10811 16.2294 6.16628C16.3426 6.3038 16.4672 6.42898 16.5846 6.56183C16.6078 6.588 16.633 6.61284 16.6404 6.65134C16.5561 6.76369 16.4665 6.8712 16.3752 6.97705Z" fill="white"/>
<path d="M6.52761 15.9989C6.56554 16.0004 6.58534 16.0324 6.60693 16.0596C6.72074 16.202 6.84685 16.332 6.96801 16.4653C7.08152 16.5895 7.18274 16.7284 7.30824 16.8392C7.33342 16.86 7.35363 16.8881 7.36597 16.9202L6.79152 16.9199C6.72254 16.9032 6.68655 16.8379 6.64427 16.7882C6.5612 16.6913 6.47048 16.6035 6.38636 16.508C6.35112 16.4682 6.30553 16.4413 6.27854 16.3913C6.26565 16.3676 6.2562 16.3463 6.2643 16.319C6.34887 16.2093 6.43599 16.1016 6.52761 15.9989Z" fill="white"/>
<path d="M6.58048 7.73128C6.68124 7.82829 6.77251 7.93649 6.86817 8.0385C6.96939 8.14651 7.05081 8.27903 7.17122 8.3642C7.20931 8.39121 7.22295 8.43854 7.25549 8.47021C7.32102 8.53405 7.3828 8.60256 7.44653 8.66874C7.45967 8.6819 7.46837 8.6996 7.47178 8.7189C7.29964 8.72406 7.12714 8.72441 6.95559 8.71874C6.90191 8.68724 6.85963 8.6419 6.81689 8.59373C6.69064 8.45138 6.56558 8.30753 6.43782 8.16685C6.40003 8.12534 6.3465 8.09734 6.33541 8.03083C6.41398 7.92749 6.49426 7.82679 6.58048 7.73128Z" fill="white"/>
<path d="M16.4912 15.0363C16.4042 14.9196 16.3015 14.8206 16.2031 14.7168C16.137 14.6469 16.0757 14.5716 16.0133 14.4977C15.94 14.4112 15.8554 14.3365 15.792 14.2395C15.7859 14.2311 15.7779 14.2244 15.7689 14.2203C15.7599 14.2161 15.7501 14.2145 15.7404 14.2157L15.6527 14.2147C15.8386 14.2015 16.0248 14.211 16.2109 14.21C16.2612 14.21 16.3116 14.2132 16.3619 14.2149C16.4117 14.2345 16.445 14.2794 16.4804 14.3179C16.5719 14.4179 16.668 14.5121 16.7503 14.6214C16.7587 14.6305 16.7649 14.6417 16.7685 14.6541C16.7722 14.6664 16.773 14.6796 16.771 14.6924C16.6782 14.8069 16.585 14.9215 16.4912 15.0363Z" fill="white"/>
<path d="M7.83531 14.3974C7.86288 14.4017 7.88724 14.4178 7.90403 14.4425C7.9862 14.5736 8.10931 14.6591 8.20633 14.773C8.35103 14.9442 8.50443 15.1064 8.65393 15.272C8.83282 15.4697 9.01561 15.6646 9.18805 15.8698C9.25418 15.9485 9.32975 16.0153 9.39228 16.0993C9.45676 16.186 9.54403 16.252 9.6127 16.3377C9.71149 16.465 9.81979 16.5827 9.93644 16.6897C9.99403 16.7409 10.0279 16.8191 10.0892 16.8677C10.1042 16.8796 10.1069 16.9009 10.1081 16.9207L9.97858 16.9209C9.97363 16.8961 9.95714 16.8802 9.94214 16.8632C9.79084 16.6922 9.64554 16.5132 9.48645 16.3525C9.32735 16.1918 9.18655 16.0141 9.0315 15.8494C8.87645 15.6848 8.73025 15.5197 8.5833 15.3512C8.4533 15.203 8.31624 15.0637 8.19089 14.91C8.11497 14.8175 8.03452 14.7298 7.94992 14.6471C7.88994 14.5878 7.84375 14.517 7.78632 14.457C7.80252 14.4372 7.81922 14.4174 7.83531 14.3974Z" fill="white"/>
<path d="M16.6404 6.65134C16.6131 6.64217 16.5958 6.61931 16.576 6.59747C16.4561 6.46229 16.3322 6.33077 16.2145 6.19242C16.1649 6.13525 16.104 6.08844 16.0704 6.01627L16.213 6.0114C16.3938 6.0114 16.5748 6.0089 16.7558 6.01024C16.8308 6.01024 16.8845 6.05708 16.9153 6.13125C16.9462 6.20543 16.9408 6.28227 16.8925 6.34461C16.8108 6.44945 16.7239 6.54949 16.6404 6.65134Z" fill="white"/>
<path d="M6.33541 8.03083C6.37889 8.04584 6.40309 8.08766 6.43278 8.1205C6.58003 8.28336 6.72444 8.44938 6.87094 8.61323C6.90093 8.64657 6.93955 8.67157 6.95559 8.71874L6.72734 8.72391L6.46502 8.72141C6.34301 8.61756 6.23041 8.50072 6.12884 8.37253C6.11394 8.35819 6.10394 8.33859 6.1005 8.31703C6.17592 8.21885 6.25323 8.12235 6.33541 8.03083Z" fill="white"/>
<path d="M6.26474 16.3198C6.32472 16.4255 6.41663 16.4988 6.49656 16.583C6.6003 16.6895 6.69837 16.8019 6.79152 16.9199L6.72883 16.9262C6.55549 16.9262 6.38215 16.9251 6.2088 16.9272C6.12228 16.9284 6.05571 16.8939 6.01957 16.8054C5.98343 16.7169 6.00217 16.6335 6.0635 16.5618C6.13173 16.4825 6.19786 16.4003 6.26474 16.3198Z" fill="white"/>
<path d="M16.7718 14.6925C16.6673 14.5615 16.5564 14.437 16.4396 14.3196C16.4093 14.289 16.3833 14.2535 16.3624 14.2142C16.4945 14.2134 16.6268 14.2102 16.7589 14.2126C16.8339 14.2139 16.8866 14.2616 16.9162 14.3366C16.9311 14.371 16.9366 14.4096 16.932 14.4475C16.9273 14.4854 16.9128 14.5209 16.8901 14.5496C16.8533 14.6001 16.8114 14.6453 16.7718 14.6925Z" fill="white"/>
<path d="M6.10131 8.317C6.1148 8.32533 6.1322 8.33016 6.14104 8.3425C6.22831 8.46585 6.34782 8.55302 6.43899 8.67187C6.45167 8.68562 6.46083 8.70288 6.46553 8.72187C6.36867 8.72287 6.27165 8.72587 6.17493 8.72371C6.10221 8.72221 6.05062 8.67737 6.01988 8.60703C6.00403 8.573 5.99744 8.53458 6.0009 8.49646C6.00436 8.45834 6.01773 8.42216 6.03938 8.39234C6.05872 8.36594 6.0794 8.34079 6.10131 8.317Z" fill="white"/>
<path d="M8.72671 10.1167H8.19904C8.17415 10.148 8.14011 10.145 8.10757 10.1457C7.98596 10.148 7.86435 10.1445 7.74274 10.1457C7.58425 10.1457 7.4256 10.1457 7.26711 10.1457C7.23202 10.1457 7.19708 10.1444 7.16859 10.1164L6.54779 10.1174L6.17757 10.1114C6.19691 10.1099 6.21581 10.1072 6.23501 10.1072C7.09721 10.1062 7.95937 10.1054 8.82148 10.1047C9.51974 10.104 10.2181 10.1031 10.9164 10.102C10.9398 10.102 10.9631 10.1037 10.9864 10.1045C10.9864 10.1075 10.9864 10.1105 10.9864 10.1135L10.9804 10.1244C10.9542 10.1497 10.9218 10.1457 10.8912 10.1454C10.7548 10.1439 10.6183 10.153 10.4822 10.1399C10.4704 10.1396 10.4588 10.1416 10.4477 10.1459C10.2815 10.1437 10.1154 10.1524 9.9494 10.1405C9.93587 10.1405 9.92237 10.1419 9.90906 10.1445C9.72912 10.1445 9.54918 10.1527 9.36924 10.1399C9.35763 10.1398 9.34609 10.1419 9.33505 10.1459C9.16511 10.1465 8.99517 10.1465 8.82523 10.1459C8.79044 10.1455 8.7558 10.1429 8.72671 10.1167Z" fill="white"/>
<path d="M10.8493 12.8314C10.9376 12.8126 11.0266 12.8292 11.1154 12.8209C11.1396 12.7875 11.1739 12.7905 11.2064 12.7909C11.3714 12.7927 11.5363 12.7827 11.7002 12.7969C11.7118 12.797 11.7234 12.795 11.7344 12.7909C11.9164 12.792 12.0985 12.7842 12.2805 12.7957C12.294 12.7958 12.3075 12.7945 12.3209 12.7919C12.4933 12.7902 12.6657 12.786 12.838 12.7954C12.94 12.7885 13.0422 12.7874 13.1442 12.792C13.1705 12.792 13.1999 12.792 13.2119 12.8279C13.0072 12.8295 12.8025 12.8325 12.5978 12.8327C12.028 12.8335 11.4585 12.8335 10.8893 12.8327C10.8761 12.8332 10.8628 12.8323 10.8493 12.8314Z" fill="white"/>
<path d="M11.8645 14.2166L11.397 14.2172C11.3788 14.2467 11.3505 14.2461 11.3235 14.2464C11.1895 14.2487 11.0554 14.2484 10.9214 14.2464C10.8899 14.2464 10.859 14.2421 10.8351 14.2151C10.8351 14.2121 10.8357 14.2091 10.8357 14.2061L12.0412 14.2071V14.2124L11.8645 14.2166Z" fill="white"/>
<path d="M12.0412 14.2124V14.2071C12.2361 14.2027 12.431 14.2017 12.6259 14.207V14.211L12.4148 14.2164L12.0412 14.2124Z" fill="white"/>
<path d="M14.765 6.01243L14.3837 6.01577L14.3022 6.00943L14.3023 6.00793C14.456 6.00427 14.6105 6.00193 14.765 6.01243Z" fill="white"/>
<path d="M12.6265 14.2117V14.2077L12.8254 14.2099V14.2116C12.7592 14.2175 12.6927 14.2175 12.6265 14.2117Z" fill="white"/>
<path d="M10.8351 14.2151L11.397 14.2172C11.4769 14.3291 11.572 14.4244 11.6635 14.5241C11.7843 14.6558 11.9011 14.792 12.0211 14.9242C12.1605 15.0783 12.306 15.2259 12.441 15.385C12.5759 15.5442 12.7259 15.6921 12.8623 15.8518C13.0145 16.0309 13.1772 16.1985 13.3317 16.3743C13.4734 16.5352 13.613 16.6979 13.7619 16.8505C13.7769 16.866 13.8046 16.8819 13.7964 16.9059C13.7863 16.935 13.755 16.9217 13.7331 16.9217C13.5632 16.9225 13.3934 16.9222 13.2232 16.9222C13.2082 16.8564 13.1576 16.82 13.1192 16.7774C12.9791 16.6217 12.8343 16.4703 12.6948 16.3151C12.602 16.2121 12.5084 16.1078 12.4189 15.9999C12.2531 15.7999 12.0721 15.6156 11.9025 15.4187C11.7942 15.293 11.675 15.1783 11.566 15.052C11.4813 14.954 11.3976 14.854 11.3075 14.7623C11.1988 14.6518 11.1005 14.5289 10.9908 14.4199C10.9323 14.3631 10.8732 14.2966 10.8351 14.2151Z" fill="white"/>
<path d="M12.6024 16.9222L12.0869 16.9227C12.0036 16.8482 11.9256 16.7666 11.8536 16.6787C11.7756 16.5817 11.6894 16.4936 11.6035 16.4061C11.5057 16.3061 11.4207 16.1936 11.324 16.0931C11.1222 15.8834 10.9358 15.6565 10.7365 15.443C10.6144 15.313 10.4993 15.1747 10.3802 15.0411C10.2256 14.8676 10.0752 14.6891 9.91237 14.5244C9.84114 14.4522 9.77636 14.3699 9.70978 14.291C9.69104 14.2689 9.67859 14.2457 9.69794 14.2162C9.84444 14.2162 9.99079 14.217 10.1371 14.215C10.1556 14.2145 10.174 14.2184 10.191 14.2265C10.208 14.2346 10.2232 14.2467 10.2355 14.262C10.3165 14.3549 10.4004 14.4454 10.4792 14.5402C10.6264 14.7184 10.7908 14.8773 10.943 15.0501C11.0824 15.2085 11.2279 15.362 11.3646 15.5235C11.4537 15.6289 11.5503 15.7254 11.642 15.8267C11.8017 16.0036 11.9455 16.1986 12.1219 16.357C12.1733 16.4065 12.2191 16.4628 12.2582 16.5246C12.3128 16.6058 12.3958 16.6523 12.4512 16.7305C12.499 16.7972 12.5795 16.8319 12.6024 16.9222Z" fill="white"/>
<path d="M9.69794 14.2162C9.70979 14.2436 9.72607 14.268 9.74613 14.2887C9.9868 14.5564 10.2312 14.8203 10.4659 15.0937C10.6001 15.2493 10.7369 15.4023 10.8762 15.5527C11.0474 15.7364 11.2123 15.9243 11.3788 16.111C11.5524 16.3057 11.7403 16.4849 11.9014 16.6944C11.9428 16.7482 11.9946 16.7922 12.0416 16.8409C12.0643 16.8618 12.0805 16.8907 12.0869 16.9227L11.6292 16.9224C11.6135 16.8704 11.5743 16.8411 11.5415 16.8042C11.3465 16.5857 11.145 16.375 10.9567 16.1495C10.9021 16.0821 10.8419 16.0207 10.7767 15.9661C10.7318 15.9298 10.7043 15.8756 10.6658 15.8328C10.4525 15.5957 10.2399 15.3577 10.0258 15.1217C9.88633 14.9682 9.75468 14.805 9.61222 14.6563C9.49496 14.5333 9.3873 14.3994 9.26734 14.2811C9.24902 14.2646 9.23585 14.242 9.2297 14.2167L9.69794 14.2162Z" fill="white"/>
<path d="M7.16859 10.1164L7.74212 10.1164C7.84904 10.1979 7.93616 10.3027 8.01653 10.4139C8.04937 10.4594 8.09555 10.4833 8.13004 10.5246C8.19992 10.6079 8.26904 10.6936 8.34402 10.772C8.45018 10.8828 8.552 10.9988 8.65561 11.1125C8.79401 11.2643 8.92807 11.4217 9.06602 11.5744C9.14295 11.6599 9.21792 11.7471 9.30039 11.8274C9.39573 11.9201 9.48428 12.021 9.5652 12.1293C9.61388 12.1937 9.66752 12.2533 9.7255 12.3075C9.86375 12.4386 9.97621 12.5973 10.108 12.735C10.1289 12.7567 10.1617 12.7803 10.1308 12.8215H9.55695C9.51872 12.7303 9.44149 12.6777 9.38436 12.6048C9.31239 12.5135 9.22647 12.4381 9.15269 12.3493C9.01524 12.1848 8.87314 12.0256 8.72639 11.8717C8.60223 11.7409 8.49127 11.5962 8.36321 11.4692C8.23516 11.3422 8.11235 11.2042 7.99389 11.0655C7.88727 10.9406 7.77361 10.8246 7.6664 10.7009C7.5211 10.5331 7.3764 10.3647 7.2215 10.2074C7.19751 10.1819 7.17474 10.1552 7.16859 10.1164Z" fill="white"/>
<path d="M10.9864 10.1135C11.1445 10.1135 11.3029 10.1148 11.4608 10.1136C11.4779 10.1131 11.4949 10.1169 11.5105 10.1247C11.5261 10.1326 11.5399 10.1443 11.5508 10.1589C11.6746 10.3048 11.8022 10.4466 11.9358 10.582C11.9889 10.6356 12.0344 10.6987 12.0847 10.7557C12.1637 10.8452 12.2434 10.9341 12.3239 11.0224C12.4799 11.1922 12.6303 11.3681 12.7897 11.5341C12.8946 11.6434 12.9907 11.7626 13.092 11.8761C13.2375 12.0383 13.3834 12.2 13.5295 12.3615C13.6369 12.4809 13.7443 12.6002 13.8519 12.7194C13.8798 12.7466 13.9013 12.7809 13.9146 12.8194H13.3871C13.349 12.8052 13.3224 12.7759 13.2944 12.7446C13.1789 12.6157 13.0678 12.482 12.9444 12.3612C12.8729 12.288 12.8054 12.2101 12.7423 12.1278C12.6889 12.0611 12.6283 12.004 12.5706 11.9433C12.4938 11.8668 12.4209 11.7855 12.3524 11.6998C12.3281 11.6718 12.3023 11.6454 12.2752 11.6208C12.1402 11.4792 12.0203 11.3239 11.8877 11.1802C11.6917 10.967 11.5001 10.7493 11.3029 10.5375C11.198 10.4253 11.0999 10.3053 10.9937 10.1943C10.9718 10.1714 10.9619 10.1443 10.9862 10.1146L10.9864 10.1135Z" fill="white"/>
<path d="M10.9862 10.1146C11.0012 10.1836 11.0553 10.2199 11.0964 10.2609C11.2314 10.3952 11.3465 10.5508 11.4794 10.6871C11.5592 10.7688 11.6397 10.8498 11.7139 10.939C11.8444 11.096 11.9892 11.239 12.1188 11.396C12.245 11.5494 12.3803 11.6926 12.5122 11.8389C12.6565 11.9988 12.7993 12.1605 12.9446 12.3191C13.0444 12.4283 13.1443 12.5382 13.2459 12.6455C13.297 12.6992 13.3443 12.7574 13.3871 12.8194L13.2125 12.8272C13.0876 12.8127 12.9622 12.828 12.8376 12.8189C12.7244 12.7252 12.6348 12.6045 12.5352 12.4953C12.3609 12.3036 12.1876 12.1107 12.0153 11.9166C11.8784 11.7632 11.7349 11.6166 11.6018 11.4595C11.4206 11.2448 11.2269 11.0448 11.0407 10.8351C10.8742 10.6471 10.7087 10.4581 10.5337 10.2797C10.5037 10.2492 10.4794 10.2119 10.4521 10.1781C10.4371 10.1585 10.4287 10.1375 10.4487 10.1152L10.9862 10.1146Z" fill="white"/>
<path d="M11.7364 12.8207L11.1154 12.8209C11.0839 12.7323 11.0123 12.6819 10.9571 12.6162C10.8645 12.5058 10.7584 12.4108 10.6682 12.2967C10.576 12.18 10.4732 12.0733 10.3726 11.9641C10.2285 11.8064 10.0822 11.6511 9.93852 11.4931C9.80581 11.347 9.6734 11.2005 9.5446 11.0505C9.45628 10.9476 9.36661 10.8458 9.27709 10.7448C9.22805 10.6894 9.16987 10.6379 9.12054 10.5823C9.04047 10.4918 8.95559 10.4062 8.88347 10.3061C8.84868 10.2574 8.80354 10.2181 8.76351 10.1742C8.74644 10.1595 8.73328 10.1396 8.72671 10.1167L9.33617 10.1155C9.43049 10.1656 9.48522 10.2656 9.55959 10.3407C9.75453 10.5384 9.92877 10.7615 10.1219 10.9623C10.2186 11.0623 10.3057 11.1738 10.3999 11.2767C10.6361 11.5342 10.8648 11.7993 11.1032 12.0551C11.2861 12.2521 11.4593 12.4597 11.643 12.6552C11.6739 12.6885 11.6967 12.729 11.7312 12.7585C11.7359 12.7616 11.7399 12.7659 11.7428 12.7711C11.7458 12.7762 11.7476 12.7821 11.7481 12.7881C11.7486 12.7942 11.7478 12.8003 11.7458 12.806C11.7438 12.8117 11.7405 12.8167 11.7364 12.8207Z" fill="white"/>
<path d="M10.1318 12.8215C10.1062 12.7473 10.0429 12.7087 9.99779 12.6538C9.88248 12.5138 9.76087 12.38 9.63672 12.2496C9.51946 12.1264 9.42049 11.9829 9.29873 11.8662C9.14369 11.7174 9.00588 11.5495 8.86238 11.3889C8.72473 11.2341 8.58617 11.08 8.44672 10.9268C8.32976 10.798 8.2218 10.6584 8.09794 10.5384C7.98203 10.4259 7.89416 10.2841 7.7736 10.1781C7.75741 10.1621 7.74679 10.1403 7.74361 10.1165L8.19904 10.1167C8.20925 10.1473 8.22642 10.1745 8.24849 10.1961C8.39184 10.3541 8.53804 10.5089 8.67944 10.6691C8.78846 10.7923 8.90737 10.9046 9.01263 11.0306C9.10515 11.141 9.19887 11.2507 9.29498 11.3564C9.37491 11.4442 9.45258 11.5347 9.5349 11.6209C9.65861 11.7516 9.77482 11.8916 9.89478 12.0266C9.95611 12.0956 10.0201 12.1618 10.0821 12.2303C10.242 12.4074 10.4014 12.5849 10.5603 12.7627C10.5713 12.775 10.5851 12.7879 10.5776 12.8069C10.5701 12.8259 10.551 12.8217 10.5361 12.8217C10.401 12.822 10.2664 12.8217 10.1318 12.8215Z" fill="white"/>
<path d="M11.7358 12.8207C11.7004 12.7584 11.6497 12.7107 11.6046 12.6584C11.4525 12.4822 11.3026 12.3027 11.1414 12.1373C10.9899 11.9814 10.8517 11.8111 10.699 11.6564C10.615 11.5711 10.5407 11.4715 10.4583 11.3825C10.2885 11.1992 10.1285 11.0055 9.95391 10.8261C9.84595 10.7146 9.74983 10.5891 9.64622 10.4723C9.59583 10.4152 9.53915 10.3652 9.48787 10.3092C9.43284 10.2489 9.37526 10.1906 9.33522 10.1157H9.90953C10.0172 10.1679 10.0824 10.2744 10.1608 10.3629C10.225 10.4354 10.288 10.5086 10.3558 10.5776C10.464 10.687 10.567 10.8026 10.6644 10.9238C10.7352 11.0132 10.8184 11.0887 10.8908 11.1765C11.0172 11.3295 11.1595 11.465 11.291 11.6127C11.3645 11.6961 11.436 11.7803 11.5137 11.8593C11.6079 11.9533 11.6966 12.054 11.7791 12.1608C11.8571 12.2638 11.9479 12.3517 12.0349 12.4442C12.0869 12.4997 12.142 12.552 12.1859 12.616C12.2206 12.666 12.2702 12.6994 12.3077 12.7464C12.3261 12.7694 12.3396 12.7907 12.3212 12.8207H11.7358Z" fill="white"/>
<path d="M12.3212 12.8207C12.3116 12.7905 12.2886 12.7729 12.2691 12.7519C12.1462 12.6202 12.0337 12.4772 11.9026 12.3537C11.8142 12.2703 11.7443 12.163 11.6606 12.0726C11.5885 11.9946 11.524 11.9088 11.4454 11.8366C11.3669 11.7644 11.3064 11.6741 11.2355 11.5951C11.1112 11.458 10.983 11.3254 10.8591 11.1878C10.7542 11.0712 10.6552 10.95 10.5507 10.834C10.4376 10.7085 10.319 10.5891 10.207 10.4624C10.1157 10.3592 10.0295 10.2507 9.93276 10.1535C9.92388 10.1421 9.91642 10.1294 9.91056 10.1157H10.4481C10.4763 10.1794 10.5243 10.2252 10.5694 10.2714C10.6426 10.3462 10.712 10.4254 10.7849 10.5008C10.896 10.6153 10.9956 10.7435 11.1039 10.8615C11.2388 11.0085 11.369 11.1607 11.5087 11.3025C11.5874 11.3825 11.6545 11.4769 11.7278 11.5636C11.7569 11.5984 11.7877 11.6314 11.8202 11.6624C11.9586 11.7928 12.0806 11.9426 12.2084 12.0845C12.408 12.3062 12.6086 12.527 12.8044 12.753C12.8211 12.772 12.837 12.7909 12.8371 12.8197L12.3212 12.8207Z" fill="white"/>
</svg>
