<svg width="178" height="54" viewBox="0 0 178 54" fill="none" xmlns="http://www.w3.org/2000/svg">
<path d="M0 0H13.1909C18.2474 0 22.1167 1.03297 24.7988 3.0989C27.481 5.16484 28.8221 8.7033 28.8221 13.7143C28.8221 16.967 28.1625 19.5165 26.8434 21.3626C25.5243 23.1648 23.6117 24.2637 21.1054 24.6593C27.2611 25.8462 30.339 30.2418 30.339 37.8461C30.339 42.989 29.0859 46.8791 26.5796 49.5165C24.0733 52.1099 20.3579 53.4066 15.4333 53.4066H0V0ZM13.059 21.8242C15.873 21.8242 17.7857 21.2088 18.797 19.978C19.8523 18.7033 20.3799 16.6593 20.3799 13.8462C20.3799 11.1209 19.6984 9.27473 18.3353 8.30769C17.0162 7.29671 14.7958 6.79121 11.6739 6.79121H9.69529V21.8242H13.059ZM13.4547 46.5494C16.3127 46.5494 18.2913 45.8681 19.3906 44.5055C20.4898 43.1429 21.0394 40.9011 21.0394 37.7802C21.0394 34.5714 20.4239 32.2418 19.1927 30.7912C18.0055 29.2967 15.9829 28.5494 13.1249 28.5494H9.69529V46.5494H13.4547Z" fill="url(#paint0_linear_0_120)"/>
<path d="M47.6613 54C43.4402 54 40.3404 52.8352 38.3617 50.5055C36.3831 48.1319 35.3938 44.6374 35.3938 40.022V28.6813C35.3938 24.022 36.3831 20.5275 38.3617 18.1978C40.3843 15.8681 43.4842 14.7033 47.6613 14.7033C51.9703 14.7033 55.0042 15.9121 56.763 18.3297C58.5658 20.7473 59.4671 24.3956 59.4671 29.2747V34.7473H44.2976V42.2637C44.2976 44.1099 44.5614 45.4506 45.0891 46.2857C45.6607 47.1209 46.5401 47.5385 47.7273 47.5385C48.8705 47.5385 49.6839 47.1429 50.1676 46.3517C50.6952 45.5165 50.959 44.2637 50.959 42.5934V39.3626H59.4012V42C59.4012 45.9121 58.4119 48.9011 56.4332 50.967C54.4546 52.989 51.5306 54 47.6613 54ZM50.959 30.3297V26.7033C50.959 24.7253 50.7172 23.3187 50.2335 22.4835C49.7499 21.6044 48.8924 21.1648 47.6613 21.1648C46.3862 21.1648 45.5068 21.6264 45.0231 22.5495C44.5395 23.4725 44.2976 25.1868 44.2976 27.6923V30.3297H50.959Z" fill="url(#paint1_linear_0_120)"/>
<path d="M66.1476 0H72.9409L85.9339 30.4615V0H93.9803V53.4066H87.5168L74.4578 21.4945V53.4066H66.1476V0Z" fill="url(#paint2_linear_0_120)"/>
<path d="M102.088 0H124.05V6.72528H111.783V22.2857H121.808V29.0769H111.783V53.4066H102.088V0Z" fill="url(#paint3_linear_0_120)"/>
<path d="M134.675 7.18682H126.167V0H152.746V7.18682H144.436V53.4066H134.675V7.18682Z" fill="url(#paint4_linear_0_120)"/>
<path d="M166.854 54C163.644 54 161.006 53.1429 158.939 51.4286C156.873 49.7143 155.4 47.2088 154.52 43.9121L161.182 41.3407C162.193 45.6044 164.04 47.7363 166.722 47.7363C167.733 47.7363 168.503 47.4725 169.03 46.9451C169.602 46.4176 169.888 45.6923 169.888 44.7692C169.888 43.7582 169.58 42.8352 168.964 42C168.349 41.1209 167.249 40.022 165.667 38.7033L161.116 34.7473C159.181 33.1648 157.752 31.6264 156.829 30.1319C155.905 28.6374 155.444 26.8132 155.444 24.6593C155.444 21.6703 156.455 19.2747 158.478 17.4725C160.544 15.6264 163.138 14.7033 166.26 14.7033C169.25 14.7033 171.69 15.6044 173.581 17.4066C175.472 19.1648 176.703 21.5604 177.275 24.5934L171.405 27.0989C171.053 25.3407 170.459 23.9121 169.624 22.8132C168.832 21.6703 167.799 21.0989 166.524 21.0989C165.601 21.0989 164.853 21.3846 164.281 21.956C163.754 22.5275 163.49 23.2527 163.49 24.1319C163.49 24.8352 163.798 25.5824 164.413 26.3736C165.029 27.1648 165.952 28.0879 167.183 29.1429L171.8 33.3626C173.779 35.0769 175.296 36.7253 176.351 38.3077C177.45 39.8462 178 41.7143 178 43.9121C178 47.1209 176.945 49.6044 174.834 51.3626C172.768 53.1209 170.107 54 166.854 54Z" fill="url(#paint5_linear_0_120)"/>
<defs>
<linearGradient id="paint0_linear_0_120" x1="89" y1="0" x2="89" y2="54" gradientUnits="userSpaceOnUse">
<stop stop-color="#91DCF0"/>
<stop offset="1" stop-color="#0E478A"/>
</linearGradient>
<linearGradient id="paint1_linear_0_120" x1="89" y1="0" x2="89" y2="54" gradientUnits="userSpaceOnUse">
<stop stop-color="#91DCF0"/>
<stop offset="1" stop-color="#0E478A"/>
</linearGradient>
<linearGradient id="paint2_linear_0_120" x1="89" y1="0" x2="89" y2="54" gradientUnits="userSpaceOnUse">
<stop stop-color="#91DCF0"/>
<stop offset="1" stop-color="#0E478A"/>
</linearGradient>
<linearGradient id="paint3_linear_0_120" x1="89" y1="0" x2="89" y2="54" gradientUnits="userSpaceOnUse">
<stop stop-color="#91DCF0"/>
<stop offset="1" stop-color="#0E478A"/>
</linearGradient>
<linearGradient id="paint4_linear_0_120" x1="89" y1="0" x2="89" y2="54" gradientUnits="userSpaceOnUse">
<stop stop-color="#91DCF0"/>
<stop offset="1" stop-color="#0E478A"/>
</linearGradient>
<linearGradient id="paint5_linear_0_120" x1="89" y1="0" x2="89" y2="54" gradientUnits="userSpaceOnUse">
<stop stop-color="#91DCF0"/>
<stop offset="1" stop-color="#0E478A"/>
</linearGradient>
</defs>
</svg>
