<svg width="35" height="28" viewBox="0 0 35 28" fill="none" xmlns="http://www.w3.org/2000/svg">
<path d="M26.6887 10.4988H18.3762V13.5613C18.3762 15.7324 16.6098 17.4988 14.4387 17.4988C12.2676 17.4988 10.5012 15.7324 10.5012 13.5613V6.9113L6.95202 9.04411C5.89655 9.67302 5.25124 10.816 5.25124 12.041V14.6277L0.876246 17.1543C0.0395285 17.6355 -0.250315 18.7074 0.236403 19.5441L4.61139 27.1238C5.09264 27.9605 6.16452 28.2449 7.00123 27.7636L12.6559 24.4988H20.1262C22.0567 24.4988 23.6262 22.9292 23.6262 20.9988H24.5012C25.4692 20.9988 26.2512 20.2167 26.2512 19.2488V15.7488H26.6887C27.416 15.7488 28.0012 15.1636 28.0012 14.4363V11.8113C28.0012 11.084 27.416 10.4988 26.6887 10.4988ZM34.766 8.45349L30.391 0.873815C29.9098 0.0370982 28.8379 -0.247276 28.0012 0.233973L22.3465 3.49881H16.7575C16.1012 3.49881 15.4614 3.68475 14.9036 4.02928L13.0715 5.17225C12.5575 5.48943 12.2512 6.05271 12.2512 6.65427V13.5613C12.2512 14.7699 13.2301 15.7488 14.4387 15.7488C15.6473 15.7488 16.6262 14.7699 16.6262 13.5613V8.7488H26.6887C28.3785 8.7488 29.7512 10.1215 29.7512 11.8113V13.3699L34.1262 10.8433C34.9629 10.3566 35.2473 9.29021 34.766 8.45349Z" fill="#003370"/>
</svg>
