<svg width="697" height="603" viewBox="0 0 697 603" fill="none" xmlns="http://www.w3.org/2000/svg">
<path d="M12.4287 239.81L105.243 293.633M105.243 293.633L206.534 239.81M105.243 293.633V405.519" stroke="url(#paint0_linear_572_520)" stroke-width="12"/>
<g filter="url(#filter0_d_572_520)">
<path d="M9.13281 235.673L107.417 178.928L205.701 235.673V349.161L107.417 405.906L9.13281 349.161V235.673Z" stroke="url(#paint1_linear_572_520)" stroke-width="12" shape-rendering="crispEdges"/>
</g>
<g filter="url(#filter1_d_572_520)">
<path d="M253.429 67.8096L346.243 121.633M346.243 121.633L447.534 67.8096M346.243 121.633V233.519" stroke="url(#paint2_linear_572_520)" stroke-width="12"/>
<path d="M250.133 63.6726L348.417 6.9282L446.701 63.6726V177.161L348.417 233.906L250.133 177.161V63.6726Z" stroke="url(#paint3_linear_572_520)" stroke-width="12"/>
</g>
<path d="M481.428 250.81L574.242 304.633M574.242 304.633L675.533 250.81M574.242 304.633V416.519" stroke="url(#paint4_linear_572_520)" stroke-width="12"/>
<g filter="url(#filter2_d_572_520)">
<path d="M478.133 246.673L576.417 189.928L674.701 246.673V360.161L576.417 416.906L478.133 360.161V246.673Z" stroke="url(#paint5_linear_572_520)" stroke-width="12" shape-rendering="crispEdges"/>
</g>
<g filter="url(#filter3_d_572_520)">
<path d="M244.429 408.81L337.243 462.633M337.243 462.633L438.534 408.81M337.243 462.633V574.519" stroke="url(#paint6_linear_572_520)" stroke-width="12"/>
<path d="M241.133 404.673L339.417 347.928L437.701 404.673V518.161L339.417 574.906L241.133 518.161V404.673Z" stroke="url(#paint7_linear_572_520)" stroke-width="12"/>
</g>
<path d="M367.315 78.2392L324.512 53.5289L330.853 53.8776L325.569 63.2038L314.849 59.5431L321.794 46.9047L327.154 43.8105L377.053 72.6173L367.315 78.2392ZM362.257 85.43L353.198 80.2003L380.752 64.2934L389.811 69.523L362.257 85.43Z" fill="url(#paint8_linear_572_520)"/>
<path d="M588.145 271.749L579.388 269.57L577.576 250.22C577.475 249.174 577.324 248.041 577.123 246.82C576.871 245.571 576.544 244.336 576.142 243.116C575.789 241.867 575.286 240.734 574.632 239.717C573.927 238.671 573.046 237.843 571.99 237.233C570.58 236.419 569.071 235.896 567.46 235.664C565.9 235.402 564.315 235.417 562.704 235.707C561.094 235.998 559.508 236.594 557.948 237.494C556.64 238.25 555.734 239.237 555.231 240.458C554.677 241.649 554.576 242.985 554.929 244.467C555.281 245.891 556.086 247.372 557.344 248.912L545.643 250.612C543.63 248.404 542.473 246.167 542.171 243.901C541.869 241.634 542.372 239.455 543.681 237.363C545.039 235.243 547.178 233.339 550.097 231.654C553.117 229.911 556.439 228.72 560.062 228.081C563.686 227.442 567.284 227.369 570.857 227.863C574.481 228.328 577.777 229.417 580.746 231.131C582.156 231.945 583.414 232.904 584.521 234.008C585.628 235.112 586.584 236.39 587.39 237.843C588.195 239.296 588.849 240.952 589.352 242.811C589.805 244.641 590.107 246.733 590.258 249.087L591.315 263.381L586.333 262.335L612.452 247.256L621.511 252.486L588.145 271.749Z" fill="url(#paint9_linear_572_520)"/>
<path d="M367.36 422.318C363.435 424.584 359.157 426.066 354.527 426.763C349.897 427.402 344.285 427.242 337.693 426.284L340.335 419.354C343.354 419.703 346.047 419.863 348.412 419.834C350.778 419.805 352.891 419.572 354.753 419.136C356.565 418.672 358.176 418.032 359.585 417.219C361.246 416.26 362.353 415.156 362.906 413.907C363.51 412.628 363.51 411.35 362.906 410.072C362.353 408.764 361.17 407.588 359.358 406.542C357.496 405.467 355.609 404.755 353.697 404.406C351.784 404.058 349.847 404.072 347.884 404.45C345.871 404.798 343.983 405.481 342.222 406.498C341.417 406.963 340.637 407.529 339.882 408.198C339.127 408.808 338.422 409.505 337.768 410.29C337.063 411.045 336.334 411.902 335.579 412.861L326.746 410.551L325.161 392.204L329.615 392.247L307.194 405.016L298.513 400.005L329.54 382.093L334.899 383.095L336.56 404.101L331.804 403.97C332.006 403.622 332.484 403.142 333.239 402.532C333.994 401.864 334.698 401.341 335.352 400.963C337.617 399.656 340.159 398.683 342.977 398.043C345.846 397.375 348.765 397.056 351.734 397.085C354.703 397.056 357.622 397.375 360.491 398.043C363.309 398.683 365.876 399.67 368.191 401.007C371.663 403.012 373.903 405.292 374.909 407.849C375.966 410.377 375.84 412.919 374.532 415.476C373.274 418.003 370.883 420.284 367.36 422.318Z" fill="url(#paint10_linear_572_520)"/>
<path d="M131.966 251.938L89.3896 227.359L93.3151 225.529L97.3161 248.408L95.1269 248.103L128.645 228.753L137.175 233.678L98.373 256.079L86.4455 253.9L80.7082 220.342L88.4082 215.897L141.403 246.491L131.966 251.938Z" fill="url(#paint11_linear_572_520)"/>
<g filter="url(#filter4_d_572_520)">
<path d="M401 169L481 215" stroke="url(#paint12_linear_572_520)" stroke-width="5"/>
</g>
<g filter="url(#filter5_d_572_520)">
<path d="M160 332L240 378" stroke="url(#paint13_linear_572_520)" stroke-width="5"/>
</g>
<g filter="url(#filter6_d_572_520)">
<path d="M516 350L445 391" stroke="url(#paint14_linear_572_520)" stroke-width="5"/>
</g>
<defs>
<filter id="filter0_d_572_520" x="0.132812" y="172" width="220.568" height="257.834" filterUnits="userSpaceOnUse" color-interpolation-filters="sRGB">
<feFlood flood-opacity="0" result="BackgroundImageFix"/>
<feColorMatrix in="SourceAlpha" type="matrix" values="0 0 0 0 0 0 0 0 0 0 0 0 0 0 0 0 0 0 127 0" result="hardAlpha"/>
<feOffset dx="3" dy="11"/>
<feGaussianBlur stdDeviation="3"/>
<feComposite in2="hardAlpha" operator="out"/>
<feColorMatrix type="matrix" values="0 0 0 0 0.00942707 0 0 0 0 0.352007 0 0 0 0 0.754167 0 0 0 0.13 0"/>
<feBlend mode="normal" in2="BackgroundImageFix" result="effect1_dropShadow_572_520"/>
<feBlend mode="normal" in="SourceGraphic" in2="effect1_dropShadow_572_520" result="shape"/>
</filter>
<filter id="filter1_d_572_520" x="244.133" y="0" width="222.568" height="257.834" filterUnits="userSpaceOnUse" color-interpolation-filters="sRGB">
<feFlood flood-opacity="0" result="BackgroundImageFix"/>
<feColorMatrix in="SourceAlpha" type="matrix" values="0 0 0 0 0 0 0 0 0 0 0 0 0 0 0 0 0 0 127 0" result="hardAlpha"/>
<feOffset dx="8" dy="11"/>
<feGaussianBlur stdDeviation="3"/>
<feComposite in2="hardAlpha" operator="out"/>
<feColorMatrix type="matrix" values="0 0 0 0 0.00942707 0 0 0 0 0.352007 0 0 0 0 0.754167 0 0 0 0.13 0"/>
<feBlend mode="normal" in2="BackgroundImageFix" result="effect1_dropShadow_572_520"/>
<feBlend mode="normal" in="SourceGraphic" in2="effect1_dropShadow_572_520" result="shape"/>
</filter>
<filter id="filter2_d_572_520" x="472.133" y="183" width="223.568" height="255.834" filterUnits="userSpaceOnUse" color-interpolation-filters="sRGB">
<feFlood flood-opacity="0" result="BackgroundImageFix"/>
<feColorMatrix in="SourceAlpha" type="matrix" values="0 0 0 0 0 0 0 0 0 0 0 0 0 0 0 0 0 0 127 0" result="hardAlpha"/>
<feOffset dx="9" dy="9"/>
<feGaussianBlur stdDeviation="3"/>
<feComposite in2="hardAlpha" operator="out"/>
<feColorMatrix type="matrix" values="0 0 0 0 0.00942707 0 0 0 0 0.352007 0 0 0 0 0.754167 0 0 0 0.13 0"/>
<feBlend mode="normal" in2="BackgroundImageFix" result="effect1_dropShadow_572_520"/>
<feBlend mode="normal" in="SourceGraphic" in2="effect1_dropShadow_572_520" result="shape"/>
</filter>
<filter id="filter3_d_572_520" x="231.133" y="341" width="220.568" height="261.834" filterUnits="userSpaceOnUse" color-interpolation-filters="sRGB">
<feFlood flood-opacity="0" result="BackgroundImageFix"/>
<feColorMatrix in="SourceAlpha" type="matrix" values="0 0 0 0 0 0 0 0 0 0 0 0 0 0 0 0 0 0 127 0" result="hardAlpha"/>
<feOffset dx="2" dy="15"/>
<feGaussianBlur stdDeviation="3"/>
<feComposite in2="hardAlpha" operator="out"/>
<feColorMatrix type="matrix" values="0 0 0 0 0.00942707 0 0 0 0 0.352007 0 0 0 0 0.754167 0 0 0 0.13 0"/>
<feBlend mode="normal" in2="BackgroundImageFix" result="effect1_dropShadow_572_520"/>
<feBlend mode="normal" in="SourceGraphic" in2="effect1_dropShadow_572_520" result="shape"/>
</filter>
<filter id="filter4_d_572_520" x="388.754" y="166.833" width="98.4922" height="88.3345" filterUnits="userSpaceOnUse" color-interpolation-filters="sRGB">
<feFlood flood-opacity="0" result="BackgroundImageFix"/>
<feColorMatrix in="SourceAlpha" type="matrix" values="0 0 0 0 0 0 0 0 0 0 0 0 0 0 0 0 0 0 127 0" result="hardAlpha"/>
<feOffset dx="-3" dy="30"/>
<feGaussianBlur stdDeviation="4"/>
<feComposite in2="hardAlpha" operator="out"/>
<feColorMatrix type="matrix" values="0 0 0 0 0 0 0 0 0 0 0 0 0 0 0 0 0 0 0.15 0"/>
<feBlend mode="normal" in2="BackgroundImageFix" result="effect1_dropShadow_572_520"/>
<feBlend mode="normal" in="SourceGraphic" in2="effect1_dropShadow_572_520" result="shape"/>
</filter>
<filter id="filter5_d_572_520" x="147.754" y="329.833" width="98.4922" height="88.3345" filterUnits="userSpaceOnUse" color-interpolation-filters="sRGB">
<feFlood flood-opacity="0" result="BackgroundImageFix"/>
<feColorMatrix in="SourceAlpha" type="matrix" values="0 0 0 0 0 0 0 0 0 0 0 0 0 0 0 0 0 0 127 0" result="hardAlpha"/>
<feOffset dx="-3" dy="30"/>
<feGaussianBlur stdDeviation="4"/>
<feComposite in2="hardAlpha" operator="out"/>
<feColorMatrix type="matrix" values="0 0 0 0 0 0 0 0 0 0 0 0 0 0 0 0 0 0 0.15 0"/>
<feBlend mode="normal" in2="BackgroundImageFix" result="effect1_dropShadow_572_520"/>
<feBlend mode="normal" in="SourceGraphic" in2="effect1_dropShadow_572_520" result="shape"/>
</filter>
<filter id="filter6_d_572_520" x="432.75" y="347.835" width="89.5005" height="83.3301" filterUnits="userSpaceOnUse" color-interpolation-filters="sRGB">
<feFlood flood-opacity="0" result="BackgroundImageFix"/>
<feColorMatrix in="SourceAlpha" type="matrix" values="0 0 0 0 0 0 0 0 0 0 0 0 0 0 0 0 0 0 127 0" result="hardAlpha"/>
<feOffset dx="-3" dy="30"/>
<feGaussianBlur stdDeviation="4"/>
<feComposite in2="hardAlpha" operator="out"/>
<feColorMatrix type="matrix" values="0 0 0 0 0 0 0 0 0 0 0 0 0 0 0 0 0 0 0.15 0"/>
<feBlend mode="normal" in2="BackgroundImageFix" result="effect1_dropShadow_572_520"/>
<feBlend mode="normal" in="SourceGraphic" in2="effect1_dropShadow_572_520" result="shape"/>
</filter>
<linearGradient id="paint0_linear_572_520" x1="109.481" y1="239.81" x2="109.481" y2="405.519" gradientUnits="userSpaceOnUse">
<stop stop-color="#91DCF0"/>
<stop offset="1" stop-color="#0E478A"/>
</linearGradient>
<linearGradient id="paint1_linear_572_520" x1="107.417" y1="172" x2="107.417" y2="412.834" gradientUnits="userSpaceOnUse">
<stop stop-color="#91DCF0"/>
<stop offset="1" stop-color="#0E478A"/>
</linearGradient>
<linearGradient id="paint2_linear_572_520" x1="350.481" y1="67.8096" x2="350.481" y2="233.519" gradientUnits="userSpaceOnUse">
<stop stop-color="#91DCF0"/>
<stop offset="1" stop-color="#0E478A"/>
</linearGradient>
<linearGradient id="paint3_linear_572_520" x1="348.417" y1="0" x2="348.417" y2="240.834" gradientUnits="userSpaceOnUse">
<stop stop-color="#91DCF0"/>
<stop offset="1" stop-color="#0E478A"/>
</linearGradient>
<linearGradient id="paint4_linear_572_520" x1="578.48" y1="250.81" x2="578.48" y2="416.519" gradientUnits="userSpaceOnUse">
<stop stop-color="#91DCF0"/>
<stop offset="1" stop-color="#0E478A"/>
</linearGradient>
<linearGradient id="paint5_linear_572_520" x1="576.417" y1="183" x2="576.417" y2="423.834" gradientUnits="userSpaceOnUse">
<stop stop-color="#91DCF0"/>
<stop offset="1" stop-color="#0E478A"/>
</linearGradient>
<linearGradient id="paint6_linear_572_520" x1="341.481" y1="408.81" x2="341.481" y2="574.519" gradientUnits="userSpaceOnUse">
<stop stop-color="#91DCF0"/>
<stop offset="1" stop-color="#0E478A"/>
</linearGradient>
<linearGradient id="paint7_linear_572_520" x1="339.417" y1="341" x2="339.417" y2="581.834" gradientUnits="userSpaceOnUse">
<stop stop-color="#91DCF0"/>
<stop offset="1" stop-color="#0E478A"/>
</linearGradient>
<linearGradient id="paint8_linear_572_520" x1="299.121" y1="34.884" x2="338.495" y2="103.087" gradientUnits="userSpaceOnUse">
<stop stop-color="#91DCF0"/>
<stop offset="1" stop-color="#0E478A"/>
</linearGradient>
<linearGradient id="paint9_linear_572_520" x1="527.287" y1="219.887" x2="566.661" y2="288.09" gradientUnits="userSpaceOnUse">
<stop stop-color="#91DCF0"/>
<stop offset="1" stop-color="#0E478A"/>
</linearGradient>
<linearGradient id="paint10_linear_572_520" x1="292.121" y1="377.887" x2="331.495" y2="446.091" gradientUnits="userSpaceOnUse">
<stop stop-color="#91DCF0"/>
<stop offset="1" stop-color="#0E478A"/>
</linearGradient>
<linearGradient id="paint11_linear_572_520" x1="54.1212" y1="209.884" x2="93.4949" y2="278.087" gradientUnits="userSpaceOnUse">
<stop stop-color="#91DCF0"/>
<stop offset="1" stop-color="#0E478A"/>
</linearGradient>
<linearGradient id="paint12_linear_572_520" x1="441" y1="169" x2="441" y2="215" gradientUnits="userSpaceOnUse">
<stop stop-color="#91DCF0"/>
<stop offset="1" stop-color="#0E478A"/>
</linearGradient>
<linearGradient id="paint13_linear_572_520" x1="200" y1="332" x2="200" y2="378" gradientUnits="userSpaceOnUse">
<stop stop-color="#91DCF0"/>
<stop offset="1" stop-color="#0E478A"/>
</linearGradient>
<linearGradient id="paint14_linear_572_520" x1="480.5" y1="350" x2="480.5" y2="391" gradientUnits="userSpaceOnUse">
<stop stop-color="#91DCF0"/>
<stop offset="1" stop-color="#0E478A"/>
</linearGradient>
</defs>
</svg>
