<svg width="221" height="258" viewBox="0 0 221 258" fill="none" xmlns="http://www.w3.org/2000/svg">
<path d="M12.2949 67.8096L105.109 121.633M105.109 121.633L206.4 67.8096M105.109 121.633V233.519" stroke="url(#paint0_linear_0_1952)" stroke-width="12"/>
<g filter="url(#filter0_d_0_1952)">
<path d="M9 63.6726L107.284 6.9282L205.568 63.6726V177.161L107.284 233.906L9 177.161V63.6726Z" stroke="url(#paint1_linear_0_1952)" stroke-width="12" shape-rendering="crispEdges"/>
</g>
<path d="M131.833 79.9384L89.2568 55.3589L93.1823 53.5285L97.1833 76.4084L94.9941 76.1033L128.512 56.7535L137.042 61.6781L98.2401 84.0786L86.3126 81.8995L80.5754 48.3424L88.2754 43.8972L141.27 74.4908L131.833 79.9384Z" fill="url(#paint2_linear_0_1952)"/>
<defs>
<filter id="filter0_d_0_1952" x="0" y="0" width="220.568" height="257.834" filterUnits="userSpaceOnUse" color-interpolation-filters="sRGB">
<feFlood flood-opacity="0" result="BackgroundImageFix"/>
<feColorMatrix in="SourceAlpha" type="matrix" values="0 0 0 0 0 0 0 0 0 0 0 0 0 0 0 0 0 0 127 0" result="hardAlpha"/>
<feOffset dx="3" dy="11"/>
<feGaussianBlur stdDeviation="3"/>
<feComposite in2="hardAlpha" operator="out"/>
<feColorMatrix type="matrix" values="0 0 0 0 0.00942707 0 0 0 0 0.352007 0 0 0 0 0.754167 0 0 0 0.13 0"/>
<feBlend mode="normal" in2="BackgroundImageFix" result="effect1_dropShadow_0_1952"/>
<feBlend mode="normal" in="SourceGraphic" in2="effect1_dropShadow_0_1952" result="shape"/>
</filter>
<linearGradient id="paint0_linear_0_1952" x1="109.347" y1="67.8096" x2="109.347" y2="233.519" gradientUnits="userSpaceOnUse">
<stop stop-color="#91DCF0"/>
<stop offset="1" stop-color="#0E478A"/>
</linearGradient>
<linearGradient id="paint1_linear_0_1952" x1="107.284" y1="0" x2="107.284" y2="240.834" gradientUnits="userSpaceOnUse">
<stop stop-color="#91DCF0"/>
<stop offset="1" stop-color="#0E478A"/>
</linearGradient>
<linearGradient id="paint2_linear_0_1952" x1="53.9884" y1="37.884" x2="93.362" y2="106.087" gradientUnits="userSpaceOnUse">
<stop stop-color="#91DCF0"/>
<stop offset="1" stop-color="#0E478A"/>
</linearGradient>
</defs>
</svg>
