<svg width="241" height="258" viewBox="0 0 241 258" fill="none" xmlns="http://www.w3.org/2000/svg">
<g filter="url(#filter0_d_0_1936)">
<path d="M25.4297 67.8096L118.244 121.633M118.244 121.633L219.535 67.8096M118.244 121.633V233.519" stroke="url(#paint0_linear_0_1936)" stroke-width="12"/>
<path d="M22.1328 63.6726L120.417 6.9282L218.701 63.6726V177.161L120.417 233.906L22.1328 177.161V63.6726Z" stroke="url(#paint1_linear_0_1936)" stroke-width="12"/>
</g>
<path d="M139.315 78.2392L96.5118 53.5289L102.853 53.8776L97.5687 63.2038L86.8491 59.5431L93.7942 46.9047L99.154 43.8105L149.053 72.6173L139.315 78.2392ZM134.257 85.43L125.198 80.2003L152.752 64.2934L161.811 69.523L134.257 85.43Z" fill="url(#paint2_linear_0_1936)"/>
<defs>
<filter id="filter0_d_0_1936" x="16.1328" y="0" width="222.568" height="257.834" filterUnits="userSpaceOnUse" color-interpolation-filters="sRGB">
<feFlood flood-opacity="0" result="BackgroundImageFix"/>
<feColorMatrix in="SourceAlpha" type="matrix" values="0 0 0 0 0 0 0 0 0 0 0 0 0 0 0 0 0 0 127 0" result="hardAlpha"/>
<feOffset dx="8" dy="11"/>
<feGaussianBlur stdDeviation="3"/>
<feComposite in2="hardAlpha" operator="out"/>
<feColorMatrix type="matrix" values="0 0 0 0 0.00942707 0 0 0 0 0.352007 0 0 0 0 0.754167 0 0 0 0.13 0"/>
<feBlend mode="normal" in2="BackgroundImageFix" result="effect1_dropShadow_0_1936"/>
<feBlend mode="normal" in="SourceGraphic" in2="effect1_dropShadow_0_1936" result="shape"/>
</filter>
<linearGradient id="paint0_linear_0_1936" x1="122.482" y1="67.8096" x2="122.482" y2="233.519" gradientUnits="userSpaceOnUse">
<stop stop-color="#91DCF0"/>
<stop offset="1" stop-color="#0E478A"/>
</linearGradient>
<linearGradient id="paint1_linear_0_1936" x1="120.417" y1="0" x2="120.417" y2="240.834" gradientUnits="userSpaceOnUse">
<stop stop-color="#91DCF0"/>
<stop offset="1" stop-color="#0E478A"/>
</linearGradient>
<linearGradient id="paint2_linear_0_1936" x1="71.1212" y1="34.884" x2="110.495" y2="103.087" gradientUnits="userSpaceOnUse">
<stop stop-color="#91DCF0"/>
<stop offset="1" stop-color="#0E478A"/>
</linearGradient>
</defs>
</svg>
