<svg width="475" height="411" viewBox="0 0 475 411" fill="none" xmlns="http://www.w3.org/2000/svg">
<path d="M8.53125 163.781L71.6848 200.405M71.6848 200.405L140.606 163.781M71.6848 200.405V276.535" stroke="url(#paint0_linear_812_3344)" stroke-width="8.16514"/>
<g filter="url(#filter0_d_812_3344)">
<path d="M6.28863 160.965L73.164 122.355L140.039 160.965V238.186L73.164 276.797L6.28863 238.186L6.28863 160.965Z" stroke="url(#paint1_linear_812_3344)" stroke-width="8.16514" shape-rendering="crispEdges"/>
</g>
<g filter="url(#filter1_d_812_3344)">
<path d="M172.515 46.75L235.668 83.3733M235.668 83.3733L304.589 46.75M235.668 83.3733V159.504" stroke="url(#paint2_linear_812_3344)" stroke-width="8.16514"/>
<path d="M170.273 43.9341L237.148 5.32352L304.023 43.9341V121.155L237.148 159.766L170.273 121.155V43.9341Z" stroke="url(#paint3_linear_812_3344)" stroke-width="8.16514"/>
</g>
<path d="M327.651 171.266L390.805 207.889M390.805 207.889L459.726 171.266M390.805 207.889V284.019" stroke="url(#paint4_linear_812_3344)" stroke-width="8.16514"/>
<g filter="url(#filter2_d_812_3344)">
<path d="M325.41 168.45L392.286 129.839L459.161 168.45V245.671L392.286 284.281L325.41 245.671V168.45Z" stroke="url(#paint5_linear_812_3344)" stroke-width="8.16514" shape-rendering="crispEdges"/>
</g>
<g filter="url(#filter3_d_812_3344)">
<path d="M166.391 278.773L229.544 315.397M229.544 315.397L298.465 278.773M229.544 315.397V391.527" stroke="url(#paint6_linear_812_3344)" stroke-width="8.16514"/>
<path d="M164.149 275.957L231.024 237.347L297.899 275.957V353.179L231.024 391.789L164.149 353.179V275.957Z" stroke="url(#paint7_linear_812_3344)" stroke-width="8.16514"/>
</g>
<path d="M249.838 53.7464L220.713 36.9328L225.028 37.1701L221.433 43.5159L214.139 41.025L218.864 32.4255L222.511 30.3201L256.464 49.9211L249.838 53.7464ZM246.396 58.6392L240.232 55.0808L258.981 44.2572L265.145 47.8157L246.396 58.6392Z" fill="url(#paint8_linear_812_3344)"/>
<path d="M400.094 185.417L394.136 183.934L392.903 170.768C392.834 170.057 392.732 169.286 392.595 168.455C392.423 167.605 392.201 166.765 391.927 165.935C391.687 165.085 391.345 164.314 390.9 163.622C390.42 162.91 389.821 162.347 389.102 161.931C388.143 161.378 387.116 161.022 386.02 160.864C384.958 160.686 383.88 160.696 382.784 160.894C381.688 161.091 380.609 161.497 379.548 162.109C378.657 162.623 378.041 163.296 377.698 164.126C377.322 164.936 377.253 165.846 377.493 166.854C377.733 167.823 378.281 168.831 379.137 169.879L371.175 171.035C369.805 169.533 369.018 168.01 368.812 166.468C368.607 164.926 368.949 163.444 369.839 162.02C370.764 160.577 372.219 159.282 374.206 158.136C376.26 156.95 378.52 156.139 380.986 155.704C383.451 155.269 385.9 155.22 388.331 155.556C390.797 155.872 393.04 156.614 395.06 157.78C396.019 158.334 396.875 158.986 397.628 159.737C398.382 160.488 399.032 161.358 399.58 162.347C400.128 163.335 400.573 164.462 400.916 165.727C401.224 166.973 401.43 168.396 401.532 169.997L402.251 179.724L398.861 179.012L416.634 168.752L422.798 172.31L400.094 185.417Z" fill="url(#paint9_linear_812_3344)"/>
<path d="M249.866 287.864C247.195 289.406 244.284 290.414 241.134 290.889C237.983 291.324 234.165 291.215 229.679 290.563L231.477 285.848C233.532 286.085 235.364 286.194 236.973 286.174C238.583 286.154 240.021 285.996 241.288 285.7C242.521 285.383 243.617 284.948 244.575 284.395C245.705 283.742 246.459 282.991 246.836 282.141C247.246 281.271 247.246 280.401 246.836 279.532C246.459 278.642 245.654 277.841 244.421 277.13C243.154 276.398 241.87 275.914 240.569 275.677C239.268 275.439 237.949 275.449 236.614 275.706C235.244 275.943 233.96 276.408 232.761 277.1C232.213 277.416 231.683 277.802 231.169 278.256C230.655 278.672 230.176 279.146 229.731 279.68C229.251 280.194 228.755 280.777 228.241 281.429L222.231 279.858L221.153 267.374L224.183 267.403L208.928 276.092L203.02 272.682L224.132 260.494L227.779 261.176L228.909 275.469L225.673 275.38C225.81 275.143 226.135 274.817 226.649 274.402C227.162 273.947 227.642 273.591 228.087 273.334C229.628 272.444 231.357 271.782 233.275 271.347C235.227 270.893 237.213 270.675 239.233 270.695C241.254 270.675 243.24 270.893 245.192 271.347C247.109 271.782 248.856 272.454 250.431 273.364C252.794 274.728 254.318 276.28 255.003 278.019C255.722 279.739 255.636 281.469 254.746 283.209C253.89 284.929 252.263 286.48 249.866 287.864Z" fill="url(#paint10_linear_812_3344)"/>
<path d="M89.6978 171.936L60.7275 155.211L63.3985 153.965L66.1209 169.534L64.6313 169.326L87.4377 156.16L93.2421 159.511L66.84 174.753L58.7242 173.27L54.8204 150.437L60.0597 147.412L96.1186 168.229L89.6978 171.936Z" fill="url(#paint11_linear_812_3344)"/>
<g filter="url(#filter4_d_812_3344)">
<path d="M272.929 115.602L327.363 146.901" stroke="url(#paint12_linear_812_3344)" stroke-width="3.40214"/>
</g>
<g filter="url(#filter5_d_812_3344)">
<path d="M108.944 226.508L163.379 257.808" stroke="url(#paint13_linear_812_3344)" stroke-width="3.40214"/>
</g>
<g filter="url(#filter6_d_812_3344)">
<path d="M351.177 238.758L302.866 266.655" stroke="url(#paint14_linear_812_3344)" stroke-width="3.40214"/>
</g>
<defs>
<filter id="filter0_d_812_3344" x="0.164769" y="117.641" width="150.081" height="175.438" filterUnits="userSpaceOnUse" color-interpolation-filters="sRGB">
<feFlood flood-opacity="0" result="BackgroundImageFix"/>
<feColorMatrix in="SourceAlpha" type="matrix" values="0 0 0 0 0 0 0 0 0 0 0 0 0 0 0 0 0 0 127 0" result="hardAlpha"/>
<feOffset dx="2.04129" dy="7.48471"/>
<feGaussianBlur stdDeviation="2.04129"/>
<feComposite in2="hardAlpha" operator="out"/>
<feColorMatrix type="matrix" values="0 0 0 0 0.00942707 0 0 0 0 0.352007 0 0 0 0 0.754167 0 0 0 0.13 0"/>
<feBlend mode="normal" in2="BackgroundImageFix" result="effect1_dropShadow_812_3344"/>
<feBlend mode="normal" in="SourceGraphic" in2="effect1_dropShadow_812_3344" result="shape"/>
</filter>
<filter id="filter1_d_812_3344" x="166.19" y="0.609375" width="151.442" height="175.437" filterUnits="userSpaceOnUse" color-interpolation-filters="sRGB">
<feFlood flood-opacity="0" result="BackgroundImageFix"/>
<feColorMatrix in="SourceAlpha" type="matrix" values="0 0 0 0 0 0 0 0 0 0 0 0 0 0 0 0 0 0 127 0" result="hardAlpha"/>
<feOffset dx="5.44343" dy="7.48471"/>
<feGaussianBlur stdDeviation="2.04129"/>
<feComposite in2="hardAlpha" operator="out"/>
<feColorMatrix type="matrix" values="0 0 0 0 0.00942707 0 0 0 0 0.352007 0 0 0 0 0.754167 0 0 0 0.13 0"/>
<feBlend mode="normal" in2="BackgroundImageFix" result="effect1_dropShadow_812_3344"/>
<feBlend mode="normal" in="SourceGraphic" in2="effect1_dropShadow_812_3344" result="shape"/>
</filter>
<filter id="filter2_d_812_3344" x="321.328" y="125.125" width="152.122" height="174.077" filterUnits="userSpaceOnUse" color-interpolation-filters="sRGB">
<feFlood flood-opacity="0" result="BackgroundImageFix"/>
<feColorMatrix in="SourceAlpha" type="matrix" values="0 0 0 0 0 0 0 0 0 0 0 0 0 0 0 0 0 0 127 0" result="hardAlpha"/>
<feOffset dx="6.12386" dy="6.12386"/>
<feGaussianBlur stdDeviation="2.04129"/>
<feComposite in2="hardAlpha" operator="out"/>
<feColorMatrix type="matrix" values="0 0 0 0 0.00942707 0 0 0 0 0.352007 0 0 0 0 0.754167 0 0 0 0.13 0"/>
<feBlend mode="normal" in2="BackgroundImageFix" result="effect1_dropShadow_812_3344"/>
<feBlend mode="normal" in="SourceGraphic" in2="effect1_dropShadow_812_3344" result="shape"/>
</filter>
<filter id="filter3_d_812_3344" x="157.344" y="232.633" width="150.081" height="178.16" filterUnits="userSpaceOnUse" color-interpolation-filters="sRGB">
<feFlood flood-opacity="0" result="BackgroundImageFix"/>
<feColorMatrix in="SourceAlpha" type="matrix" values="0 0 0 0 0 0 0 0 0 0 0 0 0 0 0 0 0 0 127 0" result="hardAlpha"/>
<feOffset dx="1.36086" dy="10.2064"/>
<feGaussianBlur stdDeviation="2.04129"/>
<feComposite in2="hardAlpha" operator="out"/>
<feColorMatrix type="matrix" values="0 0 0 0 0.00942707 0 0 0 0 0.352007 0 0 0 0 0.754167 0 0 0 0.13 0"/>
<feBlend mode="normal" in2="BackgroundImageFix" result="effect1_dropShadow_812_3344"/>
<feBlend mode="normal" in="SourceGraphic" in2="effect1_dropShadow_812_3344" result="shape"/>
</filter>
<filter id="filter4_d_812_3344" x="264.596" y="114.127" width="67.0172" height="60.1053" filterUnits="userSpaceOnUse" color-interpolation-filters="sRGB">
<feFlood flood-opacity="0" result="BackgroundImageFix"/>
<feColorMatrix in="SourceAlpha" type="matrix" values="0 0 0 0 0 0 0 0 0 0 0 0 0 0 0 0 0 0 127 0" result="hardAlpha"/>
<feOffset dx="-2.04129" dy="20.4129"/>
<feGaussianBlur stdDeviation="2.72171"/>
<feComposite in2="hardAlpha" operator="out"/>
<feColorMatrix type="matrix" values="0 0 0 0 0 0 0 0 0 0 0 0 0 0 0 0 0 0 0.15 0"/>
<feBlend mode="normal" in2="BackgroundImageFix" result="effect1_dropShadow_812_3344"/>
<feBlend mode="normal" in="SourceGraphic" in2="effect1_dropShadow_812_3344" result="shape"/>
</filter>
<filter id="filter5_d_812_3344" x="100.611" y="225.033" width="67.0172" height="60.1053" filterUnits="userSpaceOnUse" color-interpolation-filters="sRGB">
<feFlood flood-opacity="0" result="BackgroundImageFix"/>
<feColorMatrix in="SourceAlpha" type="matrix" values="0 0 0 0 0 0 0 0 0 0 0 0 0 0 0 0 0 0 127 0" result="hardAlpha"/>
<feOffset dx="-2.04129" dy="20.4129"/>
<feGaussianBlur stdDeviation="2.72171"/>
<feComposite in2="hardAlpha" operator="out"/>
<feColorMatrix type="matrix" values="0 0 0 0 0 0 0 0 0 0 0 0 0 0 0 0 0 0 0.15 0"/>
<feBlend mode="normal" in2="BackgroundImageFix" result="effect1_dropShadow_812_3344"/>
<feBlend mode="normal" in="SourceGraphic" in2="effect1_dropShadow_812_3344" result="shape"/>
</filter>
<filter id="filter6_d_812_3344" x="294.531" y="237.285" width="60.8986" height="56.7" filterUnits="userSpaceOnUse" color-interpolation-filters="sRGB">
<feFlood flood-opacity="0" result="BackgroundImageFix"/>
<feColorMatrix in="SourceAlpha" type="matrix" values="0 0 0 0 0 0 0 0 0 0 0 0 0 0 0 0 0 0 127 0" result="hardAlpha"/>
<feOffset dx="-2.04129" dy="20.4129"/>
<feGaussianBlur stdDeviation="2.72171"/>
<feComposite in2="hardAlpha" operator="out"/>
<feColorMatrix type="matrix" values="0 0 0 0 0 0 0 0 0 0 0 0 0 0 0 0 0 0 0.15 0"/>
<feBlend mode="normal" in2="BackgroundImageFix" result="effect1_dropShadow_812_3344"/>
<feBlend mode="normal" in="SourceGraphic" in2="effect1_dropShadow_812_3344" result="shape"/>
</filter>
<linearGradient id="paint0_linear_812_3344" x1="74.5686" y1="163.781" x2="74.5686" y2="276.535" gradientUnits="userSpaceOnUse">
<stop stop-color="#91DCF0"/>
<stop offset="1" stop-color="#0E478A"/>
</linearGradient>
<linearGradient id="paint1_linear_812_3344" x1="73.164" y1="117.641" x2="73.164" y2="281.511" gradientUnits="userSpaceOnUse">
<stop stop-color="#91DCF0"/>
<stop offset="1" stop-color="#0E478A"/>
</linearGradient>
<linearGradient id="paint2_linear_812_3344" x1="238.552" y1="46.75" x2="238.552" y2="159.504" gradientUnits="userSpaceOnUse">
<stop stop-color="#91DCF0"/>
<stop offset="1" stop-color="#0E478A"/>
</linearGradient>
<linearGradient id="paint3_linear_812_3344" x1="237.148" y1="0.609375" x2="237.148" y2="164.48" gradientUnits="userSpaceOnUse">
<stop stop-color="#91DCF0"/>
<stop offset="1" stop-color="#0E478A"/>
</linearGradient>
<linearGradient id="paint4_linear_812_3344" x1="393.689" y1="171.266" x2="393.689" y2="284.019" gradientUnits="userSpaceOnUse">
<stop stop-color="#91DCF0"/>
<stop offset="1" stop-color="#0E478A"/>
</linearGradient>
<linearGradient id="paint5_linear_812_3344" x1="392.286" y1="125.125" x2="392.286" y2="288.995" gradientUnits="userSpaceOnUse">
<stop stop-color="#91DCF0"/>
<stop offset="1" stop-color="#0E478A"/>
</linearGradient>
<linearGradient id="paint6_linear_812_3344" x1="232.428" y1="278.773" x2="232.428" y2="391.527" gradientUnits="userSpaceOnUse">
<stop stop-color="#91DCF0"/>
<stop offset="1" stop-color="#0E478A"/>
</linearGradient>
<linearGradient id="paint7_linear_812_3344" x1="231.024" y1="232.633" x2="231.024" y2="396.503" gradientUnits="userSpaceOnUse">
<stop stop-color="#91DCF0"/>
<stop offset="1" stop-color="#0E478A"/>
</linearGradient>
<linearGradient id="paint8_linear_812_3344" x1="203.608" y1="24.3449" x2="230.399" y2="70.7522" gradientUnits="userSpaceOnUse">
<stop stop-color="#91DCF0"/>
<stop offset="1" stop-color="#0E478A"/>
</linearGradient>
<linearGradient id="paint9_linear_812_3344" x1="358.856" y1="150.228" x2="385.647" y2="196.635" gradientUnits="userSpaceOnUse">
<stop stop-color="#91DCF0"/>
<stop offset="1" stop-color="#0E478A"/>
</linearGradient>
<linearGradient id="paint10_linear_812_3344" x1="198.842" y1="257.731" x2="225.633" y2="304.138" gradientUnits="userSpaceOnUse">
<stop stop-color="#91DCF0"/>
<stop offset="1" stop-color="#0E478A"/>
</linearGradient>
<linearGradient id="paint11_linear_812_3344" x1="36.9007" y1="143.419" x2="63.6917" y2="189.826" gradientUnits="userSpaceOnUse">
<stop stop-color="#91DCF0"/>
<stop offset="1" stop-color="#0E478A"/>
</linearGradient>
<linearGradient id="paint12_linear_812_3344" x1="300.146" y1="115.602" x2="300.146" y2="146.901" gradientUnits="userSpaceOnUse">
<stop stop-color="#91DCF0"/>
<stop offset="1" stop-color="#0E478A"/>
</linearGradient>
<linearGradient id="paint13_linear_812_3344" x1="136.161" y1="226.508" x2="136.161" y2="257.808" gradientUnits="userSpaceOnUse">
<stop stop-color="#91DCF0"/>
<stop offset="1" stop-color="#0E478A"/>
</linearGradient>
<linearGradient id="paint14_linear_812_3344" x1="327.021" y1="238.758" x2="327.021" y2="266.655" gradientUnits="userSpaceOnUse">
<stop stop-color="#91DCF0"/>
<stop offset="1" stop-color="#0E478A"/>
</linearGradient>
</defs>
</svg>
