<svg width="28" height="24" viewBox="0 0 28 24" fill="none" xmlns="http://www.w3.org/2000/svg">
<path d="M27.1456 20.1018L21.466 16.6116C22.5002 14.3721 22.7512 11.8498 22.1789 9.45037C21.6719 7.31282 20.5424 5.37363 18.9332 3.87802C17.3241 2.38241 15.3076 1.39755 13.1387 1.048C10.9698 0.698436 8.74599 0.999872 6.74844 1.91419C4.75088 2.8285 3.06931 4.31462 1.91636 6.18463C0.763421 8.05464 0.190891 10.2245 0.271175 12.4199C0.351459 14.6153 1.08095 16.7376 2.3674 18.5184C3.65385 20.2992 5.43948 21.6585 7.49848 22.4245C9.55748 23.1905 11.7974 23.3287 13.9349 22.8216C16.3358 22.2553 18.4766 20.8981 20.013 18.9683L25.6823 22.4752C25.8379 22.572 26.0112 22.6371 26.1921 22.6666C26.373 22.6962 26.5579 22.6896 26.7363 22.6473C26.9146 22.605 27.0828 22.5278 27.2312 22.4202C27.3795 22.3125 27.5051 22.1766 27.6007 22.0202C27.6975 21.8645 27.7626 21.6913 27.7921 21.5104C27.8216 21.3295 27.8151 21.1445 27.7728 20.9662C27.7305 20.7878 27.6533 20.6196 27.5456 20.4713C27.438 20.3229 27.302 20.1974 27.1456 20.1018ZM3.26556 13.9367C2.88528 12.3336 2.98893 10.6537 3.56341 9.10941C4.13788 7.56516 5.15738 6.22593 6.49298 5.2611C7.82859 4.29626 9.4203 3.74914 11.0668 3.68893C12.7134 3.62872 14.3408 4.05811 15.7433 4.92282C17.1458 5.78753 18.2604 7.04871 18.9462 8.54687C19.6319 10.045 19.858 11.7129 19.5958 13.3396C19.3336 14.9662 18.595 16.4786 17.4733 17.6855C16.3516 18.8923 14.8972 19.7395 13.294 20.1197C11.1442 20.6297 8.87995 20.2647 6.99925 19.1052C5.11855 17.9457 3.7755 16.0865 3.26556 13.9367Z" fill="white"/>
</svg>
