<svg width="27" height="27" viewBox="0 0 27 27" fill="none" xmlns="http://www.w3.org/2000/svg">
<path fill-rule="evenodd" clip-rule="evenodd" d="M7.93432 0.081C9.37391 0.0147273 9.83291 0 13.5 0C17.1671 0 17.6261 0.0159545 19.0645 0.081C20.5028 0.146045 21.4846 0.375546 22.3437 0.708136C23.2433 1.04809 24.0595 1.5795 24.7345 2.26677C25.4217 2.94055 25.9519 3.75545 26.2906 4.65627C26.6245 5.51536 26.8527 6.49718 26.919 7.93309C26.9853 9.37514 27 9.83414 27 13.5C27 17.1671 26.984 17.6261 26.919 19.0657C26.854 20.5016 26.6245 21.4834 26.2906 22.3425C25.9519 23.2434 25.4208 24.0597 24.7345 24.7345C24.0595 25.4217 23.2433 25.9519 22.3437 26.2906C21.4846 26.6245 20.5028 26.8527 19.0669 26.919C17.6261 26.9853 17.1671 27 13.5 27C9.83291 27 9.37391 26.984 7.93432 26.919C6.49841 26.854 5.51659 26.6245 4.6575 26.2906C3.75658 25.9519 2.94033 25.4208 2.26555 24.7345C1.57874 24.0603 1.04725 23.2444 0.708136 22.3437C0.375546 21.4846 0.147273 20.5028 0.081 19.0669C0.0147273 17.6249 0 17.1659 0 13.5C0 9.83291 0.0159545 9.37391 0.081 7.93555C0.146045 6.49718 0.375546 5.51536 0.708136 4.65627C1.04775 3.75555 1.57965 2.9397 2.26677 2.26555C2.94059 1.57889 3.75603 1.04741 4.65627 0.708136C5.51536 0.375546 6.49718 0.147273 7.93309 0.081H7.93432ZM18.9552 2.511C17.5316 2.44595 17.1045 2.43245 13.5 2.43245C9.8955 2.43245 9.46841 2.44595 8.04477 2.511C6.72791 2.57114 6.01364 2.79082 5.53745 2.97614C4.90786 3.22159 4.45745 3.51245 3.98495 3.98495C3.53706 4.4207 3.19236 4.95116 2.97614 5.53745C2.79082 6.01364 2.57114 6.72791 2.511 8.04477C2.44595 9.46841 2.43245 9.8955 2.43245 13.5C2.43245 17.1045 2.44595 17.5316 2.511 18.9552C2.57114 20.2721 2.79082 20.9864 2.97614 21.4625C3.19214 22.048 3.537 22.5794 3.98495 23.015C4.42064 23.463 4.95205 23.8079 5.53745 24.0239C6.01364 24.2092 6.72791 24.4289 8.04477 24.489C9.46841 24.554 9.89427 24.5675 13.5 24.5675C17.1057 24.5675 17.5316 24.554 18.9552 24.489C20.2721 24.4289 20.9864 24.2092 21.4625 24.0239C22.0921 23.7784 22.5425 23.4875 23.015 23.015C23.463 22.5794 23.8079 22.048 24.0239 21.4625C24.2092 20.9864 24.4289 20.2721 24.489 18.9552C24.554 17.5316 24.5675 17.1045 24.5675 13.5C24.5675 9.8955 24.554 9.46841 24.489 8.04477C24.4289 6.72791 24.2092 6.01364 24.0239 5.53745C23.7784 4.90786 23.4875 4.45745 23.015 3.98495C22.5793 3.53709 22.0488 3.19239 21.4625 2.97614C20.9864 2.79082 20.2721 2.57114 18.9552 2.511ZM11.7757 17.6617C12.7387 18.0625 13.811 18.1167 14.8094 17.8147C15.8079 17.5128 16.6705 16.8737 17.2501 16.0064C17.8296 15.1391 18.0901 14.0975 17.987 13.0595C17.8839 12.0216 17.4236 11.0516 16.6848 10.3152C16.2138 9.84454 15.6443 9.48413 15.0173 9.25995C14.3903 9.03577 13.7214 8.9534 13.0588 9.01876C12.3961 9.08411 11.7562 9.29558 11.1851 9.63793C10.614 9.98028 10.1259 10.445 9.75596 10.9986C9.38601 11.5523 9.14341 12.181 9.04563 12.8397C8.94785 13.4983 8.99732 14.1705 9.19048 14.8077C9.38364 15.4449 9.71568 16.0314 10.1627 16.5249C10.6097 17.0184 11.1606 17.4066 11.7757 17.6617ZM8.59336 8.59336C9.23771 7.94902 10.0027 7.43789 10.8445 7.08917C11.6864 6.74045 12.5888 6.56097 13.5 6.56097C14.4112 6.56097 15.3136 6.74045 16.1555 7.08917C16.9973 7.43789 17.7623 7.94902 18.4066 8.59336C19.051 9.23771 19.5621 10.0027 19.9108 10.8445C20.2595 11.6864 20.439 12.5888 20.439 13.5C20.439 14.4112 20.2595 15.3136 19.9108 16.1555C19.5621 16.9973 19.051 17.7623 18.4066 18.4066C17.1053 19.708 15.3403 20.439 13.5 20.439C11.6597 20.439 9.89468 19.708 8.59336 18.4066C7.29204 17.1053 6.56097 15.3403 6.56097 13.5C6.56097 11.6597 7.29204 9.89468 8.59336 8.59336ZM21.978 7.59436C22.1377 7.44374 22.2655 7.26261 22.3539 7.0617C22.4423 6.86078 22.4895 6.64417 22.4927 6.42469C22.4959 6.2052 22.4551 5.98731 22.3725 5.7839C22.29 5.5805 22.1675 5.39572 22.0123 5.2405C21.8571 5.08529 21.6723 4.96279 21.4689 4.88027C21.2655 4.79775 21.0476 4.75688 20.8281 4.76008C20.6086 4.76328 20.392 4.81048 20.1911 4.8989C19.9902 4.98732 19.8091 5.11514 19.6585 5.27482C19.3655 5.58535 19.2051 5.99783 19.2114 6.42469C19.2176 6.85154 19.3899 7.25917 19.6918 7.56103C19.9936 7.8629 20.4013 8.03524 20.8281 8.04146C21.255 8.04768 21.6675 7.8873 21.978 7.59436Z" fill="url(#paint0_linear_0_127)"/>
<defs>
<linearGradient id="paint0_linear_0_127" x1="13.5" y1="0" x2="13.5" y2="27" gradientUnits="userSpaceOnUse">
<stop stop-color="#1971D9"/>
<stop offset="1" stop-color="#043A7A"/>
</linearGradient>
</defs>
</svg>
