<svg width="20" height="20" viewBox="0 0 20 20" fill="none" xmlns="http://www.w3.org/2000/svg">
<path d="M19.2221 9.92174C19.2221 16.5223 16.2116 19.2221 9.61103 19.2221C3.01043 19.2221 0 16.5223 0 9.92174C0 3.32114 3.01043 0 9.61103 0C16.2116 0 19.2221 3.32114 19.2221 9.92174Z" fill="#1565C3"/>
<path d="M9.61157 4.5147C11.2712 4.5147 11.4682 4.52038 12.1237 4.55069C12.73 4.57722 13.0597 4.67952 13.2775 4.76478C13.5674 4.87655 13.7739 5.01296 13.9918 5.22894C14.2096 5.44681 14.3442 5.65332 14.4559 5.94318C14.5412 6.16295 14.6416 6.49071 14.67 7.09696C14.7003 7.75248 14.706 7.94951 14.706 9.60913C14.706 11.2688 14.7003 11.4658 14.67 12.1213C14.6416 12.7276 14.5412 13.0572 14.4559 13.2751C14.3423 13.5649 14.2077 13.7715 13.9918 13.9893C13.7739 14.2072 13.5674 14.3417 13.2775 14.4535C13.0578 14.5387 12.73 14.6392 12.1237 14.6676C11.4682 14.6979 11.2712 14.7036 9.61157 14.7036C7.95195 14.7036 7.75492 14.6979 7.09941 14.6676C6.49315 14.6392 6.1635 14.5387 5.94562 14.4535C5.65576 14.3417 5.44925 14.2053 5.23138 13.9893C5.01351 13.7715 4.879 13.5649 4.76532 13.2751C4.68007 13.0553 4.57966 12.7276 4.55124 12.1213C4.52093 11.4658 4.51524 11.2688 4.51524 9.60913C4.51524 7.94951 4.52093 7.75248 4.55124 7.09696C4.57966 6.49071 4.68007 6.16106 4.76532 5.94318C4.879 5.65332 5.01351 5.44492 5.23138 5.22894C5.44925 5.01107 5.65576 4.87655 5.94562 4.76478C6.16539 4.67952 6.49315 4.57911 7.09941 4.55069C7.75492 4.52227 7.95195 4.5147 9.61157 4.5147ZM9.61157 3.39502C7.92353 3.39502 7.71134 3.4026 7.04825 3.43291C6.38705 3.46322 5.93426 3.56742 5.54019 3.72278C5.13097 3.88192 4.78427 4.09411 4.43946 4.43891C4.09465 4.78372 3.88057 5.13042 3.72332 5.53965C3.56986 5.93561 3.46377 6.38651 3.43535 7.04771C3.40504 7.7108 3.39746 7.92299 3.39746 9.61103C3.39746 11.2991 3.40504 11.5113 3.43535 12.1744C3.46566 12.8355 3.56986 13.2883 3.72332 13.6824C3.88247 14.0916 4.09465 14.4383 4.43946 14.7831C4.78427 15.128 5.13097 15.342 5.54019 15.4993C5.93615 15.6527 6.38705 15.7588 7.04825 15.7873C7.71134 15.8176 7.92353 15.8251 9.61157 15.8251C11.2996 15.8251 11.5118 15.8176 12.1749 15.7873C12.8361 15.7569 13.2889 15.6527 13.683 15.4993C14.0922 15.3401 14.4389 15.128 14.7837 14.7831C15.1285 14.4383 15.3426 14.0916 15.4998 13.6824C15.6533 13.2865 15.7594 12.8355 15.7878 12.1744C15.8181 11.5113 15.8257 11.2991 15.8257 9.61103C15.8257 7.92299 15.8181 7.7108 15.7878 7.04771C15.7575 6.38651 15.6533 5.93371 15.4998 5.53965C15.3407 5.13042 15.1285 4.78372 14.7837 4.43891C14.4389 4.09411 14.0922 3.88192 13.683 3.72278C13.287 3.56932 12.8361 3.46322 12.1749 3.43291C11.5099 3.4026 11.2996 3.39502 9.61157 3.39502Z" fill="white"/>
<path d="M9.61175 6.4187C7.84982 6.4187 6.41943 7.84719 6.41943 9.61101C6.41943 11.3748 7.84792 12.8033 9.61175 12.8033C11.3737 12.8033 12.8041 11.3748 12.8041 9.61101C12.8041 7.84719 11.3737 6.4187 9.61175 6.4187ZM9.61175 11.6836C8.46744 11.6836 7.53911 10.7553 7.53911 9.61101C7.53911 8.46671 8.46744 7.53838 9.61175 7.53838C10.7561 7.53838 11.6825 8.46671 11.6825 9.61101C11.6825 10.7553 10.7561 11.6836 9.61175 11.6836Z" fill="white"/>
<path d="M13.675 6.29357C13.675 6.70469 13.3416 7.04002 12.9286 7.04002C12.5175 7.04002 12.1821 6.70658 12.1821 6.29357C12.1821 5.88245 12.5156 5.54712 12.9286 5.54712C13.3397 5.54712 13.675 5.88056 13.675 6.29357Z" fill="white"/>
</svg>
