<svg width="27" height="27" viewBox="0 0 27 27" fill="none" xmlns="http://www.w3.org/2000/svg">
<path d="M11.7378 9.36495V11.2239H10.377V13.4959H11.7378V20.25H14.535V13.4959H16.4115C16.4115 13.4959 16.5883 12.4065 16.6734 11.2145H14.5458V9.66195C14.5458 9.4284 14.8509 9.11655 15.1533 9.11655H16.6761V6.75H14.6038C11.6689 6.75 11.7378 9.02475 11.7378 9.36495Z" fill="url(#paint0_linear_0_129)"/>
<path d="M5.4 2.7C4.68392 2.7 3.99716 2.98446 3.49081 3.49081C2.98446 3.99716 2.7 4.68392 2.7 5.4V21.6C2.7 22.3161 2.98446 23.0028 3.49081 23.5092C3.99716 24.0155 4.68392 24.3 5.4 24.3H21.6C22.3161 24.3 23.0028 24.0155 23.5092 23.5092C24.0155 23.0028 24.3 22.3161 24.3 21.6V5.4C24.3 4.68392 24.0155 3.99716 23.5092 3.49081C23.0028 2.98446 22.3161 2.7 21.6 2.7H5.4ZM5.4 0H21.6C23.0322 0 24.4057 0.568927 25.4184 1.58162C26.4311 2.59432 27 3.96783 27 5.4V21.6C27 23.0322 26.4311 24.4057 25.4184 25.4184C24.4057 26.4311 23.0322 27 21.6 27H5.4C3.96783 27 2.59432 26.4311 1.58162 25.4184C0.568927 24.4057 0 23.0322 0 21.6V5.4C0 3.96783 0.568927 2.59432 1.58162 1.58162C2.59432 0.568927 3.96783 0 5.4 0Z" fill="url(#paint1_linear_0_129)"/>
<defs>
<linearGradient id="paint0_linear_0_129" x1="13.5265" y1="6.75" x2="13.5265" y2="20.25" gradientUnits="userSpaceOnUse">
<stop stop-color="#1971D9"/>
<stop offset="1" stop-color="#043A7A"/>
</linearGradient>
<linearGradient id="paint1_linear_0_129" x1="13.5" y1="0" x2="13.5" y2="27" gradientUnits="userSpaceOnUse">
<stop stop-color="#1971D9"/>
<stop offset="1" stop-color="#043A7A"/>
</linearGradient>
</defs>
</svg>
