<svg width="21" height="20" viewBox="0 0 21 20" fill="none" xmlns="http://www.w3.org/2000/svg">
<path d="M20.0551 9.92174C20.0551 16.5223 17.0446 19.2221 10.444 19.2221C3.84344 19.2221 0.833008 16.5223 0.833008 9.92174C0.833008 3.32114 3.84344 0 10.444 0C17.0446 0 20.0551 3.32114 20.0551 9.92174Z" fill="#1565C3"/>
<path d="M15.1197 5.52835L13.4032 14.1845C13.4032 14.1845 13.1626 14.7851 12.5033 14.4971L8.54181 11.4602L7.10195 10.763L4.67693 9.94643C4.67693 9.94643 4.3056 9.81382 4.2696 9.52585C4.2336 9.23787 4.69019 9.08063 4.69019 9.08063L14.3296 5.29911C14.3278 5.30101 15.1197 4.95241 15.1197 5.52835Z" fill="white"/>
<path d="M8.23683 14.086C8.23683 14.086 8.12126 14.0746 7.97727 13.6199C7.83329 13.1633 7.1001 10.7629 7.1001 10.7629L8.55322 11.3862L8.23683 14.086Z" fill="white"/>
<path d="M10.0608 12.6233L8.49405 14.0518C8.49405 14.0518 8.3709 14.1446 8.23828 14.0859L8.53762 11.4316" fill="white"/>
<path d="M13.248 7.06482C13.2593 6.8602 12.924 7.06482 12.924 7.06482L7.43359 10.5527C7.70262 11.4317 8.01143 12.4415 8.31456 13.4343L8.55516 11.3863C8.55516 11.3863 12.9486 7.43615 13.1286 7.26943C13.3086 7.10081 13.248 7.06482 13.248 7.06482Z" fill="#1565C3"/>
</svg>
