<svg width="27" height="27" viewBox="0 0 27 27" fill="none" xmlns="http://www.w3.org/2000/svg">
<path d="M20.25 9.37807C19.7532 9.59407 19.2199 9.74257 18.6597 9.80737C19.2321 9.46987 19.6695 8.93527 19.8774 8.29942C19.332 8.6173 18.7368 8.84094 18.117 8.96092C17.8563 8.68765 17.5426 8.47034 17.1952 8.32226C16.8477 8.17418 16.4737 8.09843 16.0961 8.09962C14.5665 8.09962 13.3272 9.32137 13.3272 10.8266C13.3272 11.0399 13.3515 11.2478 13.3988 11.4476C12.3016 11.3955 11.2274 11.1153 10.2447 10.6249C9.26191 10.1344 8.39217 9.44449 7.69095 8.59912C7.44466 9.01371 7.31499 9.48715 7.31565 9.96937C7.31565 10.9144 7.8057 11.7514 8.5482 12.2387C8.1087 12.2249 7.67861 12.1079 7.2927 11.8972V11.9309C7.29687 12.5647 7.52058 13.1774 7.92574 13.6648C8.3309 14.1522 8.89246 14.484 9.5148 14.6039C9.10623 14.712 8.67873 14.7276 8.26335 14.6498C8.44442 15.195 8.79076 15.6704 9.25428 16.0098C9.7178 16.3492 10.2755 16.5359 10.8499 16.5439C9.8644 17.3033 8.65436 17.7136 7.41015 17.7103C7.1874 17.7103 6.96735 17.6968 6.75 17.6725C8.01964 18.4761 9.4918 18.9017 10.9944 18.8996C16.0893 18.8996 18.8744 14.7443 18.8744 11.1398L18.8649 10.7861C19.408 10.4045 19.8773 9.92737 20.25 9.37807Z" fill="url(#paint0_linear_0_132)"/>
<path d="M5.4 2.7C4.68392 2.7 3.99716 2.98446 3.49081 3.49081C2.98446 3.99716 2.7 4.68392 2.7 5.4V21.6C2.7 22.3161 2.98446 23.0028 3.49081 23.5092C3.99716 24.0155 4.68392 24.3 5.4 24.3H21.6C22.3161 24.3 23.0028 24.0155 23.5092 23.5092C24.0155 23.0028 24.3 22.3161 24.3 21.6V5.4C24.3 4.68392 24.0155 3.99716 23.5092 3.49081C23.0028 2.98446 22.3161 2.7 21.6 2.7H5.4ZM5.4 0H21.6C23.0322 0 24.4057 0.568927 25.4184 1.58162C26.4311 2.59432 27 3.96783 27 5.4V21.6C27 23.0322 26.4311 24.4057 25.4184 25.4184C24.4057 26.4311 23.0322 27 21.6 27H5.4C3.96783 27 2.59432 26.4311 1.58162 25.4184C0.568927 24.4057 0 23.0322 0 21.6V5.4C0 3.96783 0.568927 2.59432 1.58162 1.58162C2.59432 0.568927 3.96783 0 5.4 0Z" fill="url(#paint1_linear_0_132)"/>
<defs>
<linearGradient id="paint0_linear_0_132" x1="13.5" y1="8.09961" x2="13.5" y2="18.8996" gradientUnits="userSpaceOnUse">
<stop stop-color="#1971D9"/>
<stop offset="1" stop-color="#043A7A"/>
</linearGradient>
<linearGradient id="paint1_linear_0_132" x1="13.5" y1="0" x2="13.5" y2="27" gradientUnits="userSpaceOnUse">
<stop stop-color="#1971D9"/>
<stop offset="1" stop-color="#043A7A"/>
</linearGradient>
</defs>
</svg>
