<svg width="21" height="20" viewBox="0 0 21 20" fill="none" xmlns="http://www.w3.org/2000/svg">
<path d="M20.1107 9.92174C20.1107 16.5223 17.1003 19.2221 10.4997 19.2221C3.89911 19.2221 0.888672 16.5223 0.888672 9.92174C0.888672 3.32114 3.89911 0 10.4997 0C17.1003 0 20.1107 3.32114 20.1107 9.92174Z" fill="#1565C3"/>
<path d="M5.40916 7.84522H7.59357V14.8664H5.40916V7.84522ZM6.50042 4.35547C7.19951 4.35547 7.76598 4.92194 7.76598 5.62103C7.76598 6.32012 7.19951 6.88658 6.50042 6.88658C5.79944 6.88658 5.23486 6.32012 5.23486 5.62103C5.23486 4.92194 5.79944 4.35547 6.50042 4.35547Z" fill="white"/>
<path d="M8.96143 7.84514H11.053V8.80378H11.0833C11.3751 8.25247 12.0874 7.66895 13.1484 7.66895C15.3555 7.66895 15.7647 9.12206 15.7647 11.0147V14.8663H13.586V11.4524C13.586 10.6377 13.5709 9.59002 12.4512 9.59002C11.3163 9.59002 11.142 10.4767 11.142 11.3936V14.8663H8.96332V7.84514H8.96143Z" fill="white"/>
</svg>
