<svg width="20" height="20" viewBox="0 0 20 20" fill="none" xmlns="http://www.w3.org/2000/svg">
<path d="M19.9994 9.92174C19.9994 16.5223 16.989 19.2221 10.3884 19.2221C3.78778 19.2221 0.777344 16.5205 0.777344 9.92174C0.777344 3.32303 3.78778 0 10.3884 0C16.989 0 19.9994 3.32114 19.9994 9.92174Z" fill="#1565C3"/>
<path fill-rule="evenodd" clip-rule="evenodd" d="M14.632 5.37118C13.4991 4.23824 11.9929 3.61304 10.3882 3.61304C7.08223 3.61304 4.39197 6.3033 4.39008 9.60928C4.39008 10.6664 4.66668 11.699 5.19147 12.6065L4.34082 15.7135L7.51987 14.8799C8.39515 15.3573 9.38221 15.6093 10.3863 15.6093H10.3882C13.6942 15.6093 16.3845 12.9191 16.3864 9.61307C16.3882 8.01028 15.7649 6.50412 14.632 5.37118ZM10.3882 14.5976H10.3863C9.49209 14.5976 8.61492 14.357 7.84952 13.9023L7.66764 13.7943L5.78068 14.2888L6.28463 12.4492L6.16527 12.2616C5.667 11.4678 5.40177 10.5509 5.40366 9.60928C5.40556 6.86219 7.64112 4.62662 10.392 4.62662C11.7239 4.62662 12.9762 5.14573 13.9178 6.08732C14.8593 7.0289 15.3766 8.2812 15.3766 9.61307C15.3728 12.3621 13.1372 14.5976 10.3882 14.5976Z" fill="white"/>
<path fill-rule="evenodd" clip-rule="evenodd" d="M13.124 10.8634C12.9743 10.7876 12.2373 10.4257 12.1009 10.3765C11.9626 10.3272 11.8641 10.3026 11.7637 10.4523C11.6633 10.6019 11.3772 10.9392 11.2881 11.0396C11.201 11.14 11.1138 11.1513 10.9642 11.0775C10.8145 11.0017 10.3314 10.8444 9.75924 10.3348C9.31402 9.93694 9.01279 9.44625 8.92564 9.29658C8.83849 9.14691 8.91617 9.06545 8.99195 8.99156C9.06015 8.92525 9.14162 8.81726 9.2174 8.72822C9.29129 8.64107 9.31781 8.57855 9.36707 8.47814C9.41633 8.37773 9.3917 8.29058 9.35381 8.2148C9.31591 8.14091 9.01658 7.40204 8.89154 7.1027C8.77029 6.81094 8.64714 6.85072 8.55431 6.84504C8.46716 6.84125 8.36675 6.83936 8.26634 6.83936C8.16592 6.83936 8.00489 6.87725 7.86659 7.02692C7.73018 7.17659 7.3418 7.54034 7.3418 8.27732C7.3418 9.0143 7.87795 9.72665 7.95374 9.82706C8.02762 9.92747 9.01089 11.4412 10.5133 12.0891C10.8713 12.2445 11.1498 12.3354 11.3677 12.4055C11.7258 12.5192 12.0535 12.5041 12.3112 12.4643C12.5992 12.4207 13.1978 12.1024 13.3229 11.7519C13.4479 11.4014 13.4479 11.1021 13.41 11.0396C13.374 10.977 13.2736 10.9392 13.124 10.8634Z" fill="white"/>
</svg>
