<svg width="21" height="20" viewBox="0 0 21 20" fill="none" xmlns="http://www.w3.org/2000/svg">
<path d="M20.1664 9.92174C20.1664 16.5223 17.156 19.2221 10.5554 19.2221C3.95477 19.2221 0.944336 16.5223 0.944336 9.92174C0.944336 3.32114 3.95477 0 10.5554 0C17.156 0 20.1664 3.32114 20.1664 9.92174Z" fill="#1565C3"/>
<path d="M8.60579 13.8833C12.573 13.8833 14.7422 10.5962 14.7422 7.74684C14.7422 7.654 14.7403 7.56117 14.7365 7.46834C15.1571 7.16332 15.5247 6.78441 15.8126 6.35245C15.4262 6.52485 15.0113 6.64042 14.5736 6.69157C15.0188 6.42444 15.3598 6.00196 15.5209 5.49801C15.1041 5.7443 14.6437 5.92428 14.1511 6.0209C13.7571 5.60221 13.1963 5.33887 12.5768 5.33887C11.3851 5.33887 10.4208 6.30509 10.4208 7.49486C10.4208 7.66348 10.4397 7.8283 10.4757 7.98744C8.68347 7.89651 7.09394 7.03828 6.0311 5.73483C5.84543 6.05311 5.73934 6.42444 5.73934 6.81851C5.73934 7.56685 6.12014 8.22805 6.69987 8.61264C6.34559 8.60128 6.01405 8.50466 5.72229 8.34362C5.72229 8.35309 5.72229 8.36256 5.72229 8.37204C5.72229 9.41593 6.46685 10.2893 7.45201 10.4864C7.27013 10.5356 7.08068 10.5621 6.88365 10.5621C6.74534 10.5621 6.60894 10.5489 6.47821 10.5223C6.75292 11.3787 7.54863 12.002 8.49212 12.0209C7.75324 12.5988 6.82492 12.9436 5.81323 12.9436C5.63893 12.9436 5.46842 12.9341 5.2998 12.9133C6.25466 13.5252 7.3876 13.8833 8.60579 13.8833Z" fill="white"/>
</svg>
