<svg width="27" height="27" viewBox="0 0 27 27" fill="none" xmlns="http://www.w3.org/2000/svg">
<path d="M19.6436 7.253C19.5001 7.12833 19.3264 7.04586 19.1409 7.01435C18.9554 6.98283 18.765 7.00346 18.59 7.07403L6.65768 11.8798C6.44839 11.9615 6.27112 12.1116 6.15315 12.3068C6.03519 12.5021 5.98307 12.7316 6.00483 12.9602C6.02425 13.1887 6.11538 13.4046 6.26455 13.5755C6.41372 13.7464 6.61289 13.8631 6.83221 13.9081L9.86376 14.5246V18.4089C9.86365 18.6191 9.92442 18.8245 10.0384 18.9992C10.1523 19.1738 10.3142 19.3099 10.5037 19.39C10.6291 19.4417 10.7628 19.4687 10.898 19.4695C11.0338 19.47 11.1684 19.4427 11.2938 19.3892C11.4192 19.3357 11.533 19.2571 11.6284 19.158L13.309 17.4412L15.8493 19.7347C16.0368 19.9043 16.278 19.9985 16.528 19.9998C16.638 20.0021 16.7474 19.9842 16.8512 19.9468C17.0218 19.8914 17.1753 19.7914 17.2966 19.6565C17.4179 19.5217 17.5028 19.3567 17.5428 19.1779L19.9733 8.29369C20.0157 8.10588 20.0075 7.90974 19.9494 7.72638C19.8913 7.54302 19.7856 7.37935 19.6436 7.253ZM10.2581 13.5237L7.03905 12.8674L16.0626 9.22832L10.2581 13.5237ZM10.898 18.4089V15.267L12.5269 16.7385L10.898 18.4089ZM16.5345 18.9392L11.2082 14.1335L18.8809 8.45278L16.5345 18.9392Z" fill="url(#paint0_linear_1164_1020)"/>
<path d="M5.4 2.7C4.68392 2.7 3.99716 2.98446 3.49081 3.49081C2.98446 3.99716 2.7 4.68392 2.7 5.4V21.6C2.7 22.3161 2.98446 23.0028 3.49081 23.5092C3.99716 24.0155 4.68392 24.3 5.4 24.3H21.6C22.3161 24.3 23.0028 24.0155 23.5092 23.5092C24.0155 23.0028 24.3 22.3161 24.3 21.6V5.4C24.3 4.68392 24.0155 3.99716 23.5092 3.49081C23.0028 2.98446 22.3161 2.7 21.6 2.7H5.4ZM5.4 0H21.6C23.0322 0 24.4057 0.568927 25.4184 1.58162C26.4311 2.59432 27 3.96783 27 5.4V21.6C27 23.0322 26.4311 24.4057 25.4184 25.4184C24.4057 26.4311 23.0322 27 21.6 27H5.4C3.96783 27 2.59432 26.4311 1.58162 25.4184C0.568927 24.4057 0 23.0322 0 21.6V5.4C0 3.96783 0.568927 2.59432 1.58162 1.58162C2.59432 0.568927 3.96783 0 5.4 0Z" fill="url(#paint1_linear_1164_1020)"/>
<defs>
<linearGradient id="paint0_linear_1164_1020" x1="13" y1="7" x2="13" y2="20" gradientUnits="userSpaceOnUse">
<stop stop-color="#1971D9"/>
<stop offset="1" stop-color="#043A7A"/>
</linearGradient>
<linearGradient id="paint1_linear_1164_1020" x1="13.5" y1="0" x2="13.5" y2="27" gradientUnits="userSpaceOnUse">
<stop stop-color="#1971D9"/>
<stop offset="1" stop-color="#043A7A"/>
</linearGradient>
</defs>
</svg>
