<svg width="55" height="55" viewBox="0 0 55 55" fill="none" xmlns="http://www.w3.org/2000/svg">
<path fill-rule="evenodd" clip-rule="evenodd" d="M23.6307 48.3815L42.2014 37.7209L42.2014 16.3998L23.6307 5.73928L5.05996 16.3998L5.05996 37.7209L23.6307 48.3815ZM0.0611508 40.5905L23.6307 54.1206L47.2002 40.5905L47.2002 13.5303L23.6307 0.000135251L0.0611532 13.5303L0.0611508 40.5905Z" fill="url(#paint0_linear_817_5790)"/>
<path fill-rule="evenodd" clip-rule="evenodd" d="M31.4074 5.74012L12.8367 16.4007V37.7218L31.4074 48.3823L49.9781 37.7218V16.4007L31.4074 5.74012ZM54.9769 13.5311L31.4074 0.000976562L7.83789 13.5311V40.5913L31.4074 54.1214L54.9769 40.5913V13.5311Z" fill="url(#paint1_linear_817_5790)"/>
<defs>
<linearGradient id="paint0_linear_817_5790" x1="23.6307" y1="54.1206" x2="23.6307" y2="0.000131436" gradientUnits="userSpaceOnUse">
<stop stop-color="#043A7A"/>
<stop offset="1" stop-color="#4B9EFF"/>
</linearGradient>
<linearGradient id="paint1_linear_817_5790" x1="31.4074" y1="0.000976562" x2="31.4074" y2="54.1214" gradientUnits="userSpaceOnUse">
<stop stop-color="#0E478A"/>
<stop offset="0.0001" stop-color="#0E478A"/>
<stop offset="1" stop-color="#4B9EFF"/>
</linearGradient>
</defs>
</svg>
