<svg width="38" height="38" viewBox="0 0 38 38" fill="none" xmlns="http://www.w3.org/2000/svg">
<path d="M24.1508 20.6637C24.1508 20.6637 21.0114 17.548 18.9999 15.5516M18.9999 15.5516C16.9883 17.548 13.849 20.6637 13.849 20.6637M18.9999 15.5516C18.9999 23.5372 18.9999 36 18.9999 36M9.91547 25.7758C8.22429 25.7777 5.55191 25.1602 4.291 24.0416C3.03009 22.9231 2.22936 21.3821 2.0422 19.714C1.85504 18.0458 2.29463 16.3678 3.27674 15.0014C4.25884 13.635 6.75437 12.6762 8.40455 12.3088C7.9271 10.0989 8.35377 7.79115 9.5907 5.8934C10.8276 3.99564 12.7735 2.66328 15.0003 2.18943C17.227 1.71557 19.5522 2.13903 21.4644 3.36665C23.3765 4.59427 24.719 6.5255 25.1964 8.73547H25.3681C29.5355 8.73335 31.5893 9.5164 33.1692 10.9326C34.7492 12.3488 35.7426 14.2971 35.9565 16.3994C36.1705 18.5016 35.5897 20.6077 34.3271 22.3089C33.0644 24.0101 31.2099 25.1849 29.1235 25.6054L9.91547 25.7758Z" stroke="#003370" stroke-width="2.5" stroke-linecap="round" stroke-linejoin="round"/>
</svg>
