<svg width="38" height="38" viewBox="0 0 38 38" fill="none" xmlns="http://www.w3.org/2000/svg">
<path d="M24.2069 20.853C24.2069 20.853 21.0596 17.7057 19.043 15.689M19.043 15.689C17.0263 17.7057 13.879 20.853 13.879 20.853M19.043 15.689C19.043 23.7556 19.043 36.3448 19.043 36.3448M9.93554 26.0169C8.24007 26.0188 5.56092 25.395 4.29681 24.2651C3.03271 23.1353 2.22994 21.5787 2.04231 19.8936C1.85468 18.2086 2.29538 16.5135 3.27997 15.1332C4.26457 13.7529 6.76643 12.7845 8.42078 12.4134C7.94212 10.181 8.36988 7.84988 9.60995 5.93288C10.85 4.01588 12.8008 2.67001 15.0332 2.19135C17.2656 1.71269 19.5967 2.14044 21.5137 3.38051C23.4307 4.62058 24.7766 6.57139 25.2552 8.80377H25.4274C29.6053 8.80163 31.6643 9.59262 33.2483 11.0232C34.8322 12.4538 35.8281 14.4218 36.0426 16.5454C36.2571 18.6689 35.6749 20.7964 34.409 22.5148C33.1432 24.2333 31.2839 25.42 29.1923 25.8448L9.93554 26.0169Z" stroke="white" stroke-width="2.5" stroke-linecap="round" stroke-linejoin="round"/>
</svg>
