<svg width="188" height="28" viewBox="0 0 188 28" fill="none" xmlns="http://www.w3.org/2000/svg">
<path d="M6.99883 28C4.36159 28 2.53581 27.3349 1.52148 26.0048C0.507161 24.6522 0 22.7134 0 20.1884V0.27053H2.502V20.256C2.502 22.0596 2.81756 23.4573 3.4487 24.4493C4.10237 25.4412 5.28575 25.9372 6.99883 25.9372C8.64429 25.9372 9.80512 25.4412 10.4813 24.4493C11.1576 23.4348 11.4957 22.037 11.4957 20.256V0.27053H13.9638V20.1884C13.9638 22.6683 13.4341 24.5958 12.3747 25.971C11.3379 27.3237 9.54591 28 6.99883 28Z" fill="#1971D9"/>
<path d="M21.8454 2.2657H16.6724V0.27053H29.4529V2.2657H24.4151V27.6618H21.8454V2.2657Z" fill="#1971D9"/>
<path d="M32.5318 0.27053H35.1014V27.6618H32.5318V0.27053Z" fill="#1971D9"/>
<path d="M39.9593 0.27053H42.5289V25.7343H50.3054V27.6618H39.9593V0.27053Z" fill="#1971D9"/>
<path d="M52.9371 0.27053H55.5067V27.6618H52.9371V0.27053Z" fill="#1971D9"/>
<path d="M63.7457 2.2657H58.5727V0.27053H71.3531V2.2657H66.3153V27.6618H63.7457V2.2657Z" fill="#1971D9"/>
<path d="M78.726 18.5652L72.5386 0.27053H75.0406L79.977 15.4879L84.7105 0.27053H87.2463L81.228 18.5652V27.6618H78.726V18.5652Z" fill="#1971D9"/>
<path d="M100.495 2.2657H95.322V0.27053H108.103V2.2657H103.065V27.6618H100.495V2.2657Z" fill="#1971D9"/>
<path d="M117.605 28C115.036 28 113.21 27.2673 112.128 25.8019C111.069 24.3366 110.539 22.2625 110.539 19.5797V8.21739C110.539 5.55717 111.08 3.52818 112.162 2.13043C113.244 0.710145 115.058 0 117.605 0C120.107 0 121.899 0.710145 122.981 2.13043C124.063 3.55072 124.604 5.57971 124.604 8.21739V19.6135C124.604 22.2963 124.075 24.3704 123.015 25.8358C121.956 27.2786 120.153 28 117.605 28ZM117.605 25.9372C119.273 25.9372 120.423 25.4525 121.054 24.4831C121.685 23.4911 122.001 22.0483 122.001 20.1546V7.74396C122.001 5.85024 121.685 4.42995 121.054 3.48309C120.446 2.53623 119.296 2.0628 117.605 2.0628C115.892 2.0628 114.72 2.53623 114.089 3.48309C113.458 4.40741 113.142 5.8277 113.142 7.74396V20.1546C113.142 22.0709 113.458 23.5137 114.089 24.4831C114.72 25.4525 115.892 25.9372 117.605 25.9372Z" fill="#1971D9"/>
<path d="M128.844 0.27053H131.447V14.744L138.75 0.27053H141.219L135.606 12.0386L142.436 27.6618H139.9L133.882 13.9662L131.447 18.43V27.6618H128.844V0.27053Z" fill="#1971D9"/>
<path d="M144.825 0.27053H154.731V2.2657H147.428V12.5459H153.379V14.4396H147.428V25.7343H154.799V27.6618H144.825V0.27053Z" fill="#1971D9"/>
<path d="M158.33 0.27053H160.19L168.913 21.5411V0.27053H171.144V27.6618H169.318L160.561 6.15459V27.6618H158.33V0.27053Z" fill="#1971D9"/>
<path d="M181.711 28C179.57 28 177.936 27.3462 176.809 26.0386C175.682 24.7085 175.039 22.8824 174.881 20.5604L177.147 19.8841C177.35 21.8229 177.778 23.3108 178.432 24.3478C179.108 25.3849 180.212 25.9034 181.745 25.9034C184.315 25.9034 185.599 24.5845 185.599 21.9469C185.599 20.8196 185.329 19.8277 184.788 18.971C184.27 18.1143 183.424 17.1337 182.252 16.029L177.417 11.3961C176.538 10.5845 175.896 9.73913 175.49 8.8599C175.107 7.95813 174.915 6.96618 174.915 5.88406C174.915 4.01288 175.467 2.57005 176.572 1.55556C177.699 0.518519 179.209 0 181.103 0C183.131 0 184.687 0.541063 185.768 1.62319C186.85 2.70531 187.482 4.47504 187.662 6.93237L185.464 7.50725C185.329 5.65862 184.934 4.28341 184.281 3.38164C183.65 2.47987 182.59 2.02899 181.103 2.02899C179.93 2.02899 178.995 2.33333 178.296 2.94203C177.598 3.55072 177.248 4.4525 177.248 5.64734C177.248 6.41385 177.395 7.10145 177.688 7.71014C177.981 8.31884 178.477 8.96135 179.175 9.63768L184.01 14.2029C185.25 15.3752 186.219 16.5813 186.918 17.8213C187.639 19.0386 188 20.3575 188 21.7778C188 23.7617 187.425 25.2947 186.276 26.3768C185.126 27.4589 183.605 28 181.711 28Z" fill="#1971D9"/>
</svg>
